<?xml version="1.0" encoding="UTF-8"?>
<svg id="Layer_2" data-name="Layer 2" xmlns="http://www.w3.org/2000/svg" viewBox="0 0 400.64 494.69">
  <defs>
    <style>
      .cls-1 {
        fill: #5d1b4e;
      }
    </style>
  </defs>
  <g id="Layer_1-2" data-name="Layer 1">
    <g>
      <path class="cls-1" d="M346.67,361.37c.66,1.37-1.59,6.21-2.31,7.82-2.51,5.68-6.33,13.35-9.6,18.59-.76,1.22-3.63,5.84-3.95,2.32,3.67-6.92,7.46-13.81,10.68-20.93.93-2.06,1.56-4.48,2.73-6.63.41-.75,1.72-2.66,2.44-1.17Z"/>
      <path class="cls-1" d="M172.8,493.58c.39.82-2.61.94-2.92.97-3.55.3-8.16.06-11.74-.23-1.86-.15-7.22-.52-8.65-1.11-.49-.21-.62-.63-.65-1.11.07-.57.51-.82,1.03-.89,1.3-.17,4.78.59,6.48.67s3.43-.16,5.19-.02c3.68.28,7.6,1.17,11.27,1.73Z"/>
      <path class="cls-1" d="M14.73,227.88c-.81,2.87-2.26,5.82-3.09,8.64-.38,1.29-.47,3.92-.9,4.82-.58,1.21-2.44,2.53-2.33.03.13-2.81,2.32-10.55,4.07-12.68.3-.37,2.06-1.34,2.25-.81Z"/>
      <path class="cls-1" d="M183.99,494.23c.58-3.19,3.33-1.72,5.44-2.04,1.31-.2,2.66-1.37,4.05-1.52,1.21-.13,3.63.28,2.34,1.93-2.03,2.59-8.89,1.63-11.82,1.63Z"/>
      <path class="cls-1" d="M394.39,218.48l.82-7.29c1.53.56,2.58,1.65,2.33,3.33-.21,1.42-1.32,4.98-3.16,3.96Z"/>
      <path class="cls-1" d="M150.25.93l-1.79,1.59-5.13,1.88c1.5-2.2,4.1-4.3,6.92-3.47Z"/>
      <path class="cls-1" d="M250.59,475.74c-.19.67-.38,1.09-.94,1.55-.73.58-5.56,2.07-4.12.22.53-.68,4.71-2.64,5.06-1.76Z"/>
      <path class="cls-1" d="M134.34,489.31l.52-.84,4.77.55c-.59,2.31-3.95,1.66-5.29.29Z"/>
      <path class="cls-1" d="M142.5,490.51c1.39.24,3.96-.36,4.78,1.04-.21,1.21-5.55.94-4.78-1.04Z"/>
      <path class="cls-1" d="M392.33,91.55c-1.37-.75-3.07-1.65-4.09-2.83-.34-.4-.73-.28-.28-.98,1.61.64,4.69,1.65,4.37,3.82Z"/>
      <g>
        <path class="cls-1" d="M193.62,454.41c.34,3.52,5.25.38,7.12.13,1.71-.23,3.3.17,4.96.02,2.53-.22,5.9-1.69,8.21-2.8,1.16-.55,4.6-3.44,5.73-1.73.3.46-.4,2.32.53,2.47.6.1,3.85-1.94,3.68-2.66-2.51-1.82-3.97-2.31-.71-4.27,2.02-1.21,4.6-1.36,6.42-2.35,5.6-3.07,11.06-9.23,16.12-13.2,2.49-1.95,5.88-3.47,8.1-5.37,1.57-1.35,2.6-3.37,3.98-4.58,1.15-1,2.68-.95,3.73-1.7,3.69-2.64,10.13-11.77,13.35-15.62,1.54-1.84,3.57-3.59,5.07-5.49,1.09-1.38,2.68-4.47,3.64-5.31.81-.71,2.27.05,3.12-1.48,1.27-2.32-.69-3.85-.31-4.94.22-.63,2.02-2.04,2.64-2.86,4.28-5.68,6.43-10.7,9.62-16.81.49-.94,6.02-8.23,4.36-8.86-1.68.55-1.31,2.16-1.93,3.54-1.4,3.12-4.68,5.78-6.31,8.98-.72,1.41-1.09,3.08-1.81,4.42-2.8,5.24-6.43,9.96-10.27,14.45l-.87-.36c.69-4.38,4.31-7.57,6.01-11.61.93-2.22,2.37-6.23,3.03-8.51.58-2.02-.08-4.47,1.77-5.97l.94.11c1.27.91.1,3.6,1.41,3.35,1.74-.33,1.18-2.93,1.47-3.52s1.36-1.25,1.93-2.39c.9-1.81,1.09-3.8.73-5.78-1.12.24-.7,1.34-1.08,2.08-.53,1.07-2.08,2.28-3.23,1.38-.36-.65,2.55-7.6,3.42-8.41.61-.57,2.31-.94,2.51.03l-.82,2.46c1.75.89,3.41-2.73,4.06-4.08,3.36-6.98,5.68-14.44,8.55-21.56.84-2.09,2.53-4.03,2.65-6.51.59-.78,2.09.09,1.83,1.39-.34,1.74-1.78,4.13-2.37,5.98-.28.86-.1,1.73-.35,2.63-.26.91-2.22,4.59-2.11,4.88,1.01,2.7,3.41-3.31,3.59-4.28.21-1.07-.88-1.37-.26-2.87.93-2.22,2.16.04,2.75-1.65.57-1.61-1.09-4.2-.83-4.87l.79-.52,2.09,1.15c-1.1-3,1.65-3.41,2.45-5.43.52-1.32.29-3.71.77-5.24.51-1.64,1.63-3.05,2.22-4.65,1.04-2.82,1.97-5.67,3.02-8.5.68-1.85.69-4.25,1.73-6.07l-1.41.02c-.94,2.61-1.57,5.72-2.87,8.17-1.63,3.08-3.48,6.17-4.86,9.46-.75,1.78-1.37,6.25-3.23,6.88-.35.12-.63.33-.82-.16-.23-.39.28-2.34.46-2.92.93-2.97,2.63-8.28,4-10.91.51-.98,1.61-1.69,1.75-2.06.29-.74.62-6.58,1.17-8.59,2.24-8.18,5.3-16.78,7.98-24.79.5-1.5.46-4.8.84-6.75.88-4.5,1.92-9.3,3.7-13.48.94.98,1.26,1.56,1.18,2.96-.16,2.9-1.16,7.96-1.79,10.92s-2.06,5.85-2.08,8.95c.87.43,1.5-.49,1.85-1.16,1.28-2.41,3.75-11.99,4.03-14.87.12-1.27-.34-2.22-.19-3.38.41-3.31,2.88-8.16,3.89-11.58,1.54-5.23,3.58-12.93,4.4-18.24.24-1.57.83-7.39.42-8.6-.11-.33-.35-1.01-.79-.65-.44,2.04-.51,4.13-1.07,6.16-.71,2.55-1.03,3.81-1.6,6.39-1.42,6.39-2.66,14.46-4.91,20.46-.29.76-1.04,2.34-2.08,2.11-.73-.53.28-6.24.62-7.22.9-2.61,1.06-1.4,1.17-4.45.09-2.56,1.82-7.32,2.48-9.98.21-.83.06-2.26.22-2.72.23-.63,1.01-.86,1.33-1.3.78-1.07.29-5.22.58-7.05.43-2.8,1.63-5.63,2.1-8.33s-.09-6.02.37-8.33c.18-.91.87-1.88.91-2.62.04-.67-1.55-1.75-.57-3.23-.91-.19-14.89-2.15-14.49-.58l.8,1.27c-1.55,9.35-3.37,18.62-5.06,27.94-.6,3.33-.63,6.93-1.48,10.3-1.35,5.37-3.56,10.82-5.02,16.28-3.17,11.9-4.81,23.55-8.6,35.41-2.2,6.89-4.55,13.91-6.91,20.8-1.09,3.18-2.57,8.53-6.25,9.13-.38-.25.17-2.36.31-2.86,2.09-7.1,5.81-14.01,7.81-21.44,3.31-12.33,7.35-25.86,9.63-38.32.41-2.23.3-4.64.76-6.77.76-3.48,2.3-7.24,3.18-10.78.33-1.33,2.05-8.08,1.48-8.81-.29-.38-1.36-1.1-1.63-.29-.38,1.14-.08,3.6-.39,5.12-1.26,6.28-2.92,14.12-4.84,20.16-.38,1.21-1.68,5.84-3.11,4.31-.39-.53.76-5.86,1.03-6.88.88-3.29,2.08-7.3,3.13-10.51.35-1.07,1.5-2.82,1.64-3.47.07-.33-.29-2.82-.2-3.84.2-2.3,1.02-4.91,1.12-7.17.02-.37-.06-2.64-.78-2.14-1.53,2.45-1.03,5.21-1.48,7.82-2.47,14.18-8.13,27.72-11.3,41.77-.33,1.45-.29,3.93-.69,5.01-.31.83-1.12,1.29-1.52,2.13-2,4.21-5.36,18.89-7.79,21.07-.36.33-.56.49-1.03.19l1.66-5.92c-.83-.61-1.47.97-1.7,1.58-1.69,4.52-2.81,9.43-4.55,14.14-1.86,5.02-3.42,10.25-5.07,15.29-2.71,8.27-8.52,16.46-11.3,24.88-.22.3-.91,0-1.13.33-.35.49-1.42,5.18-1.96,6.49-1.22,2.97-5.72,8.13-6.19,10.33-.08.38-.04.61.16.93,1.01-.35,2.07-.97,2.64-1.9,2.48-4.03,4.02-8.3,6.03-12.47,1.18-2.43,3-4.54,4.15-6.99,1.73-3.68,3.81-11.55,6.6-14.09,1.86-1.69,2.21.66,1.84,2.28-1.03,4.5-3.3,5.25-5.06,8.68-.84,1.63-3.46,6.36-.67,6.79.46-.8-.06-1.6.3-2.44.34-.79,2-3.58,2.55-4.49,1.65-2.74,3.54-1.9,2.43,1.56-.59,1.82-3.71,9.87-5.01,10.58-.42.23-1.55-.33-1.87.55-.79,2.92-3.06,5.69-3.77,8.56-.21.85.13,1.47.02,2.22-.41,2.83-3.05,4.47-4.6,6.65,2,1.35.12,3.05-1.06,4.47-1.25,1.52-3.3,1.9-1.74,4.32.59-.83,3.29-5.89,4-3.01s-3,5.14-4.42,6.93c-2.62,3.3-5.7,8.33-8,11.92-2.46,3.83-6.52,6.14-9.63,9.29-.83.83-1.19,1.94-2.25,2.83-.7.59-1.64.78-2.17,1.29-1.46,1.4-1.87,3.97-4.01,5.07-3.3,1.69-3.49,2.25-6.3,4.35-1.76,1.31-13.01,7.82-13.22,8.99-.12.66.93,1.01,1.59.84,1.32-.34,4.42-3.88,5.74-4.22.48-.12,1.46.22,2.17.14,2.21-.25,2.79-2.13,4.23-3.42,1.87-1.68,5.22-2.92,7.26-4.43,2.67-1.97,7.76-6.77,10.15-9.24,2.48-2.57,4.53-5.76,7.26-8.17,2.04.75.68,2.09-.19,3.3-6.92,9.63-18.77,17.76-28.51,24.14-3.88,2.54-3.65,3.27-8.37,4.74-3.09.96-4.86,3.54-7.46,5.11-1.2.73-2.74,1.06-3.95,1.76-3.05,1.75-7.36,5.03-10.45,6.22-1.18.46-2.77.55-4.03.99-2.28.8-4.43,2.2-6.91,2.37-1.95.14-5.1-.9-6.59-.5-.95.26-1.94,1.79-2.54,2.03-.77.31-2.26-.37-2.84-.26-.32.06-.67.81-1.32.73-.7-.17-.94-.9-1.53-1.25-2.89-1.69-4.74.64-7.6.69-3.91.08-8.98-.86-13.1-1.09-2.21-.12-4.5.31-6.67.05-2.04-.24-5.74-1.66-7.72-.68-.58.29-.38.27-.14.81.93.09,2.36-.32,3.19-.1.32.08,4.04,1.94,4.25,2.11.64.51.59,1.3-.08,1.74-.69.45-8.91-1.2-10.37-1.52-1.87-.41-3.91-.85-5.76-1.31-3.04-.74-8.72-1.48-5.19-5.44-2.78-1.34-4.95-1.7-2.86,1.85-.21,1.81-3.93-.9-5.18-1.25-1.54-.43-3.58-.26-5.13-.99-.77-.36-1.24-1.15-1.88-1.44-1.19-.54-3.4-.23-2.2-2.59,1.84.17,3.26,1.44,5.19,1.99.79.23,2.63.54,3.41.44,1.52-.19-.24-1.18-.86-1.48-2.81-1.37-5.98-1.89-8.95-3.58-1.36-.77-2.24-2.6-3.62-3.15-.62-.25-5.64-1.46-5.89-1.3,1.46,4.61,6.68,3.3,9.51,6.19.2.87-.83,1.21-1.48,1.24-1.32.07-5.69-1.48-6.87-2.12-1.64-.89-1.27-2.17-1.54-2.36-.5-.35-1.31-.39-1.94-.85-1.41-1.03-3.14-4.29-5.07-4.65-.8-.15-1.94.28-2.96.06-2.37-.5-5.76-3.22-6.97-5.31-.34-.59-.74-1.7.2-1.81,1.76,1.34,3.74,2.31,5.56,3.55,1.06.72,4.39,4.49,5.05,1.56.18-.8-.74-1.79-.31-2.74l-.66-.08-.67,1.6c-.15.03-.3-.06-.44-.11-.36-.11-5.54-4.1-6.07-4.6-.94-.9-1-2.19-2.09-2.82-2.47-1.45-3.02,1.19-4.82.83-1.12-.22-4.81-3.74-5.5-4.81-1.25-1.94-.82-3.83-.76-5.99-.5-.78-2.34,1.22-2.84,1.31-1.57.28-3.1-2.53-4.21-3.6-1.95-1.86-8.34-6.86-8.41-9.52-.06-2.08,3.99-1.57,2.43-3.27-1.25-1.36-2.68.87-3.65.1-.39-.31.16-2.73-1.44-3.36-1.29-.51-1.82.25-2.83-1.51-1.52-2.64-.74-7.05-5.18-7.56,1.74-2.1.07-2.36-.92-4.19-2.44-4.49-3.18-9.78-4.79-14.54-1.82-5.38-6.48-14.44-5.53-19.91.31-1.82,1.92-3.53-1.05-4.37l-.83,3.82c-.64-.19-1.06-.37-1.34-1.03-.14-.32-.03-6.52.1-7,.24-.85,1.01-1.33,1.09-2.16.06-.57-.98-2.26-1.15-3.24-.18-1.07-.29-4.14-.3-5.32-.03-2.86.29-5.49,1.23-8.24l1.8-.99c.41-1.98-.56-5.52.96-7.01.36-.35.9-.11,1.28-.5,2.14-2.15,1.45-4.94,1.58-7.52.05-1.02.71-2.77.54-3.64-.1-.52-1.78-1.94-2.09-2.7-.26-.64-.45-3.37-.45-4.2,0-2.35,1.41-13.55,2.13-15.54.25-.7.79-1.52,1.53-.92.32.26.05,3.93.88,3.48,1.46-4.4-.31-10.03,3.33-13.57l-2.79,1.33-.68-.5c-.77-4.33,2.6-6.98,3.66-10.94.51-1.9.3-4.44.63-6.46,1.12-6.9,3.98-16.04,6.49-22.6.54-1.42.28-3.16,2.36-3.74.53.91.67,1.75.42,2.79-.61,2.5-1.82,5.29-2.7,7.73,2.68.39,2.37-2.1,3.09-3.41.29-.53,1.02-.82,1.2-1.29.33-.86-.85-1.72-1.03-2.52-.14-.6.13-1.36.02-1.99-.13-.71-.72-1.08-.78-1.46-.22-1.36,2.15-5.79,2.67-7.53.58-1.91.62-4.23,1.12-6.18,1.69-6.56,5.73-14.18,8.48-20.47,2.81-6.42,5.07-12.94,8.66-19.04.32-.54,1.48-2.55,1.72-1.04.57,3.54-2.8,7.54-4.25,10.72-1.5,3.3-2.26,6.74-3.62,10.02-2.45,5.94-6.03,11.46-8.37,17.45-1.02,2.62-3.38,8.41-3.8,10.79-.09.48.06,4.5.27,4.58,3.8-2.18,1.77-4.84,1.69-8.14l2.05.09c.55-2.08,1.71-3.93,2.36-5.96.93-2.91,1.6-10.15,3.85-11.79.71-.52,3.71-1.38,3.96-1.75.4-.59-.92-1.55-1.13-2.09-.77-1.96,1.31-2.26,2.09-3.74.83-1.59.46-3.39,1.18-4.7.35-.65,1.26-1.17,1.66-1.95,3.15-6.2,6.5-13.37,10.02-19.32.48-.82,1.65-1.81,1.94-2.48.31-.7-.22-1.29.08-1.97,1.01-2.24,3.29-.81,3.66-1.35.49-.72-1.77-1.93-2.01-2.85-.39-1.55,1.94-3.32,2.78-4.56.94-1.4,1.94-3.7,2.88-4.83.65-.79,2.47-1,2.79-1.51.25-.38.53-3.55.83-4.48,1.79-5.62,7.71-11.7,10.8-16.92.97-1.64,1.63-3.5,2.52-5.1.26-.48,3.29-4.45,2.69-4.69-1.22-.55-3.36,1.95-4.23.59-.69-1.08,2.28-2.5,2.53-3.69l1.13.62c.35-.72-.73-.81-.45-1.55.36-.94,1.65-1.76,2.12-2.67.44-.84.25-1.79,1.01-2.5,1.58.33,1.76,3.35,2.89,3.59l2.05-1.62-17.81-14.38c-1.14-.28-2.86,1.29-3.6,2.05-4.14,4.28-6.57,9.73-9.56,14.63-1.21,1.99-3.1,3.39-4.46,5.19-1.77,2.35-3.12,5.2-4.45,7.81,2.18.73,2.93,1.43,1.67,3.59-.51.87-1.65,1.93-2.69,1.22-.42-.29.59-3.49-.41-2.96-5.92,10.93-14.17,20.65-19.63,31.85-5.06,10.37-9.03,21.37-13.56,31.95-1.29,3.01-3.28,6.08-4.48,9.02-.73,1.8-.96,4.14-1.66,5.9-1.03,2.61-3.09,4.93-2.88,8.04.38.83,1.73-1.26,2.26-1.36,1.52-.29.87,2.71.31,3.59-.82,1.3-2.56.28-3.09.91l-2.51,4.53c-2.04,4.23-3.23,10.4-5.78,14.2-.45.66-1.18,1.73-1.74.63-.83-1.63,4.47-9.66,2.94-10.92-.51-.42-1.41-.5-2.04-1.09-.45-.43-.16-1.4-.74-1.8-.6.75.21,1.45.16,2.04-.37,3.97-4.47,9.04-4.3,12.5.05,1.06,1.04,1.88.76,3.15-.16.72-.83,1.33-1.07,2.18-1.5,5.23-2.02,9.85-2.77,15.08-.49,3.38-1.8,6.59-2.01,10.03-.12.21-2.19-.28-2.84-.19-1.4.19-3.41,2.88-3.56-.52-.06-1.4,1.21-6.44,1.64-8.13,7.65-30.76,19.99-60.28,33.91-88.65,12.51-25.5,26.59-50.7,41.69-74.73,1.1-1.76,5.51-7.14,5.64-8.53.03-.26-.13-.76-.33-.72-.47,1.01-1.5-.09-2.5.82-1.33,1.21-4.5,6.77-5.69,8.67-13.03,20.83-25.47,42.04-36.68,63.91-.66,1.29-3.4,5.14-2.86,1.49.99-6.65,7.69-16.02,11.07-22.16,6.86-12.49,13.53-24.73,21.07-36.83,16.55-26.57,36.98-50.01,58.02-73.03,3.3-3.61,4.04-5.63,8.67-8.07,10.41-5.47,16.28-4.26,25.52,2.66,8.4,6.28,19.38,15.42,27.05,22.55,2.73,2.54,9.74,9.4,9.63,13.2-.07,2.43-2.07,5.86-3.4,7.91-5.27,8.08-12.7,14.3-19.02,21.44-8.04,9.1-13.69,21.16-23.5,28.3-2.74,1.99-5.7,3.59-8.66,5.2,1.16,1.12.76,1.81.1,3.11-2.19,4.35-6.57,10.22-9.37,14.5-15.98,24.36-31.75,47.42-43.63,74.26-15.93,36-28.45,67.4-31.07,107.22-.39,5.86.5,10.52.85,16.23.42,6.84-.14,12.78,2.01,19.45,2.7,8.4,6.43,17.13,10.47,24.98,16.07,31.25,44.03,53.51,80.49,54.69,15.7.51,28.51-2.16,43.1-7.5,18.42-6.74,43.62-30.7,53.7-47.36,14.01-23.13,24.63-49.38,33.22-74.98,1.63-4.85,3.01-8.17,4.28-13.24.91-3.64,2.36-5.08,3.44-7.9,1.04-2.72,1.63-6.99,2.6-10.05,2.26-7.13,5.93-15.07,7.38-22.25,3.4-16.79,6.97-33.01,8.43-50.19.14-1.6-.24-3.41-.05-4.93.33-2.7,1.96-5.5,2.15-8.11.11-1.54-3.58-8.83-4.27-11.29-2.4-8.58,2.14-14.35,2.94-22.82.55-5.82-.33-11.07-.19-16.51.13-5.04,2.64-11.25,2.46-15.92-.09-2.26-1.54-4.55-1.9-7.11-.32-2.3-.48-11.62.21-13.49,1.61-4.38,10.71-5.8,14.84-5.86,7.5-.1,17.26.69,24.84,1.32,2.58.21,16.09,1.36,16.69,3.61l-.23.96c-5.49-.29-10.93-1.19-16.42-1.59-3.75-.27-7.54-.17-11.3-.35-4.14-.19-8.78-1.56-12.87.31,3.01.37,6.05-.08,9.06.06,2.6.12,6.79-.11,7.85,2.7-2.02,1.28-4.25.25-6.37.16-.66-.03-2.59-.18-2.06,1,.63.9,7.53.54,8.42.09.58-.3.52-1.04.89-1.51.64-.8,5.25-1.06,6.47-1.08,2.29-.05,12.74.57,13.82,2.16l-.08.98c-.49.61-6-.09-7.21-.07-.22,0-2.67-.08-2.33.63,5.66,1.66,13.99.91,19.16,3.53,5.53,2.8,7.82,6.67,9.89,12.22.85-1.82-.22-3.99-1.04-5.62-.62-1.23-3.94-5.38-3.97-5.73-.07-.88.54-1.37,1-2.03,3.31,2.04,5.63,5.43,6.75,9.11,1.49,4.89-.1,8.53-.47,13.33-.77,9.86-.38,20.37-.84,30.33-.88,19.04-3.31,37.93-5.93,56.8-3.42,24.66-10.33,48.64-16.46,72.72-3.63,14.27-8.39,27.24-13.54,41-3.16,8.43-7.39,22.81-12.1,30-.59.9-1.85,1.68-2.08,2.12-.41.78.14,1.59.03,2.45-.39,3.15-5.83,13.25-7.67,16.61-26.15,47.65-62.56,98.1-118.54,110.88-3.6.82-7.42,1.86-11.11,1.53l.71-.95c16.63-4.69,32.74-9.84,47.57-19,27.86-17.2,52.79-48.71,68.96-76.98,4.82-8.43,8.83-17.26,13.45-25.76.8-1.48,3.07-4.15,3.48-5.21.33-.84-.05-2.05.28-3.05.79-2.37,3.25-6.05,4.36-8.59,18.02-41.31,32.63-92,38.99-136.67.73-5.1,1.5-10.25,1.52-15.39-1.61-.54-1.79,2.36-1.96,3.45-1.35,8.54-.73,19.62-3.31,27.93-.94,3.01-.98,2.54-1.32,5.77-.33,3.18-.97,4.33-1.72,7.18-7.27,27.73-14.64,54.69-24.59,81.66-11.04,29.93-26.17,61.84-44.6,88.14-11.29,16.11-25.37,31.6-40.32,44.49-6.67,5.74-12.99,9.74-20.96,13.47-4.39,2.06-7.35,3.41-11.65,5.75-10.41,5.68-22.43,7.17-33.88,9.34-6.77,1.28-13.55,3.09-20.46,3.69-1.96.17-7.75.81-8.14-1.79-.64-4.28,6.28-1.88,8.61-1.72,5.4.39,11.97-1.29,17.09-2.9l-.2-.91-.79-.28c-5.97.74-12.49.31-18.37,1.09-1.87.25-6.64.97-7.59,2.57-.84,1.42.93,1.59.06,2.93-1.53,1.09-12.89-.72-15.35-1.1-8.67-1.33-16.8-3.41-25.33-5.32-8.96-2.01-16.01-3.29-24.75-6.82-7.63-3.09-12.55-7.12-19.24-11.07-6.18-3.65-11.37-6.16-17.23-10.68-7.24-5.58-20.39-16.22-26.02-23-4.03-4.86-7.63-11.3-11.39-16.41-2.09-2.84-4.41-4.82-6.14-8.01-3.05-5.63-7.14-14.05-9.35-20.01-2.61-7.05-3.03-12-6.53-19.24-2.42-5-4.49-23.95-5.24-30.44-.99-8.5-1.02-17.55-.38-26.09.56-7.5.9-15.01,1.62-22.49.51-5.32,1.52-9.72,2.34-14.88.3-1.9.32-8.32,1.63-9.28.89-.66,1.64-.09,1.85.85.41,1.89-1.26,7.93-1.21,10.68.01.73-.16,2.01.74,2.28.37-2.66,1.22-5.4,1.66-8.02.42-2.55-.63-7.51,3.42-6.44.47.65-1.41,9.6-1.73,11.16-.71,3.52-.62,3.63-.76,7.01-.22,5.36-1.45,10.02-2.01,15.23-.34,3.14-.32,6.61-.26,9.76l-.94.18c-.42-.12-.58-.3-.77-.68-.15-.3-.38-5.61-.41-6.51-.04-1.15.68-2.51-.28-3.47-.98,1.92-.03,4.28-.23,6.41-.25,2.79-1.26,5.7-1.58,8.61-1.33,11.89.16,31.66,2.85,43.36,1.53,6.65,4.46,13.72,6.15,20.39,1.28,5.03,1.98,9.51,4.29,14.38,1.07,2.25,2.67,4.18,3.72,6.45.55-.75-.12-2.81-.58-3.71-.48-.94-1.71-1.6-1.38-2.83.11-.42.7-.72.61-1.28-.11-.68-1.79-1.33-2.33-2.48-.67-1.45-.63-5-1.33-7.11-.66-2-1.84-3.74-2.49-5.86-1-3.23-1.3-6.66-2.39-9.87-.05-1.83,1.09-.78,1.44-1.58.23-1.87-.68-4.17,2.11-4.17.94,3.07,1.73,6.19,2.78,9.22.78,2.25,3.39,5.36-.39,6.6l-2.67-7.64c-.42.74-.35,1.42-.26,2.22.09.86,1.31,5.76,1.65,6.48.39.83,1.1,1.68,1.97,2,.13-.54.71-2,1.46-1.5,1.23,1.46.14,5.03,1.17,6.2.62.7,1.43-.43,2.11-.35,1.17.15,3.2,4.13,2.44,5.43-1.24-.17-1.27-1.29-1.95-2.01-.74-.78-2.23-2.69-2.52-.65-.15,1.01.78,2.05,1.02,3.03.64,2.57.87,5.56,1.98,8.07.9,2.05,2.86,3.98,4.03,5.95,5.5,9.26,10.1,17.64,17.11,26.08.96,1.16,5.76,6.49,6.7,6.8,3.41,1.12-1.13-4.48-1.79-5.2-3.45-3.79-8.21-8.05-11.05-12.34-.94-1.42-.98-2.86-1.63-4.01-.61-1.09-2.06-1.98-2.85-2.99-2.7-3.44-5.56-9.99-7.48-14.12-.51-1.1-2.75-5.63-2.06-6.51,2.34-1.06,2.5,1.98,3.5,2.92.3.28.63.16.62-.27-.03-1-1.86-3.63-2.29-4.71-1.41-3.55-1.52-4.67-3.49-8.16-.87-1.55-3.76-9.35-2.18-10.54.25.05.61-.01.81.09,1.24.62,1.96,6.13,2.63,7.68,3.66,8.43,7.9,16.86,12.69,24.76.72,1.18,2.61,3.08,3.01,4.16.3.81-.15,1.41.23,2.38.34.89,5.05,8.45,5.51,8.79.43.32,1.09.19,1.62.51,2.13,1.27,5.36,5.94,7.35,8.01.71.74,3.99,4.27,4.46,4.54.95.56,1.85-.41,2.57.09.48.34,1.95,2.86,2.62,3.61.52.58,2.69,2.81,3.19,3.1.91.53,1.51-.1,1.23-1.04-.41-1.38-6.05-4.85-6.13-7.27l.77-.51c.6.05,1.03.45,1.48.79,2.4,1.77,7.49,6.7,9.63,8.98.72.76,2.04,1.67,1.33,2.77-1.99-.06-3.7-1.24-5-2.67-1.84.59,1.56,3.22,2.33,3.95,1.02.97,5.37,4.27,5.73,4.97.27.52-.06,1-.24,1.47.55.21.8-.84,1.46-.67.53.13,1.53,1.12,2.22,1.44,3.72,1.76,3.13.42,6.13.44.88,0,4.37.37,4.31,1.52-.15,2.82-4.1.33-5.63.31l1.94,2.26c1.94,1.48,3.55,2.36,6,1.61.72,2.82,3.4,3.51,5.91,4.41,2.87,1.03,6.41,2.11,9.35,2.73.25.05,3.56,1.36,2.53.09-.91-1.12-4.71-1.62-6.08-2.32-1.3-.66-3.38-2.66-3.08-4.27,2.65-.39,6.28,4.35,7.77,1.36l-6.13-2.44c-1.1-1.28-3.72-.94-2.7-3.28.11-.16.9-.21.97-.19l5.38,2.15c.8.32,3.19,1.88,4.06,2.47.77.52,1.5,1.77,2.35,2,.97.25,2.82-.45,4.37-.14,7.22,1.46,14.86,5.41,22.22,6.18,1.79.19,3.49-.32,4.88-.17,3.43.39,6.91,1.99,10.89,2.28,2.15.15,7.39-.54,8.94.01,1.63.59,1.41,2.73,2.76,3.02,1.1.24,10.1-.61,10.46-1.05.1-.12.39-.71.14-.81-2.33-1.25-6.84,2.37-8.81-.92.08-.44,1.37-.87,1.8-.99,4.03-1.05,13.43-2.3,17.5-2.23-.18-1.85,1.97-2.86,2.5-4.54-.95-.88-7.27.95-6.93-.87,1.3-2.06,1.64-1.24,3.29-1.55,1.03-.19,6.76-2.16,6.64.03l-1.14,2.09c.83.46,1.49,1.01,2.42,1.34,1.09.38,2.54-.1,2.9.96-.73.53-1.22,1.11-2.11,1.42-1.58.55-5.92,1.17-7.56,1.14ZM162.69,11.43l-2.88-.65c-1.78,1.67-.46,1.45.23,2.41.76,1.05,1.14,3.55,2.77,1.42l-1.12-1.13,1-2.05ZM166.63,14.82c-1.25.53-1.08,1.99.54,2.14,2.02.19,1.32-2.93-.54-2.14ZM377.44,100.18c-1.08-.53-2.28-.7-3.45-.87-4.78-.73-15.2-1.9-19.79-1.64-.53.03-.72-.34-.89.5,6.09,2.03,12.9.67,19.22,1.89.54.25,1.53.85,1.23,1.59l-2.29,1.34c1.5.6,3.24,1.8,4.9,1.89,1.78.09.12-3.66,1.06-4.7ZM183.09,28.92c.36-.67-.2-1.37-.66-1.82-2.28-2.25-8.56-7.05-11.32-8.76-.58-.36-1.21-.59-1.84-.82-.49.65.68,1.27,1.1,1.63,1.74,1.5,3.6,2.89,5.34,4.39,1.6,1.37,3.94,4.07,5.49,5.09.69.46,1.18.09,1.89.28ZM347.05,111.26c.34.72,11.29.27,12.96.47,4.52.54,8.2.4,12.46.75,4.32.36,14.18,4.67,13.55-3.49-.22-2.84-2.51-4.8-4.73-6.26-.27.12-.28,2.52-.11,2.89.48,1.09,2.55,1.03,2.43,2.43-.37,4.18-8.34,2.32-11.06,2.27-3.38-.07-8.17-.32-11.38.03-3.5.38-5.67-.43-9.08-.38-.45,0-5.48.33-5.02,1.28ZM158.63,14.67c-4.55-4.04-7.6.48-6.5,5.14.79,3.34,7.26,7.07,9.9,9.37,1.3,1.13,3.28,3.77,4.52,4.52.97.58,1.98.27,2.9.95.48.35,1.43,2.05,2.18,2.79,1.82,1.81,4.27,2.91,6.01,4.6.92.89,3.23,6.09,3.5,7.41.19.9.06,1.79-.8,2.31l-3.48-.72c1.44,1.71,3.44,3.88,5.67,2.25,2.78-2.03.96-4.03.4-6.59.09-.98,1.27.33,1.72,0-3.59-7.97-13.13-10.9-18.21-17.19-.53-.66-.55-1.43-1.25-2.19-2.97-3.23-10.77-4.98-10.97-10.39-.13-3.66,4.82-.57,4.39-2.26ZM168.32,21.64c.39-1.87-.56-3.24-2.56-3.07l-.2.96,2.76,2.11ZM165.22,22.48c-.42-1.22-2.56-2.24-3.68-2.76-.55-.25-.73-.6-1.4-.13-.23.6,4.16,3.03,5.08,2.89ZM176.21,25.85c-2.43-.22.07,4.71,2.22,3.46.4-.59-1.49-3.39-2.22-3.46ZM191.53,36.44c.31-.47.11-.66-.15-1.05-.5-.76-5.01-3.86-5.59-3.66-.86,2.03,4.78,5.33,5.74,4.71ZM339.68,94.12c.57-1.92-3.71-1.41-4.66-.47,1.53.91,3.03.53,4.66.47ZM360.26,103.36c.7.5,1.32,1.21,2.25.93l.84-.89c-.56-1.41-2.71-1.64-3.1-.04ZM173.89,31.14c.76-1.96-1.59-3.54-3.23-4.06-1.62,1.15,2.87,4.21,3.23,4.06ZM182.91,33.96c.3.65,1.64,1.39,2.34.85l-1.69-2.23c-.72.08-.9.85-.64,1.39ZM343.27,97.29c-.46,1.91,1.64,2.16,2.69.88l-.65-1.07-2.04.19ZM127.05,49.54c5.01-5.08,8.78-11.22,13.25-16.72,1.59-1.96,8.62-8.75,8.95-10.26.19-.84-1.09-3.2-1.9-3-3.71,3.44-6.72,7.57-10.15,11.26-12.87,13.82-24.11,25.46-34.7,41.44-.31.46-1.81,2.93-1.72,3.2.55.35.82,0,1.23-.31,1.54-1.19,3.78-4.27,5.14-5.89,4.54-5.4,9.27-11.35,13.51-16.98,3.01-3.99,5.01-8.48,9.27-11.57l1.13.6c.27,3.29-2.97,4.96-4.31,7.29-.34.59-.49.77.29.95ZM354.57,102.83c.08-.61-.25-.74-.74-.91-1.41-.49-4.47-1.48-5.85-1.45-.39,0-.84,0-.64.52.44,1.12,5.86,1.93,7.23,1.84ZM195.97,41.59c.18-.05.59-.48.58-.74-.1-1.39-3.35-2.66-3.23-.56.66.57,1.68,1.58,2.65,1.3ZM336.58,100.16c-1.39-.72-1.76,1.52-2.37,1.67-2.62-.03-2.43-2.36-3.52-3.97-.55-.82-4.23-4.61-4.95-4.82-1.55-.44-.84,1.15-.35,1.9,1.02,1.53,5.81,7.62,7.07,8.61.45.36.95.06,1.63.76,1.16,1.21,1.25,6.2.8,7.85-.82,2.98-2.2,4.08-2.63,7.82-1.38,11.95.25,25.58-1.32,37.23-.21,1.57-.87,3.16-1.03,4.65-.18,1.64.57,3.12.47,4.75-.12,2.03-.98,3.87-1.36,5.78-.29,1.52-.14,3.85-.6,5.18-.63,1.79-3.44,1.75-1.61,4.2,1.4,1.88,4.05,2.76,6.32,2.2,1.63-.41,1.76-4.9,2.06-6.42l-1.94,4.4c-.49.83-4.43,1.53-4.68.92.29-1.41,1.89-1.86,2.55-2.99,1.32-2.23,3.57-10.8,3.85-13.52.64-6.14-.97-14.96.49-20.77,1.54-6.14,1.48-10.03,1.53-16.26,0-.97.16-4.07.1-4.51-.28-2.16-.1-1.12.27-3.33.25-1.49-.05-3.42.31-4.84.96-3.79,3.08-5.12,1.35-9.5-.93-2.34-4.03-4.41-2.42-7.01ZM355.62,106.12c-1.06-.37-7.31-2.42-7.55-.87s5.16,1.81,6.32,2.05c.88.18,2.08,1.15,2.91.43,1.11-.96-1.16-1.43-1.69-1.62ZM187.17,41.28c1.4-.51-3.96-4.56-4.54-3.37-.68,1.4,3.75,2.64,4.54,3.37ZM167.27,39.93l.33-1.26c-2.35-2.61-5.04-5.1-7.84-7.28-2.08-1.62-5.13-3.78-7.47-4.72-.43-.17-.74-.52-1.12-.77l-.68.04c-6.48,7.3-12.31,15.22-18.82,22.49-1.66,1.85-7.45,8.42-9.2,9.15-.73.31-1.45.14-2.07.38-1.69.66-3.48,4.17-4.75,5.66-3.55,4.19-7.39,8.98-11.01,13-1.03,1.15-3.69,1.86-1.28,3.29,1.7,1.01,1.17.87,2.01,1.62.61.55,3.71,3.07,4.23,3.17,1.45.28,1.25-1.67,1.68-2.39.87-1.47,4.12-2.3,3.12-.32-.58,1.15-2.41,3.26-3.55,3.88-.1.28,1.88,2.62,2.27,2.98,3.02,2.78,7.4,6.23,10.71,8.77,2.82,2.18,6.72,4.27,9.23,6.43,1.02.88.68,4.3,3.68,2.83,1.04-2.2-2.88-2.13-3.13-2.56-.07-1.44,1.02-2.97-1.04-3.36l-.81.98c-2.45-.21-1.9-2.66-3.12-4.17.1-1.06,1.13-.53,1.38-.88.79-1.14,1.39-3.55,2.43-4.6.76-.77,2.15-.49,2.97-1.2l-.48-2.22,1.56-1.29c-.71-.59-3.23-1.63-2.33-2.83.76-1.02,2.51,2.27,4.65,1.01.89-.53.85-1.2,1.43-1.87s1.69-.65,1.83-.86c.23-.34-.01-1.1.48-1.78.11-.16,2.69-2.52,2.87-2.6,1.15-.51,4.39,2.67,5.18.52.21-.57-.66-3.42,2.01-2.14,3.14,1.51-.66,3.75-2.06,5.49-.96,1.2-7.27,9.28-7.16,9.88.07.39.73.76.84,1.39.52,3.11-3.67,8.88-5.67,11.23,2.06.74,3.97-.92,5.33-2.29,3.65-3.67,6.25-8.31,9.3-12.31,2.39-3.14,6.86-7.12,8.31-10.72.5-1.24.72-4.41,1.42-5.27.96-1.18,1.46,1.83,3.17.43,2.66-2.18,6.78-8.17,9.35-11.1,1.72-1.96,4.14-3.95,5.61-5.97.26-.36,1.41-1.73.46-1.82-1.73-.01-2.37,1.55-3.65,2.47-.83.6-1.67.7-2.58,1.5-3.76,3.28-6.95,9.18-10.44,12.6-.29.28-.54.57-.96.66l-.67-1.21c.57-.72.81-2.26,1.16-2.84.54-.91,1.66-1.78,2.3-2.73,1.64-2.47,2.67-5.07,5.24-6.82-.15-.64-.49-.84-1.12-.9-2.13-.22-6.16,6.79-8.65,7.55l-.77-.62c-.33-1.43,3.16-3.59,3.22-5.09.04-.89-2.15-1.2-1.76-2.49.24-.79,1.11-1.36,1.92-1.34,1.6.18.95,2.3,1.29,2.45,1.81-.55,2.84-2.27,4.19-3.5-.44-3.72-3.5,3.05-5.07.41-.7-1.18,1.07-1.99,1.57-2.77.56-.86,1.55-4.26,2.87-2.86.83.89.23,2.32,2.96,2.31,1.73-1.91-2.37-4.51-3.91-3.62-1.12.65-4.64,4.5-5.73,5.69-.77.84-5.13,6.6-5.67,6.39-.21-.46-.5-1.04-.45-1.55.11-1.28,3.93-5.61,5.01-6.86,1.02-1.18,5.08-4.25,4.25-5.78l-.78-.61c-2.85,2.43-5.8,5.47-8.31,8.36-1.04,1.2-3.77,4.12-4.44,5.24-.34.56-.54,3.5-1.95,2.34-.94-.77.88-2.28,1.2-2.86.2-.37.1-.94.4-1.42,3.25-5.26,8.85-9.33,12.3-14.53.56-.42,1.75.53,1.83-.33.06-.67-.6-3.44-1.44-3.22-.88.73-1.39,2.32-2.07,2.98-.31.31-1.1.38-1.62.85-.97.89-1.56,2.08-2.69,2.9-.41.3-1.11.2-1.29.46-.29.43-.24,2.13-.6,2.82-.67,1.29-2.9,2.34-3.75,3.57-1.83-.61.26-3.49,1.05-4.18.49-.43,1.21-.21,1.51-.57.36-.43.23-1.53.69-2.35.56-1.02,1.98-2.01,2.7-2.98.51-.69.64-1.64,1.06-2.16.35-.43,1.32.17,1.34-.89.01-.52-.37-.86-.98-.56-1.31.64-4.16,4.74-5.48,5.11-.46.13-.77.1-1.17-.15,0-1.56,1.37-3.24,2.52-4.21.59-.49,1.71-.82,1.97-1.17.52-.66.52-1.55,1.24-2.29.59-.6,1.94-.84,2.68-1.29l.45.05c.91,1.84,2.93,3.32,4.87,3.99ZM379.68,173.04c-.37-.81.7-1.57.82-2.44.08-.52-.37-2.17-.35-3.09.16-8.07,1.67-15.95,1.98-23.89.27-6.94.34-15.01.18-21.88-.02-.69.43-2.39.16-2.79-1.47-2.2-1.54,2.01-1.59,2.19-.59,2.15-3.91,1.76-5.27,3.84-.91,1.4-.38,2.17-.25,3.63l-1.45,1.33c3.1,0,1.38,3.04-.84,2.38-1.18-.35-.8-6.23-.88-7.46-.13-1.95-1.21-3.86-.21-5.73l-1.49-.6c-.87,1.65-.82,3.58-.71,5.39.14,2.43,1.68,6.42-.93,7.82l-.89-1.84-.86-11.52c-1.19-2.1-2.12.39-2.27,1.72-.1.84.38,1.87.37,2.81-.03,2.57-.56,5.32-.68,7.97-.09,1.88.39,5.05.05,6.68-.31,1.48-1.64,1.41-2.02.11-.42-1.44.41-5.13-.07-6.42-.25-.68-1.48-.18-1.47-1.09,0-1.07,1.08-.48,1.6-.92.62-.52.85-8.45.75-9.75-.04-.57-.14-1.05-.43-1.55-.49.9-.8,2.15-.99,3.15-.28,1.47-.07,6.83-1.84,6.99-.81.05-1.12-.19-1.33-.92-.61-2.13.58-9.79-.24-10.79-.46-.56-1.99-1.22-2.57-.51,2.86.58,1.51,11.06.7,11.72-.58.48-1.04-1.19-1.11-1.51-.15-.62-.21-8.31-1.68-7.57-1.01,1.82-.09,4.32-.2,6.15-.13,2.2-.6,6.76-1.02,8.87-.47,2.35-2.03,1.3-2.2-.79-.23-2.7.07-13.55.72-15.92.12-.46.15-.94.57-1.26l2.25.06c.54-1.28-4.9-1.14-5.61-.97-3.39.82-4.08,6.59-1.6,8.65.65-1.71-.53-6.08,1.17-7.07h.78c1.13.57.99,5.59.79,6.76-.64,3.73-3.25.58-4.2,4.03-1.38,5-1.08,11.97-1.32,17.17-.11,2.4-.73,5-.74,7.25,0,1.2.66,2.71.54,3.48-.27,1.68-1.26,2.92-1.24,4.99.03,2.7,2.53,5.37,2.14,7.5-.16.87-.98,2.01-.72,2.79.2.59,1.03.84,1.41,1.38,1.82,2.6-2.11,9.03-.94,10.56.33.43.96.54,1.44.74.11-.23.2-.48.27-.73.35-1.3.48-7.35.56-9.16.08-1.74-1.03-9.84,2.19-6.32.29,5.72.39,11.45-.78,17.12.3,1.47,2.2-.79,2.45-1.54.53-1.6.6-7.17.74-9.24.45-6.59.23-14.5,1.48-20.95.1-.52.47-2.8,1.1-2.7,1.34.23,1.15,3.89,1.13,4.96-.14,6.52-1.01,13.48-1.15,20.06-.07,3.11.45,6.21.19,9.33.28,1.19,1.82,2.01,2.99,1.94,1.35-.34.16-7.2.23-8.53.04-.76,1.12-6.6,1.4-6.8.57-.41,1.24.1,1.25.71-.05,3.13-.24,6.53.05,9.64.02.22.16,2.59.79,2.26l2.5-11.47c1.13-.56,1.05,5.39,1.03,5.87-.05,1.87-.53,3.88-.5,5.67,0,.42.05,2.69.8,2.5,1.75-1.56.61-3.3.64-5.1.03-1.78.8-10.93,2.45-11.33.94.33.89,1.62.92,2.45.17,4.57-2.36,9.33.44,13.68l.72-.54,1.38-19.9.93-.18c.25.1.36.33.5.54,1.14,1.66.46,12.63.33,15.22-.05,1.03-.75,4.81-.17,5.27,1.87,1.49.73-2.3.72-2.79-.02-1.74.38-4.86.6-6.7.31-2.59.5-5.28,1.52-7.71.83.24,1.31.61,1.67,1.39.34.72.87,6.35.81,7.33-.14,2.44-1.34,4.64-1.71,6.93-.21,1.28.31,3.49,1.18,1.23.58-1.53.71-3.54,1.27-5.02.63-1.67,2.33-3.96,1.89-6-.13-.58-.81-.78-.99-1.18ZM328.4,105.91c1.34-3.68-1.81-5.24-3.88-7.37-1.09-1.13-1.86-3.05-3.54-3.55-.12,1.45,6.72,11.36,7.42,10.92ZM201.28,47.61c-1.33-.44-1.94,1.24-2.26,2.21l1.34-.04.92-2.18ZM389.35,148.57c.4-.21.66-3.48.71-4.14.35-4.51.57-10.33.54-14.84,0-.34.16-5.23-.8-4.73-.29.48-.29.99-.36,1.52-.52,3.95-.54,9.55-.65,13.65-.06,2.1-.31,5.51-.06,7.46.06.51-.09.96.62,1.09ZM196.17,49.06c-.2-.33-6.81-1.3-7.59-1.31-.53,0-.96-.09-1.1.59,2.09.61,5.51,1.87,7.63,1.91.77.02,1.4-.62,1.06-1.19ZM119.52,40.65c1.25-.35,2.28-1.76,3.16-2.72,3.22-3.49,6.46-7.51,9.06-11.46-.48-.1-.79.32-1.1.6-1.64,1.5-3.52,4.24-5.09,6.03-2.1,2.41-4.77,4.43-6.04,7.55ZM332.59,114.51c.19-2.53,1.34-6.51-1.8-7.64-.88.38-.78,7.94,1.8,7.64ZM170.78,45.8c.56-.76,1.15-1.29.39-2.16-1.09-.15-1.6.69-2.4,1.22l2.01.93ZM342.74,114.77c-.64-.06-1.36,1.03-1.56,1.59-.52,1.49.73,4,.37,5.07-.14.44-.86.49-.96.9-.04.16.67,2.3.59,3.22-.11,1.32-.68,2.53-.7,4.02,0,.66.68,4.63,1,4.77.68-.16.78-.54.96-1.14.34-1.11.29-3.75.51-5.19.18-1.18.91-2.77.96-3.88.04-.84-.84-1.55-1.07-2.51-.2-.83-.15-2.83-.02-3.71.14-.93,1.44-3-.08-3.14ZM185.69,54.55c1.14.52,2.6,1.33,3.22-.27.18-1.31-3.58-.43-3.22.27ZM131.4,32.57c-.58-.46-1.2.32-1.56.68-.56.56-.9,1.27-1.45,1.82-3.43,3.47-7.12,6.94-9.7,11.14.79.5.57-.04.94-.38,1.86-1.76,3.22-4.06,4.94-5.83,2.34-2.41,5.47-3.92,6.84-7.43ZM186.31,60.6c1.89-.83-1.13-4.91-2.28-.13l2.28.13ZM187.34,62.51l-.96-.2c-.84,1.77-4.18,2.41-3.39,4.67,1.22-.25,5.31-3.15,4.35-4.47ZM191.92,65.01c-.68-1.53-6.59,3.59-6.2,5.15l1.58-.63,4.62-4.52ZM172.51,74.59c1.97.5,2.19-2.44,2.95-3.8,1.23-2.23,3.15-4.02,4-6.24-1.12.86-4.41,3.66-4.87,4.81l-2.09,5.23ZM321.44,132.93c2.06-3.37,1.24-7,.41-10.57-.37.92-.8,1.82-1.03,2.79-.13.57-1.03,8.62.62,7.78ZM385.35,152.51c.17-1.43.85-3.46.18-4.78l-.49,1.82.31,2.96ZM96.66,69.3l20.41-26.85c-.68-.01-1.2.66-1.64,1.09-5.07,4.97-15.32,17.49-18.3,23.69-.18.38-.97,1.78-.47,2.08ZM388.93,152.21c-1.16-.73-1.16,2.2-1.24,2.89-.36,3.25.24,5.98.12,8.86-.02.59-1.82,6.15-.3,5.7,1.2-.36.63-4.81.69-5.87.22-3.86.65-7.72.72-11.58ZM172.99,80.33c1.09-1.18,1.85-2.68,2.92-3.87,1.2-1.34,2.97-2.22,3.64-3.9-2.69,1.29-7.97,4.22-6.57,7.78ZM341.46,139.18c-.26-.6-.55-.19-.77.21-1.01,1.83-1.63,4.89-1.85,6.99-.15,1.38-.29,5.2-.13,6.5.09.77.79,1.82.69,2.42-.09.54-1,.75-1.18,1.73-.1.54.27,1.26.24,1.9-.11,2.31-.16,5.42-.46,7.63-.24,1.82-.94,3.26-1.12,4.94-.05.46.13,4.85,1.04,4.38,1.07-1.92.65-4.13.92-6.21.42-3.3.92-6.27,1.07-9.62.03-.7-.42-1.43-.31-2.11.17-1,.91-1.5,1.12-2.43.26-1.16-.14-3.37-.08-4.69.17-3.88.56-7.76.83-11.63ZM114.9,50.94c-.94-.35-5.14,4.5-4.11,5.97,1.29-.4,2.09-1.6,2.81-2.67.32-.48,2.09-3,1.3-3.3ZM324.68,140.46c-.72,1.09-.53,7.72.4,8.12l.66-.77-1.06-7.35ZM174.19,84.27c-1.11-.81-3.54,2.44-2.65,2.75.59.2,2.6-1.98,2.65-2.75ZM168.01,82.59c-.76.44-1.2,1.72-.54,2.46,1.18-.38,2.09-1.33,1.37-2.55-.24.15-.64-.01-.82.09ZM321.59,158.62c.93-1.92,1.43-3.78,1.39-5.92-.03-1.38-.78-6.92-1.16-8.17-.14-.47-.21-.92-.78-1.02-1.28,2.47,0,5.41.02,7.79.02,2.22-1.8,6.16.53,7.33ZM381.03,188.56c.43.25.92.14,1.36,0,4.25-1.46,5.22-10.27,4.81-14.16-.7,1.44-.54,3.12-.99,4.63-.36,1.21-1.1,3.06-1.66,4.2-.98,1.99-2.58,3.38-3.52,5.34ZM146.27,80.14c-2.14-.64-2.72,2.62-.75,3.46,2.17.22,2.48-2.95.75-3.46ZM327.73,152.76c-1.03-1.01-2.11-1.18-3.48-.86.14,2.32.92,5.62-.41,7.64-.55.83-1.65,1.2-1.9,2-.35,1.16-.37,3.75.57,4.73.97-1.35.38-3.36,1.66-4.51l1.39,1.21c2.06-.96-.92-3.61-.52-5.24.48-1.95,1.81-1.15,1.93-1.3l.35-1.02-.97-.99,1.38-1.66ZM97.92,75.69c1.4-4.36,5.3-7.25,6.98-11.42-2.67.9-5.08,4.27-6.42,6.66-.7,1.25-2.65,4.23-.55,4.76ZM163.32,90.68c.19.49,2.45-.33,2.84-.59l-.14-1.45c-.65-.45-2.74,1.15-2.7,2.04ZM144.98,84.44l-1.33-.91c-1.18,1.61-2.32,3.23-3.49,4.86-.8,1.12-2.06,1.42-1.95,3.51-.42.52-2.22-.4-2.22,1.37,1.53,1.75,1.78-.47,2.62-1,.51-.33,2.09.26,2.74-.46l-.5-2.94,2.56-.4c.37-.53-1.01-1.45.14-2.52.35-.32,1.59-.51,1.42-1.49ZM163.69,93.25c-.99,1.26-2.37,2.17-3.35,3.45-.38.5-1.06.9-.56,1.56,1.41-.84,2.91-2.55,3.74-3.96.18-.3.73-.91.17-1.05ZM325.02,176.97c.85-1.26,1.29-5.85-.37-6.38-2.42-.79-2.17,1.44-3.63-2.67-.48-1.35-1.6-7.22-2.11-7.76-.25-.27-.51-.54-.91-.38-2.5,3.11-.07,9.6,1.96,12.56,1.2,1.74,2.04,3.37,4.24,1.9.63.74-.28,2.45.81,2.74ZM342.09,172.03c-1.66-.09-1.08,4.59-1.18,5.66-.19,2.09-1.31,4.1-.14,6.25,3.79-2.79-.95-8.29,2.46-10.96-.13-.59-.56-.92-1.15-.95ZM335.35,176.24c.38-.97,1.16-2,1.15-3.09-.02-1.6-1.69-1.78-1.85-.21l.7,3.3ZM139.83,96.32c-.12-.47-1.22-1.63-1.75-1.86-1.21-.53-1.04,1.87-.68,2.53.34.61,1.62,1.75,2.19.99.15-.45.35-1.22.24-1.66ZM151.62,100.62c-1.07-.1-4.45,3.44-3.43,4.12.81.55,3.38-2.75,4.43-2.96.35-.69-.42-1.1-.99-1.16ZM95.18,79.1l-.99-.19-5.15,7.79c.63.46.92-.16,1.37-.54,2.18-1.84,3.92-4.33,4.78-7.06ZM338.16,178.75c-1.38-.64-1.76,2.49-1.89,3.42-.15,1.06-.58,2.44.82,2.74,1.03-1.92,1-4.06,1.06-6.16ZM368.42,193.24c-1.26-.38-2.23-1.8-3.68-1.25-1.45,2.47,4.38,2.82,3.68,1.25ZM380.5,204.63c.29-1.76.49-3.77.52-5.55,0-.44.3-.94-.23-1.26-.96,2.08-1.77,4.79-.3,6.81ZM360.05,191.63c-.56-.26-.55-.38-.78.21-.54,1.35-1.5,9.71-1.36,11.24.41,4.53,1.96,2.36,2.22-.95.27-3.35-.21-7.12-.07-10.5ZM146.64,112.38l1.26-1.32c-.19-1.31-3.79-2.61-4.47-1.78-.64,1.88,1.71,2.71,3.2,3.1ZM370.34,200.28l-.77.51,1.1,2,1.05-1.68-1.38-.83ZM351.63,194.51c-1.78-.36-2.13,1.81-2.28,3.09-.32,2.78,1.2,4.83-1.49,7.32-.04.48,2.12,2.83,2.55,1.39l1.22-11.8ZM322.81,183.36c-.44-1.12-1.25,1.36-1.36,1.7-.71,2.17-2.26,10.21-2.07,12.28.03.33.46,2.69,1.06,2.39l2.37-16.38ZM354.33,200.78c.42-.63.66-3.85.08-4.12-.82-.37-.8,2.48-.77,2.8.05.56-.03,1.16.69,1.31ZM135.32,109.66c-.6.21.92,3.52,2.15,2.41.17-1.3-1.08-2.12-2.15-2.41ZM321.81,207.82c.1.24.43.57.73.56,1.83-.03,1.75-3.38,1.8-4.75.07-1.57-.25-3.31-.14-4.89.1-1.48.63-6.2,1.04-7.4.61-1.76,3.45-1.96,3.6-3.25l-.38-1.09c-5.46,2.21-5.03,8.47-5.73,13.36-.24,1.69-1.52,6.01-.92,7.45ZM374.9,214.35c.5-.65,1.38-3.46,1.79-4.48.09-.24,0-1.16-.6-1.1-.9,1.83-2.18,3.55-2.26,5.68.16.25.91.11,1.07-.09ZM368.52,228.61c1.2-6.12,3.9-12.14,3.64-18.53-.04-.92-.03-2.1-.67-2.8-1.23,2.38-.93,5.11-1.42,7.67-.57,3.01-1.51,5.9-1.87,8.98-.04.35-.75,5.17.32,4.69ZM329.75,192.02c-2.73-1.05-1.9,4.28-.83,5.56l.83-5.56ZM87.37,96.08c-.63-.42-.51-.12-.82.11-2.41,1.77-3.89,6.59-5.61,9.1,4.68-.18,4.75-5.97,6.44-9.21ZM116.25,107.94c-1.03-1.08-3.28,2.07-3.1,2.57,1.61.33,2.76-1.15,3.1-2.57ZM125.46,119.58c.28-.64,2.37-3.45,1.7-3.83-2.24-.49-2.2,1.86-2.58,3.47l.89.35ZM367.8,212.08c-.61-.84-1.4.1-1.68.84-.57,1.5-1.17,5.73-1.54,7.61-.64,3.3-1.38,7.29-1.65,10.62-.06.77-.4,4.62.44,4.76,1.33.22.68-3.44.9-4.35.33-1.31,1.19-2.58,1.49-3.86.42-1.81.03-5.16.34-7.33.21-1.47,2.08-7.78,1.71-8.29ZM378.13,217.55c-.32.58-2.72,3.42-1.29,3.64,1.38-.5,2.26-2.39,1.29-3.64ZM354.03,209.33c-.49-1.07-1.25,1.32-1.33,1.69-.23.96-.39,2.92.21,3.75.97-1.8,1.18-3.45,1.13-5.44ZM117.4,123.3c.73.41,1.18.28,1.74-.26.34-.33,2.78-3.88,1.92-4.16-1.78.85-2.99,2.6-3.67,4.42ZM362.65,218.99c1.05-1.74-1.47-4.91-2.19-2.15-.3,1.16,1.1,2.24,2.19,2.15ZM122.61,130.23c.64,1.05,2.18-.66,2.39-1.63.05-.22-.37-2.42-.47-2.78-.4-1.38-1.41-1.05-1.3-.18.56,1.11,1.64,1.85.62,3.11-.24.29-1.72.68-1.23,1.49ZM75.14,112c2.28-.25,3.42-2.37,2.65-4.49l-2.65,4.49ZM100.56,130.79c.32.99,2.18-1.56,2.33-1.77,1.37-1.82,3.22-4.73,4.31-6.74.22-.4.68-.74.18-1.24s-1.22.89-1.46,1.21c-.8,1.09-5.59,7.85-5.37,8.54ZM103.93,150.15c.61.98,2.4-1.88,2.66-2.15,3.59-3.66,3.69-4.21,6.19-8.65,1.23-2.19,2.34-5.34,5.17-5.26-2.08-3.44,4.8-3.9,3.07-7.26-1.74-.7-8.37,9.73-9.46,11.4-1.64,2.5-3.78,7.13-5.5,9.11-.95,1.09-2.34.68-2.13,2.81ZM323.51,217.25c.63.37.82,0,1.19-.41.89-1.03,2.42-6.22,1.99-7.52-.2-.59-.93-1.36-1.23-.47-.35,1.03.22,2.96-.1,3.76l-1.85,4.63ZM372.58,228.85c-.86-.64-1,.75-1.14,1.36-.28,1.25-.32,2.68.29,3.84.84-.21.6-.4.65-1.01.12-1.36-.08-2.82.2-4.18ZM73.05,119.82c.94-.96,4.88-4.81,3.67-6.15-.42-.47-.75.31-.98.58-.88,1.03-1.97,3.13-2.57,4.4-.15.32-.64,1.06-.11,1.18ZM115.22,150.49c2.11-2.97,4.51-5.71,6.51-8.76,1.23-1.88,3.13-4.81,4.05-6.77.17-.36.46-.66,0-1.02-1.38-1.1-2.34,1.19-2.99,2.19-2.19,3.39-5.71,8.71-7.39,12.19-.16.32-1.27,2.69-.18,2.17ZM321.18,211.82c-.38.1-1.46,1.85,0,2.02,1.85.22.96-2.27,0-2.02ZM368.29,232.68c-1.57-.52-2.08,1.49-2.4,2.64-.37,1.36-.97,5.69-1.06,7.14-.07,1.18.6,2.7.21,3.65-.46,1.13-1.76.94-2.52,1.68-1.34,1.31-.17,1.93.1,3.3.22,1.14-.48,2.64.97,2.93.7-3.17,2.91-6.74,3.47-9.79.68-3.73-.73-8,1.23-11.55ZM124.47,143.79c.69-1.04,1.34-2.14,1.97-3.22.23-.39.79-.32.27-1.08-1.03,1.21-4.4,2.71-2.24,4.3ZM371.99,237.27c-.25-.61-.55-.19-.77.2-1.13,2.03-1.54,5.14-1.76,7.45,1.23-.44,2.75-7.11,2.53-7.65ZM107.32,136.43c-.78,1.37-1.16,3.34-1.91,4.78l.48.54c1.56-1.24,1.83-3.54,2.76-5.12.54-.92,2.13-1.66,1.99-2.87-.06-.49-.23-.45-.6-.24s-2.48,2.49-2.72,2.9ZM118.31,137.52c-.69-.52-1.05.4-1.48.88-4.79,5.42-6.33,9.56-9.62,15.66-1.14,2.11-9.02,15.37-8.64,16.48,1.33.45,2.15-1.64,2.72-2.6,4.49-7.55,7.83-15.78,12.57-23.19,1.54-2.41,3.97-4.28,4.45-7.22ZM358.84,235.5c-2.39-1.03-2.69,5.07-1.58,5.25,1.88.32,1.26-4.18,1.58-5.25ZM355.06,264.13c1.53,1.07,2.41-2.3,2.8-3.56,1.11-3.61,2.08-8.58,2.76-12.33.55-3.02-.25-6.51,2.87-7.91-.91-2.75-2.75-.84-3.52.98-.69,1.64.22,2.08-.07,3.52-.24,1.17-.89,1.81-1.19,2.72-.4,1.21-.24,2.92-.6,3.77-.42,1.01-1.68.94-2.16,1.89.07.71.97.75,1.22,1.09.64.89-2.07,8.15-2.1,9.83ZM69.5,123.96l-4.33,6.11c-.54.93.35,1.89,1.22,1.06.62-.58,4.06-6.77,3.11-7.17ZM125.56,148.03l-.89-.35c-.86,1.15-1.27,2.16-1.43,3.58,1.03.2,2.43-3.01,2.32-3.23ZM370.4,247.37c-2.3-1.21-2.53,1.49-2.59,3.22-.04,1.13-.03,3.16,1.4,3.23l1.19-6.46ZM346.99,238.74c-1.09-.19-1.95,3.65.16,3.85,1.31.13.42-3.75-.16-3.85ZM117.56,152.47c2.17,1.21,3.88-1.73,3.01-3.64-1.72.42-2.46,2.11-3.01,3.64ZM101.05,141.73c-.72-.46-.59-.06-.97.3-.68.64-4,4.8-3.74,5.44,3.05.89,3.02-4.09,4.71-5.74ZM94.18,145.05c.73-1.42,1.15-3.17,1.85-4.63-.7-.03-1.28.52-1.65,1.05-.45.65-2.38,4.63-2.24,5.16l.85.54c.05-.92.91-1.57,1.19-2.12ZM355.57,244.26l-.78.54.2.92c2.01.82,2.48-.58.58-1.45ZM98.79,150.87c.46.24.66.34,1.16.12,1.05-.46,3.01-5.57,3.6-6.88-.4-.24-.61.36-.84.63-.57.7-4.08,5.77-3.93,6.13ZM346.71,245.91l-1.55-.2c-2.56,1.1.77,6.84,1.55.2ZM114.21,153.9c-.42-.28-.68-.11-1.08.08-1.54.76-4.37,6.6-5.54,8.43-2.93,4.61-5.82,8.69-8.18,13.82-.92,1.99-1.56,4.12-2.44,6.12.75.46.57.06.94-.38,2.3-2.77,3.62-7.15,5.47-10.36,2.51-4.35,5.79-8.46,8.4-12.73.96-1.58,1.82-3.24,2.43-5ZM351.21,249.43c-1.22-.63-2.53.26-1.67,1.61l1.25.3.41-1.9ZM115.92,157.01c-1.15-.18-2.97,5.19-3.77,6.22-.68.88-3.61,1.34-2.61,3.7.28.11,2.69-1.44,2.93-1.84.29-.5.13-1.2.44-1.79.85-1.58,2.87-3.54,3.46-5.29.13-.4,0-.93-.44-1ZM103.69,152.48c-2.83,2.74-4.27,6.46-6.03,9.89-.77,1.5-2.63,3.51-2.23,5.17.87.33,5.08-7.84,5.86-8.83.53-.68,1.46-.95,2.09-2.06.55-.99,1.66-3.49.32-4.17ZM363.77,256.17l-1.8-.72c-1.16,1.97-1.15,4.3-1.83,6.36-.63,1.91-2.18,3.9-2.55,5.56-.22.96.23,2.15,0,3.22-.2.94-1.82,6.66-2.16,7.33-.71,1.4-2.85,3.09-3.59,4.67-.82-.24-.49-.18-.41-.68.1-.68,1.11-4.23.56-4.45-2.81.6-6.16,3.5-5.07,6.63,6.37-3.99,1.24,2.54,3.12,4.36.96.45,1.15-2.37,1.52-2.51l1.44.62-1.68,7.04-.2,2.56c1.23-.58,1.71-1.96,2.14-3.14,1.43-3.88,3.15-9.23,4.22-13.21.42-1.58-.58-2.95-.22-3.88.39-1.02,1.71-1.49,2.26-2.31,1.11-1.67,1.79-8.31,2.37-10.81.51-2.23,1.09-4.49,1.9-6.64ZM354.8,254.33c-3.11-.63-2.37,2.66-2.65,4.48-.28,1.84-.88,3.68-.83,5.56.71-.34.94-1.75,1.15-2.48.75-2.54.64-5.46,2.33-7.56ZM98.01,155.41l-.89-.35c-.98,1.66-2.6,2.89-1.46,4.96l2.35-4.61ZM364.5,269.11c.58-.8,1.44-3.62,1.91-4.78.05-.13.54-2.37-.24-2-1.71,2.16-2.56,4.19-2.44,6.99.07.12.7-.11.77-.21ZM343.83,257.32c-.09-.28-.52-.57-.8-.69-1-.19-1.92,1.69-1.63,2.6,1.52,1.72,2.88-.53,2.43-1.91ZM57.37,146.14c-1.55-.81-2.77,1.57-3.44,2.66-3.54,5.79-6.24,12.99-9.09,19.2-.56,1.21-1.8,2.78-2.28,3.96-.62,1.51-.32,3.49-.97,5.14-.83,2.1-2.91,4.28-3.96,6.39-1.3,2.63-3.39,7.68-4.17,10.46-.33,1.18-.44,2.21.75,2.9l23.16-50.71ZM85.59,162.24c.47-.98,2.29-2.72.72-3.52-.33,1.07-2.35,2.68-.72,3.52ZM341.19,262.41c-.52-.19-.55-.45-.68.16-.76,3.62-1.85,7.16-2.64,10.76.26,1.78,3.06-1.53,3.41-2.65.93-3-1.74-5.48-.09-8.28ZM354.86,268.55c-1.94.18-3.58,7.61-2.09,7.82,1.17.17,2.16-3.85,2.37-4.73.15-.64.76-2.93-.28-3.1ZM350.3,269.89c-.98-1.54-3.53-2.35-4.07-.13-.09.36.18,1.86.39,2.09.38.41,1.4-1.02,2.21-1.22.4-.1.78,0,1.16.11l.32-.85ZM107.47,172.63l-.95,2.06,1.81.83.95-2.06-1.81-.83ZM361.92,275.54l-.87-.37c-.88,1.63-1.1,3.11-.74,4.9.91,0,1.64-3.72,1.61-4.54ZM83.2,164.76c-.69-.44-.58-.08-.98.28-1.65,1.48-3.11,5.09-3.42,7.31.49.12.99-1.09,1.22-1.47,1.18-1.94,2.28-4.03,3.19-6.12ZM84.03,190.29c-.58.25-1.98-.11-2.21-.8-.08-.24.75-4.62.92-5.07.3-.8,1.67-2.18,2.21-3.22,1.29-2.47,2.26-5.1,3.4-7.64.25-.55,2.69-4.32,1.69-4.69-.45.14-.84.35-1.2.66-1.48,1.25-6.42,10.24-7.31,12.38-.95,2.29-1.11,4.81-2.43,6.96,3.4,2.71,2.36,4.9.85,8.37-.84,1.94-2.79,4.72-3.36,6.61-.32,1.05-.18,2.36,1.03,2.66l8.05-16.68-.82-.51c-.27.28-.48.8-.83.95ZM96.03,173.62c.02.13.49.36.54.61.18.91-4.78,8.4-5.58,10.07-.66,1.38-1.73,3.49-1.09,4.94,1.32.52,4.37-8.11,4.91-9.31.48-1.08,3.29-5.94,3.16-6.54-.16-.77-2.15-.99-1.93.23ZM348.13,276.26c.59-.86,1.62-1.91,1.04-3.04-1.25.31-2.19,1.15-1.9,2.55l.86.49ZM96.08,197.59c.18-.03,1.82-2.73,2.01-3.18.35-.85.3-1.72.61-2.51.52-1.33,3.93-9.11,3.55-9.7l-.86-.5-5.33,9.84-.87,5.7.88.34ZM338.31,276.16c-1.36.5-3.11,1.95-2.45,3.52.89.59,4.46-2.28,2.45-3.52ZM75.93,179.52c-.27-1,3.24-5.23,2.11-5.73-1.92-.1-3.44,3.69-2.96,5.18.15.45.5.39.84.55ZM87.83,186.17c.84-1.45,1.6-4.01,2.26-5.68.05-.12-.21-.61,0-.87-.47-.3-.66-.13-1.03.19-.64.57-2.83,4.75-2.81,5.55.02.87.88,2.01,1.57.81ZM92.56,194.3c1.44-2.76,2.25-6.28,3.64-9.12-.35-.16-1.36.8-1.43.99l-3.75,9.42.6.24c.01-.71.76-1.15.96-1.53ZM346.48,285.34c-1.64-.21-3.96,5.64-2.9,7.12,1.32-.39,2.14-1.7,2.72-2.88.42-.87,1.88-4.02.18-4.24ZM330.58,290.75c.27-.13,1.67-4.9,1.72-5.57.12-1.47-1.13-3.1-2.35-1.36-1.89,2.7.27,2.71.28,3.76l-1.09,1.91,1.43,1.25ZM346.73,298.92l2.56-6.43c.07-.17-.17-1.12-.4-1.31-.37-.32-1.47-1-1.77-.24-.4,1.02-.43,2.35-.8,3.44-.61,1.84-2.65,3.52.4,4.54ZM298.78,281.88c1.26-2.83,3.6-6.15,2.68-9.32-1.5,1.28-.92,2.72-1.3,4.15-.39,1.46-1.43,3.03-1.8,4.49-.15.57-.3.45.42.68ZM333.64,290.93c1.76-.07,1.85-1.96.89-3.11l-.89,3.11ZM338.89,291.31c-1.64,0-1.76,2.47-.4,2.59.97.09,1.49-2.18.4-2.59ZM341.48,296.19c-1.41-.12-2.59,2.24-1.24,2.93,2.28,1.16,4.16-2.68,1.24-2.93ZM333.45,293.97c-.77-.4-.48-.19-.77.21-.48.68-2.05,3.29-2.26,3.93-.18.56.16,1.16-.04,1.72-.24.69-1.15,1.3-1.48,2.16-.71,1.87.34,3.61,1.4,1.65,1.58-2.92,2.14-6.54,3.14-9.68ZM78.99,193.56c-1.5-1.09-2.06.61-2.53,1.95-.33.95-.51,2.93.64,1.47.35-.44,1.99-3.19,1.89-3.42ZM86.94,197.83c-.58-.65-1.03-1.1-1.61-.18-2.61,5.81-5.19,11.54-7.62,17.41-1.32,3.19-1.42,3.42-2.08,6.82-.21,1.08-.86,2.36-1.02,3.54.77.39.48.2.77-.21,2.97-4.2,2.2-7.98,4.05-11.91.84-1.78,2.3-3.53,3.17-5.31,1.59-3.29,2.56-6.94,4.35-10.16ZM74.75,194.4c-.44-1.52-1.7-1.5-2,.24-.39,2.28,2.82,2.58,2-.24ZM354.62,305.18c-1.35-.57-1.38,1.88-1.75,2.5-.46.77-1.78,1.61-2.35,2.64-2.06,3.73.38,4.71,1.82,1.36.25-.57.17-1.26.41-1.87.62-1.55,1.26-3.09,1.86-4.64ZM93.89,204.01c-.83-.51-.57.05-.91.45-.86,1.01-3.19,3.82-3.58,4.87-.56,1.51-.28,3.38-1.29,5.73-1.69,3.97-3.82,6.62-5.3,10.68-.26.72-2.83,6.69-1.95,7.03.73-.26,1.18-.99,1.52-1.64,1.26-2.37,1.85-6.25,2.92-8.16.43-.78,1.32-1.08,1.86-2.06,1.32-2.4,2.22-5.85,3.01-8.49l3.71-8.41ZM339.67,306.13c1.03-.98,2.39-2.47,1-3.74-1.03.17-2.28,2.56-1.85,3.27l.85.47ZM79.03,226.49c2.05-6.76,6.13-13.12,8.24-19.77.2-.62,1.02-3.57.31-3.84-.86.26-1.16.89-1.53,1.62-2.3,4.52-3.34,9.58-5.06,14.28-.59,1.63-1.8,3.43-2.4,5.29-.22.68-.25,1.38-.45,2.06l.89.36ZM344.34,306.63c-.23-.51-.54-.17-.82.11-1.5,1.52-2.04,3.88-2.28,5.93l.96.23c.8-.21,2.43-5.61,2.13-6.27ZM346.93,310.33c1.19-.64,1.32-2.37-.19-2.75l-.77,2.81s.86,0,.96-.06ZM70.42,198.13c-2.49,1.26-2.42,5.04-1.53,7.33,1.91-1.55,3.52-5.4,1.53-7.33ZM76.42,201.6c-.73-.64-1.32-1.93-2.08-.71-.66,1.81-1.09,3.73-1.84,5.52-1.23,2.93-3.74,6.18-3.31,9.57l7.23-14.38ZM336.46,307.3c-.22.09-.6,4.43-.29,4.71,2.16,1.88,3.2-4.69.29-4.71ZM340.01,325.34c.61.12.74-.42,1.02-.79.6-.79,2.16-3.08,2.55-3.9.51-1.06.22-1.85.49-2.53.62-1.59,3.04-1.96,1.15-4.57-2.89,3.37-4.28,7.51-5.21,11.78ZM348.66,316.67c-.26.83-1.02,1.68-.5,2.56,1.27-.46,2.28-2.08.5-2.56ZM76.74,209.64c-.48-.8-2.75,1.97-3.03,2.46-.58,1.05-1.11,2.52-.64,3.69,3.38-.83,3.54-3.12,3.66-6.15ZM321.42,327.63l2.2-5.53c.29-.72,2.32-.19,2.71.52l-.73,3.21c2.54,1.13,1.29-3.19,1.51-4.5.25-1.44,1.81-3.22,2.24-4.92.11-.43.18-.96-.42-.68l-3.01,5.67-1.24-.12-.18-3.16c-.54-.32-.89-.08-1.19.39-.83,1.32-2.73,6.76-2.53,8.27.06.48.09.74.63.84ZM337.34,319.43c-.36-.17-1.41,1.57-1.58,1.96-.68,1.63-1.56,4.95-2.03,6.77-.27,1.05-1.57,4.95.16,5.13,1.15.12.59-3.56.98-4.65.21-.58.71-.96.88-1.41.46-1.23,2.88-7.21,1.6-7.8ZM34.42,199.35c-.96-.68-1.86.34-2.37,1.11-1.28,1.96-2.06,4.76-3.53,6.72-.43.69,1.25,4.59,1.72,4.36l4.17-12.19ZM346.22,325.39c-.12-.18-.88-.4-1.17-.13l-.86,1.74c1.01,1.03,2.35-1.15,2.02-1.62ZM326.46,339.34c.38.24.77.18,1.05-.16.96-1.16,1.85-8.94,2.46-11.13.69-2.48,2.02-4.88,2.42-7.48-.63.14-.75.65-1,1.14-2.57,5.3-3.54,11.92-4.93,17.63ZM64.83,244.74c2.04-5.18,3.1-10.68,4.65-15.99.66-2.28,3.12-6.95,2.26-9.14-.16-.41-.2-.72-.72-.8-1.61,4.62-4.16,9.22-5.19,14-.36,1.68-1.8,9.99-1.62,11.1.08.47.06.74.62.84ZM66.06,221.67c-.58.66-2.34,4.16-.51,4.3,1.14.08,1.92-3.8.51-4.3ZM339.71,331.29l-1.85,4.63,2.86-2.85.6.26-.08,1.51c.88-.14,1.92-2.41,1.15-2.95l-2.04-.82-.64.23ZM76.41,230.47c-.86,1.65-1.55,3.89-2.26,5.68-.1.25-.08,1.25.56.74,1.79-1.41,4.15-6.54,3.31-8.72-.35.75-1.28,1.66-1.61,2.3ZM323.46,332.08c-1.26,3.52-2.79,6.99-4.17,10.46-.02.06.29.74.42.69,2.22-3.78,3.57-8.08,4.89-12.25-1.49-.5-.99.7-1.13,1.11ZM57.9,302.95c1.9-3.06.88-6.26,1.73-9.53.26-1,.98-2.01,1.17-2.98.24-1.26-.82-2.06.99-3.4-1.67-1.88.16-2.56.56-3.95.16-.55-.13-2.95.02-3.98.81-5.66,1.64-12.18,3.08-17.67.29-1.09,1.01-2.1,1.21-3.25.16-.92-.35-1.92-.35-2.82,0-3.33,1.53-5.26,2.41-8.22,1.29-4.33,2.63-9.34,3.71-13.73.1-.4.43-2.11.07-2.26-.69.14-.74.62-.99,1.14-2.68,5.5-3.94,12.67-5.65,18.55-1.21,4.18-3.31,8.99-4.12,13.17-.35,1.84.08,3.28-.17,5.03-.42,2.95-1.57,5.92-1.95,9.01-.28,2.25.13,5.31-.33,7.33-.26,1.13-.92,2.11-1.12,3.2-.17.93.39,3.63.34,5.05-.09,2.72-.73,5.63-.96,8.35-.05.55-.58.75.36.95ZM328.58,359.24c.81-.02,1.46-1.26,1.78-1.89,2.05-4,3.65-8.59,5.42-12.75.64-1.51,4.05-6.52,2.18-7.61-.54-.34-.54.03-.83.37-.68.8-1.78,2.47-2.26,3.42-1.93,3.86-4.81,11.78-6.01,15.98-.24.83-.13,1.65-.29,2.48ZM321.01,331.28c-2.17-1.96-3.57,4.78-2.89,5.08,1.52-.61.55-2.48,1.33-3.78.44-.73,1.32-.5,1.56-1.3ZM330.82,336.23l-3.04,7.62c-.2.51-1.33,2.02-.18,2.18,1.33-2.56,3.37-5.36,3.9-8.25.15-.79-.1-1.05-.68-1.55ZM57.28,235.82c.42-.08,2.05-4.3.94-4.46-1.94.73-1.52,2.48-1.81,4.12l.87.34ZM72.27,253.68c-.17-.48-1.42-.82-1.36-1.53l3.1-6.27c-1.68-3.14,3.49-6.06.49-8.02l-1.7,6.08-4.56,9.62c-.27,1.39,1.53,1.52,1.61,2.08.13.99-1.86,5.83-2.25,7.36-.88,3.39-1.53,7.37-1.66,10.87-.02.6-.21,1.81.23,2.25,1.21-4.29,2.35-8.63,3.38-12.97.4-1.66.48-4.3.93-5.62.39-1.14,2.22-2.61,1.78-3.84ZM57.49,250.12c1.66.47,2.53-2.58,2.91-3.85.39-1.28.35-2.76.65-4,.69-2.77,2.36-6.2,1.37-8.89l-4.94,16.74ZM311.27,337.45c2.83,1.35,1.68-2.11.02-1.38-.76.33-2.3,4.08-2.76,5.15-.85,1.94,1.95,1.26,2.81-.49.7-1.43-.24-1.95-.07-3.27ZM315.82,339.95c-.25-.6-.55-.19-.77.21-.6,1.08-2.48,5.92-2.42,6.96-.18.3.52.49.66.48,1.38-.04,2.41-6.33,2.53-7.65ZM324.27,344.74l-1.15-.5c-.33,1.29-1.59,2.7-1.1,4.07.51-.42,2.63-3.1,2.25-3.57ZM320.55,346.34l.02-1.37c-1.15,1.06-2.12.23-3.06,1.52-1.38,1.92-4.87,7.38-5.23,9.47-.08.47.03.96.24,1.38l7.43-9.78,1.21-.12.4-1.05-1.01-.05ZM54.75,243.76c.21-.03,1.15-1.08,1.58-1.2-1.19-2.37-2.18-1.29-2.74.82.38.11.77.43,1.16.38ZM64.33,245.94l-.87-.37c-.41.16-.76,2.69-1.02,3.19-1.26,2.41-1.71,3.41-2.31,6.3-.45,2.16-.56,6.48-1.36,8.24-.39.87-1.67,1.34-2.03,2.61-.27.95.43,2.01.48,3.03.13,2.51-1.18,4.18-1.75,6.45-1.15,4.59-.48,12.02-2.65,16.03-.27.49-.49,1.01-1.17.73-.29-.49-.42-.98-.43-1.55-.1-5.27,1.48-8.86,2.34-13.64.09-.5.2-2.73-.81-2.39-1.17.96-2.22,7.88-2.42,9.72-.15,1.38.3,3.03-.02,4.47-.39,1.72-1.5,2.8-1.85,4-.26.9.32,2.46,0,3.48l-.87.14c-.66-.33-1.51-4.19-1.32-4.89.09-.36,1.86-2.56.78-2.55-3.51,1.15-1.3,5.34-1.32,8.24,0,.77-.3,4.87-.74,5.14-1.59-1.4-1.28-3.62-2.19-5.37-1.43,3.53-.33,7.93-1.02,11.71.58,1.06,3.66-2.02,4.36-2.59l-.44-2.96c.27-.94,1.3-.74,1.54-1.38.17-.44.16-4.18.37-4.25,1.3.78.64,3.06,2.33,3.7.6-.97.01-1.94.21-2.94.25-1.28,1.16-3.32,1.99-4.34.3-.37.03-.6.77-.19-.09,2.9.28,5.87.07,8.77-.08,1.2-1.18,6.96-.73,7.26.86.05,1.69-.62,1.99.62l-1.63.72c.34,1.59-.46,3.25-.3,4.81.2,1.88,1.27,2.26-.21,4.54l.72,4.77c2.8-1.67,1.22-4.09,1.17-6.81-.04-1.72.16-5.64.89-7.09.5-.97,1.68-1.44,1.75-2.72.06-.98-1.62-1.01-2.24-1.52-1.2-.98.74-5.59.97-6.86s-.33-2.71-.31-4.08c.22-12.23,2.58-24.44,5.76-36.16.5-1.83,1.7-5.57,1.82-7.22.06-.77-.37-1.23-.33-1.61.1-.85,1.39-1.43,1.66-2.04.28-.65.06-2.32.33-3.14ZM321.27,356.66c.26-.67,3.78-5.09,2.72-5.48-1.11.7-3.57.36-4.28,1.6-.75,1.3.14,3.45,1.57,3.89ZM303.7,353.83c2.26,1.03,3.32-2.56,3.72-4.2.23-.95.19-2.58-.32-3.45.04.76-.95,1.5-1.08,1.82l-2.32,5.83ZM309.74,353.47c-.22.45-2.03,1.73-1.1,2.33s2.7-1.81,1.1-2.33ZM319.83,361.97c2.25-2.42-.54-3.24-.88-.33l.88.33ZM57.01,256.52c-.85-1.48-3.09,4.45-3.04,5.02,2.65.31,2.82-3.09,3.04-5.02ZM277.94,347.19c-.96,1.44-1.4,4.23-2.32,5.83.67.52,1-.35,1.26-.8.52-.9,1.99-3.69,2.29-4.54.17-.49.25-.77-.06-1.23-.11-.04-1.06.58-1.16.74ZM301.89,370.34c1.09-.62,5.22-8.8,5.56-10.32.13-.58.1-1.12-.19-1.65-2.71.7-2.68,3.7-3.62,5.71-1,2.16-2.42,4.1-3.69,6.09.07.47,1.84.22,1.93.17ZM13.68,254.83c1.54-2.45,2.53-6.28,2.68-9.2.02-.44.28-.95-.23-1.26-.48,3.02-2.3,6.16-2.64,9.18-.05.45-.34.94.2,1.27ZM47.74,258.03l-.83-.53-3.22,2.02c2.12.44,3.26,1.01,4.05-1.49ZM312.5,363.92c-1.98-.92-3.94,2.3-1.87,3.41.59.32.39.14.62-.26.52-.91.76-2.19,1.25-3.15ZM324.79,369.17c-1.36-.21-1.82,2.65-.78,2.8.94.14,1.91-2.63.78-2.8ZM45.16,263.23c-1.75-.27-2.05,5.93-1.72,6.92.26.78,1.64,1.83,1.93.42.21-1.04.46-5.04.42-6.14-.01-.41-.15-1.13-.63-1.21ZM314.18,382.22c2.02-2.75,1.43-6.47,2.97-9.52-1.49.5-4.46,4.15-3.44.36-.71-.52-.87.18-1.03.82-.35,1.42.86,2.13.65,3.44-.33,2.1-2.02,3.72-2.45,5.51-.37,1.54.23,4.02-.19,5.66.38.24.76.18,1.04-.16,1.18-1.43.59-4.78,1.27-6.53l1.18.43ZM322.34,376.53l-.63-.54c-1.11-.31-2.21,2.86-1.57,3.09,1.04-.49,1.96-1.39,2.2-2.55ZM48.43,274.58c.35-.81,1.51-5.96.92-6.21-1.65,1.34-2.69,4.63-.92,6.21ZM300.57,372.76c-.14-.35-.83-.79-1.07-1.16-1.09-.56-2.08,3.39-2.52,4.31-.32.67-2.52,3.48-1.75,3.98.49.33.93-.27,1.25-.54,1.17-1.01,4.69-5.11,4.1-6.59ZM303.76,378.46c-.95.19-2.95,2.59-2.02,3.34,1.41,1.15,2.61-3.13,2.02-3.34ZM262.85,367.68c.92,1.39,2.72-1.9,1.93-2.69-.68.28-2.38,2.01-1.93,2.69ZM46.65,282.53c.32-1.16.93-2.97.24-4.06-.45.96-.74,2.11-.73,3.17,0,.55-.33.72.49.89ZM40.84,276.77c-1.41.23-1.98,1.79-1.22,2.95.82-.24,1.9-1.13,1.85-2.01l-.64-.94ZM316.14,386.51c-1.09.14-2.72,3.76-1.96,4.05,1.09-.14,2.72-3.76,1.96-4.05ZM65,287.77c-1.59-.57-1.79,2.61-2.01,3.71-2.2,11.2-1.85,19.79-1.11,30.94.26,3.87-1.29,9.77,2.87,12.01,1.09-1.56-.25-2.63-.6-4.07-.68-2.75.14-5.95.18-8.75.06-3.44.25-8.49-2.17-11.09.86-.7,2.35-.85,2.27-2.21l-1.28-.32c.28-6.72.64-13.58,1.85-20.24ZM295.01,382.58c-.47-1.04-3.25,1.62-3.67,2.11-.83.95-1.6,2-1.89,3.26.55.61,1.22.8,1.89.19.31-.29,3.81-5.25,3.67-5.56ZM305.9,393.51c2.27.79,3.61-4.22,1.24-2.6-.98.67-1.03,1.54-1.24,2.6ZM9.35,280.48c.59-1.59,1.78-3.94.84-5.55-.44,1.15-.84,2.56-1,3.77-.05.41-.26,1.56.16,1.78ZM40.88,291.57c.24-.1.43-.38.58-.6.45-1.46-1.14-4.37-2.45-2.3-1.18,1.84.19,3.58,1.87,2.9ZM265.22,378.68c-.89-.14-3.37,3.35-1.68,4.2,1.49.59,3.23-3.96,1.68-4.2ZM295.14,396.15c-1.54.38-3.87,2.03-2.71,3.76,1.82-.48,2.08-2.24,2.71-3.76ZM254.72,381.08c-.45-.69-3.42,1.86-3.28,2.15,1.09.56,2.16-.03,3.16-.48l.12-1.68ZM286.06,394.61c-.54-1.13-3.9,3.34-4.16,3.88-1.06,2.24,3.4-.09,3.85-1.37.25-.71-.09-1.75.31-2.5ZM261.43,385.13l-2.17.41c-.13,1.11-2.61,4.09-1.85,4.91.43.47,1.27-.83,1.49-1.13.41-.54,2.63-3.92,2.53-4.19ZM61.12,346.16c-1.47.11-4.47-3.61-5.26-1.58.53,1.69.28,4.09.72,5.64.41,1.45,2.17,2.71,1.16,4.45-1.75,3.02-2.46-3.29-2.64-3.81-.32-.93-1.08-1.61-1.39-2.62-.45-1.49-.17-3.46-.49-4.99-.35-1.64-1.92-4.32-1.55-6.03.12-.55.66-.88.63-1.49-.02-.6-1.26-2.69-1.53-3.58-1.91-6.28-.6-13.25-1.31-19.5-.3-2.61-.03-5.1-.2-7.6-.03-.42.03-.94-.39-1.19-2.26,4.91-1.74,10.81-1.41,16.08.65,10.15,2.05,19.74,4.43,29.56.71,2.93.27,6.95,3.32,8.85-.21-1.07.76-2.21,1.8-1.62.77.44,2.5,5.29,2.85,6.43,3.34,10.83,4.83,15.98,12.77,24.73.48.53,1.33.67,1.69,1.26.44.73-.29,1.9.25,2.87,1.44,2.59,8.18,9.52,10.58,11.8,1.09,1.03,5.15,4.77,6.16,5.29s2.53.68,3.09-.48c-6.32-3.44-11.01-9.12-14.91-15.02-.61-.93-1.27-2.9-2.01-3.6s-2.65-1.18-2.76-1.42c-.04-.07.18-.87-.09-1.57-.68-1.73-3.07-4.38-4.12-6.16-4.18-7.09-8.72-15.88-10.76-23.86-.3-1.18-1.36-4.43.57-4.22,2.66,3.92,2.78,8.83,4.69,13.1,4,8.96,19.71,33.88,27.91,38.28.34.18,1.02.63,1.36.41-3.74-6.26-9.38-11.39-13.86-17.08-1.15-1.46-2.39-3.15-3.21-4.81-1.02-2.07-1.18-4.47-2.19-6.24-.62-1.09-1.71-1.91-2.26-2.99-.51-.99-.5-2.49-.95-3.31-.34-.61-1.09-1.06-1.49-1.84-.68-1.32-.67-3.62-1.26-5.16-2.02-5.26-5.41-10.64-5.41-16.5,0-.77.51-1.72.27-2.35-.34-.89-2.64-2.43-3.59-1.42l.77,3.25ZM289.6,403.98c-.62-.45-.55-.06-.83.11-1.98,1.14-3.08,3.23-3.76,5.34,2.38-.67,4.24-3.05,4.59-5.45ZM58.3,332.67c1.01-.74,1.12.4,1.21-2.05.13-3.44-1.23-7.24-1.47-10.51-.18-2.43.81-5.21-.18-7.48-.41.9-.74,1.79-.95,2.76-.34,1.59-.92,7.96-.86,9.54.07,1.7,1.79,3.59,1.19,5.66h-1.71c-.74-1.69-.32-4.25-2.62-4.68-.35.14-.13,5.72.17,6.49.3.78,1.05,1.47,1.23,2.2.58,2.34-.18,3.69,1.53,6.53s2.44-2.35,2.53-3.68c.64.22,1.14.7,1.61,1.16s1.51,2.59,1.92,1.16c.09-.3-.97-5.05-1.19-5.2l-2.54,1.03-1.44-.92c.16-.88.89-1.5,1.57-2ZM298.96,412.52c.29-.14,1.11-2.2.39-2.57-.19,1.05-2,1.77-2.3,2.43-.16.35.18,1.01,0,1.66-.31,1.12-1.26,1.91-1.58,3.02,2.03-.59,2.28-2.71,2.14-4.5l1.35-.04ZM249.96,392.74c-.83-.1-2.98,1.66-1.82,2.68.75-.45,3.95-2.43,1.82-2.68ZM255.16,394.76c-.39-1.07-5.25,2.91-5.65,3.28-.3.28-1.68,1.58-1.57,1.8,1.73,1.19,7.54-4.22,7.22-5.09ZM278.18,403.94c-.56-.36-.82-.01-1.21.36-1.17,1.13-2.66,3.61-3.39,5.08.71.44.59.1.97-.31,1.32-1.39,2.29-3.66,3.62-5.14ZM282.31,408.35c.54-1.05,1.14-2.42-.51-2.62-1-.13-.59,2.8.51,2.62ZM44.52,312.17c-1.6-.47-2.2,1.24-1.51,2.49l.96-.17.55-2.32ZM284.96,420.84c.5.32.85.03,1.27-.21.92-.52,4.57-2.95,5.13-3.63,1.05-1.29,1.75-2.54.73-4.06l-7.13,7.89ZM237.2,402.55c.38-.08.74.52.7.76-.28,1.6-4.54,1.86-5.65,2.4-2.16,1.04-3.67,3.52-2.67,5.88,2.11.18,2.47-2.15,3.5-3.37l11.43-9.72c.8-.42.7-2.79-.2-2.18-2.16,2.39-4.4,5.77-7.97,5.66v.86c.67.59.72-.27.85-.3ZM44.42,324.6c-.21-1.19.75-2.13.86-3.22.07-.68-1.02-4.12-1.41-4.97-1.34,2.6-1.71,6.01.55,8.18ZM277.25,415.74c-.04-.13-.53-.35-.59-.61-.26-1.16,2.32-3.06,2.76-4.01.19-.4,0-.9-.42-.96-1.81,1.38-5.78,4.46-6.31,6.66-.72,2.98,4.83-.09,4.57-1.07ZM34.08,320.13c.59-1.53,1.66-3.24.74-4.89-1.1-.4-3.13,4.54-.74,4.89ZM224.85,421.04c.72-.29,3.5-3.31,4.56-4.09,1.61-1.2,3.67-1.88,5.16-2.99,1.12-.83,1.88-2.05,2.96-2.92,1.89-1.53,8.66-5.34,9.23-7.33.3-1.07-.37-1.72-1.46-1.09-6.55,3.84-11.7,10.16-18.18,14.18-1.74,1.08-4.02,1.18-4.73,3.68.65.26,1.79.83,2.47.55ZM257.03,429.39c-.12-.18-.04-.92.05-1.15.32-.84,4.29-3.59,5.38-4.69,1.79-1.81,3.43-4.55,5.3-6.11.81-.67,2.39-1.13,2.92-1.85,1.29-1.75,1.02-4.12-1.25-2.34s-3.36,5.93-6.18,7.37c-.39.2-.95-.05-1.48.14-1.2.43-6.35,5.57-7.04,6.75-1.05,1.79,1.22,3.47.49,5.16-.65,1.5-7.41,4.84-6.87,6.16.38.2.78.27,1.21.23,1.55-.16,4.94-4.87,6.27-6.15.71-.68,2.2-.96,2.53-2.23-.05-.82-1.1-.94-1.33-1.28ZM282.09,421.09c-.49-.29-.65-.28-1.16-.1-.62.22-6.47,5.32-6.65,5.84-.14.42,0,.78.23,1.12l.95.51c.79.05,6.97-6.57,6.63-7.37ZM43.77,335.04l.7.32c1.13.03.66-3.68.5-4.42-.18-.82-.61-1.55-.92-2.32-.63.17-.57.23-.68.78-.34,1.71.38,3.92.41,5.65ZM269.3,420.14c-2.96-.4-4.52,3.94-6.14,5.86,1.19-.03,6.3-5.47,6.14-5.86ZM285.14,426.46c-1.4-.32-2.82.13-3.87,1.05.95,2.01,3.45.64,3.87-1.05ZM279.17,436.21c.78-1.24,5.03-4.43,1.91-4.78.14,1.92-1.3,3.29-2.5,4.54l.59.24ZM220.95,415.42c1.44.85,2.64.65,4.04-.11l4.02-3.6c-2.73.97-6.21,1.26-8.06,3.71ZM42.45,341.8c1.08,1.49,2.78-1.02,1.49-1.77-.92-.54-1.89,1.22-1.49,1.77ZM48.66,347.3c-.54-1.53-.92-3.15-1.56-4.65l-1.03.52c-.87,1.16,1.33,4.06,1.82,5.32,1.78,4.67-.22,11.93,5.54,14.34,1.11-.44-2.82-5.95-3.11-6.96-.42-1.44-.02-2.92-.18-4.38-.21-1.92-.95-2.72-1.48-4.2ZM111.58,413.39c.36-2.24-2.85-2.9-4.17-3.78-5.08-3.35-11.05-10.8-15.16-15.53-4.44-5.11-10.37-11.56-13.46-17.5-3.65-7-5.71-17.47-9.8-24.02-.29-.46-.38-.8-1.03-.91-.37.55-.18.85-.05,1.38,2.46,9.52,8.74,25.14,14.46,32.92,2.54,3.46,5.67,6.49,8.45,9.74,1.32,1.55,2.39,3.61,3.75,5.08,1.6,1.73,13.57,11.51,15.31,12.24.55.23,1.17.15,1.72.37ZM39.37,345.1c.32-.13-.09-4.16-1.14-4.11l-.97.67c-.34.85,1.68,3.61,2.1,3.43ZM271.04,434.01c-.34-.94-7.48,3.14-5.34,5.14.47.44.57-.15.81-.38.69-.63,4.71-4.25,4.52-4.77ZM224.57,449.78c2.13.51,2.84-1.98,3.87-2.81,1.47-1.18,7.24-2.81,9.3-3.71,3.92-1.7,4.71-3.76,7.76-6.16,1.04-.81,2.98-1.56,3.65-2.46.59-.79.76-1.7,1.4-2.51.55-.71,2.81-1.56,2.16-2.5-.2-.3-.77-.6-1.12-.55-.38.05-5.32,3.94-6.09,4.55-4.4,3.49-8.51,7.42-13.43,10.23-2.91,1.67-7.06,1.88-7.49,5.91ZM216.29,415.69l-1.11-.43c-4.76,3.54.96,5.08,1.11.43ZM40.75,352.93c.96-2.02.07-5.73-2.4-6.15-.68.24,1.39,6.61,2.4,6.15ZM220.55,422.28c-.09-.23-.45-.57-.74-.56-.49.21-.98.41-1.46.63-1.2.57-3.78,1.89-4.84,2.56-.46.29-.8.38-.91,1.04,2.16.48,3.78-.72,5.64-1.57.86-.39,2.97-.47,2.32-2.1ZM256.88,437.37c-.23-.66-4.11,1.53-2.95,2.63.92.88,2.85-1.81,2.95-2.63ZM258.61,442.82c.19.43.82.87,1.32.81,2.16-.82,2.63-2.17.07-2.77-.73.41-1.83.97-1.39,1.96ZM45.24,366.84c1.23-.91,1.29-2.99-.1-3.78-.59-.33-1.34,0-1.93-.64-1-1.08.56-5.44-1.42-6.56-1.14-.64-1.4.18-1.27,1.26s1.19,5.19,1.61,6.24c.6,1.5,1.6,2.77,3.11,3.47ZM220.36,427.31c-.53-.34-.86-.2-1.38-.06-.77.22-8.38,4.47-8.98,5.04-.53.49-.92,1.2-1.34,1.78-1.66-2.09-4.59.99-6.48,1.92-1.63.81-4.54,1.47-5.75,2.19-.47.28-.8.4-.91,1.04,3.25.68,6.17-1.15,9.05-2.27.69-.27,1.62-.19,2.25-.52,1.17-.61,1.33-1.77,1.99-2.29.56-.44,4.33-1.4,5.52-2.14,1.87-1.16,4.19-3.33,6.03-4.69ZM201.22,424.15c.27,1.17,2.78.81,2.82-.58-.49-1.71-3.09-.57-2.82.58ZM65.29,383.5c.65-.4-1.73-3.37-2.05-3.94-2.48-4.43-4.64-8.99-5.32-14.08l-3.77-.96-.17,4.03c3.3.69,3.22,3.46,4.54,5.85.86,1.56,1.99,2.94,2.9,4.45.7,1.15,1.45,3.8,2.5,4.39.24.14,1.31.3,1.37.26ZM211.64,428.34c-.43-.85-4.66,1.28-5.33,1.71-.4.26-.61.83-.96,1.08-.41.3-1.23-.09-1.35.74.18.4,7.08-2.91,7.64-3.53ZM253.3,447.33c1.04,1.42,4.34-1.68.13-1.27l-.13,1.27ZM191.25,427.02c.51-.18,2.49-1.51,2.33-2.07-1.6-.1-3.32.1-4.58,1.17-.26,1.4,1.35,1.21,2.25.9ZM50.1,376.41c1.09-.4-2.61-6.55-3.41-6.21-.86,1.48,1.87,6.78,3.41,6.21ZM239.1,450.72c.86.44,1.94.18,2.71-.32.34-.22,1.85-1.49,1.13-1.96-.68-.44-4.07,1.79-3.84,2.27ZM196.82,434.21c.28.65,2.87-.39,3.16-.98.25-1.33-3.52.14-3.16.98ZM234.9,447.32c-.24-.71-.83.16-1,.25-1.01.51-1.96,1.3-2.94,1.81-1.64.86-3.23.36-3.7,3.21,1.41.7,7.79-4.82,7.64-5.27ZM58.77,381.6c.36-.65.08-2.91-.69-3.04-1.37-.24-.37,3.02.69,3.04ZM193.9,433.42c-.46-.1-4.01,1.9-4.23,2.33-1,1.98,4.28.6,4.99-.54l-.77-1.79ZM56.24,385.66c-.2-.33-.04-.94-.6-1.36-.61-.45-1.83-.08-2.25-1-.59-1.09,1.17-3.45.01-4.47-1.34-1.17-2.21,1.25-2.2,2.44,0,.59,1.72,5.32,2.09,5.79.92,1.16,3.01,1.39,4.36,1.72.73-.37-1.14-2.68-1.41-3.11ZM184.45,431.36c-.45-.86-8.06.37-9.32.5-1.91.21-4.86-.58-5.8,1.78,2.19,2,4.16-1.24,5.01-1.3.71-.05,1.74.57,2.76.67.77.07,5.26-.57,6.08-.83.52-.16,1.12-.15,1.25-.83ZM249.92,457.46c-.17-.45-1.79.38-2.12.53-1.54.7-4.19,2.23-5.55,3.23-.48.35-1.6.79-1.06,1.6.65.73,1.53.29,2.24-.01.91-.39,6.73-4.69,6.49-5.35ZM232.71,453.42c-1.11-.34-3.21,1.22-1.92,2.23,2.48,1.94,3.53-1.74,1.92-2.23ZM61.6,387.6c-1.57,1.52.9,4.35,2.37,2.32.56-.77-1.64-2.29-2.37-2.32ZM173.52,438.04c.87,1.19,3.48.26,4.12-.9.18-.9-2.75-.95-3.25-.8-.64.19-1.16,1.31-.88,1.7ZM185.18,442.29c.42-.22.72-.64.87-1.08-.13-.62-.18-.62-.76-.7-1.76-.24-5.79,1.23-7.4,2.09,1.17,1.05,6.15.3,7.29-.31ZM163.3,434.01l.21-.96c-.06-.31-.19-.35-.44-.46-.66-.27-4.67-.39-5.6-.32-.41.03-1.18-.18-1.29.45-.28,1.62,6.15.96,7.11,1.28ZM124.2,420.85c.53-1.4-1.11-1.89-1.71-2.61-.46-.56-.47-2.28-1.46-1.59l1.09,2.99,2.08,1.21ZM227.93,463.94c2.38.76,4.3-.99,4.77-3.29-1.9.4-4.09,1.25-4.77,3.29ZM149.72,428.94l-.39-1.2c-2.01-.39-3.91-1.13-5.9-1.62-.55-.14-1.14.09-1.48,0-.5-.14-1-1.11-2.11-1.48-.87-.29-1.8-.04-2.66-.33-1.16-.39-1.87-1.5-3.24-1.33-1.31.87.84,2.1,1.75,2.46,1.84.72,4.78.88,6.37,1.48.87.33,1.5,1.01,2.54,1.38.62.22,4.8.84,5.13.65ZM64.35,399.76c1.33-.62-2.04-5.07-1.87-6.27l-3.39.36c-.61.36,4.23,5.83,5.27,5.9ZM105.01,414.23c-1.58-2.74-5.07-4.94-7.78-6.56,0,.7.4,1.25.85,1.74,1.62,1.78,4.72,3.91,6.93,4.82ZM75.77,399.81c-.95.33,2.48,4.52,2.77,4.87.85,1,5.41,5.75,6.22,6.02.47.15.8.24,1.24-.06.27-.4-.12-.78-.28-1.12-.66-1.4-6.76-8.05-8.11-8.9-.57-.36-1.22-.58-1.84-.82ZM210.47,455.59c-.23-.5-5.93,1.08-6.76,1.26-1.62.34-7.73,1.78-8.75,1.53s-1.88-.8-2.93-1.05c-2.03-.48-5.58-.46-6.53,1.81.42.92,7.27-1.13,7.86.71v1.73c5.48-2.84,12.64-.92,17.11-5.99ZM221.58,462.41c1.18-1,1.37-2.69-.51-2.06-1.54.52-.82,1.79.51,2.06ZM149.34,432.34c-1.3-.38-2.95-.37-4.31-.76-3.49-1-7.52-3.12-10.86-3.94-.35-.09-1.82-.29-1.95.05.26.79.88,1.25,1.63,1.55,2.32.92,5.83,1.89,8.32,2.59,1.84.52,5.83,1.77,7.5,1.89.35.03.71-.11.78-.49-.16-.72-.51-.71-1.1-.89ZM233.61,466.2c-.24-.59-5.4,1.89-5.13,2.45.96.9,5.31-2.01,5.13-2.45ZM122.07,423.49c-.08-.34-5.52-4.38-5.94-3.26.37.83,2.73,3.9,3.34,4.27,1.14.69,2.87.17,2.6-1.01ZM101.54,417.7c.09-2.66-3.03-4.37-5.09-5.49.87,2.32,2.66,4.61,5.09,5.49ZM224.06,463.84c-.53-.05-1.26.38-1.31.96.55,1.53,1.84.87,2.74.06-.16-.7-.76-.96-1.42-1.02ZM67.65,402.55c-.3-.63-1.82-1.34-2.03-.73-.16.46,1.29,2.03,1.97,2,.2-.08.17-1.05.07-1.26ZM89.87,411.03c-1.25-.26-2.6,2.79-.37,3.21.67.13,1.9-.18,2-.99.07-.53-1.16-2.12-1.63-2.22ZM211.67,459.53c-1.34-.43-3.31-.37-3.64,1.32,1.34.43,3.31.37,3.64-1.32ZM36.67,395.31c.58-.2-1.76-6.93-2.99-6.39-1.2,2.29.5,5.79,2.99,6.39ZM152.8,436.37l-1.7.76.67,1.5,1.7-.76-.67-1.5ZM92.58,414.13c-.34.77-1.27,2.96-.78,3.68.34.5,4.54,3.03,5.2,2.91,3.26-.61-1.48-2.83-2.09-3.5-.92-1.01-.7-2.79-2.33-3.08ZM110.63,424.45c-1.58-1.79-3.32-3.45-5.44-4.6-.08,2.64,3.31,3.73,5.05,5.13l.39-.54ZM145.7,436l-4.48-1.79s-1.16-.07-.84.36c.47,1.28,4.49,2.7,5.39,2.15l-.06-.72ZM127.79,430.94c.33-1.75-2.29-2.11-3.53-2.44-.86,2.14,2.05,2.31,3.53,2.44ZM219.15,465.98c-1.22-.72-1.94-.5-2.92.4.15,1.32,3.22.16,2.92-.4ZM226.68,469.67c-5.65.4-11.17,1.6-16.63,3.08-1.39.38-2.72,1.17-4.29,1.54-.99.23-3.39-.04-3.8.93l.02,1.24c.43.93,2.85.36,3.8.19,5.7-1.01,14.85-3.45,19.89-6.17.42-.22.92-.2,1.01-.81ZM155.89,442.15l-15.89-2.71c.15.74.55.69,1.09.88,3,1.03,10.26,2.4,13.41,2.33.49-.01,1.07-.08,1.39-.5ZM101.32,421.81c-.82.81-1.6,2.09-.38,2.86h1.49c.3-1.2.45-2.68-1.11-2.86ZM133.53,435.66c-.97-1.08-3.37-1.43-3.88.18,1.13,1.15,3.21,1.62,3.88-.18ZM117.43,431.31c-1.88-.25-4.98-2.36-7.03-2.8.03.51,1.02,1.46,1.39,1.76,3.19,2.55,3.94.89,6.43,1.68,1.62.52,2.79,2.61,5.1,2.4-.38-1.3-2.36-3.77-3.69-3.72-.46.02-1.86.73-2.2.68ZM209.01,466.83c-2.34-.31-4.2,4.69-.34,3.29,2.05-.74,2.17-3.05.34-3.29ZM30.85,399.8c-.53-1.45-.84-3.03-2.36-3.94-1.73,1.23,1.49,6.02,2.54,6.21,1.42.25-.12-2.12-.18-2.27ZM189.02,461.59c-1.74-.06-3.94.04-5.62.47-.48.12-.96-.02-1.07.67.28.54,5.95-.52,6.69-1.14ZM202.42,471.44l-2.13-1.73c-4.22,1.48-.36,4.83,2.13,1.73ZM38.67,413.77c.91-.49-1.38-6.21-3.11-6.09-1.21.49,2.44,5.61,3.11,6.09ZM158.9,461.66c1.38.79,6.22,1.1,6.58-.96.11-.64-.44-.5-.72-.56-1.65-.36-3.89.14-5.6-.03l-.25,1.56ZM190.53,473.15c.49-.22,1.37-.66.81-1.28-3.59-.05-7.48.19-10.66,1.97,2.8.95,7.15.52,9.85-.7ZM154.43,459.32c-3.39.4-7.42-1.25-10.63-1.23-1.55.01-1.89,1.21-.78,1.63,1.24.47,11.22,1.74,11.64,1.14l-.23-1.54ZM62.05,427.25c1.09-.45-1.68-5.34-2.51-1.39l2.51,1.39ZM140.37,456.75c-1.93-.47-3.93-.93-5.88-1.3-.46-.09-.88-.1-1.05.43-.33,1.85,6.03,2.78,6.93.86ZM51.83,427.68c-1.15-2.26-3.92-3.48-5.73-5.34-.61-.63-.8-1.34-1.14-1.74-.61-.7-1.72.14-.88,1.12,1.9,2.25,5.18,4.57,7.76,5.95ZM128.66,454.85c-2.8-.53-5.48-4.39-8.31-2.62,2.04,1.5,5.05,3.27,7.66,3.14.48-.02.49.16.64-.52ZM69.84,432.7c.23-.57-.05-1.21-.62-1.43s-1.21.05-1.43.62.05,1.21.62,1.43,1.21-.05,1.43-.62ZM175.65,474.28c-1.68-1.15-2.3.18-3.55.66-2.24.85-3.35-.15-5.53-.47.93,3.06-2.01,2.67-3.73,3.7-1.78,1.06-1.33,1.5.63,1.47,3.7-.06,3.97-1.87,6.52-3.28,1.8-.99,3.95-.91,5.67-2.08ZM136.74,461.52l1.21.79c1.91-.64,1.1-1.69-.67-1.63l-.54.84ZM72.22,434.77c-.96,3.11,2.77,1.76,1.27.56l-1.27-.56ZM135.06,460.52c-2.21-.78-3.73-2.11-6.11-2.4-.88-.11-2.87-.23-3.27.73.39.84,8.13,3.08,9.38,1.67ZM68.52,442.3c-.43-.98-1.57-2.08-2.34-2.83-2.56-2.5-7.5-7.28-10.24-9.22-.82-.58-1.6-.95-2.55-1.25l1.69,2.12c4.42,3.77,8.66,7.9,13.45,11.18ZM119.96,455.93c-.99.18-.78,1.86.55,2.08,2.14.36.83-2.32-.55-2.08ZM157.49,473.53c3.19-1.43-3.68-2.53-4.1-1.68-.9,1.8,3.04,2.16,4.1,1.68ZM98.46,451.73c.5,1.11,4.01,3.98,5.19,4.57,1.07.54,4.97,1.93,5.6.33.75-1.91-2.94-1.33-3.89-1.53-2.69-.56-4.49-2.23-6.08-4.35-.75-.31-1.1.36-.81.98ZM83.11,450.89c.62-.29-1.6-5-2.99-4.65-1.28.53,2.51,4.09,2.99,4.65ZM75.29,445.09c-.25-.4-.6-.69-1.07-.79-.24-.05-2.11-.22-2.11.3.33,2.35,3.33,3.51,3.18.49ZM154.03,478.12c1.62,1.1,3.81,1.72,5.61.68-.07-1.72-6.13-1.76-5.61-.68ZM87.54,450.23c-.83,2,5.27,5.21,5.92,4.26.37-.55-.48-1.11-.82-1.38-.53-.42-4.83-2.98-5.1-2.88ZM125.21,468.42c-.25-.08-.69.02-.95.11-2.66.92,1.77,3.68,1.58.78-.09-.37-.21-.77-.63-.89ZM101.44,462.99l.31-1.4-1.44-.4c-.51.51-.83,1.28-.4,1.94l1.54-.14ZM111.46,466.7c-.85.03-3.9-1.44-4.18-.8l.19.96c1.22.57,3.12,1.37,3.99-.16Z"/>
        <path class="cls-1" d="M311.98,191.48c2.43,2.71,1.82,7.62,1.52,11.12-.69,8.25-2.81,17.59-4.58,25.75-8.57,39.68-23.05,77.61-38.52,115.17-8.98,15.65-15.67,31.18-28.96,43.83-12.44,11.84-26.18,21.79-41.98,28.53-1.87.8-8.56,3.78-9.95,3.93-1.47.16-2.95-.22-4.48-.06-2.38.25-5.39,1.85-7.65,1.79-1.62-.04-3.24-.74-4.86-.93-2.32-.27-4.26.45-6.49.46-2.88,0-6.37-.59-9.02-1.69,1.23-.87,3.02-.75,4.48-.8,9.41-.33,18.11.59,27.59-1.51,2.3-.51,6.77-2.44,9.19-3.4,19.1-7.62,41.75-25.41,53.32-42.5,13.88-20.5,23.15-45.4,31.97-68.52,11.64-30.51,20.5-60.1,25.84-92.34.5-3.01,1.7-6.34,1.96-9.27.32-3.64-.59-8.09.26-12,.26-1.21,1.23-2.33,1.33-3.04.09-.64-.83-6.08-1.09-6.97-1.15-3.98-4.54-8.19-2.61-12.5,1.86,2.14,1.65,5.09,2.52,7.59,1.12,3.25,4.23,6.12,3.07,10.09-.32,1.08-1.32,1.76-1.43,2.17-.1.36.9,1.65.42,2.97-.36,1-1.45,1.22-1.85,2.14Z"/>
        <path class="cls-1" d="M114.64,476.98c-1.5,2.74-4.92.11-6.82-.66-7.55-3.07-15.74-6.41-22.73-10.54-2.67-1.58-6.06-4.51-8.61-5.73-15.11-7.21-25.19-15.58-35.94-28.37s-17.69-25.66-25.98-39.11c-.76-2.32-1.49-4.8-1.25-7.26.68-.29,3.18,5.54,3.57,6.26,6.14,11.22,13.42,20.38,20.15,30.97,1.14,1.8,1.84,4.05,3.09,5.61,1.64,2.03,4.45,3.97,6.4,5.92,7.21,7.23,12.62,13.47,21.54,18.98,9.24,5.71,20.4,12.24,30.24,16.72,1.86.85,16.15,6.31,16.35,7.22Z"/>
        <path class="cls-1" d="M43.32,137.07c2.45-6.38,5.97-12.3,9.39-18.2,11.83-20.44,24.8-43.73,39.82-61.8,1.15-1.38,5.5-5.48,5.87-6.03,7.93-11.94,15.83-20.25,25.36-30.79,1.5-1.66,2.89-3.71,4.45-5.24.22-.22.37-.79.82-.36.11.11.54,1.08.55,1.26.05,1-3.32,4.75-4.2,5.77-13.38,15.41-27.41,30.45-39.12,47.27-14.85,21.34-26.92,44.74-41.31,66.4-.4.6-.76,1.72-1.61,1.72Z"/>
        <path class="cls-1" d="M161.14,112.67c-1.05,2.94-3.73,4.95-5.62,7.39-3.77,4.87-6.71,10.36-10.22,15.41-10.91,15.7-22.23,31.23-31.99,47.74-1.98,3.35-3.44,7.83-6.03,10.76-.32.37-.11.54-.79.17,1.74-5.94,4.93-11.98,8.01-17.38,8.74-15.34,20.36-31.02,30.43-45.59,4.27-6.18,7.98-12.74,12.84-18.52,1.04-1.11,2.19-.51,3.36.03Z"/>
        <path class="cls-1" d="M317.03,413.91l.77.61c.35,1.54-6.07,8.33-7.37,9.97-12.93,16.32-32.02,34.58-49.79,45.51-1.2.74-7.67,4.55-8.58,4.23-.56-.72.34-1.07.84-1.49,4.87-4.15,10.98-7.61,16.1-11.52,7.16-5.47,14.33-12,20.92-18.19,7.33-6.88,12.44-12.59,18.74-20.37,1.12-1.38,7.16-8.85,8.37-8.76Z"/>
        <path class="cls-1" d="M397.85,170.67c-.23,6.16-1.1,12.37-1.86,18.51-1.11,8.93-2.59,17.77-3.86,26.68-1.61,11.27-2.56,26.69-7.62,36.99-.24.5-.36,1-1,1.14-.3-1.79.07-3.6.4-5.37,1.1-5.81,2.86-11.68,3.95-17.55,3-16.15,3.62-32.81,6.24-49,.49-3,1.56-8.65,2.97-11.19.22-.39.51-.8.77-.21Z"/>
        <path class="cls-1" d="M15,306.29c-1.28.34-1.16-6.28-1.16-7.05-.2-17.81,3.04-32.26,6.29-49.52.37-1.99.28-5.36.96-7.07.32-.79,1.15-1.33,1.57-2.42,1.57-4.07,1.05-9.66,3.67-13.61,1.21.3,1.55,1.04,1.45,2.23-.16,1.85-1.22,5.95-1.73,7.93-4.29,16.77-8.58,33.58-9.63,50.96-.29,4.74.43,12.25-.4,16.53-.18.9-.42,1.34-1.02,2.03Z"/>
        <path class="cls-1" d="M113.57,402.13c.04.31-.18.58-.27.87-3.79-1.18-6.57-4.07-9.32-6.77-2.58-2.54-5.87-6-7.76-9.05-5.96-9.64-11.27-19.37-16.04-29.76-1.64-3.57-6.41-12.88-5.53-16.45.14-.56.41-1.09.62-1.63.86-.42,2.84,6.87,3.16,7.68,2.04,5.08,4.89,11.52,7.32,16.42,1.29,2.61,1.95,3.9,3.09,6.6.56,1.32,2.33,2.8,3.11,4.36,2.12,4.21,5.1,9.89,8.02,13.65,1.78,2.3,13.46,13.12,13.6,14.09Z"/>
        <path class="cls-1" d="M208.34,52.5c2.48,4.12,1.43,8.03-1.99,11.22-1.26,1.17-3.12,2-4.3,3.25-6.04,6.44-13.07,13.71-18.72,20.41-5.39,6.4-10.34,15.72-16.81,20.83-.5.4-3.13,2.36-3.56,2.07-.84-.57,1.23-2.96,1.69-3.56,12.06-15.86,25.09-29.59,38.48-44.17.97-1.05,2.58-1.99,3.35-3.15,1.39-2.09.82-4.66,1.87-6.9Z"/>
        <path class="cls-1" d="M50.89,177.16c4.95,1.65,2.5,12.38-2.74,6.88-1.85,4.32-3.1,9.05-5.85,12.91-2.28-.95-.54-2.94,0-4.31,4.21-10.66,8.83-21.31,13.36-31.77,3.03-7.01,6.84-15.73,10.7-22.3.9-1.53,3.11-5.24,4.19-6.39,1.15-1.23,1.58.38,1.45,1.35-.28,2.17-5.95,9.76-7.35,12.58-2.36,4.75-4.95,9.65-7.16,14.47-2.45,5.34-4.23,11.2-6.62,16.59ZM49.06,180.97c-.32.07-1.32,1.59-.7,2.11l1.99-1.11c-.06-.55-.88-1.09-1.29-1Z"/>
        <path class="cls-1" d="M197.23,28.68c.76.14,5.53,4.71,6.46,5.62,5.8,5.69,14.31,16.39,12.61,25.04-1.17,5.94-7.43,12.36-12.31,15.66-.74-.45-.88-1.64-.52-2.35.86-1.68,4.66-4.67,6.11-6.56,7.85-10.19,1.95-19.44-5.67-27.43-1.9-2-7.39-5.98-7.41-8.71,0-.45,0-1.41.72-1.27Z"/>
        <path class="cls-1" d="M383,85.41c-.17.76-.3.53-.89.5-4.48-.27-10.2-1.99-14.99-2.57-10.19-1.25-19.62-.88-29.79-.73-3.45.05-6.69-.53-10.08.17-1.09.23-7.16,2.63-7.6,1.62.12-.59.41-.87.82-1.26,4.98-4.64,34.87-3.33,42.26-2.53,6.76.73,14.25,1.45,20.27,4.79Z"/>
        <path class="cls-1" d="M275.57,307.96c.67-1.86,1.55-3.67,2.22-5.54,1.21-3.4,1.49-6.58,2.47-9.73,2.02-6.54,5.71-13.19,7.9-19.74,1.98-5.92,2.32-12.4,5.46-18.08.32.13.7.22.97.45,1.15.99-.45,6.61-.88,8.06-4.47,14.88-10.6,29.29-16.09,43.85-.37.9-1.18,1.22-2.04.73Z"/>
        <path class="cls-1" d="M12.51,381.17c-.57-.07-.51-.45-.72-.8-1.16-1.95-1.46-4.41-2.26-6.46-.72-1.83-2.16-3.85-2.65-5.55-1.9-6.69-8.06-28.49-6.68-34.28.21-.87.56-1.68.91-2.49,1.43,3.46,2.17,7.79,2.81,11.54.97,5.61,1.08,11.7,2.92,17.08,1.12,3.27,6.89,16.34,6.48,18.77-.13.78-.53,1.47-.8,2.2Z"/>
        <path class="cls-1" d="M11.75,332.95c.32.62.78.97,1.41.51-.12-3.89,1.79-3.72,2.81-.21.4,1.39,2.15,9.84-.21,9.7-1.83-.11-1.12-3.17-1.81-4.13s-1.98-.94-2.81-1.76c-.4-.4-1.2-2.31-1.3-2.91-.84-4.86.67-12.33-.01-17.58-.2-1.52-.9-2.37-1.2-3.7-.65-2.88-.62-8.61,2.16-10.34.91,7.98,1.99,16.53,1.04,24.57-.1.86-.69,1.6-.79,2.57-.03.32.57,2.98.72,3.28Z"/>
        <path class="cls-1" d="M335.23,212.22l1.37.25c1.13,1.48-.01,2.54-1.63,2.09-.58,2.86-.39,6.31-3.41,7.81.24.93.98,1.79.82,2.82-.26,1.77-1.55,5.65-2.22,7.4-.25.65-.84,1.12-1.03,1.8-.82-1.85-.27-4.58.02-6.57.46-3.13,1.4-5.45,2.11-8.34,1.93-7.76,2.65-15.85,4.22-23.86.35-1.78-.14-6.85,2.64-5.11,1.99,1.25.19,3.81-.18,5.29-.48,1.9-3.22,15.65-2.72,16.41Z"/>
        <path class="cls-1" d="M306.24,188.88c.43.07.52.61.63.96-1.43,11-2.26,22.33-4.24,33.28-.68,3.78-1.35,7.24-3.06,10.75-.25.52-.3,1-.99,1.14-.91-.39,1.64-10.49,1.86-11.94,1.4-9.11,1.57-18.78,3.29-27.92.22-1.14,1.03-6.52,2.51-6.28Z"/>
        <path class="cls-1" d="M104.12,201.59c.33.86-1.84,6.65-2.34,7.81-2.01,4.63-3.21,7.49-4.89,12.26-.37,1.05-5.18,12.67-5.81,12.41-.68-.58-.76-2.56-.71-3.41.24-3.64,3.74-10.63,5.22-14.38,1.68-4.25,3.08-9.77,5.82-13.51.42-.57,2.13-2.72,2.71-1.18Z"/>
        <path class="cls-1" d="M163.24,488.04c-.14.71-.75.63-1.3.71-6.51.93-9.37-.26-15.47-1.4-7.85-1.47-14.92-2.07-22.6-5.27-1.26-.53-3.2-1.97-2.94-3.48.39-2.31,2.33,0,3.43.52,7.23,3.38,20.11,7,28.08,7.72,3.51.31,7.4-.63,10.8,1.21Z"/>
        <path class="cls-1" d="M397.31,165.95c-.64-.11-.75-.44-1.04-.91-1.51-2.48,1.07-20.63,1.26-24.82.22-4.84-.64-9.71.57-14.49.48.11.69.31.95.7,1.82,2.7.32,22.48-.03,26.77-.14,1.69-.92,12.38-1.71,12.75Z"/>
        <path class="cls-1" d="M273.08,397.83l1.87.31c.36-.8-.28-1.8.02-2.58.22-.57.96-.99,1.27-1.61.54-1.08.83-2.28,1.41-3.34,2.19-.12,3.11,1.32,1.73,3.15-.36.48-1.21.71-1.69,1.24-2.52,2.79-3.8,5.82-5.91,8.73-2.62,3.61-10.03,12.1-13.72,14.18-.72.41-3.24,1.41-2.82-.42.2-.86,5.55-5.62,6.65-6.8,3.86-4.14,7.49-8.58,11.19-12.86Z"/>
        <path class="cls-1" d="M205.06,483.92c.42.9-4.79,2.49-5.41,2.68-7.99,2.38-18.31,2.95-26.64,2.57-2.04-.09-4.16-.02-6.01-1.02.85-1.04,2.05-1.09,3.28-1.29,7.7-1.25,16.67-.59,24.8-1.65,1.25-.16,9.67-1.93,9.98-1.28Z"/>
        <path class="cls-1" d="M17.77,217.66c-.68-.2-.84-.23-.92-.96-.07-.67.82-3.83,1.1-4.68,2.14-6.54,5.41-13.57,8-20.04,2.12-5.31,4.3-12.31,6.92-17.28.52-.98,1.36-2.02,2.46-2.34.41.14-.54,3.48-.72,4.02-1.56,4.7-4.03,9.37-6.22,13.8l-10.6,27.49Z"/>
        <path class="cls-1" d="M79.19,286.5c.56.05.7.4.82.88.41,1.67-.84,9.54-.97,12.06-.23,4.6-.7,11.06-.35,15.51.1,1.26,1.49,6.73.79,7.35-1.05.58-1.74.27-2.1-.85-1.01-3.18-1.25-7.78-1.21-11.12.06-4.68.25-19.54,2.13-22.99.18-.33.43-.88.88-.84Z"/>
        <path class="cls-1" d="M269.31,321.06c2.96,1.03.64,5.63.32,7.91-4.29,6.72-7.41,15.38-11.93,21.84-.57.81-2.12,2.86-3.32,2.06-.43-.29.74-2.42.98-2.9,3.62-7.07,8.01-13.92,11.5-21.06,1.22-2.49,1.32-5.34,2.45-7.86Z"/>
        <path class="cls-1" d="M36.42,380.31c-3.45-2.8-7.08-8.99-5.03-13.44-.51-.26-1.18-.35-1.65-.65-.79-.5-1.39-4.97-1.72-6.2-.71-2.68-1.76-5.51-2.37-8.14-.11-.48-.62-1.8.05-2.01,1.66-.23,3.35,3.49,3.81,4.81,1.42,4.12,2.14,8.89,3.71,13.27.44,1.23,1.92,3.2,1.57,4.28-.14.43-.76.8-.68,1.27.07.41,1.8,3.26,2.12,4.31.24.8.62,1.69.21,2.51Z"/>
        <path class="cls-1" d="M46.87,401.58c-.39-.89-2.06-2.83-1.04-3.66.57-.46,1.71.2,1.73-1.34-.92-1.02-2.29-.74-3.3-1.42-1.45-.97-2.22-4.05-1.79-5.68.28-1.08,1.51.81,1.76,1.23,1.89,3.16,3.55,6.42,5.81,9.39.7.92,2.84,2.64,3.08,3.14.37.77-.19,1.37-.14,2.04.07.94,8.4,8.95,9.73,10.68.61.79,1.08,1.43,1.11,2.49-.1.21-1.04.32-1.34.24-.62-.18-7.06-7.46-8.02-8.59-1.58-1.87-1.82-3.62-4.25-4.88-.7-.36-1.7-.34-2.18-.77-.76-.68-.79-2.02-1.16-2.86Z"/>
        <path class="cls-1" d="M316.65,288.31c-1.04.27-.09-5.34,0-5.82.5-2.7,1.47-5.34,1.96-8.03.31-1.7.11-3.52.58-5.45.91-3.73,2.69-7.43,4.3-10.89,4.28,1.69-.95,7.08-1.95,10.13-.78,2.37-.42,4.49-.79,6.78-.31,1.93-2.71,12.91-4.1,13.28Z"/>
        <path class="cls-1" d="M172.07,7.9c.29-.1,2.69,1.4,3.19,1.72,3.39,2.16,15.46,12.01,16.88,15.29,1.12,2.59-.87,1.19-2.07.39-5.27-3.5-11.63-9.52-15.94-14.2-.22-.24-2.89-2.92-2.06-3.2Z"/>
        <path class="cls-1" d="M164.45,451.1c.25-2.1,3.06-1.73,4.77-1.86,3.54-.26,6.71-.05,10.11-.11,1.92-.03,7.04-1.52,8.58-.84,2.26,1-1.39,2.49-2.52,2.83-1.75.53-5.44.86-7.21.52-.99-.19-1.85-.83-2.87-.91-.93-.07-2.52.99-3.99,1.09-.89.06-6.7-.3-6.88-.73Z"/>
        <path class="cls-1" d="M297.36,313.95c.08.54-4.28,8.87-4.97,9.82-.46.63-.86,1.12-1.65,1.33-1.38-.59,2.86-9.99,3.3-11.32.91-2.75,1.36-7.31,2.8-9.62.61-.97,1.45-.63,1.59.55.32,2.69-2.65,5.83-1.82,8.22.15.43.73.87.75,1.03Z"/>
        <path class="cls-1" d="M204.67,451.89c-.46-1.72,7.22-3.9,8.57-4.55,2.62-1.25,11.19-7.45,13.18-7.39.48.01.9,0,1.21.45.58.87-1.2,1.84-1.79,2.22-4.05,2.58-9.32,5.35-13.66,7.41-2.33,1.11-4.99,1.34-7.5,1.86Z"/>
        <path class="cls-1" d="M313.9,129.23c-.59-.14-.88-.36-1.25-.83-1.78-2.28.64-9.94.88-12.76.12-1.4-.7-7.24.3-7.89,1.49-.18,2.2,2.14,2.3,3.31.23,2.75-1.05,13.64-1.67,16.57-.12.56-.31,1.09-.56,1.6Z"/>
        <path class="cls-1" d="M219.95,437.89c-1.65,4.3-7.21,4.46-10.51,6.38-.82.48-1.34,1.22-2.24,1.71-1.84,1.01-6.9,1.51-4.08-1.43,1.37-1.42,9.91-4.76,12.22-5.56.45-.16,4.54-1.35,4.6-1.11Z"/>
        <path class="cls-1" d="M83.9,248.18c2.87,1.52-.49,6.65-1.18,9.05-1,3.45-1.21,8.06-2.38,11.2-.37.99-.96,1.48-1.94,1.8-.61-.25.14-4.32.28-5.07,1.05-5.84,2.86-11.54,5.23-16.98Z"/>
        <path class="cls-1" d="M330.48,394.34c-.14.8-.2,1.56-.54,2.33-1.07,2.44-8.11,13.94-10.16,14.74-.16.06-.94.13-.96.08.15-1.36.88-2.48,1.51-3.68.97-1.84,7.88-13.72,9.01-13.89l1.13.43Z"/>
        <path class="cls-1" d="M48.02,194.74c.7,1.01-1.95,6.46-2.43,7.86-.93,2.72-1.71,5.92-2.7,8.59-.75,2.03-1.54,4.27-2.76,6.01-1.2.31-.07-3.88.05-4.35,1.18-4.75,2.96-9.78,4.64-14.38.26-.72,1.98-5.52,3.22-3.74Z"/>
        <path class="cls-1" d="M98.51,120.28c.83.39,2.02,1.62,1.73,2.6-3.16,4.34-4.77,10.15-7.91,14.43-.31.42-.83.98-1.42.74-.52-.17-.54-.6-.45-1.06.3-1.45,1.91-5.1,2.61-6.59,1.35-2.87,3.61-5.54,4.92-8.16.31-.61.17-1.35.52-1.96Z"/>
        <path class="cls-1" d="M400.19,123.09c-1.09-.25-1.3-1.51-1.45-2.47-.63-4.16.29-8.54-.74-13.06-.24-1.04-2.52-6.43-1.72-6.81,4.31,2.43,4.09,8.51,4.27,12.9.05,1.27.29,9.15-.36,9.44Z"/>
        <path class="cls-1" d="M34.3,214.9c.38.06.65.81.74,1.16.5,1.98-2.48,8.27-3.15,10.52-.32,1.07-1.01,7.44-2.36,7.2-.51-.11-.46-.61-.53-1-.5-2.56,2.58-13.12,3.63-15.95.32-.86.75-1.65,1.68-1.93Z"/>
        <path class="cls-1" d="M312.8,258.03l-.17.43c1.64,1.55-1.02,4.89-.94,5.37.11.67,1.36,1.2.74,2.92-.39,1.08-1.5.83-1.78,1.32-.24,1.41-1.52,9.3-2.56,9.56-.55-.1-.55-.38-.66-.83-.4-1.7,1.29-6.82,1.68-8.89.12-.64-.24-1.38-.09-1.9.18-.65.97-1.31,1.24-2.12.36-1.08.11-2.57.61-3.68.52-1.18,2.07-2.2,2.23-3.8l.84.5c.41.93-.28,1.37-1.14,1.12Z"/>
        <path class="cls-1" d="M235.96,381.21c-.42,2.84-3.1,4.01-5.05,5.83-2.36,2.22-4.89,5.25-7.75,6.74-.66.35-1.78.95-2.54.71-.48-1.43,5.39-4.33,6.07-5.19.71-.9.82-2.06,1.43-3,.46-.71,5.65-4.82,6.46-5.13.56-.21.81-.31,1.38.03Z"/>
        <path class="cls-1" d="M102.63,87.3c-.06.46-.31.84-.55,1.22-2.04,3.25-7.18,10.57-10.3,12.34-.42.24-.67.68-1.23.3.79-2.61,3.1-4.31,4.55-6.42,1.22-1.78,4.14-8.34,6.7-7.99.34.05.57.36.83.54Z"/>
        <path class="cls-1" d="M87.3,143.17c-.75,2.62-1.22,5.35-2.46,7.81-.58,1.14-4.63,7.7-5.79,7.25-.32-1.27.7-3.32,1.27-4.52,1.33-2.82,3.32-6.76,4.85-9.45.48-.84,1.11-1.76,2.13-1.09Z"/>
        <path class="cls-1" d="M378.54,92.03c1.67.34,7.36,3.53,7.73,5.23.27,1.27-.67,1.52-1.72,1.26-3.02-.76-5.81-3.03-8.68-4.22-.86-1.76,1.1-2.58,2.67-2.27Z"/>
        <path class="cls-1" d="M103.66,441.07c-1.26,2.51-1.9.25-2.86-.1-.72-.26-1.99.01-2.83-.17-2.69-.6-3.42-2.36-5.33-3.24-.75-.34-1.53-.15-2.18-.39-1.58-.58-2.75-2.77-2.88-4.41.56-.39.59-.18,1.03.03,1.64.77,3.39,2.59,5.02,3.56.82.49,1.81.65,2.64,1.09,2.44,1.31,4.59,2.89,7.39,3.64Z"/>
        <path class="cls-1" d="M192.43,409.6c-1.84,2.33-5.25,3.01-8.02,3.53-3.32.62-7.56,1.24-10.74.07,3.64-1.59,7.85-1.42,11.77-2.3,1.09-.24,6.44-2.41,6.99-1.3Z"/>
        <path class="cls-1" d="M22.6,346.12c.06.39-.38,1.09-.37,1.77.02,1.01,1.16,1.89.67,2.95-.34.67-2.73.75-2.99.04-.22-.6.3-2.76.11-4.02-.3-2.02-2.06-5.58-.88-7.54,2.03-3.35,2.39,4.58,2.59,5.32.18.68.84,1.36.86,1.49Z"/>
        <path class="cls-1" d="M240.06,426.46l-1.13-.56c-.16-.61-.15-1.31.21-1.84.91-1.34,9.25-7.46,10.41-6.92l.06,1.22-9.54,8.11Z"/>
        <path class="cls-1" d="M3.91,279.35c-.59.34-.69-1.53-.72-1.79-.51-3.73.02-8.29,1.31-11.83,1.41.34,1.59,1.39,1.64,2.64.08,1.69-1.01,10.28-2.23,10.99Z"/>
        <path class="cls-1" d="M161.45,1.34c2.93.94,6.18,2.39,7.69,5.21-.31.93-4.96-1.94-5.53-2.18-2.13-.89-7.78-2.4-9.26-3.59-.19-.15-.24-.39-.32-.6.28-.71,6.55.88,7.43,1.16Z"/>
        <path class="cls-1" d="M307.31,312.65c.26-2.65.89-9.33,3.13-10.85,2.87-1.95,1,4.83.59,5.92-.22.58-2.89,6.3-3.72,4.94Z"/>
        <path class="cls-1" d="M300.57,328.67c.2-1,.24-2.1.54-3.08.44-1.45,1.33-4.14,1.9-5.47,1.47-3.4,4.32-5.29,2.68.03-.44,1.42-2.93,8.19-3.96,8.64-.47.21-.73.11-1.16-.12Z"/>
        <path class="cls-1" d="M299.26,331.96c.58.09.52.4.65.83.76,2.66-2.59,9.54-5.63,10.34-.32-.46-.18-.74-.05-1.21.37-1.35,4.1-9.71,5.03-9.96Z"/>
        <path class="cls-1" d="M283.28,366.49c.82.18.62,1.46.39,2.04-.48,1.26-3.47,6.1-4.37,7.17-.97,1.15-3.01,1.28-2.49-.54.8-2.78,4.23-5.43,5.44-8.14.2-.25.75-.59,1.03-.53Z"/>
        <path class="cls-1" d="M87.38,436.68c-1.12,3.07-6.91-.84-7.17-2.74-.12-.9.37-3.07,1.5-2.64,2,.76,4.02,4.01,5.67,5.38Z"/>
        <path class="cls-1" d="M254.77,420.94c-.21.63-.44,1.21-.86,1.75-.64.82-7.4,4.94-8.58,5.4-.55.22-1.22.44-1.79.15-.32-.86,4.83-4.66,5.78-5.29.56-.37,5.02-3.13,5.45-2.02Z"/>
        <path class="cls-1" d="M221.87,436.57c.52-1.66,2.14-1.68,3.51-1.05,1.25-3.18,3.52-4.56,6.61-5.65,1.28,1.65-2.64,4.8-4.01,5.65-1.58.98-4.36,1.79-6.11,1.05Z"/>
        <path class="cls-1" d="M241.34,429.44c-1.17,3.99-7.16,7.75-11.22,7.3,2.7-1.69,5.14-4.16,7.75-5.88.35-.23,3.24-2.07,3.48-1.42Z"/>
        <path class="cls-1" d="M107.47,111.72c.31.73-5.63,8.05-6.78,8.71-.32.18-.75.51-1.12.27-.37-.55-.17-.97.07-1.51.68-1.56,4.61-7.18,6.15-7.64.68-.2,1.06-.17,1.69.18Z"/>
        <path class="cls-1" d="M4.06,262.69c-.11-.37.95-6.92,1.2-7.59.64-1.7,2.43-3.08,2.48-.3.01.78-.57,5.89-.79,6.55-.44,1.34-2.37,3.05-2.89,1.35Z"/>
        <path class="cls-1" d="M305.11,338.06l-.85.03c-1.19-.53,1.53-8.11,2.21-9.24.57-.95,2.19-2.53,2.68-.77.46,1.66-3.71,7.83-4.04,9.98Z"/>
        <path class="cls-1" d="M79.21,120.89c-.34,4.04-4.44,5.7-5.87,9.1-2.12.64-.68-2.59-.08-3.65.46-.82,2.79-3.92,3.45-4.66.66-.74,1.53-1.34,2.5-.79Z"/>
        <path class="cls-1" d="M343.22,190.18c1.77.54,2.38,4.45.76,5.27-.29.14-2.35.17-2.68.05-2.2-.8-1.46-6.34,1.92-5.32Z"/>
        <path class="cls-1" d="M155.14,412.74c.08-.82,1.23-.55,1.87-.56,3.62-.05,7.35.62,10.98.48.47,1.71-6.97,2.42-8.21,1.92l-4.63-1.85Z"/>
        <path class="cls-1" d="M289.46,338.28c.28-.45,1.13-1.35,1.68-.72,1.85,2.11-2.55,8.68-4.75,9.72-.1,0-.17-.88-.15-.92.88-2.21,2.1-6.25,3.22-8.07Z"/>
        <path class="cls-1" d="M108.41,100.66l-.12.29c1.05.08.09,1.94-.47,2.09-2.86-1.17-.24-2.05.31-2.73s.66-1.79,1.12-2.57c.65-1.1,3.27-3.78,4.54-2.76,1.56,1.26-.65,1.98-1.51,2.89-1.1,1.16-2.12,3.57-3.88,2.8Z"/>
        <path class="cls-1" d="M103.51,100.79l-1.16-.62c-.53-1.37.99-1.9,1.39-2.6.98-1.75,1.68-4.84,3.7-5.79,1.62-.76,2.32-.11,1.43,1.58-1.31,2.49-4.41,4.69-5.37,7.43Z"/>
        <path class="cls-1" d="M154.35,131.15c.36.11.6.55.62.89.07,1.14-4.07,6.92-5.22,6.21-1.74-1.98,2.81-7.65,4.59-7.11Z"/>
        <path class="cls-1" d="M162.5,449.71l-.03.78c-.51,1.25-5.25.89-6.41.4-.53-.23-2.83-1.54-2.85-2.01-.05-1.36,2.23-.29,2.87-.23,1.3.13,5.89-.1,6.41,1.07Z"/>
        <path class="cls-1" d="M311.89,102.09c-2.61-.28-2.73-8.44-1.61-8.95,1.43.36,1.1,2.06,1.51,3.19.77,2.15,2.23,3.66.11,5.76Z"/>
        <path class="cls-1" d="M57.82,400.98c1.52,1.03,2.29,2.78,2.89,4.43.2.54.04,1.28.21,1.64.34.73,2.95,1.7,2.07,3.07-1.12,1.73-2.77-2.54-3.03-2.9-.6-.84-1.64-1.43-2.27-2.49-.61-1.03-1.38-3.28.13-3.75Z"/>
        <path class="cls-1" d="M324.06,280.18c-.88-.09-.49-1.27-.45-1.91.07-1.15.82-8.09,1.46-8.43,1.71,1.41,1.08,4.2,1.65,6.12l-2.66,4.22Z"/>
        <path class="cls-1" d="M32.92,350.85c-1.59-.6-2.02-2.59-2.33-4.08-.26-1.25-.95-4.38.56-4.94.33.06,2.44,5.44,2.54,6.08.2,1.23-.18,1.9-.77,2.93Z"/>
        <path class="cls-1" d="M297.98,316.04l.87-.13c2.43,2.83-1.1,6.45-2.65,8.95-.64-.13-.62-.56-.63-1.09-.01-.36.51-2.95.63-3.24l1.79-4.48Z"/>
        <path class="cls-1" d="M73.76,420.48c-.88.3-8.65-6.41-8.01-8.56.55-.32.55-.29,1.02.05,1.25.88,5.91,5.94,6.69,7.28.25.43.68.67.3,1.23Z"/>
        <path class="cls-1" d="M104.58,448.97c-1,.34-4.84-1.3-5.19-2.47-.89-3.02,5.85-1.34,6.01.9.04.56-.28,1.39-.82,1.58Z"/>
        <path class="cls-1" d="M33.57,303.02c.07.51-.82,1.28-1.03,2.03-.23.83.3,5.96-1.61,5.18-1.56-.7.14-8.62.57-8.8l2.08,1.59Z"/>
        <path class="cls-1" d="M2.49,291.6c-.75.38-1.33-3.49-1.34-4-.06-2,.4-3.58,1.27-5.38,1.25.3,1.17,1.53,1.22,2.57.11,2.25-.12,4.78-1.15,6.81Z"/>
        <path class="cls-1" d="M317.03,304.75c-.62-1.45.12-3.99.53-5.55.22-.84,1.25-4.77,1.92-4.91.47.13.73.23.93.71.73,1.84-2.27,7.96-3.37,9.74Z"/>
        <path class="cls-1" d="M281.95,356.24c-.63-.16-.51-.14-.52-.64-.03-1.17,1.99-6.04,2.89-6.83s1.46.02,1.58.94c.29,2.19-2.57,4.98-3.95,6.52Z"/>
        <path class="cls-1" d="M24.6,257.46c1.52.24-.6,7.75-2.45,7.01-1.86-.74,1.07-7.22,2.45-7.01Z"/>
        <path class="cls-1" d="M208.44,402.46c-.57,1.53-1.98,2.67-3.33,3.49-1.04.63-3.31,1.77-4.49,1.36-.2-.47,4.41-4.14,5.12-4.51.88-.46,1.73-.84,2.7-.33Z"/>
        <path class="cls-1" d="M268.36,388.59c-.11.6-.02,1.1-.37,1.67-.22.36-2.92,3.18-3.41,3.64-.4.37-.77.79-1.31.96-1.96-2.04,4.13-7.78,5.1-6.28Z"/>
        <path class="cls-1" d="M294.16,333.36c-3.28.79.39-9.26,1.92-5.11.5,1.35-.85,4.86-1.92,5.11Z"/>
        <path class="cls-1" d="M277.66,365.27c.1,1.4-1.06,5.56-2.74,5.42-.37-.03-1.37-.34-1.55-.59-.45-.61,3.22-6.4,4.3-4.82Z"/>
        <path class="cls-1" d="M43.34,157.87l-2.2,5.53c-.34.85-2.03,3.05-2.96,3.5.21-3.04,2.15-6.46,4.22-8.64.36-.38.15-.87.94-.39Z"/>
        <path class="cls-1" d="M42.05,387.06c-2.15-.78-5.01-3.02-4.37-5.55.63-.26,6.18,3.81,4.37,5.55Z"/>
        <path class="cls-1" d="M87.72,107.32c.26,1.25-1.51,6.63-3.07,5.67-1.53-.94.96-5.26,2.22-5.98l.86.31Z"/>
        <path class="cls-1" d="M303.18,311.37c1.43.3.86,5.58-1.36,5-2.03-.61-.67-4.85,1.36-5Z"/>
        <path class="cls-1" d="M98.21,114.96c.72-1.73,2.18-4.98,4.45-3.28.19,2.25-2.32,4.44-4.45,3.28Z"/>
        <path class="cls-1" d="M100.1,96.31c-1.09.46-.05-2.49.13-2.85.38-.77,3.78-4.56,4.32-4.38.46.65.14.85-.13,1.41s-3.98,5.68-4.32,5.82Z"/>
        <path class="cls-1" d="M15.16,352.75c-2.82-.12-1.92-3.63-1.91-5.58,2.38.79,2.99,3.47,1.91,5.58Z"/>
        <path class="cls-1" d="M344.19,206.13l-.29,1.25c-1.04.4-5.59.53-5.19-1.27,1.48-1.62,3.81-.83,5.48.01Z"/>
        <path class="cls-1" d="M285.42,363.17c-.88.3-.45-2.33-.3-2.71.24-.61,1.89-3.49,2.72-2.91.77,2.14-.77,4.34-2.41,5.62Z"/>
        <path class="cls-1" d="M300.49,296.8c2.18-.46,1.1,5-.58,5.28-1.83-.75-.38-5.07.58-5.28Z"/>
        <path class="cls-1" d="M41.43,370.9c1.75.11,2.47,4.57.25,4.68-1.71.08-1.77-4.77-.25-4.68Z"/>
        <path class="cls-1" d="M299.09,345.41c-.05-1.52,3.23-4.7,4.33-2.98.83,1.3-2.96,4.23-4.33,2.98Z"/>
        <path class="cls-1" d="M36.99,359.75c2.18.71,2.09,4.72.03,5.54-1.6-.1-.52-4.67-.03-5.54Z"/>
        <path class="cls-1" d="M200.12,78c.67.06,1.29,1.37,1.07,1.96-5.74,6.48-3.36-2.16-1.07-1.96Z"/>
        <path class="cls-1" d="M260.97,405.39c.18,1.22-3.56,3.59-4.2,3.17-.53-2.43,1.95-4.61,4.2-3.17Z"/>
        <path class="cls-1" d="M16.39,218.5l1.15.5c-.19,2.51-1.86,4.56-2.99,6.73-.73.34-.4-1.59-.36-1.7l2.2-5.53Z"/>
        <path class="cls-1" d="M78.07,326.24c1.29.21,3.38,4.69,1.8,5.06-2.16-.53-2.78-3.25-1.8-5.06Z"/>
        <path class="cls-1" d="M105.37,106.43l-.77,2.07c-1.18-.57-3.29-.39-3.11-2.27.19-1.96,3.1-.82,3.89.2Z"/>
        <path class="cls-1" d="M312.94,86.92c1.22.18.6,4.71-.5,4.62-2.58-.19-.83-4.82.5-4.62Z"/>
        <path class="cls-1" d="M34.83,211.56c-.44-1.05.97-3.97,2.31-3.09,1.8,1.19-1.15,5.83-2.31,3.09Z"/>
        <path class="cls-1" d="M253.28,411.38c1.88.57-.74,4.38-2.41,3.45-1.32-.97,1.03-3.87,2.41-3.45Z"/>
        <path class="cls-1" d="M278.17,362.33c0-1.03.45-3.2,1.63-3.31,2.7-.24,1.04,5.07-1.63,3.31Z"/>
        <path class="cls-1" d="M342.95,203.12l-3.34-1.34c-1.35-1.1,1.62-2.34,3.37-.95.75.6.84,1.76-.03,2.29Z"/>
        <path class="cls-1" d="M331.4,237.32c-2.31.33-2.23-3.69-.16-4.14,1.55.15.82,3.35.16,4.14Z"/>
        <path class="cls-1" d="M33.14,283.38c-2.09-1.05-1.02-3.95-.18-5.61,1.9-.02.54,5.45.18,5.61Z"/>
        <path class="cls-1" d="M22.74,334.67c-2.1-.35-2.36-3.16-1.56-4.77,2.22.55,2.03,2.96,1.56,4.77Z"/>
        <path class="cls-1" d="M85.84,247.51l-.98.02c.34-.9-.25-5.21,1.16-5.08,2.05.2.5,4.12-.18,5.06Z"/>
        <path class="cls-1" d="M15.58,316.69c.27.61.79,3.75-.43,3.52-1.33-1.2-1.86-3.3-.98-4.9.63.17,1.16.81,1.41,1.37Z"/>
        <path class="cls-1" d="M33.45,295.63c1.91.65,2.56,3.95.4,4.65-1.27-1.26-.56-3.11-.4-4.65Z"/>
        <path class="cls-1" d="M77.11,420.8c1.07-.07,2.99.58,2.7,1.93-.56,2.54-3.91.02-2.7-1.93Z"/>
        <path class="cls-1" d="M343,196.97l-.2,1.46c-.6,1.23-4.24.33-2.86-1.42.58-.74,2.24-.31,3.06-.04Z"/>
        <path class="cls-1" d="M22,353.11c2.11.49,1.84,3,.01,3.78-1.16-.95-1.12-2.82-.01-3.78Z"/>
        <path class="cls-1" d="M78.83,280.46c1.46.93,1.69,3.16-.13,3.76-.91-.14-1.44-3.58.13-3.76Z"/>
        <path class="cls-1" d="M16.28,330.01c-.84.22-1.24-3.46-.48-4,1.48.82,1.8,2.83.48,4Z"/>
        <path class="cls-1" d="M311.12,154.45c-1.86-.56-.7-2.63-.18-3.88,1.23.2.55,3.72.18,3.88Z"/>
        <path class="cls-1" d="M81.34,429.37c-.31-.47.53-3.05,1.93-1.45,1.23,1.41-1.3,2.4-1.93,1.45Z"/>
        <path class="cls-1" d="M35.52,356.05c1.02.37,1.16,3.05-.29,3.33-.68-.49-.77-3.72.29-3.33Z"/>
        <path class="cls-1" d="M274.02,315.31c-.77-.18-.66-.95-.73-1.54-.05-.46-.21-2.1.58-1.98,1.55.24.59,2.76.15,3.52Z"/>
        <path class="cls-1" d="M216.62,396.72c.4.84-.92,3.66-2.38,2.51-.02-.54,1.93-3.46,2.38-2.51Z"/>
        <path class="cls-1" d="M104.83,102.7c1.03.08,2.52,1.25,1.86,2.29-.58.92-2.86-1.32-1.86-2.29Z"/>
        <path class="cls-1" d="M145.51,38.88c.36.68,1.69-.72,1.94-.97,1.92-1.98,4.6-7.47,6.89-8.16.39-.12.62-.41,1.07-.08.03,3.49-3.13,4.64-5.13,6.78-4.03,4.3-6.81,9.88-11.43,14.33-.59.57-2.06,1.94-2.91,1.27-.52-2.82,4.59-4.33,2.47-7.5.56-.52,1.05.22,1.33.17,1.74-.3.14-1.52.16-2.05.14-2.77,4.14-6.18,5.78-8.28.94-1.2,4.82-7.24,5.98-7.45.91-.17,1.71,1.93,1.35,2.65-.33.82-3.97,2.51-4.94,4.09-.87,1.42-1.26,3.97-2.56,5.22Z"/>
        <path class="cls-1" d="M113.36,87.39c.23-2.46,1.56-5.14,4.22-5.41-1.11-2.59,1.09-3.23,2.38-4.84,4.18-5.2,7.69-11.29,12.75-15.87.67-.61,1.26-1.06,2.15-1.32.93.36-1.24,3.2-1.61,3.73-2.9,4.12-7.54,10.36-10.77,14.12-1.02,1.18-2.34,2.02-3.3,3.26-1.34,1.73-2.11,4.05-3.54,5.6-.65.71-1.29,1.3-2.28.74Z"/>
        <path class="cls-1" d="M147.86,49.52c-.52.77,1.01,1.73-.17,2.19-1.09.23-1.85-1.23-2.13-2.06l-1.08.95c-4.15-3.8,4.72-9.78,7.47-4.95.98,1.73-1.5,5.81-2.97,5.02-.54-.29-.47-1.02-1.12-1.15Z"/>
        <path class="cls-1" d="M137.43,76.24c.51.02.81.34.78.84-.11,1.6-4.6,5.36-5.89,6.85-2.56,2.97-5.19,7.25-7.86,9.95-.4.41-1.03.94-1.67.72-1.41-.94,3.36-5.78,4.05-6.7,1.43-1.9,8.54-11.9,10.59-11.67Z"/>
        <path class="cls-1" d="M116.11,89.18c-.39-.9,7.24-10.4,8.43-11.81.44-.53,5.86-7.03,4.73-2.89-.39,1.43-3.15,5.04-4.21,6.4-2.29,2.95-5.13,5.49-7.18,8.66l-1.77-.37Z"/>
        <path class="cls-1" d="M130.95,58.03c.5.85-2.35,4.52-3.01,5.39-1.38,1.83-3.14,3.62-4.6,5.44-1.65,2.06-3.47,5.18-5.19,6.94-.4.41-.83.66-1.37.83-.42-.66-.08-1.21.2-1.81.7-1.51,2.82-4.59,3.88-5.99,2.39-3.16,5.92-7.55,8.69-10.32.4-.4.79-.85,1.4-.48Z"/>
        <path class="cls-1" d="M114.04,71.41c.36.02.76.23.99.52.44.65-2.24,4.2-2.77,5.16-.66,1.2-1.89,6.18-4.2,5-2.18-1.12.12-5.96,1.53-7.18.56-.49,1.28-.58,1.8-1,.59-.48,2.32-2.51,2.65-2.5Z"/>
        <path class="cls-1" d="M158.59,33.76c.14.77-1.35,2.85-2,3.41-.19.16-.68-.06-.76.14-.1.27.05.74-.07,1.03-.46,1.09-6.34,5.46-7.2,4.19.06-.47.1-.74.35-1.16.71-1.18,5.08-5.98,6.2-6.92.65-.54,3.19-2.19,3.47-.68Z"/>
        <path class="cls-1" d="M149.66,67.56c.86,1.37-4.03,7.34-5.17,8.43-.88.84-1.91,1.62-3.07.7l-.47-1.06c.3-.99,8.26-8.78,8.7-8.07Z"/>
        <path class="cls-1" d="M127.17,82.94c.17.38.03.95-.16,1.32-.51.95-2.55,3.35-3.37,4.29-.59.68-2.75,3.51-3.68,3.06-1.52-1.94,1.93-4.08,3.1-5.55.81-1.02,2.93-5.83,4.1-3.13Z"/>
        <path class="cls-1" d="M122.2,60.79c.46.63-.84,2.27-1.1,2.84-.19.42-.1.92-.38,1.42-.65,1.15-3.37,4.61-4.36,5.43-.26.22-.54.7-.82.12-.72-1.5,4.04-9.06,5.68-9.99.32-.18.83,0,.96.19Z"/>
        <path class="cls-1" d="M124.71,96.37c-.1-.52.95-1.78,1.31-2.28l5.53-6.73c.23.42.32.9.24,1.38-.24,1.48-3.67,6.28-4.83,7.53-.63.68-2.05,1.12-2.25.09Z"/>
        <path class="cls-1" d="M139.67,78.9l.94.11c1.11,1.14-1.39,2.93-2.11,3.78-.52.61-.93,1.65-1.34,2.07-.88.88-2.38-.56-1.59-1.92.62-1.07,3.78-1.97,4.1-4.04Z"/>
        <path class="cls-1" d="M151.82,72.58c.68,1.05-3.19,5.24-4.23,5.42-.89.15-1.67-.51-1.12-1.41.29-.49,1.22-.81,1.68-1.31,1-1.08,1.78-3.1,3.67-2.69Z"/>
        <path class="cls-1" d="M154.93,70.01c.05-2.23,1.77-4.01,3.17-5.59.2-.22.34-.94.78-.45,1.11,1.21-.53,2.15-.97,2.92-.68,1.18-1.07,3.57-2.99,3.12Z"/>
        <path class="cls-1" d="M151.03,54.3c.44.05.64.15.75.6l-.06.43c-1.28.85-2.06,3.17-3,3.99s-1.61.01-1.24-1.11c.27-.84,2.62-4.02,3.55-3.91Z"/>
        <path class="cls-1" d="M151.96,89.61c.1,1.11-2.81,4.33-3.72,3.71-.71-2.19,1.52-4.78,3.72-3.71Z"/>
        <path class="cls-1" d="M155.12,77.36c.13-1.45-1.15-3.27.07-4.44,3.85.72,2.7,3.24-.07,4.44Z"/>
        <path class="cls-1" d="M135.5,58.8c.04-1.65,1.5-3.58,3.27-3.53,1.33,2.01-1.3,4.08-3.27,3.53Z"/>
        <path class="cls-1" d="M124.2,61.17c-.04-1.23.42-3.3,2.02-2.96,3.38.74-.7,4.74-2.02,2.96Z"/>
        <path class="cls-1" d="M156.83,61.76c.11.21-2.72,2.98-3.14,3.37-.27.25-.59.95-1,.51-.72-2.01,1.64-3.02,2.37-4.56l1.77.67Z"/>
        <path class="cls-1" d="M156.14,82.62l-.8,2.91-1.48-.06-.45-.83c-.08-1.2,2.32-2.65,2.72-2.02Z"/>
        <path class="cls-1" d="M134.27,52.77c1.63,1.48,0,2.76-1.61,3.16-.7-.86.86-3.28,1.61-3.16Z"/>
        <path class="cls-1" d="M139.47,54.11c-.39-.59.97-2.93,1.77-2.37,1.7,1.71-.88,3.72-1.77,2.37Z"/>
        <path class="cls-1" d="M163,59.79c1.04,1.32-.17,2.5-1.64,2.39-.77-1.44.13-2.44,1.64-2.39Z"/>
        <path class="cls-1" d="M146.43,61.77c-.42-.11-.75-.34-1.03-.67-1.51-1.77,2.81-2.35,1.03.67Z"/>
        <path class="cls-1" d="M379.17,125.14c.38.03.71.21.95.51l.29.88c-.35.69-.73,1.01-.89,1.84-.39,1.91.88,10.37.12,11.12-1.49,1.48-2.45-2.87-2.03-4.08.14-.39.68-.76.73-1.08.04-.27-.62-.99-.76-1.64s-.23-3.92-.16-4.63c.08-.93.5-3.01,1.76-2.92Z"/>
        <path class="cls-1" d="M378.72,154.37c-1.29.59-1.87-3.79-1.91-4.5-.11-1.64.06-6.38.41-7.87.12-.51.41-.72.66-1.13.41.42.97.78,1.21,1.33.34.77.39,8.83.24,10.05-.09.75-.26,1.44-.61,2.12Z"/>
        <path class="cls-1" d="M347.84,155.15c-.14.06-1.25-.09-1.45-.17-1.01-.42-.06-1.59-.03-2.43.06-1.97.14-3.84.24-5.8.03-.67-.44-1.4-.33-2.1.3-1.77,2.64-2.29,2.71-.66.05,1.05-.6,2.86-.66,4.25-.06,1.4,1,6.29-.48,6.91Z"/>
        <path class="cls-1" d="M368.04,159.18c.69.07,1.93.88,1.86,1.6-.07.66-1,.96-1.28,1.54-.38.8.17,5.16-1.53,5.05s-1.17-2.39-1.08-3.45c.1-1.3.32-4.91,2.04-4.75Z"/>
        <path class="cls-1" d="M360.73,158.39c.16.35-.46,6.91-.65,7.6-.44,1.57-1.62,1.3-2.05-.12-.62-2.06.86-6.4,1.75-8.3.19-.09.84.56.96.83Z"/>
        <path class="cls-1" d="M358.17,150.05c.79.08,3.85,2.65,4.12,3.33,1.02,2.64-3.04.71-4.14-.2s-1.89-3.33.02-3.13Z"/>
        <path class="cls-1" d="M372.08,152.77c-.3-1.3-.98-8.15,1.22-7.83,1.25.18.14,6.47-.31,7.3-.17.31-.76.75-.9.53Z"/>
        <path class="cls-1" d="M377.71,166.45c-.92-.29-1.39-.44-1.69-1.38-.19-.59-.56-4.07.54-3.93,1.74.23,2.08,4.07,1.16,5.3Z"/>
        <path class="cls-1" d="M358.55,134.56c-2.21-.66-3.97-1.7-2.51-4.12,1.78.4,2.87,2.38,2.51,4.12Z"/>
        <path class="cls-1" d="M360.54,145.82c2.46.21,3.19,3.13.92,2.71-3.06-.57-2.68-2.86-.92-2.71Z"/>
        <path class="cls-1" d="M346.72,131.23c1.84,1.41,1.88,3.65-.32,4.71-.51-1.57-.52-3.26.32-4.71Z"/>
        <path class="cls-1" d="M345.62,162.66c-1.68-.57-1.88-3.51-.21-4.24,1.34,1.17.95,2.85.21,4.24Z"/>
        <path class="cls-1" d="M358.78,140.16c.07-1.42.92-2.43,2.25-1.34,2.16,1.77-.64,2.61-2.25,1.34Z"/>
        <path class="cls-1" d="M347.37,130.45c-1.74-.1-.75-3.88.27-3.7,1.48,1.23.33,2.42-.27,3.7Z"/>
        <path class="cls-1" d="M367.89,144.17c1.88,0,2.55,3.34.63,2.33-.68-.36-.92-1.6-.63-2.33Z"/>
        <path class="cls-1" d="M377.72,157.53c.13.3.06,1.13-.13,1.39l-.92.18-.51-2.63c.5.19,1.35.55,1.57,1.06Z"/>
        <polygon class="cls-1" points="359.1 142.44 360.42 143.78 358.85 143.99 358.33 142.95 359.1 142.44"/>
      </g>
    </g>
  </g>
</svg>