<?xml version="1.0" encoding="UTF-8"?>
<svg id="Layer_2" data-name="Layer 2" xmlns="http://www.w3.org/2000/svg" viewBox="0 0 440.8 300.7">
  <defs>
    <style>
      .cls-1 {
        fill: #152638;
      }
    </style>
  </defs>
  <g id="Layer_1-2" data-name="Layer 1">
    <g>
      <path class="cls-1" d="M298.2,292.8c.2-2.3,2.3-1.1,3.4-1.3s2.7-1.3,2.8-1.2c-.6,2.6-2.6,1.6-4,1.7s-1.4.9-2.3.8Z"/>
      <path class="cls-1" d="M430.3,179.8l-3.3-1.9-2.1-1.9c1.1-.5,6.2,3,5.4,3.8Z"/>
      <g>
        <g>
          <path class="cls-1" d="M334.2,197.4c-2.7.5-6.8,5.6-9.4,6.7l1-2.9c-.2-.3-3.4,3.1-4.2,1.5l1.2-.2c0-.5,0-1,.4-1.5,2-2.7,5.6-3.8,7.9-7.5s1.4-1.5,1.7-2.5l-1.7-.2c-.1-.6.1-1,.4-1.5.4-.8,3.9-4.4,4.8-5.2s1.3-.9,1.9-1.5c-2.1-.2-3.2,2-4.4,3.1l-.4-.8-2.3,1.7,5-6.1c.1-1.3-2.4.5-2.9.2l1.2-3.3c-1.1-.4-1.6-.2-2.5.4l.8-2.1c-.7-.7-2.6,2.4-2.9,2.7-3.9,3.9-6.9,6.4-9.2,11.7-.1.9.1.7.7.3,1-.6,7-6.6,7.5-7.6s.2-2.8,2.1-3.8c2.4,2-.4,3.5-1.9,5.2l.8.8c-2.5,3.9-5.9,6.6-9.7,9.1s-3,1.3-3.6,1.8c-1.6,1.2-.5,1.1-3.4,2.7s-.7,1.3-1.8,1.2-.2-.7-.4-.8c-.8-.3-2.8.6-4.9-.2-6.7-2.6,1.5-9.8,2.2-14.1-3.1,3.6-6,7.5-9.9,10.4l-7.3-3.9c-.5-.5-.4-.9-.2-1.5,1-3,4.2-6.5,5.8-9.3s2.5-4.5,2.7-5.3-.4-1.5,0-2.8,1.9-3,2.8-3.9l-1,3.6c0,.3.5.3.6.2,1.3-.7,3.1-6.5,2.7-8.1s-1.5-.3-.4-2.4c-.6-.7-2.3,3.2-2.8,3.7s-2.1,1.9-2.9,2.5l-.2-1.7-1.2,1.3c0-.7,0-1.5,0-2.2s2.3-4.4.3-3c-3.6,5.7-7.6,11.1-10.4,17.2l.8,1c.8-1.7,2.7-3.6,4.2-4.8s2.2-2,3.3-2.3c.6.6-3.5,5.4-2.7,6.7l6.1-6.9c-1.4,4.1-3.9,8.5-6.4,12s-3.5,4.4-3.9,4.5-1.1.2-1-.3v-.9s-.6.3-.6.3l-.4-.7-1.5.2c-1.9-2.5-.3-5.2.4-7.8l-4.4,4.4c-5.1-.8-5.8-5-4.1-9.3s1.8-2.6,2.2-3.7-1.8,0-2.1-.2c1.1-2.4,2-5.4,3.4-7.7s3.1-3.3,4.5-5.1l.8,2.3,3.8-9-1,.6c-1.9-1.3-.6-2.8-.6-4.4s-1.1-4.3-1.3-6.3.1-4.3.2-6.5c-1.1,1.8-1.7,4.2-2.1,6.3s-1.7,8.2-.4,8.8l1.5-2.1c.6,6.5-5.1,11.7-10.9,13.4,1.7-2.5,4.5-4.6,6-7.1s1.5-3.3,1.1-6.4.4-1.2-.6-1.1c-1.6,2.6-3.3,4.7-5.6,6.7.9-3,3.1-5.3,3.9-8.4.8-2.7.6-5.4,1.3-7.9s4.9-10.1,4.4-10.9l-5.2,8.4c-.1-1.5.4-3.2.8-4.6,1-2.9,4.8-8.9,6.7-11.7s7.3-7.7,8.2-10.2.4-1.5.3-2.4c-1,.4-1.5,1.5-2.2,2.2s-.8,1.4-.8,0c1.1-2.4,1.5-5.1,2.5-7.6.7-1.7,2.6-4.1,2.9-5.8s0-.9-.4-.4c-1,.9-1.3,2.8-2.5,3.6,1-6.9,6-11.7,10-16.9-1.2-.4-3.6,1.1-3.8,2.3-.9,0-.3-1.2,0-1.6.8-1.8,6.2-6.3,8.1-7s1.4.1,2.6-.3c4.2-1.6,9.3-6.7,13.9-8.3.6-.7-.9-.4-1.2-.3-3.2.7-8.4,4-11.3,5.8s-1.9,2.9-4,2c-.2-.8.5-1,1-1.5,3.4-3.4,7.7-4.5,10.4-8.2s15.8-6.7,21.2-7.1l-.8,1c2,.2,4.3-1.4,6.4-2,5.6-1.5,9.4.3,14.6,2.2l-.4,1.2c1.7.3,9.6,4,10,5.3,0,3.2-4.6-1.1-6.6-.3,0,.7,1.1.5,1.6.9s.7,1.4.5,1.6c-2-.7-3.5-1.7-5.9-1.3-.2,1.2.3.7,1,.9,1.7.5,3.6.9,5.3,1,1.2.8.3,2.2.4,2.3.2.3,2.5,0,2.5,1.7l-.8.4c.8.1,1.8.7,1.7,1.7l-3.3-.8c-.2.2,2.3,4.9,3.8,4.2.2,1.2-.4.7-1.2.9,0,1.1-.1,1.4-1.3,1.2l.4.8c-3.7.4-6.5-2.6-9.9-3.7-6.3-2-10.4,2.1-16.4,2.8l.8-2.5-2.5-.6,2.5-4-11.5,5c-.6-.9,2.1-3.6,1.9-3.8l-2.9-.8c1.4-.7,3.1-2.1,4.2-3.1s0-.8.2-1.1c.6-.6,5.4-2.9,6-2.5.1.4-1,1.4.2,1.3s4.9-1.5,5.1-1.7v-1.6c0,0-5.8-.4-5.8-.4,2.1-3,6.3-2.1,9.3-2.6s2.9-.8,4.3-1.2.7.3.6-.8c-1.5-.1-3.7-1.2-5.1-1s-1.8.8-2.8.9c-5.9.9-9.9,1.4-15.6,3.7s-3.9,1.4-5,2.7c3.1-.6,6-2.2,9.2-2.7s4.1-.4,2.9.6l-10.3,4.1c-5.3,2.6-7.8,6.6-12,10.6-7.2,6.8-12.1,9.1-16.6,18.9-.1.3-.8,1.4,0,.9,6.1-6.5,9.8-14.8,18.8-18.2.7.7-3.4,2.5-2.3,3.8,2.7-1.1,7.6-6.1,10.1-6.6s1.2.2,1.4.5l-7.1,9c2.5-1.1,4.7-3.4,7.3-4.2s-1.2,2.4-1.1,2.5l1.2.2-5.4,6.9c.6.6,5.4-4.3,6.1-4.9s2.2-1.8,3.1-1.5c-3.2,5.6-9.5,8.5-13.4,13.6,1.2,0,1.9-1.1,2.9-1.5,1.7-.6,4.7-.6,6-1.9s.4-1.1.7-1.5c2-2,5-3.9,7.5-5.5s.9-1,1.3-.4c-2.2,4.1-6.6,6.4-9.8,9.5s-5,6.9-9.9,10.2-4.2,2.1-7.5,3-1.2,1.2-2.1,1c1.8-2.3,4.2-4.4,6.1-6.7s1.1-.8.4-1.3c-3.5,1.7-6.7,4.1-9.4,6.9s-3,3.8-4.6,5.5c-4.9,5.2-9.5,7.1-11.6,15.1s-.4,1.5.3,1.4c2.3-6,7.7-8.4,12.1-12.3l-2.1.2c5.8-5.4,13.9-7.2,20.6-11.4,3-1.9,12.2-8.3,13.3-11.4s.1-.7-.2-.6l-3.1,2.1c-.3-.3,1.9-2.9,2.3-3.4,2.1-2.4,4.9-4,6.7-6.7l.4,1.2,6.1-5.2.4-1.1-1.2.4c-.5-.4,4.2-4.3,4.8-4.6,4-2.3,8-1.4,12.3-.8l-.4.8c1.8-.2,3,1.2,4.6,1.9s3.2.3,4.2,1.7c-1.2.7-2.8,2.1-4.1,2.6-2.4,1-4.3.7-6.8,2.4-3.7,2.6-9,11.4-13.2,12.7s-.7,0-.6-.2c1.5-2.2,3.4-4.2,4.9-6.4s1-.9.4-1.3c-2.9,2.5-6.2,4.7-9,7.3s-2.3,2.7-3.4,3.7c-4,3.7-7.9,7.7-12.9,9.9l.2.8,2.3-.2c-2.8,5.6-10.8,5.1-12.1,11.5.7.8,3.1-3.5,4.2-2.7-2.5,4.4-4,9.5-8.2,12.8l-.3-1.2h-1.1c0,0,.4-3,.4-3,0,0-1.1,1-.8-.2s2.7-2.6.8-4.1l2.1-4.8c-1,.1-1.6.9-2.7,1.3s-4.3.9-5.1,2.5-.5,4.2.4,5c.4-1.1.6-2.4,1.9-2.9-2,3.7-.5,11.8,3.6,13.3s.6-.3.8-.8c.5-1.5,1-4.2,2.3-5.2s.7.5,1.1,1.1c2.2-1.7,3-4.8,5.6-5.9l-3.8,5.1c-2.9,6.5.4,4,2.4.3s.6-3.3,1.9-4.1l.2,1.6c-1.6,1.1-1.4,3.1-2.1,4.6s-2,2.6-2.2,3.6-.3,1.6.4,1.5c1-2.4,2.6-5.1,4.6-6.7,0,.9-.5,1.8-.9,2.7-1.3,3.1-4.8,7.1-2,9.9,0-.3.2-.6.2-1,0-1.3-1.6-3.2,1.4-4-.2.9-.3,1.8-.4,2.8s-.4,1.5.3,1.4c.5-1.8,1.1-3.5,2.9-4.2l-3.3,5.9c0,0-1.1-.7-1.2-.8,0,.7,0,1.4,0,2.1l.8-.4.6,2.5c.7-1.8,1.8-3.3,3.3-4.6l.2,2.1,1.7-.8c1.2,1.3-5.6,8.9-1.3,9.6-.5-2.2,1.4-3.4,2.9-4.6l-1.7,4c1,.5,1.9,1.1,2.9.6l-1.5,4.2c.9.8,3.6,3.9,4.6,3.7s.7-.6.9-.7c.7,0,1.4,1.9,1.5,1.9s2-.6,2.8.5l-.4,1.2,1.7-.4c.5,1.4-1.7.3-1.2,1.5s3,2.1,3.7,2.2c1.3.2,2.2-.5,3.2-.4s.3.7.9.9c3.5,1.3,14.8-3,18-5.2s4.6-4.6,6.6-7l-2.5.6c1.5-2.6,3.4-4.9,5.6-6.9l-.2,1.7c2.3-1.5,5.3-7.3,5.5-9.8s1.5-6,1.6-9.3c0-1-.4-1.7-.4-2.7,2.1,1.2,2.6,3.8,3.3,5.9,5.6-2.9,8.1-13.8,2.1-17.6l-.2,1.7-8.6-9.8c-.1-1.7,2,.7,2.5.2l-1.2-3.8,2.3,1.7c.3,0,.3-.4.2-.6-.2-1-2.4-5.3-3-6.2-.9-1.4-2.6-2.3-3.3-3.9l.8-.8c-2.4-.9-3.3-2.4-5-4.2l1.7-.6c0-3.3-5.7-5.8-8.4-3.8l1.2-2.5-2.9,1.3c-1.7-2.3,9-6.1,10.7-6.3,2.8-.2,7.7,3.3,8.6,6,.7,2.1-1.4,0-2.1-.4s-.9-1-1.3-.4c.4.4.9.8,1.2,1.3s.6,2.3.9,2.8c1.1,2,3.5,4.1,3.7,6.6l-1.5-1.3c-.6-.1-.8,0-.6.6.3,1,1.8,3.3,2.5,4.2s3.7,4.4,4.2,4c-1.2-2-2.8-3.9-3.8-6s-.8-1.2-.2-1.5c3.4,4.1,7.3,7.6,10.7,11.8s1.4,3.5,1.8,5.5,1.4,1,1.1,1.9c-.3.3-4.2-3.5-3.3-1.5s4.7,5.2,6,6.9,3.3,5.7,5.3,8.1c-.3.6-2.1-.9-1.7.4s2.5,4.4,3.3,5.2l-1.3-5.6,1.2-.2-1.7-5.2.8-.4-3.3-4.8,1.5,1.3c.3,0,.3-.4.2-.6-.9-2.3-5.6-5.4-7.1-7.5s-.3-1.5-.8-2.1c-4.1-5.3-9-10.1-11.7-16.3.5-.7.9.2,1.2.5,1.1,1.3,1.8,3.1,3.4,3.9l-2.7-7.1c3.3,2.5,4.2,7.1,7.3,9.6,0-1.5-1.3-2.5-1.9-3.8-2-4.6-4.8-8.7-6.5-13,1.6,1.2,2.2,2.2,3.3,3.8-.2-2.6-2.3-4.2-4-5.9-.4.5.4,1.5.6,2.1-.7-.6-1.8-.9-2.5-1.7l.8,2.1-1.7-1.3.2,2.5c-1.7-1.1-3-2.7-4-4.4l2.3,1c.7-.9-1.2-1.5-1.9-2.3s-1-1.5-1.7-2.1l1.6-.3.5-1-2.5-2.3,3.3.4c-.1-2.1-3.3-2.2-1.4-5-.9-1.4-2.8-1.2-3.2-2.9l6.3,2.3c-1.9-2.1-4.5-3.7-7.1-4.8-.6-1,1.3-.8.8-1.2s-1-.3-1.7-1-1.5-2.5-1.2-2.7c2.1,0,4.3,1,6.1,2,11.2,6.2,16.8,22.2,20.1,33.8.7,2.7,1.4,6.3,1.6,8.9-3.4-4-2.8-10.3-6.3-14.2l1.9,10.3c1.6,2.3,3.4,5.1,5,7.1,2.6,3.2,5.7,5.8,7.9,9.2.1,1.1-.7.6-1.2.4-1.7-.8-3.6-2.9-5.1-4.1l-3.3-1.7c1.6,2.4,4.1,3.9,6.1,6.1,4.5,5,8.6,13.4,9.6,20.1s0,4.1.2,6.1c.4,3.7,1.7,7,3.3,10.3-2.6-.4-2.8-3.2-4.6-4.6-.5,4.9-1.2,8.7,2.1,12.7s5.7,4.7,5.8,5c.3.8-.5.7-1.1.6-2-.1-4-2.5-5.4-3.8-.3,0-.3.4-.2.6.3,1.1,4.6,6.4,5.6,7.3,3,2.8,4.6,3.3,7.8,6.9,2.9,3.3,5,4.2,5.3,9.3s0,1.9-.7,1.8c-1.6-6.8-8.8-9.3-13.6-13.8s-6.7-8-9.6-13,0-1.1-1-.8c.3,5.6,4.6,11.3,8.8,14.8,4.5,3.8,7.8,4.1,10.2,10.2s1.7,4.4,1.5,6.9c0,1.1-1.7,6.1-2.2,7s-.5.9-1.2.7l-3.4-12.5-.8.2c0,.9.5,1.8.7,2.7s.6,1.4-.4,1.3c-1.2-3.3-2.8-6.6-5.6-8.8,1.2,2.9,3.6,5.6,4.5,8.7.8,2.6.7,5.3.1,8,4.4,1.6,8.7,3.3,12.6,6s4.3,2.9,5,5.7c-1.3-.7-3.3,0-4.2-.2s-3.1-2.6-4.3-3.3c-2.4-1.4-6.8-3.4-9.5-3.5l1.3,1.9c-3.8.2-7.6.8-11.1,2.1-1.7.3.3-2.4.2-2.9-.7-.6-3.4,2.2-4.2,2.7l1.7.4c-.8,1.7-2.2,3.9-3.8,5s-2.8.5-2.9,3.6l2.3-1.7c.5-.2.8,0,.6.6s-4.8,3.8-5,3.6c-.3-1.2,1.5-1.4,1.7-2,.2-.8,0-2.3,0-3.2l-1.2-.5c0-1.3.9-2.7,1.1-3.8.5-2.3.6-3.6,1.4-6.2s.9-1.2-.2-1c-1.8,3.1-3.7,6.3-6.1,9s-6.1,4.8-7.5,8.4l.8.4c-.5.5-.8,1.1-1.3,1.7-2.8,3.6-9.1,10.1-13.5,11.2s-1.6.4-2.4.3l.2-1.2c-.4.3-.4,1-.8,1.2s-4.2.8-4.5.8-.7-.3-1.1-.3l.8-2.1-2.1.4c-.1-.8,0-1.1.6-1.7,1.9-2,8.1-4.3,10.8-5.9s5.8-4.3,8.9-6.2l.8.8c1.8-1.5,4.5-1.9,4-4.6l-1.9,2.1c-1,.2-.7-.9-.5-1.4.4-1,2.5-2.8,3.2-3.9,1.7-2.7,5.6-8.7,6.7-11.3s1.6-5.1-1.6-5.5c0,3.1-.7,6.3-2,9.1-3.7,7.6-18.1,19.2-25.9,22.7s-3.4,1.6-5,1.3-4.3-4.7-5.6-5.2c0-.7,7.8-2.6,9.1-3,5.8-2.1,11.7-5.1,16-9.5l-1.2-.4c3.9-3.8,7.3-6.3,9.4-11.5s2.1-4.5-1.8-5.4l-1.6,1.2c-3.7-2.5-4,1.5-6.9,2.5-.6-.6,1.9-2.5,2.5-2.7-.4-.9-2.4-.5-3.1-1s.6-1.9-1.5-.9c.3-1.6-.8-1.6-2.1-1.7l.4-1.2-2.5-.5c.5-1.9-.7-3.7-1.2-5.3s.5-2.1-1-2.6l-.8,2.1.4-4.2-1.2,1.3v-10s-1.9,2.9-1.9,2.9c-1.6-2.5,2.1-5.4,1.5-8.4l-5.4,3.8,2.3-4.6c-2.4,2.8-6.6,3.9-8.2,7.3l-5.4,4.6.8.4-.8,1,3.8-1c-2.4,2.3-8,7.4-11.1,8.1s1.3-3,1.9-3.1c-.2-.5-1.2,0-1.6.1-1.6.8-4,3.1-5.8,4.2s-4.2,1.9-6.4,4.2c.2,0,.7.3,1.3.2s3.9-2.2,4.2-1.8c.3,1.8-.5,1.8-1.4,2.6s-1.4.8,0,.8l4.4-2.3c-1.7,1.2-3.8,4.5-5.4,5.4s-1,0-1.5.2-2.4,1.6-2.7,1.3l1.3-1.9c-.7-.8-1,.6-1.4.9-1.5,1.3-3.7,3.4-5.7,3.1-.5-.4,6.1-6.7,6.7-7.3s.3-1,.4-1ZM367.6,72.4c-2.4-.7-4.3-2.5-6.9-2.6s-6.7,1.1-9,3c3.7.1,7.3.1,11,0s1.8-.7,2.6-.6,2.1,1.4,2.3.2ZM394.4,91.6c-1.3-4.1-3.6-8.6-7.1-11.3l.5,1.8,6.6,9.5ZM311.6,91.2c1.7-1.5,3.6-3.1,5-4.8s1-.7.8-1.5l-2.8,2.2-3.1,4ZM307.4,95.8c-1.6,0-1.5,1.7-2.3,2.5l-.2-1.3c-1,.2-.4,1.1-.7,1.6-.5,1-1.4,1.7-1.9,2.7-1.1,2-2.5,4.4-3.3,6.6,3.5-3,6.8-6.4,9.2-10.5l-2.1.8,1.3-2.5ZM412.8,142.2c-.7-3.6-2.1-8.9-5-11.3l.5,1.8,4.5,9.5ZM298.6,137.2c-1,0-.7-.1-.8.6-.6,3.8-.3,7.7-1,11.6s-1.4,5.4-2,8.1c.7.8.7.2.9-.4.4-1.1.6-2.5.8-3.6.8,0,.4,1.7.3,2.2-.6,3.2-2.4,6-3.2,9.1.7.7,2.8-2.6,3-3.1,1-1.8,4-10.8,4.1-12.7s-.5-3.1-.4-4.7l-1.2,1.3-.4-8.4ZM403.2,146.4c-.9.9-2.2-3.8-3.3-3.8.7,7.4-1.2,14.7.4,22,.1.6-.3.7.8.6-.3-1.1,1.2-2.2,1.2-2.4.2-.8-.4-2.3.9-2.6,0,2.5.9,5.3,1.8,7.6s.1,1.2.7,1.1c.2-3.3-1.3-6.6-.4-9.8l-.8-8.2,2.1,6.3c.7.1.4-1,.4-1.5-.2-1.9-1.5-10-2.9-10.9s-.8-.2-1.3-.2l.4,1.7ZM411.1,149.7l-.8.2c.8,1.4.3,3,.5,4.6s.2,2.3.8,2.4l-.4-7.1ZM385.6,168.5l2.1-16.3c-.8.1-.7.9-.9,1.4-1,3-1.4,6.5-2,9.7l.8,5.2ZM394.4,165.6l.4-3.5-1.3-4.8c-.5,2.6-.6,5.1,0,7.7s-.3.7.8.6ZM396.9,161.8v14.4c0,.4.7,1.7.8,2.3-.9,1-1.9-3.4-2.1-3.8v2.5c-1.2,1.2-3.1-6.4-3.3-7.1l-1.2,2.5-.8-2.9-.8,7.1-2.1-3.3c0,5-.1,10.6,3.8,14.2.5-4.2-1.2-8.5,0-12.5l.4,2.1.8-1.7,5.8,11.6c0,2.8,3.2,7.3,5.1,9.4s1.8,1.3,2.5,2c.2-2.3-.8-3.7-1.2-5.9l1.7.4-.4-1.2c1.1-.3,1,1,1.6,2,2.3,3.7,4.5,7.7,7.8,10.6.3,0,.3-.4.2-.6-.4-2.7-4.8-8.5-5.9-11.7s-.1-.7.2-.6l1.5,1.3c-.6-3.4-3.8-5.3-5-8.6l.9-.4-1.3-3.5c1.5,1.6,2.3,2.3,4.5,2.8s2.6.4,2.2-.5c-3.4-3.1-6.3-6.7-7.9-11.1-.8,0-.3.9-.3,1.3.2,1.6.5,3.2.3,4.9l-2.1-.8.8,3.3-1.5-.8c-.1,0-.4,1.8-1.7.4s-1.5-13.3-2.3-16.5,0-1.3-.8-1.5ZM309.5,162.3c-1.3-.2-.7.3-.8,1-.8,3.2-2.7,11.4-2.9,14.2s-.1.7.2.6c1.1-1.3,3.6-5.8,3.6-7.3v-8.6ZM287.3,167.3c-1.1-.3-.7.3-1.1.8-1.8,2.5-3.1,5.5-3.9,8.4l7.1-7.7c-1.5-.3-1.9,2.6-3.8,2.3l1.7-3.8ZM326.2,176.5c.8.7,5.1-3.8,3.1-4.2s-3.4,3.9-3.1,4.2ZM351.3,182.3c-1.5-.1-4.8,2.8-5.7,2.9s-1-.6-1.6-.7c-1.6-.3-3.4,1.3-4.4,2.4l3.1-1.7c.6.3,0,1.1-.2,1.5-1.4,2.1-7.7,5.7-9.9,7.9s-2.1,2.5-1.8,2.8c.8.2,1-.4,1.5-.8,4.7-3.9,9.5-8.3,15.2-10.7l3.8-3.5Z"/>
          <path class="cls-1" d="M436.2,219.6c0,.6.2,1.3.5,1.8,1.1,1.9,2.5,4.3,3.4,6.2s1.6,3.6,0,3.2c-.5-1-4.5-8.2-5.9-7.1,1.2,2.1,2.6,4.1,3.4,6.5s1,4.8,1.4,7.1.6.8.7,1.3-2.5,3.6-2.8,3.9c-1.6,1.5-5,4.1-7.1,4.2l-13.6,10.9,5.2-7.1c4.4-3.7,8-7.9,11.1-12.8-1-.8-1.5,1.2-2.1,1.6s-2.1.8-2.7,1.5-.5,2.1-1.1,3.1c-1.1,1.8-11.3,10.8-13.4,12s-3.7,1.9-2.8.1,3.6-3.1,4.4-4,1.1-.8.4-1.3c-1.5,1.4-3.9,4.2-6,4.5s-1.2-.3-1.8-.1-3.8,2.9-4.6,2.3c.8-.8,1.4-2,2.1-2.7s5.5-5.2,5.9-5.4.8-.3,1.2-.2l-.8,2.1c2.6-1.2,5.2-2.6,7.1-4.8l-.8-.4,10.2-8.2.4.9,1.3-.6c.1-1.9,1.4-3.3,1.9-5s.8-.8-.3-.7c-2.8,2-5.6,7.2-8.4,8.8s-2,.2-2.7.4c1.1-2.9,2.8-5.5,4.9-7.9l-1.1-2.1c-3.2.9,1-1.5,1.3-2.7-3.4-.1,1-3.8.8-4l-5.7,2.5c-.3-.7,0-1-1-.8v1.3c-3.2-1.2-2.7,3.6-5.4,3.3,2.1-3.9,5.8-7.9,10-9.4s1,.3,1.2.1c.4-.3,1-2.3,2.6-2-1.5-2.6-4.5-1.6-6.3-3.3,1.2,0,1.8-1.3,3-1.2,3.6.4,8.1,4.9,12,4.1Z"/>
          <path class="cls-1" d="M408.2,243l-1.7,3.3,1.9-1.7c.7.4-.2.9-.3,1.2-.2.6,0,1.1-.3,1.8-1.2,2.6-8.5,10.6-10.9,12.2s-5.3,2.4-5.8,1.9c.9-2.5,2.6-5.2,5-6.3l-.8,2.9c.3.4,2.9-2.6,3.1-3,2.5-4.3,4.2-8.2,8.4-11.7s.7-1,1.5-.8Z"/>
          <path class="cls-1" d="M401.9,237.5l1.2-.4c0,.6,0,1.1-.2,1.7-.3.9-3.7,5.8-4.5,6.8s-5,5.4-5.4,4.9c-.2-2.2,2.2-3.4,2.5-5.4l-3.8,3.5-.3-.7c3.1-5.9,7.8-10.8,12.3-15.8,1.2,1.2-2.5,4.8-1.9,5.4Z"/>
          <path class="cls-1" d="M385.5,132.5c-1,.2-1,1.3-1.2,2.2l-1.7-.4c-.1.1,1.6,2.5,0,2.3-.6-.5-4-6.3-4.2-7.1s-.1-.7.2-.6l2.1,2.5c.3,0,.3-.4.2-.6-.4-1.2-5.3-7.4-5-7.7,1.7,1.3,10.3,7.4,9.5,9.5Z"/>
          <path class="cls-1" d="M396.5,236.3l-.6-.8c-2.8,2.4-5.4,5.4-8.2,7.7s-3,2.6-4.6,3.1c-1-1.1,5.4-4.3,5.4-6.1-1.1-.1-1.8.9-2.2,1.8l-3.3.7,9-8.2.6.2-1.7,2.1c-.2.5.1.8.6.6s6-5.1,6.5-4.6l-1.7,3.3Z"/>
          <path class="cls-1" d="M384.8,251.4l.2.8,1.9-1.3c1.1,1.5-5.6,5.7-6.9,6.3v-1.6c.1,0,14.8-17.3,14.8-17.3-1.6,4.7-5.5,8.7-8.8,12.4s-.8.6-1.3.6Z"/>
          <path class="cls-1" d="M323.4,195.4c-.3.3-.7,1.1-1,1.5.8.7,2.7-2.3,3.3-1.5-1.1,1.1-8.6,6.9-9.6,6.1,0-1,1-1.7,1.7-2.3,2.8-2.7,6-6.3,9-8.6.7-.5,1.4-.7,2.1-1.3.3,0,.3.4.2.6-.4.8-2.9,3.4-3.7,4.2s-1.5.7-2,1.2Z"/>
          <path class="cls-1" d="M384.8,236.7c-1.6,4.3-4.6,4.6-7.9,6.5s-4.7,5.2-8.4,5.6c-.2-.8.4-1,.8-1.5,2-2.4,5.7-4.1,8.6-5.2l6.9-5.4Z"/>
          <path class="cls-1" d="M340.8,107.5c.6.5-7.4,8.5-8.2,9.2s-.7,1-1.5.8l2.1-3.5-.9-.4c-.4-1.8,8-6.4,8.4-6.1Z"/>
          <path class="cls-1" d="M372.2,216.2c.5.5-8.2,9.5-10,9.2,1.5-1.9,3-3.8,4.8-5.5s4.7-4.2,5.2-3.7Z"/>
          <path class="cls-1" d="M326.6,122.1c-2.5,3.5-4.9,7.3-8.4,10,1-3.6,4.1-6.9,6.9-9.2s.7-1,1.5-.8Z"/>
          <path class="cls-1" d="M347.5,201.6c.2.8-.4,1-.8,1.5-1.9,2.2-4.4,4.5-7.1,5.6,1.3-3.4,4.7-5.7,7.9-7.1Z"/>
          <path class="cls-1" d="M341.3,201.6c.4.4-1.3,2.1-1.7,2.3-1,.6-1.8.3-2.3.6-1.4,1-2.7,4.2-5.6,3.4l2.1-2.3,7.5-4Z"/>
          <path class="cls-1" d="M422,220c-.3,1.1-6.1,5.5-6.7,5,.5-2.8,4.2-4.5,6.7-5Z"/>
          <path class="cls-1" d="M348.4,198.2c-1.9,2.4-3.7,4.4-6.7,5.4-.8-.8,5.4-5.7,6.7-5.4Z"/>
          <path class="cls-1" d="M331.7,81.5c-.9-.8,4.9-4.2,5.8-4.2.7.8-5.3,4.7-5.8,4.2Z"/>
          <path class="cls-1" d="M351.7,190.7c-1.2,1.7-3.2,2.9-5,3.8.7-1.8,3.4-3,5-3.8Z"/>
        </g>
        <g>
          <g>
            <path class="cls-1" d="M122.5,246.8l-13,21.7,10-10.3c1.8-.8,4.5-4.3,6.1-4.8s.7,0,.6.2l-6.1,6.1c3.8-1.4,7-6.5,11.5-6.1-.7,1.5-2.1,2.4-2.9,3.3-1.7,2.1-3.5,4.8-5.5,6.6s-3,3-4.6,2.8l2.9-3.6c0-1-.1-.5-.7-.3-3.3,1.1-11.5,12.5-14.9,15.6-.5.5-3.6,2.4-4,2.1l.4-2.1-1,.8c-.7,0-.7,0-.6-.6.2-1.2,2.8-7,2.5-7.3l-2.9,2.3-4.8,6.9c-1.3-.9.1-2.5-.2-3.8-1.1-.2-1.8,1.3-2.7,1.2s-2.3-.8-2.9-.8v-1.7c5.4-7.5,10.1-14.9,16.6-21.6s.4-.7.4-1h.8s.2,1.7.2,1.7l3.4-3.8-.2,2.1,1.7-.8c.9,1.2-3.7,5.5-3.1,7.1,3.3-2.8,5.9-6.6,9.1-9.5s3.7-3,4-2.7Z"/>
            <path class="cls-1" d="M141.8,260.6c-2.8,2.8-6.2,4.1-9.8,5.5s-4.6.4-4.2,2.5c1.5-.3,2.8-1.7,4.4-.6-.8,1.4-2.4,1.2-3.6,1.9s-1.2,1.7-1.9,2.3-1.6.6-1.6.7.4.7.2,1.2c-.6,1.4-3.4,2.6-4.8,3,0,.9,1.6.3,2,.1,1.1-.4,2.7-1.3,3.9-1.8s1.2-1.9,1.6-.2-6.8,5.5-7.8,6.9-.4.7,0,.9l1.5-.4c-1,2.2-3.4,2.3-5.2,3.4s-2.3,2.8-4.3,3.2-6.1.2-6.4-1c-.4-1.8,7.6-3.2,6.3-4.4-6.9.6-2.7,0-1-2.2s.5-1.5,1.1-2.2c2.1-2.4,7.2-4.8,9.5-7.5l-4.5,1.8c-2.1,1-4.1,3.4-6.2,4.3s-.7.1-.6-.2c3.6-4.9,8.8-8,13.6-11.5,1.6-.2-.4,2-.2,2.1l8.8-4.4,9.2-3.1ZM114.6,284.4c-.2-.2-4.4,1.6-4.6,2.5,1.7,0,4.8,0,4.6-2.5Z"/>
            <path class="cls-1" d="M303.6,269.3l4.2-2.9c-.3,3-2.8,4-4.6,6.1l2.9-1c.4.4-1.1,1.8-1.5,2.1-1.1,1-6.9,5.5-8.2,4.6l.2-1.7c-1,1.5-1.2,2.4-3.1,2.9-1.1-1.4,5-4.9,5.9-5.6s2.4-2.9,3.7-3.8c-2.1,0-3.7,2.1-5.6,2.7-.9-.9,2.1-3.1,1.9-3.3l-3.8.8,6.7-6.5-.8-.4c0-1.1,7.8-6.5,9.6-6.5-1.8,2.1-3.9,4.1-5.6,6.3s-1.1.8-.4,1.3l6.9-6.1-.8-.4c1.8-1.8,3.7-3.6,5.7-5.2,3.4-2.8,10.4-8.8,13.9-10.8s1.8-.9,2.4-1,.9-.6,1.1.3-5.4,6.7-6.3,7.5c-5.6,5.3-12.8,9-18.2,14s-4,4.7-6.1,6.7Z"/>
            <path class="cls-1" d="M151,278.9l4.8-1.7c.3,0,.6,1,.4,1.3-.6,1.5-8.7,7.5-10.5,8.3s-5.4,2-6.7,2.1c-2.4.2-1-.8-1.4-1.2-.8-.8-6.8,2.3-8.3,1.2l2.9-3.6-1.7-.4c2.2-1.4,6.5-5.6,8.6-6.5s.7-.1.6.2c-.5.8-2.4,1.6-1.9,2.7l22.4-12.1-9.2,9.6Z"/>
            <path class="cls-1" d="M307.4,275.2c-1,1.7-3.9,1.9-4.2,4.2.6.5,3.5-1.9,4.3-2.2s1.4,0,1.5,0c.3-.2.2-1.3,1.1-1.2s1,.6,0,1-.5-.2-.6-.1c-.4.6-.5,1.9-1.3,3.1-1.5,2.1-6.1,4.3-8.3,5.9s-3.5,2.7-5,4.2c.3.5,1.3-.1,1.8-.3,2.1-1,4.4-2.3,6.4-3.6l.6.2-1.5,2.3-.4-.8c-2,1.4-4.3,2.9-6.5,4s-5.5,2.9-8,2.5c2.3-1.3,4.2-2.6,5.9-4.6,0-.3-.4-.3-.6-.2-2.1.3-11.2,6.8-12.8,5.4.8-3.5,5.9-4.8,8.3-6.9,5.3-4.6,8.9-7.7,15.3-11.1s2.8-1.4,4-1.7Z"/>
            <path class="cls-1" d="M243,243.4l-1.3,1.5.8.4c-6.4,6.3-13.3,12.2-20.9,16.9-.2-.8.4-1,.8-1.5,2.6-3.1,6.2-6.1,9.2-8.8-.3-.6-1.1,0-1.5.2-2.2,1.1-4.5,2.2-6.7,3.4-.6-.6.7-1.5,1-1.9,2.6-2.4,11.9-9.6,15-10.2s2.3.4,3.4,0Z"/>
            <path class="cls-1" d="M319.5,213.7l-3.8-.8c.9,1.9,3.1,1.5,4.7,2.2,3.3,1.4,6.8,3.1,10.1,4.6s4.8,3,6.5,4.5l-7.9-2.5c-.3,1.6,1.8,1.6,1.7,2.9-2.6-.7-4.4-.5-6.7.8-.5-1.9,1.6-1.1,2.1-2.5-1.7-1-3.4-1.3-5.2-1.8s-.1-.7-.4-.7c-1.5,0-4,1.4-4.4-1.3h1.3s-.4-1.5-.4-1.5l.9-.5,2.5,1.1c-.2-.4,0-1.5-.1-1.6-.2-.3-4.3-2.8-5.2-3.4-1.8-1.2-1.2-.9-2.3-1.9s-2.9-1.9-4.2-3l6,1.9,4.9,3.3Z"/>
            <path class="cls-1" d="M304.5,218.3l-.4,1.2,2.5.4-10.9,3.6,7.9-.6v1.3c-2.1.2-4.5,1.5-6.3,2.7l6.3-.6c-1.5,2.2-4.6,2.1-5.4,4.8l-3.3-.2,2.1-1.9c-2.1-1.6-4,.5-6.3.2l4.8-2.9,1-1.3c-1.6.8-3.5,0-5.1.3s-3.2,2-5,1.8c2.4-1.9,5.7-4.1,8.8-4.2l-1.9-.4-.2-.8c3.5-2.3,7.3-2.6,11.3-3.4Z"/>
            <path class="cls-1" d="M259.3,281l-10,10.2c.3.6,1,0,1.4-.3,2.4-1.4,4.5-3.6,7-4.9.2.8-.4,1-.8,1.5-2,2.3-4.7,4.4-6.7,6.7,1.6.4,3.6-1.9,4.8-2.3,2-.6-1.4,2.7-1.7,2.9-3,2.5-7.5,5.6-11.5,5,1.4-1.5,3.5-2.2,5-3.6s2.4-3,0-2.1-5.4,4-5.8,3.6l4.4-5.4c2.9-2.7,5.7-5.5,8.8-7.9s4.8-3.7,5.2-3.4Z"/>
            <path class="cls-1" d="M330,235l-1.2,3.3,3.3-1.3-.4,1.5c-4.4,5-10.7,8.6-15.9,12.7-.3-.8,0-2.6,0-3.1s-1.5,0-.4-1.7c4.3-3.4,8.3-7.5,12.8-10.6s1.1-.9,1.9-.8Z"/>
            <path class="cls-1" d="M200.3,293.2l1.7-1.7-4.8,1.7c-.3-.3.7-1.4.9-1.6,2.2-2.2,9.4-7.6,12.1-9.2s2.3-1,1.8.1-4.2,3.4-5.2,4.4-2.4,2.5-2.1,3.3c4.8-3.9,10-7.3,15.3-10.5.9.9-4,3.9-4.4,4.2-2.8,2.4-5.5,5.6-8.1,7.7s-5,3.7-7.1,1.5Z"/>
            <path class="cls-1" d="M167.3,275.6c.7.7-2.3,2.5-2.7,2.9-.8.9-1.6,2.4-2.4,3.2s-2.8,1.5-3.6,2.9l.8.4c-1,1.5-3,1.5-4.3,2.4s-1.3,1.4-2,1.8c-3,1.8-6.1,3.6-9.6,4l2.5-1.9-1.5-.3v-.5c-.1,0,22.9-14.9,22.9-14.9Z"/>
            <path class="cls-1" d="M134.2,277.7c-1.3.5-2.3,1.4-3.8.8.5-1,2-1.5,1.7-2.9l-2.9.6c3.9-4.2,8.8-8.4,14.6-9.4l-5.9,4.8c.3.6,1,0,1.4-.3s4-2.7,3.2-1-2.9,2-3.6,2.7-.8,1.6-1.5,2.3c-.9,1-2.5,1.1-3.3,2.3.6-.3,1.3-.3,2-.7,1.9-1,3.9-3.4,6.3-3.5-2.1,2.9-5.1,5.2-8.8,5.4,0-.5.2-.9.4-1.3Z"/>
            <path class="cls-1" d="M249.7,255.1l2.5-3.1-.8-.4c5-4.6,10-9.7,16.3-12.3.3.3-1.4,2.3-1.7,2.7-4.3,5.3-10,10.3-16.3,13.2Z"/>
            <path class="cls-1" d="M286.5,285.6c-.6,1.4-1.8,2.5-3,3.5-3,2.5-8.7,5.8-12.5,6.5.4-1.4,2.9-1.5,1.9-2.9l-11.5,4.2,10.2-7.1c1.5,1.1-1.4,1.5-1.5,2.5,3,.3,5.3-2.7,7.7-3.8s-.3,1.7.8,1.7l7.7-4.6Z"/>
            <path class="cls-1" d="M218.3,260.6c.2.8-.4,1-.8,1.5-1.1,1.3-8.7,8.8-9.8,9.4s-3.4.8-4.6,2.1l-.4-.8-2.7,1.7c-.7-.7,2.8-2.6,3.2-3.1.9-.9,1.5-2.2,2.5-3.1s12-8.3,12.7-7.6Z"/>
            <path class="cls-1" d="M161.9,262.6c-1.7,1.9-4.1,3-6.1,4.6s-4.2,5.5-7.7,5.4l.2-1.7-2.3.8c.2-.8,0-1.6.4-2.3.7-1.1,9.1-6.6,9.7-6.1-.6,1.3-1.5,2.6-2.9,2.9-.1.7,1,.4,1.4.3,2.4-.7,4.7-3.7,7.4-4.1Z"/>
            <path class="cls-1" d="M322,235.9c-2.5,2.3-4.8,4.9-7.7,6.7s-3.7,1.6-5.4,2.6c-3.5,2-6.6,5.2-10.7,6.2-.3-.3,2.2-3.4,2.5-3.6,1.8-.9,1.7.7,1.9.6,6.7-4.2,11.6-10.3,19.5-12.5Z"/>
            <path class="cls-1" d="M210.8,261l-13,10.2c-1.8,1-3.7,2.4-5.8,2.3-.2-1,.2-1.3.8-1.9,3-3.2,12.1-7.8,16.3-10.1s1-.7,1.7-.6Z"/>
            <path class="cls-1" d="M153.5,248.4c-2.7,2.7-6.9,3.7-10.3,5.4-3,1.4-5.9,3.6-9.3,4.3.5-.8,1.4-1.7,2.1-2.3,1.7-1.3,5.8-4,7.8-4.8,3-1.3,6.6-2,9.8-2.6Z"/>
            <path class="cls-1" d="M239.6,255.5c.2-1.7.9-3.2,2.1-4.4s5.3-4.3,6.1-4.7c1.2-.7,2.7-.6,3.9-1.3.3.3-1.6,2.5-1.9,2.9-.9,1-2.5,2.7-3.5,3.6s-5.8,4.8-6.7,4Z"/>
            <path class="cls-1" d="M216.2,266.8c-1.5,2.9-4.5,4.6-6.7,6.9,1.1.6,2.5-1.2,3.1-1.5s.7.5.2,1.1c-1.3,1.5-5.1,3-6.5,4.8l-.6-1.3-1.7.4.8.6-1.7,1c-.3-3,3.3-3.4,4.4-5s.2-1.9.6-2.3c1.1-1,4.9-3.3,6.3-4.2s.9-.8,1.6-.7Z"/>
            <path class="cls-1" d="M238.8,287.7c-.9,1.2-2.4,2.4-3.6,3.3-2.3,1.8-6,4.7-8.4,6.2s-2,1.2-2.2.9l.8-2.1-2.1.4c-.7-.7,3.9-3.4,4.5-3.7,1.7-.9,3.7-1.3,5.1-2s3.8-2.7,5.9-3.1Z"/>
            <path class="cls-1" d="M163.9,288.6l-.4,1.2,2.9-.4c-.6.5-1.6,2.3-2,2.5-.6.3-7.9,2.6-8.8,2.8s-2.3,0-3.5,0c1.8-1.2,4.1-2.8,6-3.8s5.3-2.8,5.7-2.4Z"/>
            <path class="cls-1" d="M215.4,287.7c-.9,1.7-2.7,2.5-4,3.7s-1.1,2.2-2.9,2.5l.2,1.2c-2.3,1.2-3.3,2.8-6.2,2.2l2.5-3.1,10.4-6.5Z"/>
            <path class="cls-1" d="M143,256.8c-3.6,3.4-8.7,5.2-13.4,6.7,3.3-3.9,8.4-6,13.4-6.7Z"/>
            <path class="cls-1" d="M110,220.4l-15.9,10c4-4.8,9.9-8.3,15.9-10Z"/>
            <path class="cls-1" d="M271,212c2.2-4.7,5.6-8.9,8.8-13-.9,4.9-4.9,9.8-8.8,13Z"/>
            <path class="cls-1" d="M297.8,206.2c.3.2-3.4,5-4,5.4s-4.8,2.6-4.7,1.1c1.3-.6,7.9-7.2,8.8-6.5Z"/>
            <path class="cls-1" d="M264.3,226.7c.2,1.4-1.1,1.6-1.7,2.3-2.2,2.5-4.6,4.7-7.5,6.5-.8-.9,5.6-6.4,6.5-7.1s2.4-2,2.7-1.7Z"/>
            <path class="cls-1" d="M316.2,236.7c-2.5,3.3-6.7,4.6-10.5,5.8,3.1-2.5,6.4-5.2,10.5-5.8Z"/>
            <path class="cls-1" d="M222.5,271.8c.1.7-.4,1-.8,1.5-1,.9-2.5,2.2-3.6,3.1s-5.2,4.2-5.6,3.8c-.2-.8.4-1,.9-1.4.9-.8,8.5-7.6,9.2-6.9Z"/>
            <path class="cls-1" d="M263.5,251.8c.7.8-5.3,6.2-6.7,5.9-.4-1.7,6.3-6.3,6.7-5.9Z"/>
            <path class="cls-1" d="M304,230.4c-1.4,1.9-4,2.8-6.3,2.5,1.2-3.8,3-2.7,6.3-2.5Z"/>
            <path class="cls-1" d="M267.7,288.2c-1.2,2.6-3.9,4-6.7,4.2,1.8-2.6,3.6-3.7,6.7-4.2Z"/>
            <path class="cls-1" d="M181.1,298.2c.1,1,0,.7-.6.9-1.6.6-4.7-.7-6.5-.7l-3.7-1.5,10.9,1.3Z"/>
            <path class="cls-1" d="M220,296.9l-1.7.9c1.2,2.3-4.2,2.7-5.9,2.9,1.5-2.3,5-2.9,7.5-3.8Z"/>
            <path class="cls-1" d="M232.5,245.5c-1.7,2.1-3.7,4.5-6.7,4.2-1-.9,5.7-4.4,6.7-4.2Z"/>
            <path class="cls-1" d="M170.2,266.4c-.9,1.3-2.5,2.5-3.8,3.5s-4.3,3-4.6,2.8c1.9-2.8,5.1-5.2,8.4-6.3Z"/>
            <path class="cls-1" d="M248.8,266.8l-3.6,3.8-5.6,3.3c2.6-2.8,5.7-5.5,9.2-7.1Z"/>
            <path class="cls-1" d="M314.9,244.2c-.2,1.1-1.9,2.2-2.8,2.9-1.4,1-3.5,2.4-5.2,2.6l6.1-5,1.8-.5Z"/>
            <path class="cls-1" d="M299,253c-1,2.5-3,4.5-5.4,5.4-.8-1,4.7-6,5.4-5.4Z"/>
            <path class="cls-1" d="M107.9,235.9c-1.4,1.9-2.9,3.7-4.4,5.4s-.6,1-1.4.9c-1.1-1.2,5.2-6.9,5.9-6.3Z"/>
            <path class="cls-1" d="M123,286.1c-.2-.9,1.3-1.6,2-2,1.5-1,3.5-1.8,5.2-2.6.2.9-.5.9-.9,1.3-1.7,1.4-4,2.9-6.2,3.2Z"/>
            <path class="cls-1" d="M345.9,239.2l-2.5-1.9-2.5-4c.8-.8,4.9,4.9,5,5.8Z"/>
            <path class="cls-1" d="M132.5,236.2c0,.1-.7.2-.9.5-1.3,1.4-1.6,2.3-4,2.1l4.8-3.8c.4,0,.3.9.1,1.2Z"/>
            <path class="cls-1" d="M179.8,292.3c-.3.8-1,1.3-1.8,1.3s-3.6-1-4-1.7c2,0,4-.2,5.9.4Z"/>
            <path class="cls-1" d="M193.2,297.8c.3.8-1.6,1.9-1.9,2s-2.8.2-3.1-.5c0-.6,4.3-1.7,5-1.5Z"/>
            <path class="cls-1" d="M143,238.8c-.8-.8,3.7-3.8,4.6-3.8.7.7-4.3,4.1-4.6,3.8Z"/>
            <path class="cls-1" d="M260.1,294c-.3.8-1.2,1.3-1.9,1.7-1.1.7-3.1,1.7-4.4,2.1,1.7-1.7,4-3.1,6.3-3.8Z"/>
          </g>
          <g>
            <path class="cls-1" d="M358.8,260.8c-.2-1-2.1-3.4-2.7-4.4-1.1,0-.4.2-.3.7.2.9,1.2,3.2,0,3.9l-2.9-5.4,1.2,6.3c-2.6-3.1-4.1-7.4-5-11.3l2.9,3.8c-.6-2.5-.6-4.5-.4-7.1l3.6,3.8c.9-1.7-1.2-2.6-2.1-3.8s-2-3.3-3.1-4.8l1.2-1.6c-2.5-4.4-7.1-7.1-9.6-11.7l.8-.4-4.2-3.3c.4-.7.9.2,1.3.4,2.5,1.5,4.9,3.1,7.3,4.9.7-.4-.2-.9-.4-1.3-3.9-5.6-8.6-6.4-13.9-9.1-4-2.1-8.4-6.1-12.8-8.5s-9.5-5.1-14.5-6.2l.6,1.2-7.3-3.3,2.1,2.1c-1.4.6-3-.9-3.9-.9s-.2.7-.5.9c-2.8,1.7-5.2,4.8-8.1,6.5s-1.7.3-2.7.6c-.7-.4.1-.9.4-1.3.9-1.1,4.5-4,4.8-4.8s-.1-.8-.6-.6-4.9,4.4-5.4,5-2.8,3.4-3.3,4.2c-1.3,2.2-1.2,5.1-3.2,6.9l.8.8c-1.5,1.9-3.4,4.7-5.5,5.8s-1.7.2-2.4.5-2.2,2.5-3.8,2.7l2.8-3.2v-1c0,0-2,.6-2,.6,1.7-5,7.2-8.2,10-12.1s.6-1.6,1.1-2.3c1-1.4,3.3-3.1,2.9-4.6l-9.4,10c-.8.1-.4-.9-.2-1.3.3-.6,2.3-3,1.9-3.3l-3.3,1.7c2.7-5.6,6.8-10.3,10.5-15.3l1,1.5c.3-.1,3.1-5,3.1-1.9s-5.2,6.3-4.6,6.9l6.5-6.7,1.8,1-1.7.6.8,1.2c.5.3,1.5-2.6,2.5-1.7s-2.1,2.4-.6,2.9,1.3-2.3,3.2-1,0,1.9,2.9.2l-20.1-11.7c0,.7,0,1.5-.1,2.2-2,9.2-9.4,16.2-15.4,23.1.5.5,1.6-.6,2-.9,2.3-1.8,4.7-3.7,6.5-6,1-.4.6,1.2.4,1.6-1.8,4.3-18.6,15.9-23.3,18.9s-6.9,4.2-9.9,4.7-1.4.5-1.3-.2c5.8-3.1,11.9-5.9,16.3-10.9-4.8,1.2-9.1,4.4-13.8,5.7s-10.6,1.6-15.6,2.8-.8.3-1.2.3l.8.8c-7.8,2.1-14.3-2.7-21.7-3.3l7.1,2.9c.3,1.2-.6.8-1.5.8-2.5,0-5-1.4-7.7-.8l9.6,2.9c0,.7.2.9-.6.8-1.9-.1-4.1-.7-6.1-.8,0,.4.4.6.7.7,2.5,1.3,8.4,1.8,11.2,2.2,4.7.7,9.9,1.9,14.5,1.1,15.5-2.5,25.3-12.6,36.7-21.8.7-.5,2.9-2.1,3.7-1.7-1.8,2.6-4.2,4.8-6.7,6.7-5.5,4.1-12.3,7.3-17.7,11.5s-1.1,1.8-2.5,2.6c-5.4,3.2-12.8,3.7-18.4,5.4s-1.4,1.9-2.8,1.6l2.1.8-1.3,2c-7.4.7-14.1-2.7-21.3-3.7,2,2.3,5.6,1.7,7.9,3.5-.6,1.4-2.7-.7-3.8-.2l.4,1.2-6.3-.8c-.1,0,.2.5.4.6.8.5,7.4,2.7,8.7,3,2.2.6,6.7.5,8.2,2.1l1.9-.2-.7,1.1-18.7,10.4.6-1.7c-4,.6-6.7,4.3-10.9,5v-1s16.7-12.6,16.7-12.6c-.6-.8-1.4-.8-2.3-.6-1.9.3-6.1,3.2-8.2,4s-2.4.2-3.8.2c-.6-1,4-4,4.6-4.8.3-.9-2.3-1.3-2.7-1.3-2.2,0-6.6,3.8-9,4.4,1.3-1.7,2.9-3.1,4.4-4.6s2.2-1,1.9-2.5c-1.8,0-3.6-1.2-5.2-2.2s-7.2-5.9-8.5-6.1-5,3.1-6.8,3.3c-.7-.7,3.9-4.1,4.4-4.6s.5-1.2.7-1.2c.5-.3,2.2,1,2.9-.7s-1.6-1.7-2-1.8c-.9-.4-1.8,0-2.6-.9.1,1.3-.5.4-1.2.6-3.9,1.5-7.7,3.6-11.6,5.2-.9-.7.2-.8.3-1,.9-1,1.9-1.9,2.8-2.8-3,0-5,.5-7.5,2.1-.3-.3,1.5-2,1.8-2.3.6-.6,5.5-4.1,5.3-4.3l-.8-.2c.4-.7,4.7-3.2,4.2-4-2.4-1.5-3.5.4-5.4.7s-1.7-.4-2.7-.3-1.9,1.3-3,1.2l1.5-1.7c-.7,0-1.4,0-2.1.2-4.6,1.3-10.8,8.1-14.8,11.1l-.6-.2,1.3-1.5c-2.4,0-4.4,1.9-6.5,2.9l-1-1.7c3.6-1,8.2-4.2,11-6.8s1.2-.7.5-1.2l-10,6.7-3.2,1.2c-.8-.8,4.3-3.5,5-4,4.9-3.7,5.1-4.2,10.8-6.8s7.3-6.8,11.4-9.3c0-.8-1.2-.3-1.6,0-1.6.9-2.6,2.9-4.5,3.5s-1.6-.4-2.4-.4-3.2,1.5-3.6,1.8c-1.2.8.5.5.4.8-1.4,2.1-3.8,3.6-6.3,4l.4-1.7c-.7-.6-5.9,2.6-5.2-1.3-.9.7-6.6,4-7.3,3.3,1.8-4.3,7.4-4.7,10.5-7.7l-8.5,2.7-.7-.8c.8.3.9-.9.7-1.4-.7-1.5-1.9-1.3-.3-3.4s6.1-4.4,7.6-5.4,3.6-2,5.4-3l2.7-2.7c-2.8,1.3-5.7,2.7-8.3,4.3-2.7,1.7-3.9,2.9-7.1,4.5s-.8,2-1.1.2l3.8-3.8c0-.3-.4-.3-.6-.2-1.1.4-3.8,3-5.3,3.9s-3.5,1.8-5.2,2.7l.2-1.7c-.4-.3-2.6,1-3.3,1.1s-1-.6-1.5-.6-3.6,1.6-3.5.2,8-5,9.2-5.9.6-.5.9-.8c0-.3-.4-.3-.6-.2-5.4,1.4-14.8,5.5-20,8s-10.8,6.7-11.2,7.2,0,1-.2,1.5c-.4.9-2,1.3-1.9,2.5l3.6-2.1c.3,0,.3.4.2.6-.5,1.1-5.2,4.5-6.5,5.7-4.1,3.9-8.6,8.7-11.4,13.7s-2,3.4-2.2,5.1c3.1-2.9,4.9-7.2,7.7-10.5s8.7-7.7,13.1-11.2c.4-.3,1.3.2,1.4.6,0,1-5,3.1-4.4,5.2,4.7-2.8,6.6-8.5,11.7-10.9.9,2.1-3.1,2.6-4.2,3.8s-1.5,3-2.4,4.3c-1.5,2.2-3.9,4.1-5.4,6.3l.8.2c0-.4.2-.8.4-1,3.3-2.8,5.6-5.2,8.3-8.4s3.9-2.5,5.6-4l-.6,2.1,1.3.2c-1.4,2.3-2.8,2.8-5.4,2.3-.2,1.6-.9,2.9-2.1,3.9l2.1-.4c-4.6,7.2-11.8,12.4-14.6,20.7,1.3-1.4,3.6-2.8,4.8-4.2,2-2.2,5.7-9.3,8.8-9.4s1-.5.6.4c-1.2,2.6-4.7,5.6-4.4,9l6.2-9.2,1.5-.4-.2,1.7c1.5-1.8,3.7-3.7,5-5.5s1.6-3.8,3.6-5.6,4.6-3.5,6.3-3.3l-7.5,8.4,1.2-.2c.1.6-.2.9-.5,1.4-3.4,5.6-9.2,9.5-12.1,15.6-.9.6-.3-1.7-.2-1.9.4-1.5,1.4-2.7,1.9-4.2-.7-.6-3.8,3.4-4.2,4-2.3,3.4-4.1,8.4-5.4,12.3l2.7-3c1.1-1.8,2.4-4.2,3.6-6s.7-1.2,1.2-.5c-2.3,3.1-7.3,14.5-10.5,15.9s-1.3-.4-1.6-.2c-1.1.6-3.8,3.6-5.3,4.6s-.8.5-1.5.4c-1-1,5.9-13.2,6.3-15.5l-3.3,2.7c-.7.5-5.3,5.9-5.8,5.2l-.6-2.5-1.9.8c.1-1.8-.7-1.5-2.1-1.9,2.3-2.7,4.2-5.6,5.4-9l-6.9,7.1c-1.2-1-1.1-2-.6-3.3l-2.7,1.7-.2-.8h-2.1c-.5-3.1,1.8-5.4,2.1-8.4l-3.1,4.6c-.4,1.1-1.1,2-1.5,3.1s-.3,4.2-2.4,4.5l1.3-7.9c-1.1-.8-.7,2.4-1.7,1.2s8.9-19.5,10.4-22c11.8-18.7,20.5-18.7,39.1-27.4,4.8-2.3,10.4-6.1,15-8,1.8-.7,3.4-.5,4.9-.9,9.7-3,22.1-7.9,31.1-12.8s4.3-4.1,6.8-5.7c3.8-2.5,4.7.1,7.2-5.4s3.4-14.4,2.9-17.4-.3-2.1,0-5.2c.5-4.7-1.3-4.1-2.7-7.7s-2.2-9.9-3.6-14.6c-3.2-.2-5-1.8-7-4.1-8.8-9.7-14.5-24.5-6.4-36.5.5-.7,1.6-1,1.7-2s-.6-1.4-.7-2.1c0-1.3.8-2.9.4-4.5s-1.6-4.2-1.7-4.4-.8,0-1.2-.3c-2.2-2.4,1.1-13.1,1.3-16.5-2,1.3-2,4.7-3.8,6.3-.4-1.6.4-3.9.3-5.3s-.6-1-.7-1.6c-.1-1.7,2.7-8.7,2-9.4l-2.8,1.2c-.7.1-.7,0-.6-.6.6-4.5,9.5-10.8,12.1-14.7-.2-1.9-2.8,1.8-3.7,0l2.5-4c-1.7.4-5.4,1.4-6.9.4-.5,0-.3-.6,0-.9,1.1-1.3,11.4-3.1,13.6-4.6.6-.6,0-.8-.6-.8-1.4-.2-3,.1-4.4,0l1.1-1.9-.7-1c4.7.4,9.9.4,13.6-2.9.5-.5-1.3-.9-1.5-1-1.6-.4-2.7-.5-4.1-1.8l2.1-.6-1.7-1.3c-.1-1.2.9-1.3,1.9-1.3,2.2,0,6.2,1.1,8.3.7s5.2-1.9,5.3-2.2l-6.3-3.3,4.2-1.3c-1.5-1.5-4-2.7-4.6-4.8,1.2-1.1,11.6,5.4,15.2,4.4s1.4-.4,1.5-1.1c-1.1,0-2.8-.1-3.3-1.3,6.2-.2,12.3-2.5,18.4-1.7,0-1.6-2.5-1.3-2.9-2.9,3.7.1,7,1.4,10.5,2.5l-5.4-4.4,1.3-.4c2.4,1.4,4.9,2.2,7.4,3.5s5.9,4.3,6.8,3.8c-.2-.5-.9-.9.2-.8,3.1.2,6.2,5,8.6,6.9s5.4,3.5,7.9,4.4c-1.9-3-6-4.1-8.6-5.8s-2.7-3.2-4-4.4-3.8-3.2-5.4-5l4.2,1.7,2.9,1.9c-.4-2.4-2.6-3.8-4-5.4s-1.1-.8-.4-1.3c6.2,3.2,12.1,7.3,17.2,12.1.7-.4-.2-.9-.4-1.3-1.2-1.8-2.9-3.1-4-5,1.8-.4,3.1,1,4.4,2.1,3.5,3,6.6,8.3,6.9,13-.8.2-1-.6-1.5-.7s-1,.3-1.5.2c-1.1-.2-2-2-3.2-2-.4.4,2.9,3.8,3.3,4.5,1,1.6,1.9,4.1,1,5.9s-1.3.4-1.4.5.8,1.9-.3,2.5c-2.6,1.4-5.3-1.8-7.9-1.7s-.5.7-.9.9c-1,.3-4.1,1.2-4.9,1.3-2.3.2-6-.6-8.4-.9l.6,1.3c-3.5.1-6.9.7-10.5,0,1.2,1.2,1.9,2.5,3.8,1.7.4,1.6-2.8.9-2.5,2.5,5-1.1,9.4-3.2,14.6-2.1l-2,1.3.4.8-2.5.2c1.3,1.2,3.6.4,5.2.6l.2.8c-1.2-.2-.4.7-.7,1.1-1,1.7-3.3,1.9-4.2,2.7s-.4,1.1-.7,1.6-4,2.2-2.1,2.5,1.2-.9,1.9-1.1,1.6,0,2.2-.3c3.9-1.4,6.7-4.6,10.4-6.6l-.2-.8-3.6.4c1.2-2.3,10.6-4.7,12.3-4.1s.5.9.8,1.1.9-.4,1.1.4,0,2.6-.4,3.7c-1.2,4.5-4.4,10.5-8.6,12.7s-1.5-2.1.3-3.1c-1.9-.3-2.9,2.3-3.8,3.3-1.7,2-9.3,5.7-11.9,6.1s-.7.1-.6-.2l6.1-4.4,3.1-3.3c-1.9,1-4.1,2.2-6.1,2.9s-3.1.6-4.4,1c-4.3,1.5-8.4,5.7-12,8.2s-4.8,2.3-6.6,4.2c-1.5.6.6-2.5.9-2.9,1.3-1.7,4.3-3.9,5.2-5.2s0-1.3.3-1.8c.7-1.5,2.6-2.7,3-4.3-.6-.6-7.2,4.5-8.2,5s.3-1.3-.8-.8c-2.5,1-9.9,6.1-12.1,7.9s-1.2.9-1,1.7l3.6-2.1c.3,0,.3.4.2.6-.5,1-5.3,5.1-6.6,6s-2.5,1.2-3.5,2-4.8,3.7-5.7,4.8-.3,1.1.4.8c1.1-.3,2.3-2.2,3.6-1.9-1.5,1.3-4,5.3-5.4,6.3s-.7.5-.8,0l1.2-2.7c-4.2.6-5.3,5.2-7.2,8.1-.3.5-1,.6-1.2,1-1.3,2.1-3.3,4.7-3.1,7.2,2.1-2.1,4.1-3.7,5.2-6.5l5-3.5c-1,1.1-1.6,3.1-2.3,4.2-2.7,3.8-5.8,7.3-8.3,11.3-.7,1.1-1.5,2.4-1.5,3.7l1.5-1.3c.6-.1.7,0,.6.6-.2,1.1-2.1,3.4-2.5,4.6l1.7-.6-1.2,5.9,4.6-6.1c-.8,3.5-2.7,6.7-3.6,10.2s-1.3,3.5.3,4.3c1-2.5,2.8-4.7,3.9-7.1s.4-2.6,2.5-5,3.3-3,6.1-3.8c-2.4,7.3-8,13-10.4,20.3v2.7c1,.2.7-.2,1.1-.8.5-.9,2.9-7.1,4.3-5.9-.5.8-.9,1.4-1.2,2.4s-.4,1.5.3,1.4c1-2.3,2.6-4.4,4.6-5.9-.6,3.5-3.9,6.4-3.6,10,1.5-1.4,2.9-3.6,3.7-5.5s.2-1.5.6-2.3,1.2-.6,1.3,0c.3,2.2-8.5,13.2-6.7,17.3,1.6-.3,2.6-4.7,3-5s.7.4,1.4,0c1.6-.9,3.1-4.4,4.8-5.5,0,5.9-5.6,10.9-5.8,16.7,1.3.2,1.2-1.6,1.9-2.5s1.5-1.2,1.6-1.3c1.5-.6-.6,2.4.8,2.1l2.3-2.5c0,3-2.1,5.4-2.9,8.2l1,.2c.4-1.4,1.6-2.5,2.2-3.7s.2-3.6,2.6-3l-.4,2.9,3.3-2.1c.4.3-3.1,5.2-3.6,5.8-.9,1.1-2.7,1.5-2.7,3.4l-.4-2.1c-2.5,2.1.7,2.7,1.6,3.5s1.1,2,2.2,2.4c-.9-3.1.9-2.9,2.3-4.2s2.6-3.3,4.4-3.3c.3.2-3.4,4.8-3.7,5.3-.4.7-.3,1.4-.5,1.9s-.9.5-1,.7c-.8,1.1.7,2.5,1.7,2.9l1.3-1.7.4.8,1-.8c.4,1.7-1.1,1.5-1.7,2.5,1.5.2,2.1-1,2.7-2.1,2,1.6-1.8,2.4,0,3.8,1.5.4,5-5.6,4.4-1.3l1.2-.8-.8,2.1c4.6-1,1.7,2.8-.8,2.9,1.7,4.3,5.6,1.6,8.8,1.3l-2.1,1.3c2.7,2.8,6.6-4.6,9.6-2.3l-2.1,2.1-5,2.7c4.3,1.5,5-2.5,8.6-3.7l.4,1.7,2.6-2h5.6c.2,1.1-1.6,1.1-2.1,2.2s0,.8.6.6,5.4-3.1,4.8-3.8l-1.2.4c-.3-.3,3.9-4.4,4.4-4.6s1.1,0,1.7-.3c.9-.6,2.2-2.8,3.7-3.9s2.8-1.6,4.1-2.4l-2.5,4c0,.3.4.3.6.2,1.1-.4,5-4.4,5.9-5.4s3-3.7,2.9-5.4l-5.4,5.9c-.3,0-.3-.4-.2-.6.2-.8,5.6-6.3,6.6-8s.3-1.5.6-2.1,1.4-.1.5-1l-1.9.8c-.2-.2,1.1-1.6,1.2-2,0-.7-1.5-1.1.3-2.2l.4,1.3c1-1.1.2-2.4,2.1-2.5l.6,2.5c1.2-.3.6-1.7.9-2.6s.9-1.1,1-1.8-.6-4.8-.2-5.2l1.2.4c1.7-4.1-2.8-7.3-2.3-11.3l1.9,1.7c-.5-1.8-1.6-3-.8-5l2.6,3.9c.5,1.4.2,2.9.7,4.3s.2,1.2.9.6c1-1,1.1-8.6.8-10.2s-3.8-7.2-3.3-7.8c1.1-.3.7.3,1,.8.7,1,1.5,2.7,2.3,3.6,1.5,1.6,3.6,2,4.6,4.6s0,2.9.4,3.2,2.9-1.2.8,1.7c.8.9,4.6-4.7,4.9-5.3,1.5-2.6,3.8-8.3,3.8-11.3s-2-9.8-2.9-10.6c-1.2-.3-1,1.9-1.5,2.9-.8,1.9-2.8,4.2-2.3,6.3l-.8-.4-.4,2.5,1.3-1.7c.7,0,1.7,1.7,1.2,2.1s-1.6-.2-1.7,1.3l2.1-.8c.5,1.3-.8,1.9-1,2.5-.6,1.5-.6,3.7-2.3,4.6l-.6-1.7-.8.8c-2.1,0-4.2-2.3-4.6-4.2s.6-5.1.5-6.3-1.1-1.9-1.4-2.8.5-1.9-.6-2.7c0-1.7,1.1,1.2,1.7,1.1.6-3.8-2.9-6.3-3.8-9.8,2.5-.3,2.9,4.4,5,4.2-.7-3.5-4.8-5.6-6-8.7s0-1.6-.1-2c-.3-.8-2.9-3.4-3.5-4.4,1.4-1,5,2.5,5.9,1.9l-.8-1.2,2.1.8c.5-2.6-2.3-3.8-3.7-5.7s-2.8-3.9-4.2-5.8l.8-.4-1.7-1.9,2.1-.2c-.7-.8-1.9-1.4-1.7-2.7l2.1.8c-.3-3.3-3.2-3.3-5.9-2.5l.4-.8-2.1-.4,3.2-1.7-.3-1.6c-2.9-.7-4.3,2.9-6.4,3.3s1-2,.6-2.5l-1.7-.4c.9-1.3,9.2-8.5,10-7.9.8,1.4,1.9,3.1,2.9,4.4s1.4.9,1.8,1.5c2.4,2.8,1.6,6.9,4.8,9.2l-.2-3.8,4,6.3v-5.9l3.8,5.9c.6-4.1-.9-7.4-1.7-11.3l2.7,4.2c.7-3.8-2-7.2-3.6-10.5-.7,0-.9-.2-.8.6.2,1.6,2,3.4,1,5.2-2.9-3.4-6-6.9-7.3-11.3l2.1.8-.4-2.5,1.7.8-.8-1.9c-.2-.5.1-.8.6-.6s3.8,2.6,4.2,2.9c1.6,1.3,2.5,3.1,4,4.4s.8,1.1,1.3.4c-2.3-6.2-6.8-8.8-11.7-12.6h1.7s5.4,2.1,5.4,2.1c-.7-.7-1.4-1.4-2.3-1.9-1.4-.7-10-3-8.6-5h2.1s-.8-1.7-.8-1.7l4.2-.6-1.7-2.5c-2.8-.1-5.4,0-5.1-3.7s.8-1.7.8-2.8c0-3.2-2.1-7.9-3.7-10.6-.4-1.3,3.1,2.2,3.3,2.5,2.8,3.4,5,9.3,5.6,13.6,5.5,1.4,8.9,6,12.8,9.8.5,1.7-3.4-.8-3.8,0,1.4,1.2,2,3,3.2,4.4s2.4,1.8,3.4,3.2c1.6,2.3,3.6,7,3.6,9.8l-5.2-6.5c1.2,4,3.3,8,2.9,12.3l-.8-1.3c-.6,5.8,3.4,10.6,3.8,16.3l-4.2-5.4c.2,3,2.4,7.8,1.6,10.6s-.6.9-1,.3l-2.7-5.9c-.5,4.4,1.1,8.6.4,13-.9.3-.9-5.2-2.1-3.8l-.5,8.5c6.2,2.8,6.7,11.6,5.8,17.5-1.3,9.5-6.1,19.6-15.2,23.7-1.9,4.1-1.8,9.3-3.4,13.4s-3.1,3.7-2.7,9.4,1.6,17.8,3.4,21.2,1.3.9,1.8,1.6c1,1.4,1.5,3.4,2.9,4.6s3.1,1.4,4.4,2.3c19.6,13.4,38.2,18.2,59.2,27.8s18.4,10.9,23.3,19.8l-.8.8c1,2.1,2.9,4.1,4,6.1s1.2,3.3,1.9,4.8c4.5,8.9,9.5,17.9,10.8,27.9-.7.1-.9-.2-1.3-.6-1.7-1.8-3.1-5.2-4.4-7.3s0-1.1-1-.8c.5,4.1,1.2,8.6.8,12.7-.6,6.3-2.2,1.1-2.7-1.5-.9.7-2.2,3.2-3.1,3.6s-1.7-.5-2.1-.2-1.7,4.5-3.2,1.7l-9.6,7.1-.6-.2,5.4-6.7-.6-.2c-3,2.9-7.8,10.1-11.7,11.3s-.8,0-.6-.6c.4-1.2,4-4.5,5-5.9,1.7-2.3,3.6-5.2,4-8.1l-5,6.3c-1,.8-2.2,2.5-3.4,2.9s0-1.5-.9-1.9c.6-1.3,1.9-1.7,0-2.3l.2-.9c-1-.1-1.4,1-2.2,1.4s-1.7.2-2.4.5-2.9,2.7-4,2.7-2.3-3.9-2.5-3.8c-2.5,2.2-4,5.4-7.3,6.7.3-2.2,2.3-3.5,3.6-5s1.1-.8.4-1.3c-1.4,1.7-3.5,2.5-5.2,3.6s-3.4,2.6-3.7,2.6c-.8.2-1.3-.7-1.6-.7-.9,0-3.4,3.6-5.2,2.8.4-.8,0-2.1.4-2.7,1.2-2.1,6.8-5.2,7.6-7.1s-1.7.3-2.1.2c-.8-.7,11.6-11,13.2-11.3l-.6,2.9,2.1-.8c1.4,1.8-7.2,8.7-8.4,10.2,1.3.5,2.3-1.3,3.2-1.8,2.5-1.5,2.2.6,1,2,.4.4,1.6-.8,1.9-1.3,1.2-2.2,2-5.3,3-7.5,1.6-3.4,1.6-2.2,2.4-6.3s1.2-2.1,1.1-3.3l-6.6,4.5h-1.4c1-2.2-1.4-1.9-1.7.1l-.8-.6c0-.3,2.7-3.5,3.1-4,.7-.7,2-1.1,2.7-1.9s3.2-4.8,3.3-5,0-.7-.2-.6l-3.6,1.9c3.4-3,7.4-4.9,8.4-9.8-1.4,1.3-2.6,3.8-4,5s-1.1.8-1.4.2c1.5-2.1,5.4-9.8,7.3-10.7s.7,0,.6.6c-.4,1.6-1.6,2.6-2.1,4l4.4-4.6c1.6,1.4.4,5.1-.4,6.7s-2.4,2.3-2.9,3.8-.2,2.6-.6,3.8c3-2.6,3.2-7.3,6.3-9.8s.8-1.1,1.3-.4l-2.9,6.1,1.2-.8-4.6,9.2c3.3-2.4,5.4-5.5,7.7-8.8l.6,1.7,2.1-.8c1.1,3-1.2,4.7-1.7,7.5l2-.8.9.6c.1.7-1.4,4.5-1.9,5.2s-2.4,1.9-3.1,2.7c-1.4,1.7-2.6,3.6-3.8,5.4.3.7,1.4-1,1.3.4s-1.3,2.9-1.7,4.4c.6.6,2.5-2.3,2.8-2.8,2.3-3.3,3.9-7.2,6.6-10.2l.8,2.1c1.6-.9,1.7-3.6,3.6-3.8l-.4,5,1.3-2.9c1.7,1.2-.1,6.4-.8,8.2s-2.2,3.4-2.9,5.2c.9.2,1.3-.2,1.9-.8.9-.9,5.1-7.3,5.6-8.6s.4-1.5.4-2.3l1.3.4c-.2-1.8.3-4.4,0-6.1ZM195.9,23c1.8.5,5.3-.3,7.3,0,0,.6-.7.6-1.2.7-1.7.6-4.2.5-5.1,2.2l5,.8-2.1,1.7,5,.4c1.2.9-8.4,3.5-8.9,3.8-.8.5-.9,1.3-1.4,1.6-3.5,2.4-7.7,3.8-11,6.5l9-2.3c1.5,0,1.2,1.2,1.7,1.3.8.2,2.1-.7,3.1-.4l-4.2,3.1c1,.6,2.3,0,3.2-.1s1.3-.4.9.5c-.6,1.4-3.7,3.8-4.8,5.3l-3.6,5.8c.3.3,6.4-4.3,7.1-4.8,1.2-.9,2.2-2.4,3.4-3.3s6.5-3.9,6.9-4,.7-.1.6.2c-2.5,3-7,4.6-9.6,7.1s-1.3,1-.6,1.5c3.1-1.4,9.4-6.8,12.3-7.3s.8.5,1.1.5c1.2-.3,9.1-2.7,9.4-2.3-.8,2.2-3.2,3.8-5.3,4.7l-5.4,5.7,13-5.8c1.3,0,.3.4,0,.8-.7.6-3,2-3.3,2.6s-.5,1.6.4,1.3c1.4-.6,4.4-3.3,6.1-4.4,2.6-1.5,5.2-2,7.5-3.8-3.6-1-6.9,1.4-10.5,1.5,1.7-2.9,5.7-2.2,7.5-4.6-2.8-.3-6.4,0-9-.4s-1.4-.7-2.1-.8-4.1.2-3.3-.9c.6-.8,2.6-.8,2.3-2.1-.2-.2-4.6.4-3.3-.8l3.3-1-6.7-3.3c0-1.5,5.6-1.2,6.8-.5s.5.9,1,1.2,3,.9,3.2.9c.8,0,.4-.8,1.2-.9,1.6-.2,7,.6,7.3.4s.2-.9,1-1.3,1.9-.3,2.8-.3v-1.7c-2.4.6-2.5-.9-4.2-1.7.6-1.6,2.1-.2,3.3-.4l-3.7-3,.4-1.6-1.6-1.3,1.7.2c-1.7-1.8-4.2-2.7-6.2-4.3s-1.2-.4,0-.7c2.2-.8,9,2.5,10.5,4.6l-1.9.2c-.5.1-.3.5,0,.8,1.5,1.9,6.5,3.6,8.8,4.6.7-1-1.2-1.2-1.9-1.9s-4.1-5.4-3.7-5.7l7.5,2.5c-1.1-4.9-6.5-5.8-10.5-7.3s-2.6-2.5-1.7,1c-4.5-.4-7.5-5.1-12.1-4.6l5.2,2.6,1.5,2c-5.8-2.5-12.1-3.8-18.4-3.8l.5.9,2,1-.8.8c2,2.8,5.8,3.8,7.5,7.1-2.2.2-4.7-.3-6.9-.6s-.6,0-.6.8c2.4.8,5,1.2,7.2,2.7s1,0,.8,1.1c-7-1.2-14.2-2.7-21.3-1.7,0,.3.5.8.6.8ZM206.2,14.6c-2.9-.7-5.8-1.9-8.8-.8l4,1.5c.8,0,1.6-.3,2.5-.3s2.6,1.1,2.3-.4ZM204.5,17.6c1.1-.9-3.3-1.5-3.7-1.4-1.6.2-3.1,1.3-4.6,1.7-2.5.7-5.9.7-7.6,2.6,5.4-.4,10.4-3.1,15.9-2.9ZM191.1,24.7c-1.1.2-2.3.6-3.3,1-2.3.9-6.4,2.9-8.4,4.2s-.6.5-.4.6h1.3s-5.9,5.9-5.9,5.9l17.6-8.4c-.4-1.2-3.4.3-3.8,0,0-1.7,2.3-2,2.9-3.3ZM173.1,40.6l-6.3,3.5c-.8.7-4.7,5-4.2,5.7,4.5-1.9,7.5-5.4,10.5-9.2ZM177.3,46c-3.6.6-5.7,3.1-7.9,5.6l2.5-.4c-4.2,4.9-8.3,10-9.6,16.5l3.5-4.2c.2,1.2-.6,2.5-.9,3.7s-.4,1.4.5.5c1.5-1.5,3.8-5.5,3.8-7.5l-1.9,1.5c1.6-5.6,6.5-8.1,10.5-11.7s3.2-3,3.3-3.4c.2-.5,0-.8-.6-.6s-3.6,2.4-4,2.1l.8-2.1ZM186.1,51.4c-4.5,1.2-5.6,5.6-7.6,8.9s-5.1,6.5-5.4,10.7c1.1.2.7-.3,1-.8,2.5-4.2,4.2-8.4,7.5-12.4s6-3.9,7.8-6.2c-1.3-.6-2.7.4-3.8,1l.4-1.2ZM191.5,57.7c.7-.3,5.8-3.3,5-4.2-.8,0-5.8,3.3-5,4.2ZM189.9,56.5c-6.2,2.5-11.9,8.1-13.8,14.6l13.8-14.6ZM193.6,59c-.7-.1-1.2.2-1.8.5-4.2,1.7-8.6,5.5-11.8,8.7-2.8,2.8-5.2,5.5-5.6,9.6,1.8-.6,2.4-2.5,3.5-3.8,2.9-3.1,6.9-7.8,10-10.5,1.9-1.6,4.3-2.5,5.7-4.6ZM189.5,69.4c-.5-.5-7.2,3.7-7.9,4.4s-1.8,2.5-2.7,3.4c-2,1.9-4.8,2.6-4.9,6.4,1,.7,3.7-3.9,4.4-4.2s.8,0,.6.6c-.7,2.3-4.6,5.2-5.7,7.7s-.5,2.7-1,4.2c.9.7,4.1-4.4,5-4.8l-.8-.2c-.4-1.1.5-.7.8-1.1,2.1-3,5.1-7.3,7.4-10.1s4.3-3.5,4.8-6.3ZM171.1,69.8c-1.1-.2-.7.2-1,.8-.8,1.8-1.4,4.3-1.5,6.3.6,0,.8-1.2,1-1.7.6-1.8.9-3.7,1.5-5.4ZM265.6,90.8c.3-2-.3-3.9-2.1-5l2.1,5ZM162.3,96.6c-1.4-1.4-3.9,3.7-4.2,4.8l2.1-.6c-4.9,8,.1,16.3,5.9,22.2-1.6-4.2,1.6-6.8,2.9-10.5-2.2-.1-3.4.7-4.4,2.5l-.2-1.7-1.7.4.4-2.5-.8.4c-1.2-2.6,1.6-4.5,2.1-6.9l-2.5-.2c.3-2.4,3.6-3.7,1.7-6.1s-1-.4-1.2-.7,0-1.1-.1-1.1ZM256,172.3v-6.1c0-.7.3-1.5,0-2.3l-1.2,1.3c.2-2.3-.9-4.2,0-6.4l-.9-.5-.2-1.4-5,6.3,1-1.9c0-.3-.4-.3-.6-.2-.8.3-3.8,3.9-4.8,4.8-1.8,1.7-4.1,2.7-5.4,5l1.2.4-6.7,6.3c.3.6,1,0,1.4-.3,1.5-1,2.9-2.3,4.5-3.3,1.1,1.4-5.8,5.4-5.9,7.1,2.4-.4,4.1-2.1,6.1-3.3.3,0,.3.4.2.6-.5,1.2-5.7,6.7-6.9,7.8-1.8,1.6-4,2.6-5.7,4.4l2.3-.2c.5.1.2.6,0,.8-.5.9-5.3,5-6.5,6.1s-3.9,2.5-5.2,4-1.6,3.7-3,5.4l-1.4-1.4,3.3-3.4-1.3-.2c-.8-.8,2.4-3.3,2.9-4l-.6-.2c-3.6,3.2-6.9,7-10.9,9.6-1-1.8,4.9-5.3,4-6.3l-4.8,2.5-.4-.9c-1.4.7-3.8.8-3.5,2.9l2.5-.4c-1.1,2.4-3.7,4.3-6.3,4.6-.8-.9,2.3-4.3,2.9-5.2,2-3,1.8-2.2,4.2-4.6s4.8-5.3,4.2-6.1l-8.6,5c-.3-1.8,2.7-2.2,3.1-4-1.7-.7-3.2,2.1-4.2,2.9s-1,.3-1.4.7c-1.1.8-2.9,3.6-4.4,1.9l7.9-13c0-1.1-1.2-.2-.7-1.5s4.3-3.8,4.9-6.2c-.3-.3-6.6,4-7.3,4.6s-.8,1.2-1.2,1.5c-1.7,1.4-3.8,2.2-5.1,4.3l-.4-1.2c-.6.7-1.4,1.1-2,1.7s-7,8.4-7.4,7.9c.6-5,5.9-7.9,9.2-11.5,1.9-2.1,5.4-6.3,6.9-8.6s1.4-2.2,1.1-2.5l-8.6,7.1c-.8-2.6-3.2,1.9-3.9,3.2-1.9,3.4-2.4,4.4-4.6,7.5s-2.6,5.6-3.8,4.7c.2-3.4,2.4-4.9,3.8-7.7h-1.7s1.3-2.5,1.3-2.5l-.8-.2c-.5-2.2.7-3.2,1.2-5l-2.1,1.7c.4-2.8,1.1-5.6,1.5-8.3s.4-1.1-.4-1.7c-2.3,1.5-2,12.3-2.8,12.9s-1,0-1.1,0c-.4.4,1,3.7.2,4.6-.8,1.5-1.4-2.3-1.9-2.1-.7,2.6-1.9,6.4-2.5,1.3l-2.1,1.9c-.5,3.1,3,6,2.5,9.4l-.4-.8c-1.5.4-.2,2.5.4,3.6,1.4,2.6,5.6,7.9,7.9,9.6s4,1.5,5.4,3.3l-2.1-.2c-.9,1.1,3.8,2.9,4.4,3.3s.5,1,.9,1.3,7.6,3,8.5,3.1c1.4.3,2.4-.2,3.4,0,3.3.5,6.9,2.1,10.2,2.3,14.5,1.2,40.9-6.6,50.2-18.5.5-.6,1.7-2.1,1.3-2.9-4.9,5.3-10.7,10.1-17.6,12.6s-1.2.8-1.5.2c8.1-5.1,16.2-11,21.5-19.1s4.3-7.6,4.3-9.5c0-2.1-5.4-4-6.4-6-1.1-.1,0,1-.4,2.1s-2.3,2.2-1.9,0l-1.5,1.3-1-.6c0-1.6,1.3-4.5,1.2-5.8s-1.7-7.7-1.9-8.6-1.7-1.7-1-3.8c-1.6-.3-.6,2.6-2.1,2.9ZM183.2,173.6c1.4-.2,2.9-5.7,2.5-6.3-2.7,1.1-2.7,3.7-2.5,6.3ZM225.9,169.7l-.3-.7c-.7.3-.2,1.1-.3,1.2s-1.8.9-2.1,1c-2,.7-5.2,0-5.7,2,3.9.9,6-1.8,9.6-2.1l-.5-1.6-.7.3ZM185.3,184c.8.2,1-.4,1.5-.8,1.7-1.4,4.1-6.5,5.2-8.6s.6-1.1.5-1.8l-7.1,11.3ZM230.9,178.2c-.3-.3-2,1-2.3,1.3-1.5,1.4-2.9,3.7-4.2,5-2.8,2.9-6.5,4.8-8.6,8.3l4.8-2.1c3-2.9,7.2-4.3,9.8-7.5l-4,2.1c-1.2.4,1.5-2.4,1.6-2.5.3-.5,3-4.4,2.7-4.6ZM163.9,198.2l-.8-5c-1.3,2.2-3.3,1.2-4.6,3.1,1.6,1,2.3.5,3.1-1,.7,0,1.5,3.9,2.3,2.9ZM176.5,217.1l-6.4-8.1-5.8-9.5c1.7,7,5.2,14.5,12.1,17.6ZM144.7,199.9c-7.2,3.4-14.8,5.8-21.6,10s-2,.8-1.8,1.7c8.2-3,16.7-6,23.4-11.7ZM156.8,202.4l-6.1,3.8-3.1,3.8c2.8-.4,4.6-2.9,6.5-4.6s3-1,2.7-2.9ZM153.1,210.8c.3.2,4.4-1.6,4.2-2.7-.4-2.2-2,.9-2.2,1s-.6-.3-.7-.3c-.2.1-.9,1.7-1.3,2ZM159.3,213.3c-.8-.7-4.4,2.6-5.2,2.9-1.4.6.5-2.3-.8-1.7s-3.5,2.7-2.7,3.8l2.3-.8-.6,1.7c1.7.7,8-5,7.1-5.8ZM171,227.9c.2-.8-.2-1.1-.6-1.7s-5.1-5-5.7-4.6l3.8,5.2,2.5,1.1ZM84.3,232.4c1.7-1.7,2.9-3.2,4.3-5.1s1.5-1.3,2.1-2.1c0-1.1-2.7,0-3.1.2-4,1.8-4.8,3.7-6.8,7s-2.6,4.2-3.8,6.4c.8.7,3.8-3.7,4.4-4.2.9-.8,2.2-1.4,3-2.2ZM181.5,225.4c-.3.2-2.6-1.6-1.4,0,2.7,3.7,10.5,8.5,15.3,7.9.3-1.2-.4-.7-.9-1-4.3-2.5-9-4.4-12.7-7.8l-.2.8ZM165.8,227.1c-2.3.6,2.2,4.1,2.7,1.9s-1.9-2.1-2.7-1.9ZM183.2,236.7c.7-.8-5.4-5.4-5.9-5,1.5,2.2,3.9,3.4,5.9,5ZM185.3,240.9c-3.4-2.7-7-5.2-10.9-7.1-.2.8.4,1,.8,1.5,2.8,3.4,7.3,5.8,10.7,8.6.7-1-.7-1.9-1.3-2.5l.6-.4ZM188.6,246.3c-3.2,0-5.8-2.3-8.1-4.2s-1.9-2.7-3.6-2.5l-.4,1.7c2,.3,10.6,7.9,12.1,6.3v-1.2ZM75.7,252.6l1.9-1.2,4.8-6.7c-1.1.7-7.5,7-6.7,7.9ZM360.9,265.6c.7.1,1.2-.3,1.2-1,.2-3.3-2.8-11-5-13.6l3.8,14.6Z"/>
            <path class="cls-1" d="M266,54.4c-1.5-1.5-3.5-3.7-3.8-5.9-.8,0-.4,2.1-.3,2.6.5,2.3,2.2,4.6,2.4,7-1.2-1.4-4.3-3.4-5.2-4.6s-2.3-4.5-2.3-4.8c0-.5.5-.6,1-.2s2.6,3.1,3.1,2.5l-2.1-4.4,1.2-.2-.4-1.2c1.5-1.3,7.1,7.2,6.3,9.2Z"/>
            <path class="cls-1" d="M186.1,98.3c.1.9-.8,1.3-1.1,2.1s.2,1.1,0,1.7c-.3,1-3.5,5.1-4.4,4.2l.8-2.1-2.5.2c1.3-3.1,4-5.1,7.1-6.1Z"/>
            <path class="cls-1" d="M213.7,58.1c-2.5,3.7-5.6,7.1-9.6,9.2.4-2.1,1.4-3.5,2.9-4.8s6.3-4.7,6.7-4.4Z"/>
            <path class="cls-1" d="M182.3,93.7l-7.5,8.8c1-4.7,2.8-7.4,7.5-8.8Z"/>
            <path class="cls-1" d="M220.4,65.7c-1.8,2.2-4.1,4.6-7.1,5,1.9-2,4.4-4.4,7.1-5Z"/>
            <path class="cls-1" d="M192,90.3c-1.8,2.4-4.1,4.3-6.7,5.9-.6-.6,5.2-6.4,6.7-5.9Z"/>
            <path class="cls-1" d="M261.8,118.4l-2.5-5c.4-.4,4.6,3.2,3.6,4.6l-1.1.4Z"/>
            <path class="cls-1" d="M263.5,105.4c-.8-.2-3.6-4.8-3.3-5,2,.5,3.4,3,3.3,5Z"/>
            <path class="cls-1" d="M214.1,71.9c.6.6-3.4,4.3-4.6,3.8.3-.8,4.1-4.3,4.6-3.8Z"/>
            <path class="cls-1" d="M233.8,63.2c-1,1.6-3.2,2.7-5,2.9,1-1.7,3.2-2.5,5-2.9Z"/>
            <path class="cls-1" d="M177.7,102.5c0,.7-1.6,6-2.5,5,.5-1.4.8-2.9,1.5-4.2s0-1.1,1-.8Z"/>
            <path class="cls-1" d="M198.2,188.6c-.8,1.5-1.2,3.3-2.2,4.7s-1.3,1.3-1.8,2c-2,3.1-3.4,6.7-6.9,8.3l1.7-4.6c-.1-.2-3.1,3-4.2,1.9-.6-1.1,3.9-7.3,4.6-6.5l-.6,2.5,4-4.4,5.4-4Z"/>
            <path class="cls-1" d="M233.8,192.4c.5.5-5.9,7.2-6.2,7.8-.6,1,0,1.7-.3,2.5s-5.1,6.7-6,7.4-2.6,1.8-2.9,1.5c2-3,3.7-5.9,6.7-7.9-2.5.4-4.7,2.1-6.5,3.8-.3,0-.3-.4-.2-.6.5-1,4.8-5.6,5.8-6.7,1.8-1.8,4.5-4,6.5-5.6s2.8-2.4,3.1-2.1Z"/>
            <path class="cls-1" d="M220.8,222.1l-2.5,1.7,3.8.4c-4.7,2-9.5,1.4-14.2,0l3.9-.5c2.7-1.6,6-1.3,9.1-1.6Z"/>
            <path class="cls-1" d="M238.8,199.1c1.3-3.3,3.3-6.4,5.8-8.8-.8,3.5-3,6.6-5.8,8.8Z"/>
            <path class="cls-1" d="M207.4,217.5c-.8-.9,6.1-6.9,7.1-7.1l-3.5,4.2-3.6,2.9Z"/>
            <path class="cls-1" d="M233,214.1l.3-3.2,3-2.6c.3.9-.9,1.2-1,1.6s.4,1.2,0,2.1-1.7,1.7-2.3,2.1Z"/>
            <path class="cls-1" d="M204.9,222.9c.1.6-1.2.7-1.6.7-2.4.2-3.1-.2-4.3-2.4l5.9,1.7Z"/>
            <path class="cls-1" d="M214.1,37.6c-.3,1.6-2.5,1-2.9,1.3s0,1-.5,1.4-2,.9-2.3,1c-1.2.4.4-1.3-.8-.8-2.1.8-4.3,1.9-6.5,2.5l3.2-2.5c2.1-1.2,6-2.1,8.3-2.2s.4-1.3,1.4-.8Z"/>
          </g>
        </g>
        <g>
          <path class="cls-1" d="M112.9,53.9l.8-.2-1.7-3.8c0-.3.4-.3.6-.2.8.3,5.6,3.8,6.7,4.6,1.7,1.3,3.2,2.7,4.6,4.2.3-1.2-1.2-1.9-1.4-3.2-.5-2.2,2.1,0,2.7.6,1.3,1.3,2.1,3.4,3.8,4.6l.8-1.7c1.8,1.6,2,4,2.3,6.2,2.9.1,4.8.2,5.6,3.4s-.2,1.2,0,1.7c.9,3.4,5.8,6.2,6.9,9.8h-1.7c1,2.2,2.4,4.3,2.1,6.9l-2.5-2.7c.3,3.6,2.1,7,1.7,10.7l-2.1-2.9c-.2,2,.8,4.5.6,6.5s-1.7,4.3-1.1,6.5h-1.1c-.8,3.3.6,2.9,2.1,4.6,4.9,5.8.6,24.9-6.1,28.6s-2.1.4-2.4.8-.8,4.4-1.1,5.4c-2.2,7.9-3.9,17.3-.5,25.2s1.8,2.1,4.5,3c4,1.4,9.9,4.2,14.1,6s9.9,4.4,9.3,5.1l-2.5.3-14.6-5.7c-1.1,1.4,4.1,2.6,3.3,4.6l.9-1.2c.7-.4,6.4,2.6,7.3,3.2,2.1,1.3-.6.5-.7.6s-.3.9-1,1.3-3.5,1.9-3.9,2c-1.7.3.5-2.3-.8-2.1l-2.9,3.8c-1.4.2.3-1.9-.2-2.5-1.4.5-2.1,1.4-2.1,2.9-1.5-.5-.2-1.6-.6-2.5-1.3,0-2.9,4.4-3.2,4.6s-1.2-.4-1.6-.3-1.2,2-1.9,2c-.5-1.5.8-3.5,1.5-4.8l-1.2-.2c-1.4,4.6-5.7,8.6-10.5,9.6,0-1,.8-1.5,1.1-2.4.5-1.4.1-.9,1.2-2.7,2.9-4.9,7.1-10.3,6.9-16.2-2.1-.6-3-2-4.9,0-1.6-4.6-2.1-9.4-2.9-14.2-2.3.3-2.8,3.1-5,3.8-.7-.7,3.7-5,3.1-6.3-2.5,2.5-7.6,6.2-9.4,9s-.8,1.2-.2,1.5c1.1-.1,1.9-2.1,3.1-1.5-2.2,3-5.2,4.3-7.3,7.4s-3.8,5.2-6.1,7.7-1.8,1-2.1,1.7.2.8.8.4,4.2-3.8,5-4.6c1.2-1.2,2-4.3,4.2-3.8-1.7,2.2-3.3,4.9-5.2,6.9-1.7,1.7-3.8,2.8-5.3,4.4-2.5,2.7-3.7,5-7.1,7.5s-5,3.3-6,3.6c-2,.6.8-2.4.8-2.5.2-.4-.1-.9.2-1.4,2.3-4.2,9.6-6.7,10.9-11.9-.3-.3-6.6,4.3-7.6,4.7-1.5.6-3.6,1-4.9,1.8s-2.9,2.7-4,3.1-.8-.1-.6-.6c.5-1.2,3.3-3.7,4.2-5s.8-1.2.2-1.5c-2,.8-8.7,7.2-10,7.4s-.7-.3-1.1-.3c-.6-.7,3.8-7.1,4.5-8.3,1-1.7.5-.9,1-2.7s1.5-1.2,1.2-2.4c-2.1,1.8-5.3,2.6-6.9,5.1s-.6,2-1.2,2.8c-1.3,1.6-4.3,2-5.5,3.9-.5-.4-.8-.6-.6-1.4.4-1.6,5.8-4.1,6.6-5.9s-.9-1-1.3-.8c-.9.4-1.9,2.4-2.8,3.1s-1.7,1-1.4-.1,3.7-3.7,4.7-5.3,1.7-3.5,1.6-3.7l-4,2.9.4-2.5c-1.1,1.2-1.9,2.5-2.7,3.9s-.7.3-.7.4.1,1.8-.5,2.4c-.6,0-.7-.5-.8-1-.4-1.2,1.1.4.8-.8l-.9-.5c-.2-1,.9-2.3-.4-2.7,0,1.2.3,3.7-1.1,4.2s-.4-1.1-.6-1.3l-.8.7c.5,1.5,1.6,2.9,1.7,4.6s-.3.4-.8.2c-.9,2.4.5,5,2.3,6.7s0-1.3-.2-1.3c1-.8,2.6,3.1,3.1,3.6,1.2,1.4,8.8,6.1,9,6.7.2.8-.8.9,1.5,1.9,4.7,2,9.7,2.3,14.5,3.5-.6.7-1.4,1.2-2.2,1.6s-6.1,2-6.8,2c-4,.3-9.2-1.8-12.8-3.4l2.3,3.8-6.5-3.8c.9.9,1.4,2.1,2.1,3s3.1,2.2.9,2.8l2.5,2.3c-.9,0-2.6-.8-3.4-1.2-1.7-1-3.1-2.4-5-3.2-.5.5,5.5,6.3,5.8,7.3s-.5.4-.8.4c-1.7,0-2.3-.7-3.7-1.5-.4.5,1.3,3.3,1.7,3.9s1,.2.8.5c-.4,1.1-1.5.3-2.1,0-2.2-1.1-1.7-3.4-4.6-3.6,1.3,1.2,3.6,3.6,2.3,5.4-1.8,0-7.2-4.9-8.1-4.2,1.1,3.3,6.2,4.3,6.3,7.9-.8.8-9.2-6.2-10-7.3l4.2,1.7-6.3-7.5.8-.8-4.6-5.2-3.3,1.9,1.7-.2c.9.8-7.1,5-7.5,5.6l4.2-1c-2.4,3.3-6.8,4.2-10.5,5.4.7-2.3,2.3-3.4,4.6-4.2.3-2.1-3.2.2-3.3,0v-1.2c3-1,4.7-4.4,7.9-5.1v-.4c-.7,0-1.1-.4-1.4-1-1.7-3.1,5.4-4.7,6.8-6.6l-5.9.8.8-1.2-6.4.4-.5-.9-15.3,7.1,1.3-1.7-1.9.4-.2-.8c2.6-1.3,5.2-2.7,7.8-4.1,4.1-2.2,8.2-4.1,12.5-5.9.6-.8-.8-.4-1.1-.3-3.8.7-7.6,2.8-11.2,4.1.8-2.9,4.9-3.5,7.2-5.5s1.2-.7.5-1.2l-17.8,8.6c-.8.9-.2.7.5.5,1.5-.6,3-1.3,4.6-1.5-.6,1.7-3.3,2-4,3.4s0,.9,0,1.2c-.3.5-1.1,1-1.2,1.6s.9,1.6.2,2.7c-1.6,2.4-9.6,4.4-10.8,8.4l3.5-2.4c1.6-.7,3-1.9,4.9-1.6l-.8,1.2c1.2,0,2.3-.7,3.3.2l-7.5,5.6c2.9-.5,5.2-3.4,7.7-5,1,2.2-1.9,2.8-3.2,4-2.1,2-3.6,6.2-6.7,7.6s-1.6-.3-2.2-.3-1.2,2.2-2.4,1.7l.8-2.1-1.2.4-.6-1.3-2.9,2.9c-.7-.5-.5-.8-.6-1.4-.4-3.7,2.1-7.4,2.5-11.1L0,220.8c0-3.5,3-6.7,5.9-8.4l.6,1.3,4.8-5.2c-2.2-.4-3.9,2.6-5.9,3.1-1.1-1.1,8.7-10.5,10.7-10.5l.4.8c1-.9,2.3-1,3.4-1.6,8.1-4.1,19.1-11.9,27.3-13.6,5.1-1.1,8.5-6.4,12.1-8.8,2-1.3,4-1.1,4.9-3.5,1.1-3,.3-14.6-.7-17.9s-2.2-3.8-3-5.8-1.7-7.1-2.5-8.4-6.4-4.2-7.9-6-5.1-11-5.4-12.9c-.5-3.9.9-10.1,4.2-12.6-.7-2.5-2-6-1.7-8.7s3.7-7.7,3.3-8.2l-3.6,2.9c-1,.7-1.3,2.6-2.7,2.5.4-1-.7-1.2-.8-1.6-1.2-3.8,1.3-6.9,1.6-10.5-1.4.3-2.1,1.6-3.6,2s-1.3.3-1-.5,2.9-4.1,3.5-4.8c1-1.1,6.8-6.1,6.1-7.1l-1.7.4.8-1.7-2.1-.6,6.3-5.4h-1.3c1.2-2.8,4.4-4.4,6.7-6.3.6-1.1-2.8-.2-2.9-.4.4-1.7,2.7-2.1,4.2-2.3l-1.3-1.7c2.8-1.1,6.8.3,9.4-.4s5.4-2.3,6.1-2.7c1.1-.6-.3-.6-.4-.8.7-1.3,8.7-2.4,10.5-2.3-.6-1.3-2.8-1.4-3.8-2.3s-.1-1.5-1-1.9l.4-.8,14.4,1.3c.4-1.4-2.2-.9-2.5-1.3-.2-1.2.6-.9,1.5-.8,4,.2,7.6,2.9,11.5,3.3l-3.8-4.4c4.9,0,9.2,4.3,11.7,8.2ZM103.2,55.1c-.6.3-7.7-3.5-9-4-2.2-.8-4.6-1-6.8-1.8l9,5-3.6.8,3.3,2.3c-.7,1.2-1.7.1-2.3.3s-.5,1.4-1.3,1.2c-2.4-.6-4.8-2.2-7.3-1.5l5.2,3.1-1.5.4c.7,1.8,2.7,1,4.2,1.4s3.3,1.7,5.2,1.9c.9-1-2.5-3.2-1.9-3.8l7.5,2.1c.2-1.5-1-2.3-1.7-3.3,4.7,0,6.4,4.2,9.4,6.7s1.7,1.7,2.3,1l-5.4-6.3c0-.3.4-.3.6-.2.6.3,2.8,2.7,3.8,3.4s1,0,1.7.4c1.7,1.1,3.1,4.1,4.5,5.3s4.3,1.9,4.3,4.3c-2.4.8-3.6,1.8-5.2,3.7l5.4-2,.8,1.5c2.1-1.7,2.6.3,2.5,2.3-.2,4.6-3.7,7-7.5,8.6l1.2-3.8c-2.7.6-5.2,1.7-7.9.8.1-1.7,3-2.7,3.3-3.6.9-2.1-3,1.7-3.2,1.8-2.1,1.4-4.9,2.5-7.1,3.8-4.3,2.5-8.4,6.1-13.5,6.8,2.9-3.2,7.5-4.2,11-6.8l2.2-2c-2.5,1-5.7,2-8,3.3-2.2,1.2-5,3.4-7.4,4.8s-6.6,3.9-9.5,3.5l7.1-6.9c-1.2.1-1.6,1.2-2.9,1.5-4,.9-5.3,1.6-8.6,3.9s-8.7,5.7-9.4,9.4l-5.8,7.6.2.6,2.9-3.4,4-1.9c-.6.8-1.9,2.2-1.5,3.1l1-.8c-1,4.9-7.6,7.1-7.5,12.5,2.2-2.9,2.6-6.8,7.1-7.5-1.8,3.4-4.2,5.4-3.6,9.6,1.3-2.2,2.7-4.3,4.6-6.1s3.1-3.1,3.6-2.7l-9.4,12.6-1-.4-.4,3.5.9.5-.4,1.9c1.4-.9,2.3-3.7,2.3-.4.9-1.9,3.9-3.2,3.3-5.4l-2.1,2.9-.6-1c1.3-1.1,2.7-5,3.7-5.9s.8-.4.8,0l-1.2,3.1,2.9-1.3c.5.5-5.2,7.3-5.8,8.2s-1.8,3.4-2.1,4.6-.5,2.2.3,2.2c1.1-2.4,3.2-5.7,5-7.7s.8-1.2,1.7-1.1c0,2.5-2.5,3.4-3.5,5.5s-1.8,5.5-1.5,5.8c1.6-.3,1.4-1.6,2.2-2.7s1-.6,1.3-1.2c.6-1,.7-2.5,1.5-3.4-2.5-.5,2.7-3.4,2.9-3.1-1.9,3.6-3,7.5-4.5,11.2s-3.5,4.4-2.2,7.2c.9.9,2-3.4,2.9-3.3l-1.3,4.2c-2-.9,0,.8.6,1.7,2-3.1,4.2-6.5,6.6-9.2s0-1.1,1.1-.8c.9,1-5.4,7.8-4.4,9.6l2.9-3.3c.1,1.4-1.9,6.1-3.6,5.4v1.3s1.7-.4,1.7-.4l-.2,1.7c1.3-.5.8-3.1,2.3-2.9,0,.8,0,1.6-.3,2.4s-1.8,2.4-.3,2.2,3.6-4.8,6.5-4.2c.3.2-4,5.5-4.4,6.3-.7,1.6,3.6,3.6,4,3.3-.6-1.4,3.5-4.8,4.2-4.2.3,2.9-2.2,4-2.9,6.3h1.9c0,0,.8-2.1.8-2.1.8.9,1.1,1.3,2.3.8l-.3.7c2.2,1,0,1.6,0,3l5-1.3-2.1,3.3c3.1,0,5.7-3.7,8.8-2.5,0,2.1-2.2,2.2-3.3,3.6,2.2,1.2,4.9-.9,6.9-1.4s1.7.1,2.5,0c1.7-.3,3.6-1.9,4.8-3.1l-2.1.6c-.3-1.7,1.7-2,2.7-2.9v2.9c1.2-.6,2-2.1,3-2.9s2.5-1.1,3.5-1.9c4.6-3.7,11.3-10.7,11.3-16.7s1-.5,1.2-1.3c.4-1.2-1.2.4-.8-.8s1.3-1.9,1.3-3.1l.8.4c0-3,1.4-6.9,1.3-9.8s-1.1-3.7-1.7-5.6l2.5,3.8,1.3-2.9,1.3,1.4,1.8,4.9c2.7-2.2,4.3-6.6,5.1-9.9s1.6-9.4-1.8-11.8c-.3,0-2.6,6.1-2.6,6.6,0,.9,1.2,2,1.4,3,.7,2.5-1.2,3.4-1.6,5.5l-.8-1.7-1,.8c-.8-.3-3.9-5.8-4.4-6.9s1.2.4.8-.8l-1.7-5.2h1.2c-.5-2.2,1.4-1.9.7-3.8s-2-1.4-3-2-3.3-3.5-3.5-4c-.5-1.4,1.9.2,2.1-.4-.7-1.6-3.8-3.5-4.2-5s-.2-1.3.6-1c1.7.7,4,3.5,5.9,3.8s.6,0,.5-.5c-.7-4.6-3.6-4.2-4.7-7s-.2-3.4-.4-3.7c-.7-1-2.4.7-3.1.8-.6-.6,3.8-3.9,4.4-4.6s1.7-2.2,1.9-3.3l2.7,2.9.2-1.3c1.8.5,2,2.2,2.5,3.8v-2.1c2,.4,1.8,2.8,3.3,3.8-.3-3.2-3.3-5.2-4.2-8.2l2.5,1.5c.4-.4-2.4-4.1-.6-3.3s3.2,3.5,4.4,4.6c-.8-2.9-2.9-4.9-5-6.9l2.1.2-1.3-2.1,2.3.8c.3,0,.3-.4.2-.6-.6-1.3-4.2-3.6-5-4.7-1.3-1.8-.3-4.3-1.9-6-.6,1.6-1.1,2.1-2.7,2.5v-1.3c-2.1.9-1.9-2.1-3.8-1.7-.1.9.6,1.8.4,2.7s-.7.3-.8.5c-.2.7.2,1.9.2,2.6s.4,1.3-.5.9c-2.5-1.1-6.2-7.1-8.2-9.4s-5.2-6.1-6.8-6.6-3.2-.2-4.7-1.2c-.2,0-.2.7-.3.8ZM117.1,59.8c-.3-2.5-3.1-4.2-5.4-4.2,0,3,3.5,2.9,5.4,4.2ZM76.1,62.3c-2.9,0-5.8-2.1-8.5,0s-.6,1-.9,1.3c-.7.6-1.7.5-1.9,1.2,3.1-.1,7.1-.8,10.1-1.8s1.3-.1,1.2-.7ZM65.2,63.1c-.2-.9-.5-.6-1.2-.6-1.6.2-5.3,1.1-5.5,3.1l6.7-2.5ZM104.6,64.8c1.2,1.3,5.9,8.4,7.3,8.4s-1-3.4-1.3-3.8c-.6-.7-5.5-5.1-6.1-4.6ZM94.1,67.8c-1,.2-5.1-1.8-5.4-.6s0,1.1.8,1l-2.3,1.3-1.2-1.2-3.2,1.4,4.2.2-1.7,1.3.2.8,1.5-.4c0,1.8-1.6,3-2.9,4l2.1-.2.4,1.7,1.2-.4c.2,1.8-1.8,2.4-2.5,3.8l1.8-.5,12.4-8.5c-3.2-1-6-1.3-9.2.2.8-1.9,4.1-1.5,3.8-3.8ZM68.2,69.8l-3.1,1.3-.4-.9c-3,1.6-8.4,2.7-8.6,6.7.9-.1,1.4-.8,2.1.2-1.6,1.7.6,2.7-1.7,4,4.3-.4,7-5.4,10.9-6.7l-.2-.8-3.6,1.5c.4-.7,5.2-4.6,4.6-5.2ZM102.9,73.6c-.6,0-1.2,0-1.8,0-.8.2-5.8,4.6-6.6,5.6s-1,.7-.8,1.5c2.2-2,6.9-2.5,9-4.2s.7-.6.6-1.3l-1.5.4c-1-1.1,1.3-.7,1-2.1ZM76.1,74.4c-1.6-1.2-8.4,5.7-9.8,6.7l-4.4,5.9c2.2-2.6,5.8-3.9,8.2-6s2.1-2.5,3-3.4,2.3-1.7,2.9-3.1ZM72.4,92.8c-.5-.5,5.3-5.8,4.4-7.1-2.1,1.1-3.9,1.9-5.2,4l.8.4c-1.9,2.6-5.5,2.8-6.7,6.1l1.2.2-4.2,5.2,8.2-6.2c2.2-1.5,7.3-2.3,7-5.5l-5.6,2.9ZM68.6,89.9l-4.9,3.5-3.5,4.9c.8.2,1-.4,1.5-.8.7-.6,7.3-7.2,6.9-7.5ZM51,114.6c-.9-.7-3.5,4.3-1.7,4.6l1.3-1.7-1.3,6.3-.8-.4c0,2.2.4,4.6,1.9,6.3.9-2.5.3-7.5,3.6-7.9l-2.9-7.1ZM54.4,130.9h-2.5s1.9,3.3,1.9,3.3l.6-3.3ZM73.2,172.7l-3.4,4,.6,1.8c.5-2.2,2.4-3.6,2.7-5.9ZM101.6,179c-.8-.6-7.5,4.8-8.4,5.6s-1,.7-.8,1.5c.3.3,5.3-3.1,5.8-3.6s3.8-3.2,3.4-3.5ZM53.1,189c-.5-.4-2.8.8-2.9,1.7l1.7-.4c.7,3,1.3,5.9,2.9,8.6l-.8.2c.9,2.3,0,4,2.3,5.4,0-3.5,1.2-.3,2.1.4s.9.2,1.2.4c1.5,1.2,2.6,2.9,4.4,3.8.6-.7-4.6-5.9-5.2-6.7-.9-1.3-2.8-3.9-2.5-5.4l4.2,4.6c.4,0,.2-.7.1-1-.5-1.8-3.1-4.6-4.1-6.8-.7-1.6-.4-3.9-2.1-4.8-.7,1.9,1.5,3.2.8,5.4-1.1-1.2-1.2-2.8-2.8-4l.7-1.5ZM60.6,212.5c0-1.8-2-2.6-2.9-3.6-2.2-2.4-3.7-5.5-7.1-6.5,2,4.5,6.7,6.7,10,10ZM50.5,207.9c-2.1-.5-2.7,1.8-4.9,1.6.9,1.3-.7.3-.4,1.7,5.6-2,8.3,3.1,12.5,5.4l-7.2-8.7Z"/>
          <path class="cls-1" d="M50.2,227.9l-.9,3.1.8.8-5,10.3c3.2-2.1,6.6-3.2,9-6.3l-.8,3.3,5.4-4.6-.2,3.3.8-.8c0,2.2-1.7,4.5-2.9,6.4s-2.9,2.2,0,1.8c-1.3,1.2-3.3,5.7-4.4,6.5s-.9.5-1.5.4c-1-1,6.5-13.1,7.5-14.8l-.8-.2c-.3,1.1-1.6,1.7-2.5,2.7-3.2,3.8-6.5,9.8-9.8,13.2s-1.1,1.5-2.3,1.2l.8-7.1-4.4,3.3c-.9.2-1.3-1.1-1-1.8l8.7-14.9c-2.6,1.4-4,4.2-6.3,6.1s-2.6,1.5-3.6,2.3c-2,1.6-3.6,4.7-6.5,4.6l-.3-1.8c2.6-3,4.8-6.8,7.4-9.7s1.8-1.4,2.7-2.3,1.2-2.5,2.7-2.3l-2.1,2.5c0,.3.4.3.6.2,1.6-.5,7.3-6.7,8.6-5.4Z"/>
          <path class="cls-1" d="M30.5,217.5c.9.7-8,6.9-7.1,8.8l6.9-3.8c.8,1.1-.8,1.4-1,2.1.4.2,3-.8,2.9.2s-3.6,2.1-4.6,2.5c-1.7.8-2.5,2.5-4.2,3.1l.8.6c-2.8,3.2-7.1,4-10.9,5.6-.8-.8,4.5-5.4,5.2-5.9s1.4-.8,0-.8c-4.6,2.8-8.5,8.3-14.4,7.9-1.3-1.3,5.7-5.6,6.5-6.3,4.3-3.6,8.5-7.2,13.4-10,.4-.9-.6-.2-.9,0-1.3.6-2.4,1.4-3.9,1.3,1.6-2,3.3-4.1,6-4.2l.5.9,4.8-2.1Z"/>
          <path class="cls-1" d="M39.7,225.8c.5.4-3.7,4.2-4.6,4.2l.8.6c-2.8,2.6-5.2,6.7-8.2,9s-4.6,3.1-5.1,3.3-.7,0-1,0l.8-1.5c-1.8-.3-3.6,2.9-5.4,3.4l-.9-.5.4-1.5c-.2-.2-1.6.5-1.3-.6,2.5-3.2,5.8-6.2,9.1-8.4s3.1-1.3,4.5-2.2,1.3-1.6,2.2-2c1.4-.8,2.6.3,3.5-.2s2.7-3.8,5-3.6Z"/>
          <path class="cls-1" d="M109.6,186.9c-1.5,2.9-3.2,4.9-5.6,7.1s-5.2,4.8-6.1,4.2l6.1-7.9,5.6-3.3Z"/>
          <path class="cls-1" d="M105.8,194.9c.2.8-.4,1-.8,1.5-1.3,1.5-5.2,5.6-6.7,6.7s-.8.8-1.7.6l3-4.3,6.2-4.4Z"/>
          <path class="cls-1" d="M54,254.7c-1-1.2,3.1-6.3,4.2-7.1-.6,2.6-1.2,6.3-4.2,7.1Z"/>
          <path class="cls-1" d="M34.7,225.4c-1.3,2-2.5,3.5-5,3.8-.7-.7,3.8-4.4,5-3.8Z"/>
          <path class="cls-1" d="M41,222.9c-.2,1-4.1,3.4-4.6,2.9.3-2.1,2.9-2.6,4.6-2.9Z"/>
          <path class="cls-1" d="M70.3,105.8l.4-1.3-.8.2v-.6s7.5-5.4,7.5-5.4c.6.7-5.4,7.4-7.1,7.1Z"/>
          <path class="cls-1" d="M88.1,98.1c-.6.7-4.5,3.2-5.3,2.6.9-2.8,3.6-2.7,5.6-4.2.6.3,0,1.3-.3,1.5Z"/>
          <path class="cls-1" d="M75.3,107.9c-1.2,1.8-2.7,3.7-5,4.2-.3-.2,3.7-4.6,5-4.2Z"/>
        </g>
      </g>
    </g>
  </g>
</svg>