<?xml version="1.0" encoding="UTF-8"?>
<svg id="Layer_2" data-name="Layer 2" xmlns="http://www.w3.org/2000/svg" viewBox="0 0 252.88 423.21">
  <defs>
    <style>
      .cls-1 {
        fill: #152638;
      }
    </style>
  </defs>
  <g id="Layer_1-2" data-name="Layer 1">
    <g>
      <path class="cls-1" d="M252.88,412.27c-1.6.19-3.18.39-4.74.63-1.27.19-4.8.6-2.95,2.28.17.06.36.03.53.06,1.67.2,4.49.14,7.15,0v-2.97Z"/>
      <path class="cls-1" d="M209,416.7c-.27-1.14.37-1.46,1.4-1.7,5.41-1.27,14.95-1.36,20.58-1.24.76.02,5.78-.29,5.76.43-2.23,2.38-5.53,1.43-8.42,1.61-2.16.14-4.61.53-6.76.61-4.18.16-8.39-.08-12.56.28Z"/>
      <path class="cls-1" d="M.02,410.21c-.04-.48-.06-.68.3-1.03.17-.17,3.21-.7,3.69-.73,2.88-.2,5.72.25,8.54.3,1.77.03,12.84-.6,12.85,1.61-3.99,2.2-9.32.66-13.71.43-3.9-.21-7.78.07-11.67-.58Z"/>
      <path class="cls-1" d="M38.1,418.77l-.13.9c-.61.83-4.8-.05-5.92-.04-1.72,0-3.39.51-5.31.32-1.72-.17-3.3-1.17-4.8-1.4-1.72-.26-4.72.63-4.8-1.84,2.99-1.48,5.25-.34,8.15-.04,1.88.19,4.06.14,5.83.37,2.22.29,4.66,1.55,6.97,1.74Z"/>
      <path class="cls-1" d="M66.14,422.6l-13.44.6c-1.09-.8-5.18.79-5.16-.76.02-1.92,6.46-1.23,7.85-1.31,1.97-.12,8.91-1.22,10.16-.15.45.38.65,1.03.6,1.61Z"/>
      <path class="cls-1" d="M195.07,415.02c2.29-.08,3.73.48,5.54.51,1.24.02,2.68-.63,4.08-.26,1.66.43-1.48,1.27-1.82,1.35-2.82.63-4.4,0-6.99.09-4.13.13-7.01,1.32-11.52.89-.52-.05-.95.1-1.31-.45.28-.32.57-.61.96-.8,1.72-.83,8.82-1.25,11.07-1.33Z"/>
      <path class="cls-1" d="M87.98,422.01c-2.13.65-4.44.1-6.62.31-.55.05-1.01.56-1.49.56s-.95-.51-1.49-.56c-1.8-.17-4.06.54-5.44-.75.23-.29.46-.5.81-.66,1.39-.62,10.3-1.18,12.03-.97,1.07.13,2.3.82,2.21,2.07Z"/>
      <path class="cls-1" d="M239.59,414.08c.78-.25,1.41.07,1.87.7-.44.71-2.35,1.22-2.36,0-.06-.33.2-.61.49-.7Z"/>
      <g>
        <path class="cls-1" d="M252.14,409.84c.47-.16.76-.65.66-1.14-.42-2.01-2.25-3.49-4.38-3.39-1.68.08-3.35.16-5.02.19-1.32.02-9.79.15-10.21-.14l-.28-1.34c1.72.61,3.19-.42,4.87-.59,2.05-.2,4.38.1,6.49,0,2.01-.1,3.91-1.1,6.05-.29.09-.51-.36-.98-.8-1.12-.43-.14-3.27-.63-3.78-.66-2.28-.13-9.51,1.75-11.06.16-1.07-1.1-.4-7.26-.6-9.14-.06-.56-.56-1.03-.58-1.52-.03-.64.51-.96.59-1.46.24-1.7.07-3.96.31-5.74-2.84.08-5.48,1.3-7.97,2.5-.81.39-1.81,1.4-2.56,1.57-1.24.27-3.81.1-4.93.91-.45.33.16,1.66-.62,2.1l-.14-1.77h-1.48c-.03.61.22,2.07-.44,2.36-.91-1.58-.38-1.36-1.91-1.32-1.4.04-.79-.61.08-1.1,1.41-.8,6.8-3.02,8.48-3.62,1.72-.62,10.05-1.83,10.04-3.85,0-.96-3.01-1.68-3.78-1.84-4.32-.87-9.26-.78-13.48-1.59-1.49-.28-1.29-1.64-1.36-3.05-.3-6.25.53-12.18-.31-18.58-.11-.85-.82-1.91-.78-2.64.04-.65.63-1.12.72-1.6.94-4.62.1-8.71-.21-13.2-.3-4.43-.54-8.85-.9-13.27l-1.76-1.78c1.63-.65,1.36-4.03,1.15-5.58-1.52-11.34-9.57-28.9-16.94-37.66-7.03-8.36-13.93-16.88-21.55-24.79-2.71-2.81-5.95-5.3-8.57-8.26-1.99-2.25-3.61-4.84-5.6-7.09-2.01-2.28-4.77-4.28-6.41-6.87-6.46-10.25-10.4-23.13-5.61-34.94.76-1.88,2.57-3.45,2.08-5.66-3.44-.91-3.5,4.18-4.09,6.45-.49.08-.31-.7-.3-1.04.01-1.22.4-2.19,0-3.39-.61-.53-3.63,2.25-2.39,3.72,3.27.98,1.43,1.86.77,3.66-2.05,5.57-.77,12.22-.15,18-1.88-.11-3.37-.23-2.36,2.07-3,.61-2.35-1.08-2.79-2.97-.42-1.8-1.4-3.65-1.61-5.48-.62-5.51,1.79-10.54,3.14-15.68.19-.73-.22-1.84.66-2.14l.74.88c1.44-.81.22-3.01,1.01-4.01.92-1.17,2.55.35,3.37.14.15-.04,2.11-1.96,2.28-2.17.63-.79,1.42-4.56,2.2-6.07,1.1-2.12,2.92-3.91,3.84-6.2,1.82-.59-.86,2.61-1.09,3.05-.22.45-1.7,3.99-1.72,4.22-.05.51.47,1.79.61,2.62.08.49-.2.52.57.45l7.26-11.49c.87-1.17,3.04-2.34,2.79-3.98-.08-.5-.74-.95-.59-1.49.22-.83,1.46-.03,2.05-.29.28-.12,2.4-2.36,2.82-2.81,2.69-2.9,5.01-6.22,7.67-9.16,7.37-8.15,14.61-15.32,21.05-24.4,1.48-2.08,2.82-4.29,4.18-6.45v-1.01s-2.94-.75-2.94-.75l3.84-.29,1.04-1.02c.26-1.75,5.2-12.36,4.56-13-1.17-.38-1.07,1.6-2.07.66l-.14-.66c-2.65.55-2.48,7.74-3.76,9.07-.89.93-3.15-.83-2.53-2.07,3.36-4.2,5.29-8.95,6.74-14.08l.59.15c-.5,2.39-1.55,5.63,1.47,6.64.12-1.44,3.41-7.47,2.08-8.43l-1.49.17c-.04-1.18.2-2.36.49-3.49.11-.42.18-1.46.68-1.53.14.32-.37,2.7.44,2.36,1.2-1.14,1.88-2.74,2.15-4.35.32-1.99.78-2.83,1.16-4.74.9-4.45.84-8.8,1.27-13.19.25-2.58,2.03-10.62.8-12.47-.17-.26-.96-.34-1.06-.86.75-1.71,1.28-2.38,1.11-4.35-.08-.87-.75-2.41-.73-2.99.02-.62.75-1.95.76-2.95.01-1.5-.76-3.5-.88-5.02-.18-2.2.15-4.58,0-6.78-.16-2.15-2.18-9-1.73-10.3.2-.57,4.16-1.2,5.04-1.45,1.88-.52,3.8-1.28,5.65-1.73,1.13-.27,6.24-.89,6.55-1.12.44-.31.81-1.47.93-2.02.56-2.47.37-5.7.68-8.17.24-1.95,1.58-3.16.89-5.35-1.32-4.14-4.63-6.64-8.64-7.89-3.06-.95-6.39-.76-9.45-1.76-.86-.28-1.76-1.15-2.28-1.27-.47-.11-.91.21-1.28.12-.5-.12-.75-.84-1.1-.99-.42-.18-.84.18-1.26.1-.8-.16-1.53-.96-2.45-1.1-.59-.09-4.21-.21-4.64-.03-.42.18-.14,1.26-.95,1.19-1.2-2.49-2.01-.81-2.62-.91-.29-.05-.82-.94-1.63-1.02-.53-.06-1.46-.05-2.26-.12-5.63-.46-12.51-.14-18.3,0-3.11.07-6.06,1.27-9.14,1.46-3.11.19-5.14-.85-8.4.46-.69.28-1.92.64-1.2,1.48.88,1.03,5.21.8,6.65.72,3.37-.18,6.83-.78,10.18-1.17-.04.54-1.01.43-1.14,1.07-.33,1.7,3.05,1.28,4.09,1.59l-2.16.79c-1.13-.03-2.33-.92-3.32-1.07-3.74-.58-7.07,1.74-11.13,1.09-1.1-.17-2.19-.98-3.31-1.12-4.92-.61-17.7,1.06-21.41-1.02-.14-.08-.38-.38-.29-.44,2.7.1,5.41.49,8.13.3.74-.05,1.21-.55,1.77-.59,2.86-.21,11.01,3.53,10.73-2.05-2.66-.98-5.83.21-8.39-.02-1.32-.12-2.46-.99-3.56-1.16-2.15-.34-4.96.5-7.37.29-1.49-.13-3.25-1.51-3.68.58-.7.02-1.01-.67-1.68-.82-.32-.07-4.37-.59-4.61-.58-.61.02-1.87.68-2.74.78-5.43.63-9.42.34-14.71.02-7.27-.44-15.25,1.1-22.45,1.78-2.45.23-5.2-.2-7.67,0-3.52.29-8.67,1.26-12.37,1.8-4.47.66-7.36,2.61-11.34,3.42-2.42.49-5.36.31-7.52.74-.18.04-2.94,1.16-3.15,1.28-1.8,1,.31,2.54,1.89,2.51,2.06-.05,6.83-1.54,9.25-1.99,9.22-1.71,17.32-3.51,26.79-3.64,2.31-.03,7.7.11,9.72-.29.6-.12.82-.67,1.5-.86,4.86-1.4,9.22-.16,14.16-.3,2.53-.07,5.64-.54,8.26-.6,1.37-.03,5.98-.31,6.92.16,1.81.9-.97,1.85-1.91,1.91-1.52.11-2.94-.65-4.42-.62-1.99.03-4.87.81-7.07.92-4.3.22-8.65-.23-12.95.04-.52.25-.73.55-.19.98.73.57,3.99.55,4.12,1.19.26,1.23-3.17.14-2.95,1.91,2.52-.44,6.44,1.92,6.95-1.79,5.3-.17,10.63-.1,15.93-.27.7-.02,1.35-.3,2.05-.33.62-.03,1.25.37,1.77.32.81-.07,2.59-2.94,2.31-.95-.19,1.33-.34,2.17-.09,3.61l-1.48-.45.52-1.18-.66-.65c-4.73,1.72-10.6.51-15.36,1.09-2.12.26-4.76,2.37-6.5,2.65-1.98.31-4.68-.11-6.78,0-6.37.36-12.66,2.44-19.17,2.67-3.21.11-5.23.45-8.29.86-1.21.16-7.56-.34-7.81.79-.07.3.01.73.15,1.03.61.88,9.33-.5,10.94-.61,5.61-.37,11.28-.28,16.84-1.19l4.26.6c-3.35.55-6.82.51-10.18.89-1.33.15-2.68.7-3.86.86-1.12.15-2.48-.17-3.51.03-.85.16-1.03,1.11-1.79,1.18-.78.08-1.53-.74-2.37-.88-.72-.12-1.84-.07-2.57.05-1.11.19-4.17,1.48-3.17,2.88-.4.35-2.89-.98-3.24-1.33-.85-.87-.99-2.71-2.94-.84l.57,1.58-.88-.21-.04-.92-1.25-.33-.61,2.07c-3.69,1.39-7.7,1.41-11.49,2.09-2.25.4-6.36,1-5.8,4.09-1.23.36-1.23-.6-1.69-.89-1.67-1.05-2.52.07-4.13.23-.93.1-2.46-.33-3.62.07l.49-1.13,6.89-.94c-.34-2.86-3.67-.91-5.23-.66-.81.13-4.29.24-4.5-.69.74-3.03,4.16-.56,5.59-2.64,0-.44-2.71-.67-2.02-1.88.27-.48,5.86-2.08,6.86-2.73.57-.37.9-.67.78-1.43-1.58-.83-2.91.16-4.31.26-1.91.14-3.88-.23-5.72.33-.23,1.35,1.38,1.48,2.36,1.77.15.68-.09.47-.38.66-.87.56-1.86.58-2.87.52.07-.7.03-1.82-.79-2.03-1.6-.41-.65,1.61-.7,2.16-.04.49-.68,1.13-.81,1.85-.57,3,.65,4.69.8,7.04.08,1.19-.57,2.88.6,4.12l2.36-.15c.05.68-.64.82-.59,1.59.08,1.5,1.54,2.43,2.84,2.8,2.56.72,6.47,1.36,9.16,1.76.89.13,5.53.38,5.71.64-1.25,2.73-1.82,5.7-2.08,8.69-.12,1.42.13,2.99,0,4.44-.56,6.83-2.97,13.89-1.63,20.82.61,3.13,1.95,8.03,2.2,11.1.13,1.65-.41,3.65-.27,5.56.35,4.81,2.07,9.22,3.1,13.72.83,3.63.99,7.38,2.36,10.93,3.46,8.98,7.89,15.9,13.73,23.46,1.36,1.76,3.08,4.45,4.42,5.91,1.67,1.82,4.78,3.33,5.16,6.06l3.32,1.25.51,3.18c2.44.77,2.85,2.86,4.29,4.56,2.39,2.84,6.57,6.52,8.22,9.78,1.88,3.73,2.04,3.33,4.62,6.31,5.81,6.71,12.88,15.49,13.72,24.66.27,2.93-.66,5.27,1.77,7.67-1.06,5.89,1.33,11.62-1.61,16.97-3.39,6.18-9.14,14.25-13.87,19.48-3.16,3.49-8.24,7.57-10.78,11.36-1,1.5-1.23,3.14-2.24,4.55-.93,1.3-2.8,2.97-3.95,4.31-3.72,4.33-7.09,8.48-10.34,13.27-.3.44-.83,1.83-.92,1.88-.65.39-1.76-.57-2.91,1.08-1.44,3.7-3.01,7.36-4.63,10.99-.18.4-.69.46-.92.87-1.71,3.02-2.66,8.39-3.99,11.67-.31.77-1.16,1.47-1.33,2.22-.22.97.25,1.75.1,2.45-.47,2.19-3.02,5.81-3.92,8.19-1.87,4.91-1.84,10.36-2.14,15.56-.14,2.38.62,4.28.59,6.18-.02,1.66-.78,4.07-.91,5.9-.36,5.17.19,10.96-.29,15.95-.14,1.44-.82,2.93-.9,4.44-.18,3.44.98,7.58.62,11.52-.27,2.99-1.53,1.58-3.39,1.6-3.17.03-7.43,2.76-10.42,3.21-.64.1-1.2-.31-1.64-.21-.44.1-1.22,1.55-1.82,2.03-.69.54-1.59.69-2.21,1.33.92.49,6.96,2.92,7.37,2.51.47-1.81-1.64-1.3-1.77-2.65l2.65-.89.03,2.33c1.49.77,2.95-.27,4.49-.23,1.57,1.87,2.67,5.11,5.82,3.35.16-.78-2.35-1.61-1.04-2.5,1.45.48,2.36,1.87,3.67,2.52,1.16.57,4.87,2.25,5.98,2.58,1.46.44,11.82,1.59,13.02,1.32.67-.16,1.45-.64.96-1.42-.74-1.18-8.27-.96-9.9-1.47-.88-.83,2.2-.55,2.51-.59,1.53-.17,3.22-1.23,1.17-2.06-2.4-.97-5.39.44-5.45-2.96.95.68.83,1.61,2.2,1.79,2.87.36,6.83.56,9.75.59,1.41.02,2.66-.64,3.53-.59.64.03,1.3.52,2.09.58,4.94.34,10.35-.02,15.34.3,1.47.27,1.41,2.26,1.82,2.37,1.46.36,3.3-1.02,4.98-1.19,2.88-.29,7.38-.04,10.29.33,2.83.36,5.03,1.31,8.02,1.16.76-.04,5.09-.64,4.85-1.63-1.66-1.19-3.98-.87-5.9-1.33,0-1.28,1.55-.89,2.43-.8,3.37.36,6.43,2.3,9.77,2.29.55-.13.72-2.54.82-2.64.13-.12.77.03,1.14-.18.37-.21.44-1.16,1.04-1.03,1.1.23-.18,1.27-.27,1.5-.42,1.01-.42,2.3-1.57,2.86-1.2.58-4.84,1.67-6.16,1.81-3.89.41-8.3-.13-12.21-.26.14,2.64,3.69,1.4,5.4,1.51,3.12.19,5.57,1.7,8.91,1.44,1.8-.14,3.55-1.04,5.48-.45.44.13.73.62,1.32.74,1.87.37,4.7-1.15,6.04.9-3.97.06-7.98.04-11.97.01-2.32-.02-5.63-1.22-7.08,1.17-.23,1,3.02.27,3.86.29,4.62.13,9.2.54,13.87.59,1.76.02,4.5.86,6.16-.31.91-.64,1.27-3.73,3.41-1.6l-2.35.89c0,1.02,9.97,1.03,11.07,1.05.7,0,1.36-.33,2.06-.33,2.16-.02,4.7.88,6.93.01.27-.39-1.1-2.54.45-2.64l1.18,1.76c.57-.43,1.26-1.68,2.06-1.47.74.2-.23,1.61.9,2.06.75.3.54-1.46.44-1.77,1.29-.47,1.43.98,1.97,1.15.74.24,2.89-1.01,3.79.92,1.3,2.79-3.93,1.37-4.96,1.52-.81.12-.66.79-1.23.85-3.51.41-7.83-.44-11.21-.3-1.33.06-3,1.27-4.75,1.19-1.28-.05-1.97-1.11-2.7-1.16-.4-.03-.73.56-1.39.54-.86-.02-1.67-.76-3-.62-.92.1-1,.66-1.54.83-3.38,1.08-7.84-.11-11.12.09-1.4.08-2.25,1.93-4.15-.03l-1.7.86c-.87-.12-1.39-1.38-2.14-1.44-.48-.04-1.02.34-1.49.31-2.28-.12-4.88.17-6.78-.01-1.37-.13-2.73-1.13-4.16-1.15-1.98-.03-3.89,1.07-6.75.85-4.05-.32-8.24-1.06-12.37-.55-.82.1-1.73.29-2.24,1,2.41,2.32,6.01,1.34,8.99,1.63,2.85.27,5.71.92,8.57,1.17.89.08,4.85-.37,4.86.74l-2.34,1.47c1.28,2.64,5.49,1.46,8.1,1.63,2.35.15,7.47.34,7.82,3.24-.46.03-.35-.6-.72-.9-1.27-1.05-6.93-.48-8.87-.87l.08,1.05c-.16.93-4.49-.11-5.4-.16-4.03-.21-6.19.68-9.83,1.09-3.24.36-6.94-.03-10.25.08-1.17.04-2.42.55-3.68.31-.2-.98.95-.4,1.33-1.17,1.25-2.54-2.19-2.73-3.85-2.67-1.36.05-3.32.2-4.67.34-6.43.7-3.19,4,1.42,2.6.85-.26,1.34-.9,2.23-.87-.97,2.18-2.18,2.71-4.56,2.66l-9.38-1.26-.51-.81,1.01-.28c.8-1.52-1.7-1.42-2.7-.98-.84.36-.91,1.45-1.7,1.57-2.87-.69-6.64-.03-9.38-.96-2.47-.85-4.99-1.78-7.58-2.46-.32-.08-5.84-.66-4.73-1.61l4.08.25c.9-1.73-.41-2.23-2.02-2.02.35-.67,2.4-.81,1.48-1.93-1.56.38-2.97-1.27-4.02-1.32-1.07-.06-1.2,1.11-2.04,1.19-.76.07-3.58-.57-4.39-.92-.88-.38-2.04-1.21-2.54-2.03,1.99.56,5.26,2.98,6.42.1l-.2-.78c-.59-.89-6.8-1.97-8.4-3.2-1.06-.81-.42-1.5.8-1.42,4.4.29,9.53,2.57,14.22,2.93,1.5.11,3.06-.07,4.57,0,.76-.69-2.39-1.71-2.76-1.81-2.36-.65-4.81-.63-7.27-1.29-1.97-.53-13.39-5.3-14.17-4.57.32,1.69.77,3.07.57,4.85-.14,1.29-.24,1.46-.27,2.96-.04,1.94-.47,6.7.86,7.99.67.65,2.06.75,2.34,2.1.18.72-1.19.41-1.41,1.18-.2.68,1.05,2.23,1.66,2.4.8.23,1.82-.29,2.45.51.11.8-.5.33-.89.3-.68-.07-1.36-.28-2.06-.15-.52,1.83,2.67,3.22,4.05,3.47,2.31.42,5.12.55,7.53,1.03,3.8.76,5.1,1.15,9.24,1.12,2.61-.02,1.17.17,3.14.96,1.34.54,4.21.94,5.7,1.09,8.33.8,16.73.57,25.08,1.19,1.45.11,3.92,1.12,4.41,1.15,1.57.08,4.25-.67,5.61-.72,2.73-.1,8.52.21,11.16.82.92.21,2.05,1.05,2.74,1.1.84.06,2.19-.54,3.22-.59,1.02-.05,2.35.37,2.95.3.44-.05.76-.57,1.14-.54.43.03,2.08,1.26,3.59,1.43,4.23.46,9.31.43,13.59.31,5.88-.17,11.81-.39,17.71-.59,3.81-.13,7.6-.51,11.35-1.2.24-1.19-1.01-1.38-1.92-1.47-3.23-.31-6.91,1.43-10.19.59.25-2.84,2.59-1.2,4.28-1.18,1.4.02,3.56-.52,5.02-.59,2.99-.13,6.01-.2,9-.3-.59,1.41-1.37.56-2.23.57-1.34.02-4.33,1.34-1.91,2.23,2.64.97,10.8.05,13.53-.94,1.58-.58,1.21-1.03.94-2.45,2.96-.31,5.99-1.41,9-1.18.96.07,2.01.57,2.93.55,1.65-.03,4.03-1.06,5.94-1.14,2.3-.11,4.63.4,7.08.29,8.08-.39,16.62-3,24.49-2.94,5.14.04,10.08-.27,15.05-.29,2.67-.01,4.12.02,6.55,0,1.36,0,2.71-.24,3.99-.68h0ZM39.11,31.83l-.41-1.49c2.53-.91,2.01,2.82.41,1.49ZM28.36,400.17c1.8.51,4.43.81,5.61,2.36-1.85-.41-4.23-1.02-5.61-2.36ZM41.19,406.97c-1.66-.12-3.28-.82-4.96-.56-1.93,2.69,1.73,1.62,3.06,2.76-.89.36-3.76.13-4.36-.51-.33-.35-.79-1.93-1.68-2.59-.87-.64-2.21-.56-2.52-1.62.13-.64,2.22-.14,2.72-.07,3.35.5,6.71,1.39,9.97,2.28-.2.52-1.76.34-2.22.3ZM98.02,413.6c0-1.04,6.42.24,7.22-.15l.74.88c-.29.38-7.19.11-7.96-.73ZM114.25,409.62c.3-.31,2.9-.72,2.65.58-.3.33-3.44.25-2.65-.58ZM113.53,414.91c-.27-.04-2.24-.68-1.64-1.16,1.55.44,3.85-.71,5.16-.59.61.06,1.49,1.04,2.44,1.11,1.11.09,2.67-.94,3.33.65-2.93-.34-6.44.36-9.28-.01ZM131.81,415.25c-1.95.04-3.44-1.19-5.59-.03l-2.52-.73c-.18-1.67,3.98-.42,4.86-.42.84,0,1.56-.32,2.35-.33,1.63-.02,3.26.04,4.88.01-.81.89-2.84,1.47-3.99,1.5ZM206.1,305.23c2.35,5.73,3.54,11.84,4.67,17.91-.89.15-.47-.22-.6-.72-1-4.04-1.64-8.21-2.87-12.2-1.13-3.69-2.98-7.05-4.21-10.7,1.22,1.52,2.24,3.86,3,5.7ZM208.11,323.72c-.63.12-.68-.3-.9-.72-.94-1.82-.74-4.95-1.54-7.02-.55-1.43-1.81-3.21-2.35-4.73-.2-.57-.39-.65.22-1.1.58-.12.66.6.82.94.72,1.49,4.27,12,3.74,12.63ZM203.68,307.78c-.95.14-.87-1.46-1.21-2.18-.59-1.25-1.5-1.65-1.9-2.26-.26-.41.18-.92-.16-1.56-.22-.42-1.25-1.65-1.74-1.68l.03-.56.52-.05.03-.41c-2.1-.81-1.72-2.43-2.43-4.36-.27-.73-2.25-3.68-.95-4.05.56-.16,1,.36,1.32.73.96,1.14,5.15,11.35,5.83,13.36.33.98.79,1.94.66,3.02ZM199.7,307.19c-1.63.33-2.25-4.9-1.91-5.31.65-.13.67.32.9.72.41.72,2.18,4.23,1.02,4.59ZM186.39,273.28c.59.68,3.81,5.08,3.42,5.58-.06.07-.75-.36-.89-.51-1.43-1.53-2.99-4.82-4.42-6.57.36-.36,1.64,1.22,1.89,1.5ZM186.56,277.24c.67.64,1.58.92,2.2,1.64,1.02,1.19,1.97,5.41,2.52,5.74.48.29,1.91.28,2.05-.32l-1.75-3.66c.58-.55,3.34,3.83,3.96,4.15l4.3,7.06c-.31.3-2.62-1.78-2.78-2.07-.28-.51-.24-1.32-.59-2.07-.43-.9-2.13-3.51-3.23-2.66-.44.34.31,1.67-1.64.45-1.76-1.1-1.92-3.03-2.85-4.53-.37-.6-5.45-6.24-5.14-6.52,1.23.39,1.95,1.85,2.95,2.8ZM194.24,294.8c-1.99-2.06-4.23-4.39-5.31-7.08,2.08,1.86,4.81,4.26,5.31,7.08ZM187.75,283.58c-.34.37-2.8-2.3-3.02-2.74-.13-.26-.45-.93-.08-1.1.41.67,1.38,1.1,1.82,1.58.51.55,1.36,1.48,1.28,2.26ZM176.09,267.64c.51-.11.71.14,1.03.44,1.84,1.68,5.11,7.31,5.95,9.7.12.33.33.66-.21.78-1.21.27-2.27-3.27-2.85-4.23-1.11-1.82-3.68-3.94-4.16-5.88-.08-.32-.29-.7.24-.81ZM144.34,224.39c-.05-1.45.64-1.85,1.34-.43.64,1.28.87,2.92,1.57,4.34.86,1.76,2.74,4.48,3.95,6.09,3.17,4.21,7.32,8.1,10.57,12.3l-1.73.05c-.85,1.45.37,2.95,1.28,4.09.56.7,4.92,5.4,5.31,5.31,2.1-2.15-.74-2.2-1.2-2.95-.29-.47.23-.98.03-1.47-.2-.51-1.84-1.6-2.22-2.22.23-.44.71.06.97.21.99.55,3.71,2.9,4.5,3.77.98,1.07,1.1,2.44,1.9,3.41,1.07,1.31,4.3,3.74,5.02,5.31.06.13.07.48-.14.44-1.34-.66-7.95-7.24-9-6.2-.21,1.35.34,2.4,1.18,3.39.43.5,1.85.9,1.33,1.62-.98-.31-4-2.95-4.73-3.83-.84-1.01-1.2-2.16-1.92-3.1-.96-1.26-3.05-2.62-3.84-3.83-1.24-1.92-2.43-5.41-3.72-7.5-.87-1.41-2.35-2.46-2.8-4.13l-1.59.55-.3-.28c-1.04-4.03-3.86-7.55-6.04-11.08l1.18-.44c.14-1.25-.86-2.2-.9-3.4ZM149.38,240.49c1.1-.07.77,1.18,1.16,1.94.54,1.08,2.2,2.73,3.03,4.06.49.78,1.8,3.08,2.07,3.84.12.34.31.68-.21.79-1.7.35-5.8-5.93-6.02-7.55-.14-.99.04-2.07-.02-3.07ZM136.69,222.04l-1.63,1.85c-1.65-.6-2.22-2.35-2.14-3.97.02-.38.42-.66.43-1.06.03-1.55-1.56-4.26.37-5.52-.25,1.28,1.05,2.33,1.18,3.42.1.91-.44,1.6-.17,2.49.23.77,1.96,2.18,1.96,2.79ZM123.4,180.28c1.96-.42,3.46,2.16,3.48,3.75.02,1.16-2.03,1.7-2.82.9-.74-.74-.06-3.52-.66-4.65ZM127.52,206.27l.02,1.46c-3.88.39-3.82-2.39-.02-1.46ZM127.39,155.48c-1.32-1.43-3.61-2.91-2.18-4.99.25-.18,1.09.13,1.36.36.97.82,2.35,3.66.82,4.63ZM120.74,155.78c1.1-.26,1.23-.2,2.07.44.8.6,2.96,2.39,1.77,3.26-.27.2-.57-.39-1.06-.46-.51-.07-1.02.36-1.47.04-.45-.33-1.58-2.99-1.32-3.28ZM118.58,152.76c-.5,0-2.33-1.65-1.96-2,.59-.14.92.59,1.5.46.68-.15,1.6-1.45,1.88-1.34.44.35,1.36,1.13,1.01,1.73l-2.43,1.15ZM124.01,147.64c.59.68.02,1.46-.03,2.22-2.47.29-2.26-3.27.03-2.22ZM128.67,183.64c.48-1.44-.85-3.13.19-4.24.41.01,1.23,1.82,1.27,2.28.08.97-.85,1.6-.82,2.29.03.55,1.06,1.76.57,2.8-.92-.75-.41-2.05-2.06-2.07-.27-.83.65-.5.84-1.06ZM129.75,213.93c.6.24,1.08,2.66.3,2.64-.64-.02-1.2-2.18-.3-2.64ZM129.31,173.19l1.04.29.14,2.07c-1.29-.05-1.26-1.36-1.18-2.36ZM130.04,161.67c-.88-.68-1.93-2.3-.89-3.24.57.58,1.82,1.56,1.58,2.44l-.7.79ZM127.83,145.75l4.13-1.49c.92.89-4.06,4.81-4.13,1.49ZM133.11,162.89c.06,1.99,1.57,3,2.69,4.39-2.41-.04-3.66-2.23-3.84-4.42l1.15.03ZM134.17,148.1l2.2,2.47-1.96,1.93c-.39.1-1.22-.37-1.47-.65-.16-.18-.26-.41-.31-.65.96-1.08,1.75-1.49,1.54-3.09ZM136.96,147.09c-.31-.53-.53-1.41.19-1.63,1.21-.35,4.64,3.28,5.01,4.4.46,1.4-.65,1.37-1.63.73-.38-.25-3.39-3.2-3.57-3.51ZM137.38,169.92l-1.58-.28.33-1.15,1.74.27c.17.26-.03,1.03-.48,1.15ZM137.27,159.46l-1.47.45c-1.17-3.77.2-3.65,1.47-.45ZM137.21,195.43c-.17.29-.14,1.02-.67.78-1.19-.53.36-3.2,1.62-2.95.18.18-.76,1.84-.95,2.16ZM138.46,155.33c-.19-.89,1.71-1.36,2.56-.35.41.49.41,1.28-.09,1.7-.57.2-2.39-.97-2.47-1.36ZM140.52,184.41l-.59,2.76c-2.11.79-1.14-3.02.59-2.76ZM144.82,188.84l-4.44,2.36c-1.6-1.67,2.17-2.61,2.71-3.33.26-.34.2-1.69.82-1.39.39.19,1.27,1.85.91,2.36ZM142.88,139.25l2.36.3c.34,2.39-2.96.22-2.36-.3ZM145.85,162.73c-1.65,1.1-2.63-1.88-2.67-3.11,1.23-.96,3.62,2.48,2.67,3.11ZM147.84,145.35c-.23-.55-1.57-.91-1.11-2.27,2.14.15,4.08,3.71,1.48,4.72-.08-.09-.17-1.99-.36-2.45ZM149.29,156.16c2.28,2.12-.05,4.17-1.09.05.32-.53.72-.4,1.09-.05ZM148.49,181.45c-.29-.63,1.27-3.2,1.77-2.65.29.31-.92,2.8-1.77,2.65ZM152.03,154.59c-.5.1-.76-.25-1.02-.6-.24-.32-1.52-3.27-.6-3.23.57.03,1.88,3.09,1.62,3.83ZM151.74,145.15c-.18-1.59-1.93-2.52-1.77-4.13.43-.49,4.44,3.82,1.77,4.13ZM155.13,151.64c-1.42.45-1.68-3.25-.88-3.24.73.41,2.1,2.85.88,3.24ZM156.46,141.9c-.43.33-1.35-1-1.49-1.3-.53-1.13-.31-1.83.74-1.34.14.7,1.55,2.02.75,2.65ZM158.02,144.6c.76.22,1.93,3.37,1.39,3.8-.68-.45-1.81-.04-2.38-.72-.82-.96-.84-3.61,1-3.09ZM165.21,163.35c-.74,1.34-3.03,3.63-4.09,5.21-1.28,1.91-2.52,3.88-3.46,5.98-.57.73-1.34.34-2.07.12-.13-.86.51-1.48.93-2.14,1.36-2.15,3.87-4.45,5.54-6.56.29-.37,3.12-4.82,3.55-4.27,0,.56-.13,1.17-.4,1.67ZM161.34,141.91c1.3-.39,1.95,2.67,1.91,3.54-1.66.76-3.08-3.19-1.91-3.54ZM166.05,151.05c-.79-.25-1.48-2.96-.59-2.94.48.01,1.44,2.45.59,2.94ZM165.94,141.86c-.07-.04-.58-1.31-.56-1.53.17-2.2,2.05-.35,1.99,1.11-.11.46-1.08.63-1.42.42ZM173.28,156.66c-1.56-.26-3.87,3.74-4.99,2.93-1.41-1.01,1.54-2.27,1.88-2.64.31-.34.41-1.12.75-1.34.56-.36,2.85.4,2.36,1.05ZM169.44,145.15c.4,1.09.23,1.9-1.01,2.06-.99-.23-.15-2.51,1.01-2.06ZM170.18,136.59l1.02,2.47c-.09.65-1.33.34-1.45.18-.23-.29.5-.84.54-1.09.07-.38-1.26-1.59-.11-1.57ZM173.15,145.45c-2.19.03-2-2.94.13-3.25.16.72,1.33,3.23-.13,3.25ZM176.68,143.67c-.8-.87-1.25-1.48-.74-2.65l-.88-.15c.4-.84,1.02-2.9,1.63-1.03.15.44.82,3.89,0,3.84ZM179.04,149.28c-1.82-.75,3.26-5.16,3.6-5.26.57-.17.92-.1,1.27.39l-4.86,4.86ZM179.34,134.82c1-.25,1.08,2.39.73,2.95-1.21.1-1.8-2.68-.73-2.95ZM180.02,119.72c-.96.42-2.37,1.21-3.17.17-.4-1.64,3.59-6.42,3.8-7.97.34-2.54-2.46-3.27-3.33-1.52-.55,1.1-.81,3.8-1.24,5.23-.32,1.08-1.41,4.99-2.42,5.27-4.02,1.12.49-6.27.94-7.35.82-1.99,1.25-4.09,1.99-5.98,1.12-2.83,2.64-5.53,3.48-8.48l1.18.58c-1.37.15-.76,1.95-1.09,3.2-.56,2.14-4.26,4.47-.53,6.27.75.11.89-2.02,1.91-1.78-.26,1.03.74,2.39.81,3.14.16,1.91-3.07,6.67-2.33,9.2ZM182.43,126.55l2.67-5.89c3.35.45-.09,6.04-2.67,5.89ZM190.84,133.63c-1.25-1.03.91-2.3,1.62-2.94.19,1.3-.49,2.34-1.62,2.94ZM197.2,115.79c-1.74,2.09-1.16,1.58-2.23,3.97-.62,1.39-1.49,2.67-1.92,4.14l-.58-.14,2.88-7.75,3.9-6.57c-.27,1.93-.8,4.84-2.06,6.35ZM200.52,106.42c-.16.36-.15.87-.67.95.04-3.11,1.55-6.02,2.04-9.02.58-.31,1.48-.2,1.49.59.02.95-2.31,6.21-2.87,7.48ZM203.9,90.32c-.24,1.67-.79,3.3-1.1,4.95-.54-.2-.32-1.73-.29-2.21.15-2.39.64-4.94.87-7.39.05-.52-.1-.95.45-1.31.88,0,.17,5.24.07,5.97ZM205.25,102.6c-.15.51.1.77-.67.64-.04-1.93.44-3.85.86-5.73l.91-.17c.19.19-.93,4.7-1.09,5.26ZM207.52,94.38c-1.98.09-.95-1.56-.58-2.65.6.11.68,2.55.58,2.65ZM207.82,68.7c-.41.07-.45-.52-.51-.81-.28-1.28-1.06-9.3-.37-9.81.16-.03.39.17.44.29.06.12.44,2.38.44,2.51v7.82ZM208.26,86.42c-.07.33,0,.95-.44.88.13-2.14.12-4.49.33-6.6.04-.43.09-1.94.85-1.66-.12,2.43-.19,5.01-.74,7.38ZM211.07,22.65c-.21-1.32,2.94-.12,2.94.15-.87,1.05-1.99.05-2.94-.15ZM220.81,22.36c.04-1.27,2.18-.89,3.1-1.45l2.21,1.16c-.26,1.08-5.11.48-5.31.29ZM217.56,17.2c.61-.79.89.31,1.9.16.74-.11,1.03-1.15,1.93-.9v2.36s-3.83-1.62-3.83-1.62ZM227,18.96c-.19.95-2.91.09-3.47-.21-1.41-3.91,2.86-2.35,3.47.21ZM222.41,8.8c1.09.2,3.08.3,2.83,1.75-.85.37-4.02-.56-3.83-1.62.12-.7.76-.18,1.01-.13ZM223.46,13.22c.45.46-.12.51-.42.62-1.39.53-3.13-.22-4-1.36-.02-.9,4.26.58,4.42.74ZM214.16,7.61c.17-.01,2.38.38,2.77.47.45.1.92.13,1.22.55.04.98-3.73-.05-4.13-.29-.47-.28-.02-.72.15-.73ZM213.82,19.16c.7.13,1.95.12,2.26.83-2.05.01-4.29,0-6.31-.33-.95-.15-2.6-.3-3.14-1.14,2.34-.01,4.88.21,7.18.64ZM212.35,11.19l.49,1.13-1.56.26-1.69-1.43,2.76.04ZM212.83,15.87c-.55.11-1.03.33-1.61.31-.73-.02-3.94-1.23-3.11-2.08.55-.01,5.49.76,4.72,1.77ZM199.67,5.55c1.8,2.46-1.7,2.78-2.18.58l2.18-.58ZM208.99,11.29c-1.42,1.74-2.4,1.94-4.29.75l-8.69-.31.28-1.64c4.15-.83,8.86-.5,12.7,1.2ZM194.75,5.58c1.82-.29,1.92,1.76.77,1.98-.51.1-1.77-1.24-2.72-.89l-.19-1.43c1.49,1.2,1.06.52,2.13.34ZM196.32,19.87c1.9-.63,1.23-1.92-.01-2.81,1.3,0,3.34.06,2.92-1.75l-5.88-1.21c-.12-.78.14-.59.75-.6,1.95-.04,7.57,1.06,9.66,1.56,2.87.68,2.52,1.58,1.42,3.94l-3.26-.17c.71,2.34,3.81,2.57,5.9,2.66.27.9-1.04.62-1.64.6-2.96-.1-9.93-1.83-12.32-1.13-.37.11-.64.59-1.02.76-1.46.63-5.73-.62-7.6-.82-1.62-.17-6.77.1-7.8-.76-.29-.24-.6-.77-.61-1.16,0-.25,2.69-.18,3.1-.15,5.45.42,11.04,2.83,16.4,1.04ZM203.69,48.93c2.09.39,2.31,1.14,2.03,3.21l-1.29.05-.74-3.26ZM203.83,61.91c-.7-2.23-.8-4.62-1.03-6.94-.06-.62-.24-1.21.58-1.03.5,2.5,1.63,5.53.45,7.97ZM199.34,49.45c-1.71.57-1.69-1.25-1.85-2.59l1.33,1.77c.58.13,1.79-1.96,2.21-1.48.59.69-1.09,2.1-1.69,2.29ZM185.83,10.56h-6.79l-.3-.59c.74-.83,1.89-.92,2.96-.91.96.01,4.5.31,4.86,1.06-.08.14-.69.44-.74.44ZM186.57,15.13c.33.08.95,0,.88.44h-4.87c-.32-.09-1.1-1.14-.59-1.48,1.46.66,3.05.69,4.57,1.04ZM188.1,6.93c-2.29.45-4.67.39-6.97.7-1.35.18-3.01,1.58-3.13-1.05-.03-.62,0-.38.44-.45,1.37-.2,3.27.08,4.74.01,2.27-.1,4.59-.72,6.92,0-.29.7-1.36.67-2.01.79ZM175.06,2.89h13.87c.05.43-.77.53-1.06.56-1.26.14-2.55-.08-3.81.03-1.63.15-7.27,1.36-8.29.61-.19-.14-.77-1.16-.71-1.2ZM172.5,9.13l.49.83h-11.66c-.06,0-.53-.48-.44-.59,3.72-1.28,7.76-.29,11.61-.25ZM167.38,19.12c1.28.21,3.44-.29,4.58,0,.1.03.45.4.44.59-.42.42-4.55.48-5.02-.59ZM171.31,31.19h-.47c-.63-.38-1.22-.93-1.09-1.74,1.31.1,3.48.49,1.56,1.74ZM166.79,14.25c-.45-.27-.06-.7.16-.74.21-.04,3.69.38,3.68.74-.62.81-3.16.42-3.84,0ZM153.81,8.79c.57.06,3.14.14,2.95,1.03-.29,1.35-3.3.41-2.95-1.03ZM142.44,11.45c.49.09.51-.19.44.58h-5.76l-.3-.59c.48-.68,4.63-.17,5.61.01ZM134.03,5.84c.08.79,0,.47-.44.58-1.18.28-3.37.86-3.39-1.02.31-1.12,3,.68,3.84.44ZM122.51,18.53c.53-.56,9.72.79,11.15-.07.28-.81.74-2.29-.05-2.91-.83-.66-4.59.18-4.6-.71l1.33-2.21c1.18.49,1.75,1.88,3.09,2.22.85.22,3,.37,4,.43,8.04.48,16.33-.27,24.35-.58-.1.58-.62.48-1.02.6-1.55.46-8.23,1.6-8.72,2.8-.17.59.75.59,1.11.65,1.73.26,3.45-.35,4.93.68h.44c-.98-2.8,6.08-1.19,5.02-.3-2.55-.25-5.03,1.28-7.4,1.35-.53-2.77-2.08.61-2.33.42-.39-2.8-3.8-1.42-5.82-1.31-2.26.13-4.16.58-6.15.72-1.1.08-2.1-.37-2.92-.29-.97.09-1.42,1.05-1.84,1.13-.36.07-1.3-.58-1.86-.7-4.19-.9-8.46-1.03-12.71-.73v-1.18ZM134.03,31.51c-1.46-.12-3.92.96-5.19.87-.61-.04-1.08-.9-.52-1.16,1.57,0,5.13-1.71,5.72.29ZM95.81,16.17c3.36-.27,6.18-.16,9.65-.67.91-.13,1.52-.8,2.59-.21.11.64-.05.59-.57.73-.76.2-2,.3-2.86.4-2.58.33-6.63.86-9.11.86-.74,0-1.66-.45-2.51-.24.39-.61,2.1-.82,2.81-.88ZM90.79,20c1.96-.1,3.95.12,5.9,0,2.43-.16,5.11-1.14,7.37-1.19,3.85-.09,8.13.4,12.12.32,1.71-.03,4.39-1.11,5.74.43,0,1.14-4.52.67-5.47.73-2.95.16-7.8.84-10.58.57-.72-.07-1.37-.6-2.08-.56-.78.05-1.25.79-1.93,1.03-4.19,1.5-10.99-.4-15.51.14-1.02.12-1.37.51-2.1,1.15l-3.06-.99-.29-1.33c3.38.89,6.65-.12,9.89-.29ZM105.69,31.51l-.44.59c-1.73-.45-10.57.86-11.37,0-.5-.54,1.25-1.16,1.62-1.2l10.19.61ZM78.93,20.93c.57.18.53.67.49,1.14-.75.04-1.54,0-2.25-.26-1.38-.51.82-1.17,1.76-.88ZM71.29,25.01c2.48-.19,5.2.21,7.68,0,3.9-.31,7.82-1.85,11.96-1.17-.14.54-1.29.62-1.77.74-5.57,1.37-12.13,2.49-17.84,1.6-.53-.08-.99-.29-1.34-.72.35-.54.78-.42,1.31-.46ZM68.9,28.04c1.08.11,1.35,1.5,2.14,1.96,2.48,1.43,8.24-1.98,10.84-1.92.75.02,4.14.74,4.79,1.05.41.2.68.19.74.77.23,2.34-5.03.77-6.35.72-1.44-.05-2.58.29-3.84.32-1.34.03-5.77-.3-6.53.26-.5.37-.48,1.51-1.6,1.2l.88-1.77c-1.62-.53-4.38,1.36-5.72,1.1-.23-.04-1.52-1.17-2.05-1.46-.33-.18-2.57-.72-2.27-1.12.88-.13,1.65-.81,2.55-.88,1.14-.09,1.87.8,2.86.78,1.03-.02,2.77-1.09,3.55-1.01ZM77.06,32.7l-.47,1.14c-.9-.24-1.9-.14-2.48-1,.88-.77,1.94-.04,2.95-.14ZM60.69,40.07l-1.04-1.32c.09-.49,1.65-.57,1.77-.45.16.17.07,1.94-.73,1.77ZM57.52,27.17c2.16-.4,6.2-1.21,8.22-1.25.47,0,.86.05.99.57-4.02.42-7.94,1.1-11.88,1.86-.5.1-.67.38-1.1-.24,1.17-.52,2.52-.72,3.77-.95ZM60.24,33.58c.14.77-.14.52-.59.72-1.84.85-5.95,2.07-7.37,3.27-.65.55-.72,2.36-2.66,1.91.02-5.03,6.92-5.21,10.62-5.9ZM58.15,38.47c-.96,3.8-2.98.16-1.28-.44.47-.17,1.04-.05,1.28.44ZM52.58,79.19c-.11.41-.04.92-.6,1.02-.71-3.61-.13-7.33.44-10.92,1.12,2.71.93,7.1.16,9.9ZM53.43,91.03l-.57.99c-.46-1.34-.28-2.74-.3-4.13l.87,3.14ZM49.31,71.22c-.13-2.44-.22-5.17.03-7.65.02-.23.21-1.07.42-1.06l.15,12.1c-.37.49-.54-.03-.59-.44-.12-.9.05-2,0-2.95ZM49.89,42.57l-2.34,5.18.85-6.37,3.13-.93.74,1.39-2.38.72ZM45.48,29.45c1.46.11,3.54-1.15,4.43.59-.16.21-4.67.96-4.43-.59ZM46.53,84.09c-.07-2.91.71-3.52-.54-6.9-.81-2.2-.48-3.19-.94-5.56-.13-.65-.71-1.31-.75-1.92-.18-3.06,1.13-9.88,1.73-13,.34-1.76.05-3.8.32-5.29.11-.63,1.14-1.31,1.71-.98.1.06,1.43,1.54,1.26,1.86-.1,1.08-2.09.6-2.38,2.08.23,3.83-.2,7.68-.02,11.52.43,8.98,3.36,18.12,3.85,26.56.22,3.71-2.47,1.23-2.89-.66-.26-1.17-1.35-6.8-1.37-7.72ZM65.04,131.78c-.92,2.45-3.44-.47-3.79-1.98-.18-.76.25-1.3.12-2.14-.36-2.29-3.11-5.48-4.01-7.82-.74-1.93-1.61-8.56-3.02-9.39-.39-.23-.91.24-1.29.14l-4.01-11.08c-.21-2.21.98-1.35,1.68-1.96.48-.41.26-2.05,1.1-2.02.67-.17,1.97,1.61,2.09,2.08.14.52-.24,1.18-.15,1.88,1.41,11.57,5.81,18.32,9.87,28.82.38.98,1.73,2.58,1.4,3.46ZM65.69,127.45c-3.53-6.86-5.68-15.04-7.81-22.44.44.16.74,1.13.93,1.57,1.63,3.68,2.88,7.53,4.37,11.27.97,2.44.36,2.05.71,3.99.3,1.67,2.17,3.51,2.84,5.15,1.06,2.58.22,2.92-1.05.46ZM78.39,147.51c-2.21-1.89-2.19-1.7-4.16-4.11-.86-1.05-6.64-7.62-6.61-8.14.01-.19.65-.6.87-.44.61,1.39,1.72,2.79,2.67,3.97,1.29,1.59,3.33,4.3,4.72,5.61,2.25,2.14,5.64,3.58,6.79,6.94-.55.13-.7-.31-1.03-.59-1.13-.94-2.12-2.28-3.25-3.25ZM84.23,156.65c-.4-.24-2.47-.35-2.15-1.01,1.26-2.57,5.42,3.79,6.2,4.57-1.72.02-3.1-2.98-4.04-3.56ZM89.9,148.98l2.15.4c4.17-1.79,8.61-2.94,12.83-4.6,1.3-.51,4.54-1.42,3.44-3.28-.38-.64-1.02-.75-1.45-1.21-.27-.28-.27-.85-.59-1.18-.46-.47-1.6-.55-2.05-1.19.5-.69,1.28-1.14,1.86-1.67.24-.22.78-.37.2-.69-1.23-.68-5.12.49-6.2,1.49-.14.58,3,2.56,3.23,3.56.19.82-1.54,1.05-2.16.99-.74-.07-1.98-.89-2.35-.82-.65.12-4.39,3.9-5.07,4.67-.59.22-.5-.77-1.02-1.05-.95-.51-2.2,1.25-3.04,1.7-2.09,1.13-3.68,1.51-5.54-.19-2.08-1.91-2.67-6.2-6.18-5.48-.29-.84.71-1.19.85-1.68.29-1.07-1.94-2.67-2.61-3.49-3.84-4.65-6.17-9.89-9.1-15.1-5-8.87-5.22-19.9-9.86-28.81-1.14-2.2-1.78-9.66-2-12.46-.5-6.26-.4-13.84.97-19.98.81-3.63,3.33-6.55,2.82-10.38l-.44-.45h-.96c-1.64,3.52-2.17,7.44-3.14,11.18l-1.62,3.84c-.12-1.53.14-3.02.34-4.52.61-4.41,1.27-9.69,4.53-12.89h.43c.7,2.17,4.1.7,5.93,1.31,1.12.37.4,1.53,3.01.98.97-.2,2.12-1.23,2.79-1.36.76-.15,3.65.78,4.18-.82.61-1.85-2.17-1.17-3.32-1.32-1.28-.16-2.99-.84-4.18-.86-.81-.01-4.44.68-4.85.3l.31-.72c1.46-.02,5.16-2.27,6.17-1.79.83.4.4,1.01,2.02.54,2.28-.66,1.51-2.13,2.01-2.49.52-.38,4.93-1.53,6-1.9,1.11-.38,2.78-1.45,3.72-1.59,3.79-.58,8.25-.4,12.1-.6,1.99-.1,12.81-1.3,13.67.03l.04,2.32c.61.25,1.62-.59,1.92-.59h5.17l-2.36,1.18c2.27-.12,4.69.17,6.93,0,2.09-.16,4.31-1.24,6.21-1.2,1.37.03,5.61.69,6.74,1.25.68.34,1.07,1.24,2.1,1.14.98-.04.88-1.16,1.34-1.63.91-.9,3.43,0,4.87-.15.85-.09,1.57-.58,2.35-.59,1.56-.02,3.11.75,5.02.59,1.41-.12,4.72-1.77,4.98-1.72.49.09,1.15,1.44,2.17,1.67,2.26.51,6.52-.09,9.1.05,4.45.23,8.63,1.29,12.83,2.67.43.42-.03.53-.44.59-2.12.27-4.67-.21-6.76-.18-2.83.05-5.64.39-8.44.76-.08-.07.63-1.34-.14-2.07-.14-.13-1.91-.58-2.07-.58h-4.28c-.15.87,1.45,1.14.6,1.93-1.63.55-3.56-.42-5.1.22-.89.37-1.19,1.51-2.51,1.63-.58.05-7.51-.96-7.85-1.17-1.32-.8.35-1.95.09-2.31-2.63-.81-1.29.05-1.74.74-.85,1.3-2.39.38-3.72.42-3.34.08-6.21-.34-9.15-.3-.85.01-7.76,1.15-8,1.48l.24,1.72c.45.45,2.66.49,3.32.36.65-.13,2.24-2.34,2.51-1.02.13.6-1.51,1.39-2.06,1.33.88,1.66-.59,2.05-.62,2.22-.44,2.47,5.87,1.28,6.94,1.33.74.03,1.66.65,2.46.78,3.34.58,7.17.16,10.48-.57.43-.1.81-.34,1.09-.67-.35-.54-.78-.42-1.31-.46-3.02-.23-6.2.07-9.17.01-2.2-.04-6.57.2-8.41-1.03-.33-.22-.36-.4,0-.6.67-.37,4.33.41,5.45.46,4.43.18,10.26-.57,14.46.3,2.74.57,4.89,3.19,8.14,1.75l-.17-1.49c2.23-1.1,3.41,2.8,6.03,1.15l.32-1.6c1.33-.2,2.82-.11,3.86-1.16.23-1.01-3.15-1.56-2.36-2.21,1.46-.47,1.89.6,2.74.95,2.69,1.1,13.11-.73,16.52-1.32,1.35-.24,2.39-1.31,3.85-.46.97.57.85,2.18.05,2.6-.64.33-.04-.87-1.24-1.1-2.98-.57-6.04.75-8.94,1.25l-.59,3.4-4.42-1.77c-.95,1.89,1.23,2.6,1.69,3.76,1.2,3.04,1.76,9.27,2.57,12.78.22.95.49,2.7,1.63,2.35-.36-1.62.1-3.17.01-4.88-.19-3.73-1.96-7.46-1.46-11.32,2.27-.99,1.97,3.67,2.61,5.44,1.26,3.46,2.62,9.48,2.37,13.26-.35,5.27-1.48,10.59-.88,15.94.17,1.48.98,2.98,1.79.91.3-.78.51-3.19.57-4.16.4-6.62-.47-14.1,0-20.37.17-2.25,1.78-6.38-2.35-5.45l-.61-5.12c2.28-1.02.78-3.34.61-5.21l1.72,1.68c-.28,2.64,1.07,5.41,1.68,8.05,1.45,6.29,2.86,12.7,2.5,19.19,1.02,1.02,1.85-2.96,1.93-3.53.8-5.75-1.49-12.41-2.79-17.9-.37-1.57-.56-3.51-.62-5.13.38.08.65.48.81.81,2.58,5.09,2.2,8.44,3.05,13.77.66,4.11,2.3,9.95,2.34,13.92.04,4.57-1.45,10.41-1.46,15.07,0,.66.44,2.68,1.29,2.48.57-.13,1.89-4.2,1.92-4.91.03-.9-.73-.99-.87-1.73-.22-1.15.1-6.05.36-7.31.13-.62.68-1.12.8-1.85,1.13-7.06-2.59-15.35-3.19-22.15-.19-2.14.64-3.44-.93-5.29.58-1.33,2.04-1.16,2.77-.06.29,2.16,1.31,4.03,1.82,6.12.45,1.84,1.43,10.57,2.66,11.22.49.26.47-.36.57-.59,1.05-2.35.44-11.75-1.06-13.98-.34-.5-1.03-.5-1.16-1.22-.1-.56.49-3.25.9-3.54,2.01.71-.28,3.52,1.92,4.28l.75-1.46c1.49-1.02,2.68,4.93,3.52,5.76.73.72,2.8.84,3.46,1.7,1.08,1.41.49,4.02.69,5.66.38,3.19,1.12,6.39,1.49,9.59h.86c.14-.6,1-3.75,1.34-3.82,1.45-.33.98,4.62,1.03,5.46.12,2.12.77,6.94.25,8.82-.22.79-1.29.14-1.38-.28-.09-.39.49-2.23.53-2.93.07-1.16-.22-6.59-1.36-6.92-2.99.74-1.9,3.4-1.88,5.45.06,6.27-1.87,21.83-3.91,27.67-.42,1.2-1.57,1.85-2.25,3.06-2.13,3.81-3.44,9.09-5.35,13.1-.41.08-.7-.1-.83-.49-.57-1.76,2.79-6.98,3.63-8.96,2.05-4.84,4.09-11.15,4.58-16.38.39-4.15-.07-8.07,1.04-12.24.67-2.49,2.14-4.03.7-6.75l-1.44-.03c-.36,2.87-1.32,5.58-1.74,8.45-.49,3.37-.44,6.84-1.01,10.21-.84,4.9-3.84,15.5-6.24,19.73-.17.31-2.06,2.88-2.23,1.6-.04-.29,1.64-4.75,1.92-5.45.96-2.44,2.44-4.88,3.32-7.3,1.6-4.41,4.61-23.77,4.2-28.26-.08-.93-.22-2.83-1.47-2.81-.22,2.13-1.3,4.05-1.69,6.13-1.47,7.8-1.07,15.46-3.41,23.45-1.31,4.46-3.46,11.07-5.47,15.17-.57,1.16-1.24.7-1.25-.62-.03-3.06,3.25-9.1,4.38-12.17,1.35-3.66,3.93-12.8,3.63-16.47-.11-1.33-1.48-1.02-1.95-.44-.45.57-.54,4.69-.95,6.14-.43,1.54-3.34,10.51-3.92,11.13-.28.29-.41.55-.88.44l2.07-11.65c-1.51-2.6-2.03,2.22-2.78,2.82-2.37,1.89-.89-3.88-.8-4.63.41-3.46,1.12-7.78.93-11.19-.05-.86-.79-5.94-1.17-6.21-.59-.43-1.28-.08-1.57.54-.54,1.15.28,2.93.37,4.21.26,3.89-.84,10.67-1.56,14.67-1.39,7.77-4.96,13.69-7.81,20.82-.87,2.17-1.22,5.87-3.45,7.17-.5.29-1.72.59-1.91-.19-.36-1.51,3-7,1.74-8.98.78.14,3.08-1.34,3.19-1.96.08-.45-.45-.99-.39-1.62.16-1.63,2.18-6.33,2.72-8.46.84-3.27,2.04-7.05,1.26-10.39-.61.23-.88.84-1.12,1.39-1.11,2.66-1.42,6.67-2.21,9.59-1.02,3.74-2.78,7.28-3.52,11.09l-4.37.94c1.48-3.93,3.33-7.78,4.57-11.81.59-1.9,2.33-7.94,2.24-9.59-.02-.47-.05-.74-.47-1.02-3.13,3.07-3.18,8.1-4.57,12.25-1.64,4.9-4.57,9.46-6.13,14.24-.53,1.63-1.18,7.19-2.5,7.83-.81.39-2.73.55-2.9-.53-.09-.58.82-3.44,1.05-4.27,2.19-8.01,6.2-13.03,7.73-21.49.46-2.53,1.19-6.3,1.28-8.78.02-.59.04-1.28-.75-1.31-.82.2-2.19,6.77-2.23,7.84-.27,7.14-2.03,8.11-4.87,13.99-1.66,3.44-2.05,6.54-2.56,10.13-.23,1.64-1.92,4.22-2.28,5.99-3.84.43-8.12.61-11.89,1.39-1.93.4-4.12,1.55-5.99,1.69-.83.06-4.05-.41-5.01-.59-.72-.13-.93-.98-1.76-.9-.21.02-2.58,1.67-2.83,1.92-1.23,1.28-.04,1.44.56,2.7.66,1.39,1.16,5.64,3.31,3.83,1.67-1.41-.07-2.76-.03-3.83.07-1.93,2.89-1.65,4.01-.77-.51.87-.61,4.14.86,3.85.68-.77,1.33-4.13,2.12-4.39,2.52-.83,1.67,3.44,3.43,3.17.64-.1,2.72-1.83,2.14-2.62l-1.04-.74c2.25-3.09,5.54,2.35,6.96-2.23l3.78,1.49.95-2.03c.93-.2,1.72.62,2.6.56.96-.07,1.78-1.27,2.45-1.42.72-.15,1.58.63,2.56.53.96-.1,1.39-1.02,1.83-1.11.35-.07.95.26,1.43.24,3.2-.13,4.49-.99,5.91-3.85l1.23,2.04c2.83,0,4.13-4.27,5.75,0l.38.05c.62-.07,2.21-1.23,2.8-1.66.87-.65,3.97-4.35,4.4-1.39.34,2.37-2.75,2.21-4.45,2.81-5.74,2.04-11.75,3.06-17.26,5.47-.96.42-2.05.58-2.94,1.22-.6.05-.54-.73-1.05-.95-2.24-.99-2.13,1.25-3.19,1.73-.89.4-1.45-.68-2.43-.41-.92.25-1.74,2.58-3.76,1.73l.17-1.18-2.03-.6c-.43.1-1.06,2.25-1.43,2.77-1.72,2.44-1.63-.89-2-1.15-.28-.2-.98-.19-1.34-.13-1.74.31-1.05,3.44-3.63,3.79-1.21.17-2.13-3.17-3.59-.95-.66,1,.74,1.75-.97,2.28-1.58.49-3.03-1.77-4.32-.95-.97.61.83,2.81-.19,3.2-.9.35-.86-.79-1.32-1.33-2.17-2.56-4.55.14-3.21,2.77l2.61-.25c-.33.63-1.35.85-1.99,1.1-3.55,1.39-7.5,2.24-11.17,3.31-1.18-.03-.32-1.38-.41-1.46-1.82.23-4.49,0-4.91,2.21.01,1.43,3.68,1.92,4.32,3.25-.67.3-1.98.15-2.08,1.18-.05.5,1.31,2.97,1.67,3.08,1.89.57,1.59-4.46,2.16-4.87,2.78-.54,3.47,1.65,4.3,3.72.24.59.12,1.26.48,1.88.39.69,1.3.88,1.75,1.5.13.18,1.88,3.78,1.94,3.99.28.99-.64,1.76-.34,2.36l2.75,1.92c-2.26,2.55-.87,5.82,1.84,7.39l-.47.72c-3.18.12-4.01-7.85-7.31-6.73-.75.25-.55,2.35-.42,2.99.33,1.58,4.2,5.97,5.8,6.75.49,1.3-1.44,1.63-1.44,2.46l1.31.43c.73.85-.49,1.03-.73,1.4-.26.4-.08,1.54-.72,1.27-1.25-1.13-2.23-2.49-3.41-3.69-.22-.23-.23-.68-.29-.74-1.12-1.08-3.6-2.24-4.87-3.25-.82-.65-3.23-3.9-4.3-3.12-.62.45.17,1.8-.73,1.65-1.18-.2-3.75-4.07-3.99-5.17-.04-.16-.07-.49.15-.44l1.62.59c.32-1.81-1.27-2.9-2.08-4.26-.36-.61-.43-1.28-.92-2.03-1.03-1.57-4.57-4.5-4.92-5.71-.08-.3-.2-.93.39-.68.89.37,2.8,3.26,4.27,1.59.08-.43-.13-.75-.32-1.11-.42-.79-2.7-3.87-3.35-4.62-.81-.94-1.73-2-3.1-1.32-1.34.66.04,1.9-.15,2.8-.98-.68-1.64-1.68-2.7-2.31-.91-.54-3.27-.74-2.61-2.12ZM142.59,44.2l-13.36.23c-.45-.13-1.13-.38-1.12-.97,0-.15,1.18-1.5,1.27-1.55.56-.33,2.6.16,3.47-.37v1.18c2.82.09,6.29.2,9.02.88.5.12.86-.29.72.6ZM160.6,117.42c.75.02,1.35-.17,2.03-.48,1.21-.57,1.74-1.84,2.98-2.18-.62,1.41-1.32,2.79-1.78,4.27-.43,1.41-.85,5-1.5,5.88-.66.9-3.62.83-3.52-.83.08-1.43,2.47-4.61,1.79-6.66ZM123.11,187.06c-3.87-1.14-8.29-4.18-10.75-7.4-.95-1.24-2.01-2.48-.32-3.51.84,1,1.07,2.6,2.19,3.41.59.43,1.17.38,1.66.7.62.41,1.86,2.35,2.79,3.12,1.47,1.22,3.65,1.84,4.43,3.68ZM101.26,163.45c-2.77.21-5.04-2.75-5.31-5.31.6-.11.78.07,1.18.44,1.38,1.27,2.64,3.56,4.13,4.87ZM97.52,170.28l-.69.4,2.07,3.39c-.52.4-2.66-1.35-3.07-1.8-1.39-1.55-1.05-2.91-1.72-4.77-.63-1.73-2.1-3.09-2.29-4.94,2.34,2.4,4.41,5.16,6.78,7.53.57.57,4.76,3.65,4.14,4.27-2.38-.47-2.86-3.49-5.22-4.09ZM98.61,242.55c.13.58-.13.79-.43,1.19-.73,1-2.38,2.96-3.26,3.83-.31.31-.51.69-1.04.58-.27-.24,4.16-5.32,4.72-5.61ZM67.63,281.09c.75-.73.65-1.51.95-1.86.39-.47,4.95-4.78,5.68-5.39.33-.28.48-.72,1.03-.59-.57.98-.52,2.24-1.06,3.22-.37.69-5.98,8.1-6.43,8.48-.69.57-2.58,1.18-3.3.73-2.69-1.72,2.24-3.74,3.12-4.59ZM62.14,289.76c.61-.79.45-2.05,1.64-1.75l-.59,2.95-.73-.59c-1.1.37-1.15,4.55-1.92,4.13l-.58-1.17.55-.13c-.83-1.43.88-2.45,1.63-3.44ZM44.74,382.5c-1.31,0-2.83,1.66-3.42,1.6-.57-.05-2.94-1.16-3.44-1.55-.24-.19-.54,0-.37-.67,2.89-.52,6.02.09,8.72-1.17l.58-1.79c1.77.3,2.33,3.84,2.5,5.32-.16.18-3.62-1.73-4.57-1.73ZM50.79,377.15h.88c.81.79-2.44,5.95-.88,0ZM56.49,381.84c-.47.12-1.2-.37-1.26-.75-.33-2.06,7.98-3.38,8.84-.7-1.62-.4-5.27-1.2-6.58-.01-.38.34-.28,1.28-.99,1.47ZM61.71,373.02c-.38.77-4.28,1.15-4.43.44-.38-1.82,3.6-.3,4.43-.44ZM73.02,361.81c.51-.26.47-3,2.27-2.37-.02,1.03-.23,2,.74,2.66l.18-2.04c1.12-.18,3.11-1.25,3.96-.02.29.42-.37,3,1.33,2.2l-.3-2.21c.78-.1,5.12-.88,4.29.6l-2.52,2.2c-.2,1.12,2.42-.2,2.78-.12.91.59.45,1.33-.41,1.61-1.35.44-1.86-.29-2.81-.31-3.1-.08-6.13.27-9.16.17-1.77-.06-3.5-.52-5.33-.33-1.03.11-2.14.87-2.59.83-.52-.05-2.07-.86-2.56-1.26,1.36-.82,3.03-.28,4.54-.48.91-.12,5.02-.84,5.59-1.13ZM73.72,353.27c2.08-.55,1.43,5.93-.81,3.67-1.04-1.06-.44-3.34.81-3.67ZM77.57,355.37c1.19-.26,1.72.05,2.43.97-.79.85-2.54,2.57-3.31.96-.49-1.01-.22-1.69.88-1.93ZM87.83,345.27c1.08.27-1,1.53-.72,2.48.29.97,3.25-.25,2.61,1.76-.42,1.31-3.33.3-4.39.78.32-.61.95-.93,1.12-1.68.26-1.16-.87-3.89,1.39-3.33ZM85.92,357.67c-2.22.21-3.62.1-4.44-2.2-.6-1.68-.14-4.17,2.02-3.64.45.79,2.99,5.26,2.42,5.84ZM59.5,383.64c-.45-.11-.52.21-.44-.58,1.58-.33,3.24-.75,4.87-.59.69.07,2,.24,1.92,1.18-2.06.4-4.3.49-6.35,0ZM74.28,379.21c-.53-.07-1.01-.61-1.64-.75-1.03-.22-3.51-.45-4.24-.78-.68-.3-.51-1.29-1.1-1.85-.61-.58-2.34-.92-2.86-1.41-.32-.31-.45-.82.07-1.1l11.58,4.65c1.94,1.09-.92,1.36-1.81,1.24ZM81.2,371.84c2.43,1.4,5.31.74,7.97.89v.88c-2.44,0-7.35,1.53-7.97-1.77ZM90.05,369.18l-2.51.88c-2.19-2.6,3.59-1.8,2.51-.88ZM98.17,385.71h-5.61l-.3-.59c.26-.36,4.27-.67,5.04-.6,1,.08,1.87.25.87,1.19ZM103.78,386.3c-.28-.02-2.53-.23-1.92-.88,1.92-1.32,3.1.3,4.87.29,1.49,0,3.7-1.57,4.57.89-2.44-.19-5.12-.1-7.52-.3ZM110.87,381.56c-1.5-.14-2.92.33-4.14.31-1.39-.02-3.6-.82-4.78-.8-.67.01-1.48.65-2.33.77-1.49.21-4.59.13-5.94-.5-.72-.34-1.27-1.18-2.09-1.46-1.25-.43-2.88-.17-4.04-.39-.65-.12-1.02-.74-1.8-.86-.6-.1-2.89.33-2.2-.76,1.18.15,1.85-.84,3.1-.76,1.36.09,1.22,1.11,1.7,1.42,1.02.67,2.74.02,3.89.08,2.79.14,6.46,1.82,9.17,1.78.78-.01,1.26-.6,2.04-.61,1.86-.02,4.44,1.18,6.31,1.32,1.6.12,6.08-1.1,5.95,1.05-1.76.36-3.24-.45-4.86-.6ZM102.37,374.73c-1.99-.28-3.88-2.51-6.09.24l-.77,2.47c-.95-.51-1.83-2.64-1.29-3.5.2-.32,6.08-.88,6.69-2.91.35-1.16-.05-1.98-1.28-2.14-.65.02-1.13,1.1-1.89,1.34-1.73.53-4.77-.07-6.21-1.2.36-.57.8-.39,1.32-.45,3.45-.4,9.36-.91,12.68-.28.61.12.97.7,1.48.75.81.07,1.81-.76,2.37-.75.35.01,1.38.67,2.14.79,1.07.18,2.99-.4,3.02.96-1.92,1.17-4.29-.64-5.77-.56-.54.03-.93.66-1.52.8-1.66.39-4.31-.74-5.09,1.36,1.55.85,3.25,3.49.21,3.07ZM111.02,376.1c-1.1-.24-2.3-.23-3.41-.44-.48-.09-.51.2-.45-.58,2.61-.71,5.14.61,7.57.86,1.42.15,3.02-.41,4.54.32-1.07,3.02-5.89.35-8.25-.17ZM137.39,391.87c-1.16.16-1.63.21-2.77.49-1.15.28-1.89-.56-.36-.96,1.42-.36,3.02-.43,4.49-.38.25.76-.88.78-1.36.85ZM137.79,385.78c-1.64.36-2.35,1.52-4.05-.22.7-.87,1.77-.09,2.78-.14,1.18-.05,2.78-.45,4-.6-.02,1.37-1.78.75-2.73.95ZM137.41,381.86c-2.06.07-4.25-.16-6.18.02-2.64.24-1.91.5-4.74.01-2.11-.36-4.55,1.04-6.14.24-.25-.13-1.45-.92-1.37-1.28,1.85.09,3.58.58,5.47.45,1.72-.11,3.54-.78,5.29-.91,5.41-.39,11.33.27,16.78.06l.49.83c-3.16.66-6.4.47-9.6.58ZM147.22,365.39c-3.67,1.2-8.01-.04-11.81-.16-1-.03-2.85-.5-1.82-1.65,2.11,1.22,4.24,0,6.47.31,1.93.27,2.72.7,4.97.5.86-.08,1.69-.79,2.57-.38,1.15.53.56,1.08-.38,1.39ZM140.67,361.51c-1.59.14-10.25.73-10.77,1.92-.06.14-.12.74.17.75.16.11,2.19.41,1.31,1.02-1.14.8-4.43.78-5.68,1.33-.42.19-.33.92-.91.85-2.15-1-3.9-2.65-6.4-2.63.52-.96,3.38-6.95,2.95-7.38-4.17-.51-2.88,5.91-4,7.36-.69.9-4.23,1.42-3.97.17.58-.85,1.81-.91,2.34-1.82.36-.62.07-1.38.38-2.25.25-.7,1.11-1.94,1.59-2.56,1.35-1.73,5.93-4.81,6.46-5.94.18-.38.21-.76.15-1.17-1.11-1.65-6.71,4.06-7.49,5.04-1.43,1.79-2.66,3.81-1.95,6.17-1.46-.27-2.57-1.07-4.1-.26-.34.54.65,2.1-.09,3.31-.59.96-1.47.21-2.45.19-4.81-.14-10.05-.4-14.78-.3-.83.02-1.05.59-1.59.77-1.82.6-2.16-1.31-.14-1.62,4.19-.64,9.18,1.34,13.41-.46.91-.77-.28-1.51-.31-2.06,0-.17.46-.12.58-.38.69-1.49,1.66-3.64,2.72-4.9.68-.82,1.96-1.25,2.27-2.46-.73-2.04-2.28-.34-3.21.63-2.11,2.22-3.09,5.36-4.91,7.79-3.03-.74-10.11.07-12.61-1.48-.53-.33-2.06-3.82-2.39-4.69-1.97-5.27.18-2.96,2.78-4.88.65-.48,1.58-1.77,1.45-2.57-.09-.59-.83-1.11-1-1.67-.45-1.47.19-3.88,1.47-4.76,1.82-1.25,1.28,2.39,2.82,2.38.41-1.29.33-2.78.82-4.05.34-.86,1.94-3.05,3.02-2.59-.02.54-2.36,3.9-1.04,3.97l7.97-7.95.29,1.18-9.6,10.46c.66.72,1.99-.13,2.65-.6,2.45-1.75,3.52-7.17,6.66-2.5.76-.69.27-1.65.66-2.58.14-.34,1.21-1.57,1.56-1.98.66-.79,6.17-6.33,6.63-6.35.19,0,.54.42.3.88-.34.66-1.96,1.97-2.57,3.04-1.23,2.14-.81,3.76-2.76,5.51-.49.44-2.57,1.63-2.65,1.77-.35.58.07,1.49-.28,2.08-.33.56-2.01.46-1.63,1.76,2.88-.16,4.03-3.49,6.28-5.08,1.46-1.04,3.18-1.57,4.8-2.29l1.61,1.32c-1.16,1.38-2.88,2.59-3.95,4.01-.45.59-1.53,1.77-.62,2.33,1.5-1.29,3.52-2.56,4.88-3.97.6-.63,1.81-2.75,1.96-2.84.51-.31,1.99-.35,2.84-.63,3.01-1.01,3.08-3.69,5.97-.23,1.42,1.7,1.59,3.58,4.2,4.07.69.13,2.02-.08,2.38.13.13.08.22.6.49.82,1.54,1.23,2.82,3.05,4.88,2.96.09.07-1.34,1.26,0,1.92,1.73.86,2.1-1.71,2.74-2.43,1.05-1.17,4.27-2.85,5.66-4.22.88-.87.94-2.39,2.51-2.06l-.86,1.29.86.93c-1.94,1.61-2.56,3.96-4.14,5.89-.94,1.16-2.56,2.25-3.37,3.42-.48.69-1.16,1.72-.16,2.21,1.82.26,2.46-1.93,3.56-2.65.46-.3,3.57-1.68,3.96-1.65l.15.59c-1.17.15-1.41,1.41-2.21,2.08-1.96,1.63-1.89,1.23-3.69,3.39-1.01,1.21-2.67,2.12-2.36,3.98.79.8,3.75-2.81,4.42-3.4.69-.61,4.69-3.99,5.18-3.99,3.04,2.02-.29,2.95-.45,4.61-.13,1.29,1.03,2.14,1.18,3.37-4.26.11-8.58.23-12.84.59ZM124.58,337.3c-2.64-.57-4.24,2.15-6.79,2.36-.12-.68.17-.91.58-1.34,1.18-1.25,4.18-2.45,5.47-3.96l.69,1.27-.84,1.07.89.59ZM121.23,334.25c-1.17,1.04-2.81,1.84-4.04,2.9-.43.37-.67,1.13-1,1.36-.61.43-2.05.35-2.83.57-.06-.45,0-.7.27-1.05.26-.35,3.43-2.08,4.29-2.79,1.23-1.01,3.37-3.84,4.42-4.43.58-.33,1-.34,1.64-.28.41.39-2.35,3.36-2.76,3.73ZM130.78,330.66c.7-.58,3.72-4.24,4.42-3.69-1.41,3.02-3.9,4.23-6.34,6.2-.99.8-1.78,2.58-3.12,1.33-1.52-1.42.71-2.51,1.64-3.4l.44,1.18c.45.44,2.53-1.27,2.95-1.62ZM128.41,328.59c.27-.55,2.6-4.04,3.26-3.39.36.35-2.38,4.27-3.09,4.13-.55-.1-.34-.4-.16-.74ZM127.89,336.18l3.47-2.12c.03.45.61,1.5,1.2,1.04.29-.22,2.63-5.45,3.29-6.45.92-1.39,2.02-2.78,3.9-2.55,2.89.35.11,3.46.77,4.12,1.33.64,2.91-2.52,3.68-2.36,1.01.2.16,2.37-.14,2.95,1.39-.23,2.3-1.72,3.83-1.47.58.53-2.2,2.52-2.55,2.93-.66.12-1.19-1.66-2.18-1.03-.18.12-1.65,3.1-2.11,3.8-.71,1.06-3.27,4.89-4.66,4.2-1.42-1.09-.44-1.77-.31-3.11l-2.67-.17c-.12.08-.43,1.96-.36,2.13.57,1.37,2.79,1.82,3.04,3.34-1.65.23-2.32,1.93-4.13,1.48.62-2.34-1.8-2.82-1.31-5.03-.65-.99-3.25,1.76-2.76-1.71M146.87,339.67c.37-.11.59.07.43.43-.29.67-2.96,3.45-3.66,4.31-.33.41-.68.91-.77,1.45-.53-.42-2.09-.53-2.37-.72-.32-.22-.19-.9-.31-1-.6-.53-4.16.55-1.86-2.67,1.11-1.56,3.3-4.36,4.56-5.77.29-.32.79-1.04,1.26-.99.67.06,2.06.71,1.94,1.51-.22,1.44-4.69,5.29-4.68,7.59.94.76,4.39-3.81,5.47-4.12ZM150.16,333.78c2-.35.16,5-1.49,4.38-1.46-.79.58-4.22,1.49-4.38ZM157.18,353.51l1.94-.28c.77,4.01-3.13,1.97-1.94.28ZM159,361.96l-.48.58c-1.83.82-3.6-3.09-3.25-4.58,1.48-.29,3.89,2.87,3.72,3.99ZM156.33,337.33c-1.11.51-1.65-.21-2.01-1.29-.57-1.72.92-3.75,2.72-3.75.31,1.56,1,4.25-.71,5.03ZM155.59,346.29c1.61,1.44-2.45,3.94-2.96,3.41-.51-.54,1.92-4.15,2.96-3.41ZM152.84,345.12c-.22.54-2.16,3.48-2.88,2.81.4-1.08,1.79-4.87,2.88-2.81ZM151.74,340.4l1.32-1.62.65.73c-.04.24-.14.46-.3.65-.36.41-1.3.99-1.67.24ZM153.66,330.51c-.89.07-1.27,1.68-1.36,1.74-.79.51-1.35-.7-1.02-1.44.6-1.18,2.94-1.01,2.38-.3ZM153.51,379.81c.53-.45,2.52.31,2.36,1.03-.31,1.39-2.55-.81-2.36-1.03ZM156.17,368.3l3.25.29v.88c-1.09-.01-3.07.33-3.25-1.18ZM157.94,340.55c-.19-1.23,1.57-2.18,1.71-3.16.27-1.8-1.59-4.38,2.67-3.29.15,1.07-.12,2.54-.74,3.43-.53.76-1.49.86-2.08,1.35-.42.35-.8,1.48-1.56,1.68ZM161.18,347.93c-.1,1.22.13,3.02-1.47,2.95l.15-2.36,1.33-.59ZM161.81,363.24c-.19-1.14-1.17-1.64-1.68-2.6-1.37-2.64-.18-5.66,1.77-2.36.82,1.38.79,3.12,1.93,4.26l-2.03.7ZM163.66,356.18c-.87.16-2.74-3.72-1.43-4.12,1.24-.37,3.57,3.34,1.43,4.12ZM166.79,338.48c.12.92-.27,2.39-1.07,2.92-2.64,1.75-1.22-3.84,1.07-2.92ZM166.79,346.45l-.33,1.29c-.38.28-.7,2.21-1.29,1.95-1.06-.47.29-3.69,1.62-3.24ZM169.73,372.29l-1.31-1.56c-1.21.26-.9,1.57-2,2.06-1.61.72-2.14-.68-1.51-.95,2.47.42,2.52-3.29,3.94-3.71.42-.12.89.19,1.4-.04.68-.31.81-1.19,1.44-1.55.46-.1,2.34,1.88,1.89,2.35-1.76-.35-5.02-.91-5.31,1.48,1.14-.07,2.21.5,2.95,1.33l-1.48.6ZM170.04,343.64c-2.1.61-1.33-3.22.58-3.09.44,1.87-1.45,1.37-.58,3.09ZM171.22,348.81c.07,1.07.14,1.95-.97,2.43-2.43,1.05-1.49-3.21.97-2.43ZM167.96,355.44c.07.83,1.27,1.05,1.2,1.93l-1.47.46-.6-.32c.94-1.48-1.34-5.47,1.33-5.17,1.78.2-.54,2.19-.46,3.1ZM175.35,362.39c-1.46.43-2.88.7-3.83-.73-.02-.69,4.01-.83,3.83.73ZM174.46,351.47c-.04,1.28-.62,2.45-1.62,3.24-1.18.04,1.02-3.89,1.62-3.24ZM171.22,382.91c.21-.91,3.06-.85,2.95.44-.94.04-2.64.95-2.95-.44ZM173.79,395.25c.22.18.34.74.67.94-.43.5-1.09.81-1.75.73l-.31-2.06c.5-.03.99.06,1.39.39ZM173.13,402.19l-.43-.69c.23-.25.44-.57.8-.68.45-.13,3.03-.24,3.03.38l-3.4.99ZM187.69,403.79c-1.4.5-3.17.78-4.66.81-.17-.68.29-.7.81-.8,1.42-.28,3.07-.19,4.5-.67.14.82-.17.5-.65.66ZM194.34,400.13c-1.74.18-3.5.15-5.24.36-.95.12-6.1,1.73-6.38.41-.21-1.01,2.93-1,3.56-1.16,1.42-.36,2.92-1.14,4.3-1.31,2.77-.34,5.59.57,8.38.27l-4.62,1.44ZM207.23,392.04c-3.22,1.49-6.98,2.33-10.48,2.81-1.3.18-3.43,0-4.66.36-.94.27-.72,1.64-2.46,1.69-1.04.03-1.58-.63-2.3-.58-.54.04-1.02.6-1.5.58-.17,0-2.77-.5-3.19-.59-.17-.03-.53-1.03-1.22-.87l-.91,1.46c-.49.26-.92-1.15-1.03-1.47-1-.32-.47,1.34-1.07,1.49l-1.98-.05c-.74-.24-.5-1.65-.45-2.29,1.55-.4,3.19-.37,4.75-.7.98-.21,2.3-1.02,3.06-1.1,1.44-.15,2.51,1.56,4.07,1.45l19.96-2.92c.14.77-.14.52-.59.73ZM180.66,349.11c1.34-.14,3.79,1.32,4.01,2.66.08.47-.18.64-.18.73v4.28c-.68.14-.47-.07-.67-.38-.54-.86-.73-2.2-1.34-3.08-1.15-1.64-1.74.3-2.19,1.47-.37.96-.35,3.7-1.71,1.55,1.18-2.26,2.73-4.61,2.07-7.24ZM186.42,374.76c.67.03,1.4,0,1.32.91-1.14.11-2.33.68-3.42.87-.92.16-1.94-.12-2.87.09-.65.15-3.64,2.78-4.34,1.26l3.1-2.2c2.08.43,4.25-1.01,6.2-.92ZM185.73,357.23l.84-3.11.9.13c.89.65-.03,4.89-1.74,2.98ZM184.5,379.65c-.37-.92,2.87-.76,3.24-.73.54.45-2.59,2.36-3.24.73ZM182.73,382.46c-.17,1.4-1.72,1.26-2.65.88.46-.88,1.79-.89,2.65-.88ZM177.86,352.64c-.61.01-.96-3.56.74-2.94-.02,1.1.32,2.24-.74,2.94ZM178.23,370.15c.81-.12,1.61-.11,2.43-.08.22.74-.64.73-1.11.8-.81.12-1.61.11-2.43.08-.22-.74.64-.73,1.11-.8ZM190.4,374.78c.69-1.29,2.58-1.17,3.84-1.17-.71,1.13-2.63,1.06-3.84,1.17ZM196.78,358.55c-.21-.65-1.32-1.07-.33-1.76,1.85.66,1.25,3.08,3.4,3.24-.03,1.36-1.61.99-2.43,1.25-.75.24-1.48,1.45-2.29.36-.13-.61,2.09-1.77,1.66-3.1ZM200.44,374.79c.22-.17.88.28.88.44v7.08c-.07.25-.57.54-.88.44-.25-2.04.35-4.99-1.77-6.05.78-.74,1.78-.56,1.77-1.92ZM206.79,346.75c.32-.07,1.54,1.81,1.59,1.98.19.69-.7,1.13-.78,1.74-.1.81.86,2.32.51,3.36-.66.79-1.74-3.4-1.76-3.72-.04-.54.22-.97.23-1.44.01-.43-.61-1.73.21-1.92ZM207.97,358.84c-.95-.95-.7-2.09-.44-3.24,1.06.15,1.16,3.27.44,3.24ZM210.18,351.17c-1.13-2.4-.11-4.92-1.04-7.37-.63-.87-1.22.36-1.91.29.13-2.97-1.04-5.71-1.63-8.55-1.02-4.91-1.8-9.88-2.94-14.77l-1.03-.89c-.59,1.29.26,2.34.32,3.65-3.28,1.09-.39,5.19.25,7.44.67,2.31,2.89,11.94,2.67,13.83-.17,1.4-1.69,2.13-.29,4.01l-1.17,1.03c.2,1.03,1.47,3.59,1.47,4.43v4.28h-.88c.14-1.77-1.24-8.75-2.84-9.41-.38-.16-.83-.16-.71.41l.6,7.52c-1.12.22-2.12-.38-2.58-1.41-.68-1.53.29-3.87-1.26-4.21.05-.64,1.11-.42,1.2-.76.21-.77-.54-3.36-.61-4.4-.18-2.68.33-4.82-.8-7.46-.5-1.17-1.11-1.44-1.28.07-.24,2.12.08,5.27-.01,7.69-.05,1.41.88,2.78-.71,3.98-.61-.55-1.17-1.07-1.31-1.93-.13-.81.4-4.38-.62-4.13-2.83,1.42-.42,4.63-.73,6.95-1.67-.82-1.7-2.48-2.2-4.01-1.99.49-4.92-.82-6.21-2.34-.45-.53-.71-1.58-1.31-1.94-.58-.35-1.17-.19-1.64-.42-.49-.25-.61-1.16-1.08-1.3-.51-.14-1.32.51-1.82.22-.17-.1-1.4-2.38-2.43-3.04-1.17-.74-1.65.14-2.63-.3-.18-.08-2.65-1.89-3.1-2.22-.7-.51-1.41-1.9-2.34-1.78-.52.07-.85.78-1.34.48-1.13-.56-1.47-2.6-2.25-3.09-.78-.5-2.16-.32-3.05-.79-.95-.5-1.96-2.8-2.89-3.04-.66-.17-1.31.46-1.85.12-.51-.32-1.36-2.51-2.37-2.96-.91-.41-1.65.25-2.45-.18-.78-.41-1.44-1.64-2.11-2.05-.6-.36-1.26-.34-1.92-.74-.97-.6-1.56-2.17-2.81-2.23-.5-.03-1.08.32-1.45.26-.57-.1-.93-1.31-1.65-1.11-.69,3.26-2.16-.33-3.53-.75-1.09-.34-2.43-.03-3.56-.13.29-1.77,1.52-5.7-1.18-5.9-.38,1.39.26,6.82-2.08,6.08-2.24-.71-.8-4.2-2.47-3.69l-1.34,3.39c-3.5-.22-5.21,2.41-7.83,3.98-.67.4-1.51.44-2.09.87-.65.48-.68,1.24-1.16,1.79-2.73,3.16-6.06,5.52-9.61,7.51-1.02.57-3.88,2.49-4.72,2.69-.42.1-.41.06-.74-.15-2.44-1.58.18-5.46.44-7.56.17-1.32-1.69.39-2.02.94-1.38,2.34-1.09,5.48-1.37,8.07-1.04.58-1.96,1.44-2.94,2.07-.31.2-.3.44-.75.15-1.5-.95.47-6.37-.73-6.35-2.76,1.65-.53,7.55-2.59,8.94-3.1,2.1-1.44-4.2-1.69-5.56-.24-1.3-1.34-.86-1.69.37-.82,2.87.77,7.45-3.6,7.74-.86-2.63.04-5.31.28-7.96-2.38.15-3.03,4.4-2.97,6.35.06,2.02,1.61,4.5-1.86,4.53l-.44-.45c-.05-1.26-.09-2.54-.05-3.81.03-1.23,1.08-3.76-.43-4.27-1.38.29-1.7,5.97-1.64,7.24.05,1.12,1.06,2.87-.28,3.54-2.28,1.14-1.87-3.8-1.74-4.99.07-.66,1.59-4.48-.33-3.28-1.92,1.2-1.61,7.37-1.22,9.4-4.5,4.15-3.23-.72-3.52-3.76-.06-.67-.49-1.3-.57-2.09-.12-1.18.09-2.5,0-3.69l-.86.02c-2.09,4.33.37,8.55-.63,12.95-3.91.64-2.09-4.06-2.69-5.99-.48-1.54-1.58.19-1.71,1.15-.14,1.07.2,2.52-.08,3.46-.27.92-1.74.87-.9,2.79.25.56,1.81,1.48.96,2l-2.06-.32-1.03,1.93c-1.06-1.36.76-2.59-1.05-3.97-1.03-.78-.99.1-1.75.31-.5.14-1.04-.36-1.51.25-.88,1.15.59,2.04.59,2.98s-1.23,2.2-1.9,2.8c-.64.14-.43-.83-1.17-.91-1.14-.13-3.16.26-2.24,1.67.74,1.13,2.12.4,2.7,1.13l.26,1.95c-1.06-.33-2.54-.35-3.14-1.14-.74-.98-.99,2.03-1,2.46-.08,2.45.18,5.88,2.67,2.52.19,2.83-.77,6.45-4.13,6.49.7-1.41,1.34-2.94,1.18-4.56l-2.07.14c.08-.98-.22-1.92-.22-2.88-.01-5.45-.6-10.95-.38-16.46.14-3.5,1.27-8.45.88-11.78-.05-.43-.56-.78-.53-1.15.04-.49.82-.97.83-1.52,0-.46-.46-.83-.5-1.22-.16-1.48.71-3.71.52-5.59-.1-.98-.69-1.75-.55-2.56.68-4.01,2.7-7.69,3.86-11.51,1.3-4.27,1.93-10.66,4.11-14.49.71-1.26,2.09-2.36,2.76-3.74.68-.16.49.63.42,1.01-.21,1.09-1.18,2.57-1.54,3.77-1.14,3.73-3.33,10.18-3.98,13.73-.1.54-.44,2.14.52,1.85l10.04-21.55c.98-.19.41,1.05,1.62.91.49-.16,1-.8,1.33-1.2.41-3.23-1.41-1.96-2.65-.3-.53-2.12,1.08-2.6,1.9-3.85.65-.99.99-2.51,1.68-3.63,2.48-4.01,6.29-7.35,8.94-10.84.64-.84,4.5-7.44,4.75-8.23.21-.64.33-1.32-.31-1.78-.98-.05-3.29,3.63-3.98,3.98-.52.26-.56.06-.88-.3l11.2-13.88c.33-.04,1.11.07.89.59-.31.72-2.72,3.03-3.37,4.01-.39.58-2.01,3.28-1.64,3.82h2.07c-.74-1.87.7-1.92,1.78-3.09.66-.72,2.65-2.82,3-3.49.59-1.13.3-2.97.44-4.26,1.76-1.69,4.25-2.4,3.33-5.39,1.13.31,2.12.59,3.11-.29,1.57-2.68,3.79-4.47,5-7.39.26-.63.38-2.02.71-2.47.31-.42,3.96-.69,2.67-3.12l-2.05.28c-.3-.28,1.88-3.75,2.95-3.24l-.15,3.83c1.43-1.06,2.83-2.54,3.69-4.13.62-.03.17.82.06,1.1-1.62,4.23-6.84,12.07-9.95,15.43-1.11,1.2-6.39,5.39-6.29,6.59.06.74.63,1.28,1.4.93,2.06-.92,6.26-6.34,8.43-8.11,2.69-2.19,4.18-1.85,1.18.88-6.37,5.81-15.86,13.65-21.23,20.09-.79.94-4.64,7.58-4.01,8.24.76.17.75-.13,1.13-.49,1.26-1.17,3.26-5.47,4.62-5.71.41-.07.57.02.44.44-.14.48-2.52,3.45-3.07,4.31-2.7,4.27-4.65,7.97-6.55,12.64-.1.26-1.59,1.58-.56,1.8,1.72.36,1.77-1.89,2.25-2.77,1.02-1.89,3.37-5.61,4.62-7.48,1.51-2.27,4.02-3.75,5.22-6,.32-.6,1.77-3.04,1.82-3.22.18-.61-.22-1.1-.06-1.78.11-.45,1.53-2.82,1.94-2.36.22.73-.59,1.57.16,2.07,1.02.15,3.33-2.99,3.57-3.83.21-.77-.65-1.15-.34-1.77.11-.22,2.16-2.2,2.43-2.35.69-.36,1.7.21,2.18-.52,1.05-1.57-1.13-1.2-.46-2.45.53-.99,4.6-3.78,5.76-4.87,1.01-.94,5.62-5.64,5.3-6.76l-.72-.48-1.62.16c.9-1.23,2.72-1.8,3.67-2.82,1.26-1.36,1.46-3.75,2.27-5.41.67-1.38,2.3-2.87,2.33-4.45.03-1.63-1.21-3.39-.61-4.99.25-.44,1.71.12,2.51-.79.41-.46,1.35-3.28.76-3.69-1.18-.54-2.45,1.36-3.41,1.34-.74-.02-1.63-1.84-2.79-1.47-.38,2.86-1.83,5.33-4.73,6.19-.58-.56,3.07-3.52,3.21-4.04.27-1.02-1.2-1.56-1.15-2.57.04-.82,1.1-1.69,1.41-2.46.64-1.6.57-10.21.34-12.29-.28-2.47-1.45-5.54-2.04-8,.21-.41.58.38.65.53.24.48.93,2.85,1.27,2.85,1.87-1.36-.92-3-1.26-4.64-.22-1.03-.07-2.05.23-3.03,1.1-.79,2.18,4.38,2.39,4.84.35.77,2.49,3.03,2.02,3.7-1.29.31-2.12.85-.68,1.75,1,.63,1.48.04,1.8,1.74.53,2.73-1.16,2.06-1.4,4.36-.13,1.27-.29,7.42.26,8.24,1.12.94,2.1-1.24,2.1-2.04v-6.94c1.69,1.64,1.32,4.66,1.91,6.8.66,1.03,3.09-.96,3.24-2.33.2-1.78-1.13-9.36-2.78-10.23-2.63-1.39.62,4.19.79,4.81.19.69.72,2.14-.21,2.43-.1-2.76-2.12-4.88-2.77-7.42-.47-1.85-.17-5.07-.71-6.38-.32-.79-2.38-3.02-3.03-4.05-2.55-4.03-5.14-8.27-7.3-12.47-.29-.56-.34-1.52-.68-1.97-.39-.52-1.21-.46-1.92-1.04-2.61-2.13-1.51-4.88,1.2-2.38,1.75,1.61,1.21,2.31,4.27,1.19l.31,1.47-1.44.34c-.77,2.86,1.6,3.46,2.75,4.99.72.96.75,3.02,2.01,2.89,2.18-.23,2.14-1.39,1.85-3.2l5.46,4.28-1.06.42c-.45,3.02,5,2.75,4.01,5.92l-2.95-2.21c-1.27-1.41-3.26-3.58-5.23-3.93-3.73-.67,1.94,3.35,2.18,3.58,1.29,1.28.95,2.96,1.01,4.6,1.79-.1,2.73.76,4.37,1.23.18.72-.09,1.32-.71,1.71-.45-.43-2.98-2.15-3.39-1.74-.13,1.66,1.62,2.59,2.19,3.86.83,1.85.79,2.68,2.38,4.41,1.85,2.02,1.92,1.39,4.07,2.13,1.88.65-.16,1.83-.04,2.67.1.68,1,1.17,1.07,1.58.06.32-.24.82-.17,1.36.27,2.01,2.72,3.25,2.86,3.96.12.61-1.13,1.4-.21,3.17.15.29,3.66,3.88,3.93,4.04,1.64.94,1.82,0,1.94-1.49.17-.17,2.67,2.49,4.34,1.09.88-.73,1.62-4.08,2.44-.21-7.17-.15,1.05,6.62.29,7.38-3.55-.24-3.35-4.34-6.66-4.71-.71-.08-.45.41-.29.88.72,2.12,6.77,9.17,8.77,9.83.57.19,1.13.22,1.72.2-.39,1.38.53,2.86.57,4.01.02.51-.28.98-.28,1.46,0,2.11,3.6,3.63,4.74,5,1.14,1.37,1.47,4,2.65,5.32.62.7,1.8,1.04,2.51,1.62,1.42,1.15,2.08,2.85,3.84,3.53,1.13-.81-.23-1.53-.44-2.21-.42-1.34,2.24.93,2.32,1.83l-.84,1.13c.89,1.25,2.64,1.5,3.68,2.51.89.86,1.39,2.38,2.22,3.39,1.06,1.29,2.77,2.11,3.66,3.42.21.3.65.74.17,1.01-1.3.69-1.47-.66-2.09-1.16-3.12-2.46-3.61-2.77-6.32-5.78-1.13-1.26-3.79-2.68-2.74.08.63,1.66,3,4.23,4.38,5.36,3.3,2.69,6.33,5.56,9.02,9,.96,1.23.24.39.62,1.7.39,1.33,3.76,5.88,4.9,6.64.35.23.64.45.49-.2-.36-1.58-2.93-5.86-4.01-7.21-1.2-1.5-.43-.69-.86-1.79-.48-1.24-2.79-2.65-3.39-4,1.1-.33,2.57,1.2,3.4,1.91,5.45,4.71,8.73,10.83,12.23,16.99.68.8,1.47.34,2.23-.09.7.05,2.84,5.39,3.34,6.33.69,1.31,1.68,2.42,2.37,3.83,1.09,2.21,4.51,13.09,5.64,13.84.66.43,1.49-.95,1.47-1.49-.03-.9-2.83-4.34-2.05-6.05.86.5.78,1.8,1.23,2.76.39.82,1.6,1.58,1.65,1.85.07.34-.28,1.71-.2,2.59.5,5.69,2.87,12.42,4.02,18.11.33,1.65-.26,5.11,1.84,5.68.53-2.41,1.96-4.66,1.47-7.22-.26-1.34-1.83-.92-1.48-3.85.09-.72.45-1.14.58-1.77.27-1.21-.23-2.68,1.78-2.79.12,2.08.78,4.28.9,6.34.18,2.91-.37,5.71-.32,8.59.02,1.53,1.11,2.84-.89,3.25.46,1.83.78,3.36.61,5.29-.03.33-.5,3.21-1.17,2.51ZM112.08,234.04l.94.64-1.87,2.56c-.86.03.21-3.09.93-3.2ZM210.48,408.73c-.07-.41.52-.43.82-.5,1.08-.26,1.98-.26,3.1-.74.69-.29,1.03-1.44,1.65-.33.76,2.42-4.17,2-5.57,1.58ZM230,395.01l1.28-1.62.14,2.36-1.43-.73ZM240.24,408.24c-.85.19-1.92.34-2.8.45-1.31.16-3.53.66-4.53-.11-.14-.71.57-.42,1.03-.44,2.64-.1,5.2-.48,7.82-.59-.05.48-1.13.6-1.52.69Z"/>
        <path class="cls-1" d="M119.56,179.68c1.05-1.09-4.27-7.99-5.3-9.01-.87-.86-1.77-1.5-2.38,0,0,.25.14.45.23.66.28.68,4.71,6.56,5.38,7.17.56.52,1.27,1.3,2.06,1.18Z"/>
        <path class="cls-1" d="M66.87,299.44c.84.13,1.19-1.76,1.71-2.2.87-.74,3.31-.68,4.05-2.3l-.59-.29.59-1.32c-2.21-.48.83-2.3,1.1-2.74.19-.31.03-.85.35-1.28.21-.28.89-.32.93-.6.09-.56-.55-1.32-.56-1.79-.01-.7,1.62-1.26.39-2.15-.96.83-1.71,1.84-2.45,2.85-1.82,2.48-3.54,6.14-5.37,8.36-.1.75-1.59,3.24-.15,3.47Z"/>
        <path class="cls-1" d="M69.68,12.33c.09.72,0,.47-.41.62-1.63.61-4.13.11-5.93.27-1.91.17-3.6,1.11-5.59.86-.82-.1-1.41-.59-2.37-.58-1.55.03-3.38,1.26-5.06,1.45-1.59.18-3.75.15-5.43.2-1.09.04-1.24-.73-.41-1.32,1.79-1.27,6.75-1.42,9.04-1.88,1.19-.24,2.34-1.08,3.64-1.11.99-.02,2.02.5,2.97.56,3.21.22,6.39.14,9.56.92Z"/>
        <path class="cls-1" d="M40.76,10.26c.18,1.15-1.36,1.87-2.25,2.32-2.65,1.35-5.99,1.96-8.78,3.01-.4-.98-2.23-1.84-1.52-2.98.93-.73,2-1.25,3.12-1.61.57-.18,2.65-.75,3.09-.75h6.35Z"/>
        <path class="cls-1" d="M140.84,200.08c.54-.19,2.19.14,2.27.7l-2.44,6.06c-1,.04-.18-5.94.17-6.76Z"/>
        <path class="cls-1" d="M38.98,16.46c-.26-3.1,3.27-3.24,4.72-1.03.23,1.05-3.85.83-4.72,1.03Z"/>
        <path class="cls-1" d="M39.51,23.02c.82.76-.7,3.27-2.01,2.45-1.69-2.21-.61-3.98,2.01-2.45Z"/>
        <path class="cls-1" d="M85.57,11.78l.21.86c-.19.24-1.22.49-1.57.51-.75.04-4.56-.39-3.14-1.43,1.5-.61,2.98-.08,4.5.07Z"/>
        <path class="cls-1" d="M35.44,20.3c.38,1.94-1.35,2.7-2.66,1.32.3-1.17,1.64-1.43,2.66-1.32Z"/>
        <path class="cls-1" d="M150.23,191.75l-2.03.33c-.1-1.02.63-1.73,1.33-2.36.84-.18.85,1.51.7,2.03Z"/>
        <path class="cls-1" d="M57.54,17.38c.31.63-.23,2.2-.99,2.02-1.3-1.1-.69-2.88.99-2.02Z"/>
        <path class="cls-1" d="M71.93,11.46c.91-.24,2.34.99,1,1.62-1.25.58-2.01-1.35-1-1.62Z"/>
        <path class="cls-1" d="M36.95,19.44c.69-1.11,2.47.9,1.3,1.74-.88.23-1.69-1.11-1.3-1.74Z"/>
        <path class="cls-1" d="M103.92,44.21l.02,1.46c4.02.72,7.95-.96,11.97-1.19l3.23,1.49c.55.86-1.55,1.61-2.15,1.71-1.82.31-3.26-.33-4.94-.22-2.9.19-5.12,1.31-8.57.9-.97-.12-1.46-.64-2.65-.62-2.43.04-5.14,1.73-7.82.61l.9-2.18c-.21-1.25-4.94.8-5.85.93-3.54.48-4.3-.57-7.08-1.03-1.63-.28-3.42.17-4.97-.64l.14-2.05-1.44-.77.87-.9,19.79-1.46c.59-.3.53-1.26.87-1.49,1.58-1.08,5.61,1.2,3.85,2.67-.42.35-6.76,1.43-7.86,1.58-.3.04-5.23-.11-3.37,1.08.22.14,4.52.45,5.16.44,2.61-.04,5.34-1.25,7.46-1.43.72-.06,1.19.33,2.16.12.83-.18,1.7-.99,2.33-1.54l-1.46-2.47c.78.13,2.96-.31,3.4.28.09.13-.14.6,0,.88.4.83,3.24.21,4.42.32.42.04,2.52.35,2.51.73-.64.75-1.24,1.26-2.15,1.68-.71.33-3.53,1.12-4.19,1.12h-4.58ZM80.9,43.91h4.58c.19,0,1.31-.27,1.03-.88h-1.63s-3.97.88-3.97.88Z"/>
        <path class="cls-1" d="M78.77,134c-.13-.19-.74-.16-1.14-.57-.67-.69-1.97-3.73-2.5-4.82-2.93-6.01-7.41-11.57-8.91-18.52-.21-.98-1.09-5.4.07-5.67.52-.07.58.37.75.72,1.66,3.4,2.46,8.4,4.06,12.17,1.77,4.17,4.69,10.33,7.44,13.81,1.33,1.68,3.22,3.26,4.54,4.91,1.43,1.79,2.76,5,4,6.33.79.84,1.28,0,1.89.16.56.15,1.07,1.32.89,1.97-.68,2.52-2.79.81-3.79-.53-2.12-2.86-5.07-5.53-6.97-8.68-.27-.44-.18-1.07-.33-1.29Z"/>
        <path class="cls-1" d="M99.2,137.48c.35,1.95-1.89,3.45-3.69,3.27-.63-.06-1.05-.58-1.42-.56-.43.02-1.48.73-2.41.83-3.07.33-2.97-.58-4.89-2.2-5.33-4.5-10.81-14.12-13.11-20.82-.91-2.64-1.31-6.31,0-8.85.71,2.13.75,4.39,1.41,6.56.54,1.75,1.6,3.88,2.42,5.55,3.11,6.34,7.15,12.77,11.88,17.94,1.9.03,3.75-.68,5.68-.99.61-.1,1.15.23,1.85.11.42-.07,2.08-1.07,2.29-.83Z"/>
        <path class="cls-1" d="M197.78,74.61c-.32-2.24.04-4.39.01-6.65-.02-1.33-.5-2.62-.32-4.13.09-.72.7-1.56.6-2.05-.2-1.01-1.8.99-2.38.91l-.28,8.08c-1.43.97-1.69-3.37-1.76-3.99-.35-2.94-.77-6.82-.88-9.74-.05-1.36-.02-2.65.29-3.98.56-.03,1.13.33,1.44.77.1.15,1.33,3.12,1.39,3.36.26,1.08-.6,2.67-.03,3.55.85,1.32,1.73-1.95,2.09-2.07.71-.23,1.41.76,1.54,1.38.25,1.14.93,5.34.92,6.39,0,1.06-.75,6.64-1.13,7.45-.38.81-.61.77-1.5.71Z"/>
        <path class="cls-1" d="M68.74,74.67c.22.32.57,4.03.64,4.81.45,5.18.5,8.81,1.62,14.02.53,2.45,3.17,10.6,2.61,12.34-.11.35-.23.71-.55.94l-1.42-1.53c-.63-5.73-3.06-11.63-3.7-17.25-.32-2.81-.94-9.49-.63-12.07.07-.57.17-1.06.59-1.49.15-.15.8.18.84.23Z"/>
        <path class="cls-1" d="M145.54,127.44c-.19-.67-.34-1.11-.24-1.84.28-2.08,2.6-8.39,3.41-10.78,1.28-3.76,2.84-7.95,4.29-11.65.25-.64.47-1.66,1.1-1.99.02.65.32,1.24.31,1.9-.08,3.64-5.47,20.65-7.69,23.33-.17.2-1.03,1.14-1.17,1.04Z"/>
        <path class="cls-1" d="M62.63,94.06c-.7-1.83-.99-3.78-1.21-5.73-.49-4.45-1.23-12.7.74-16.68.47-.95,1.9-1.92,2.18-.71.15.64-1.36,6.7-1.43,8.24-.07,1.39-.07,3.64-.03,5.01.05,1.57,2.02,9.01.93,9.76l-1.17.1Z"/>
        <path class="cls-1" d="M73.37,69.6c.54.35.42.78.46,1.31.16,2.1-.14,4.4-.03,6.52.26,4.79,1.76,9.77,2.07,14.45.03.5.19,2.37-.44,2.5-.58.02-.8-.65-.99-1.07-1.66-3.5-3.08-19.23-1.8-22.68.17-.45.32-.75.73-1.04Z"/>
        <path class="cls-1" d="M60.38,53.36l.66.96c-1.03,6.69-1.79,13.4-2.22,20.14-.02.35.23.75.2,1.15-.14,1.85-1.52,3-1.75.93-.5-4.39.64-10.07,1.19-14.48.16-1.26.3-8.71,1.92-8.7Z"/>
        <path class="cls-1" d="M192.17,67.23c.14.54.27,1.04.31,1.61.23,3.23-.09,9.05-.31,12.41-.06.95-.39,5.25-1.62,5.16-1.12-1.55-.12-4.08-.13-5.75,0-3.14-1.53-10.26.31-12.65.36-.47.83-.78,1.43-.78Z"/>
        <path class="cls-1" d="M70.72,52.18l.72.46c-.13,1.38-1.48,12.5-2.49,12.52-.55-.43-.84-1.01-.96-1.69-.33-1.79.74-8.15,1.58-9.79.28-.55.69-1.08,1.15-1.5Z"/>
        <path class="cls-1" d="M84.73,66.05c-.1,2.41-.73,4.83-.88,7.23-.14,2.21.18,4.61,0,6.79-.12,1.45-.69,2.04-1.23.34-.72-2.24-.35-8.15.09-10.65.1-.56.99-4.77,2.03-3.72Z"/>
        <path class="cls-1" d="M80.6,67.82c-.38,3.18-.97,6.35-1.05,9.56-.04,1.79.32,3.84.3,5.64,0,.33.03,1.63-.42,1.62-.58-1.84-1.05-3.82-1.18-5.76-.13-1.97.09-9.47,1.33-10.77.35-.37.55-.34,1.03-.3Z"/>
        <path class="cls-1" d="M109.76,166.36l-.52.34c1.02.2,1.71,1.19,1.79,2.18-.92,1-2.26.07-2.56-1-.17-.6.22-1.13.19-1.18-.25-.35-3.46-.72-3.56-3.11-.16-3.62,5.38.62,4.68,2.77Z"/>
        <path class="cls-1" d="M58.76,89.95c-.74-1.8-.4-3.67-.6-5.46-.2-1.81-.71-4-.76-5.76-.01-.41-.19-.56.32-.88l.98.49c.15,2.59.83,5.34.93,7.92.02.41.27,4.53-.88,3.69Z"/>
        <path class="cls-1" d="M113.32,143.04c-1.56.68-2.89.53-3.72-1.06-.85-1.63.04-1.03.49-1.72.51-.79.13-2.48,1.51-2.35,1.4,1.27,2.01,3.27,1.72,5.13Z"/>
        <path class="cls-1" d="M86.21,38.3c.27,1.2-1.07,1.33-1.95,1.44-1.86.22-5.84.48-7.65.34-.53-.04-.95.08-1.31-.46.32-.5.81-.38,1.27-.5,1.44-.37,8.89-1.75,9.65-.83Z"/>
        <path class="cls-1" d="M115.65,135.46c2.17-.63,4.36,3.93,1.93,4.62-2.48.71-4.22-3.95-1.93-4.62Z"/>
        <path class="cls-1" d="M111.52,132.82c.69-.1,1.47-.24,1.55.67-1.74,1.35-2.99,4.97-5.64,3.27-.43-2.01,2.26-3.69,4.09-3.94Z"/>
        <path class="cls-1" d="M118.68,141.32c.26,3.05-4,5.82-4.42,1.59-.3-3,2.68-1.42,4.42-1.59Z"/>
        <path class="cls-1" d="M98.61,76.38c-.5.09-.99-.37-1.12-.8-.36-1.22.32-6.32.83-7.61s1.06-.88,1.19.28c.29,2.43-.82,5.64-.9,8.13Z"/>
        <path class="cls-1" d="M140.4,120.38c.42-.13.86.03.98.46.18.61-.89,5.06-1.32,5.69-.65.95-1.64.84-1.59-.38.03-.84,1.22-5.56,1.93-5.77Z"/>
        <path class="cls-1" d="M172.4,69c.27.26-.31,4.54-.48,5.27-.17.7-.34,1.89-1.28,1.81-.42-.3-.34-4.05-.23-4.8.16-1.06.6-2.68,1.99-2.29Z"/>
        <path class="cls-1" d="M165.59,55.43c.23,2.17.73,4.44.3,6.57l-.73.21c-.78-1.09-1.91-6.03-.69-6.74l1.12-.04Z"/>
        <path class="cls-1" d="M105,149.09c.36.41,1.92,2.77,1.58,3.15-1.45-.61-3.98-1.81-4.49-3.33-1.08-3.17,1.98-.88,2.92.18Z"/>
        <path class="cls-1" d="M90.05,73.43l-1.73-.34c-.31-1.08.46-5.94,1.88-5.85.41.29.46.53.45,1.01-.01,1.56-.81,3.53-.6,5.18Z"/>
        <path class="cls-1" d="M77.06,63.98v-4.87c0-1.21,1.9-4.26,2.08-2.07.05.61-.96,5.91-1.25,6.44-.22.39-.32.6-.82.5Z"/>
        <path class="cls-1" d="M121.63,135.12c-3.09.43-2.26-3.34-2.36-5.31,1.91-.65,2.72,4.96,2.36,5.31Z"/>
        <path class="cls-1" d="M162.66,62.21l-1.58.32c-1.05-1.22-2.92-4.21-.38-4.69.88.19,2.19,4.12,1.96,4.37Z"/>
        <path class="cls-1" d="M117.41,158.46c.8-.21,1.83,1.21,1.87,1.92.03.66-1.29,2.57-1.89,2.47-1.37-.7-1.43-4.01.02-4.39Z"/>
        <path class="cls-1" d="M155.06,63.03c-1.05-1.14.33-4.34,1.5-4.04,2.54,1.18-.21,5.44-1.5,4.04Z"/>
        <path class="cls-1" d="M159.33,46.63c1.27-.39,3.62.28,4.51,1.27-.88.82-2.49.9-3.62.67-1.15-.24-2.56-1.42-.89-1.93Z"/>
        <path class="cls-1" d="M88.87,53.95c.22.21-1.26,5.25-1.62,5.91-.22.41.03.73-.74.58,0-1.95-.16-6.24,2.36-6.49Z"/>
        <path class="cls-1" d="M115.73,168.47c-2.13.76-4.64-2.28-2.36-3.41,1.08-.53,2.64,3.15,2.36,3.41Z"/>
        <path class="cls-1" d="M78.46,47.52c1.58,1.45-3.96,2.14-4.35.95l.29-.88c.63-.61,3.43-.65,4.06-.08Z"/>
        <path class="cls-1" d="M93.92,67.26l1.07.39c-.23.67-.33,4.85-1.54,4.59-1.06-1.44-.33-3.57.47-4.98Z"/>
        <path class="cls-1" d="M96.8,56.56h-1.1c-.8-1.59.1-3.07,1.58-3.79,1.16,1.1-.28,2.57-.48,3.79Z"/>
        <path class="cls-1" d="M82.08,61.03c-.43-.78-.17-4.68,1.03-4.43.98.21-.15,4.12-1.03,4.43Z"/>
        <path class="cls-1" d="M104.51,161.09c-1.82.83-3.8-2.19-1.65-2.06,1.02.06,1.76,1.07,1.65,2.06Z"/>
        <path class="cls-1" d="M141.11,54.24c1.83,4.03-2.01,3.85-.9.13l.9-.13Z"/>
        <path class="cls-1" d="M77.03,99.07l-.72.25-.58-.52-.15-2.65c1.53-.23,1.53,1.87,1.45,2.92Z"/>
        <path class="cls-1" d="M154.99,49.22c.51.07,2.53.6,2.36,1.33-1.43,1.46-3.08.65-2.36-1.33Z"/>
        <path class="cls-1" d="M162.93,53.92c-1.4.8-3.37-1.13-1.54-1.69,1.39-.42,1.78.43,1.54,1.69Z"/>
        <path class="cls-1" d="M115.73,133.35c.09,1.26-.82,2.15-2.06,2.07-.52-1.56.54-2.25,2.06-2.07Z"/>
        <path class="cls-1" d="M150.26,55.13l.26,2.16c-1.88,1.65-2.09-1.99-.26-2.16Z"/>
        <path class="cls-1" d="M92.11,56.9c-.98,1-.44-2.71-.3-3.11.16-.46-.02-.7.74-.43.83.3-.46,2.85-.44,3.54Z"/>
        <path class="cls-1" d="M100.67,37.12c-.53.02-2.45,1.12-2.65.15-.23-1.06,2.74-1.7,2.65-.15Z"/>
        <path class="cls-1" d="M144.66,57.78l-.3-2.36c.52-.6,2.69,2.7.3,2.36Z"/>
        <path class="cls-1" d="M187.45,310.44c-1.01,0-1.32-1.19-1.92-1.77-.23-.04-.17.26-.15.44.29,2,2.49,7.79,3.32,9.97,1.09,2.87,2.99,5.32,3.85,8.25.74,2.52,1.89,9.04,1.99,11.61.03.71-.13,1.24-.31,1.9-.74.55-2.08-7.85-3.54-7.97-.49,1.21.33,1.78.57,2.82.32,1.39.5,2.81.8,4.21.34,1.54,1.97,3.88-.3,4.14-3.24-2.74-3.06-7.21-4.05-11-2.49-9.48-6.17-17.68-9.96-26.64-1.52-3.6-3.47-6.98-4.47-10.87.04-.87,1.48.32,1.61.45,2.25,2.07,1.65,3.59,2.75,5.81.51,1.03,1.59,1.92,2.18,3.13,2.11,4.31,4.79,11.37,6.45,15.99,1.56,4.35,1.99,8.73,3.24,13.14.77.17.59-.3.79-.82.6-1.62,1.59-5.62-1.08-5.39.05-1.95-.72-4.02-1.35-5.88-1.54-4.6-7.69-15.39-6.85-19.56.06-.29.47-.58.51-.98.07-.61-2.71-6.11-3.26-6.46-.23-.14-.6-.15-.87-.16l.88-.73c-.39-.31-.55-.86-.9-1.17-2.3-2.08-2.89-4.71-4.64-7.46-2.73-4.28-6.93-7.25-10.42-10.85-.65-2.37.63-2.33,2.37-1.17,5.5,3.68,11.8,13.29,14.74,19.21,2.28,4.6,5.7,10.95,7.47,15.55.28.74.63,1.44.54,2.26Z"/>
        <path class="cls-1" d="M165.91,288.01c.41,0,.87-.07,1.26.06.64.21,4.41,6.34,4.99,7.41,3.02,5.52,10.32,23.45,10.83,29.31.41,4.73-1.9.54-2.55-1.29-3.14-8.82-4.96-17.08-9.46-25.66-1.66-3.17-4.98-5.94-5.07-9.84Z"/>
        <path class="cls-1" d="M203.33,346.09l-2.41.93c-1.47-.34-2.62-11.5-2.92-13.33-.38-2.3-.83-4.46-1.14-6.83-.11-.86-1.77-6.65.5-4.93.88.67,1.19,3.68,1.6,4.9.76,2.26,2.18,4.76,2.38,7.07.23,2.62-.54,5.89.52,8.33.57,1.3,2.29,2.18,1.47,3.86Z"/>
        <path class="cls-1" d="M128.12,268.38c-.27-1.87-1.59-3.75-1.78-6.19-.12-1.54-.37-9.28,1.37-9.59,1.98-.35.49,5.1.41,6.04-.31,3.98,1.29,6.66,1.77,10.47.78.07.48,0,.59-.45.22-.92.08-2.51-.08-3.46-.44-2.67-3.45-7.72.95-8.18.59,1.94.2,4.03.31,6.04.12,2.36.82,3.79.09,6.29-.43,1.47-1.78,4.42-3.64,3.89-.15-1.53.21-3.4,0-4.87Z"/>
        <path class="cls-1" d="M129.89,278.56c.95,3.54-.4,7.3-.3,10.76.05,1.58,1.37,8.86,2.01,10.11.43.85,1.1.88,1.26,1.99.57,4.11-2.68,3.74-3.19,1.13-.2-1.03.09-2.13-.13-3.12-.26-1.14-1.63-2.16-1.72-3.91-.07-1.4.9-1.97.84-2.6s-1.26-1.65-1.31-3.04c-.06-1.47.99-2.94,1.07-4.12.12-1.84-.08-2.24.29-4.41.2-1.16-.59-3,1.19-2.79Z"/>
        <path class="cls-1" d="M199.85,321.95l-1.45-.03c-1.2-3.96-2.95-7.76-4.46-11.62-.65-1.67-.91-3.51-1.62-5.17-1.16-2.74-3.57-5.53-3.98-8.56.86-.88,3.99,4.26,4.37,4.93,3.44,5.95,5.81,13.72,7.14,20.45Z"/>
        <path class="cls-1" d="M132.85,298.34c-.17-.64-.34-1.24-.33-1.92.08-6.65-2.24-10.81-1.42-17.97.17-1.5,1.42-2.76-.62-3.57,1.68-1.17,1.97-.25,2.28,1.26.54,2.69.81,6.3.97,9.07.08,1.42-.33,3.64-.21,4.69.06.52.89,1.38,1.16,2.04.78,1.96.74,6.06-1.83,6.4Z"/>
        <path class="cls-1" d="M49.32,349.4c-.98-1.77.48-3.09.6-4.57.12-1.36-.07-3.62-.02-5.32.17-5.26.03-10.6,1.38-15.74.1-.38.24-1.76.83-1.52l.69.8c-.37,4.47-1.04,9.02-1.42,13.51-.22,2.67.06,10.68-1.23,12.35-.26.33-.31.61-.84.49Z"/>
        <path class="cls-1" d="M66.73,316.93c.01-.81-.08-1.63.07-2.44.2-1.09,1.05-1.92,1.23-2.57.11-.39-.16-.84-.06-1.25.47-1.86,4.25-8.11,5.87-9.21,3.34-2.29,1.44,1.46.62,2.98-1.4,2.6-3.3,5.97-4.82,8.46-.79,1.29-2.06,1.67-1.86,3.74l-1.04.29Z"/>
        <path class="cls-1" d="M64.58,310.66c-.14.12-.94.36-1.1.25-1.41-.95,2.84-6.22,2.36-7.84l-3.59,5.7-2.46,2.86c-.73.13-.44-.54-.37-.96.2-1.15,1.3-3.86,2.13-4.66,1.7-1.63,4.6-3.27,5.89-5.33.54-.87.15-2.12,2.05-1.71.52.26.48.36.36.86-.4,1.56-2.32,3.92-3.08,5.48-.5,1.03-1.64,4.89-2.18,5.34Z"/>
        <path class="cls-1" d="M125.76,220.12l1.04.29c-.15,2.19,1.4,3.23,2.27,4.82.71,1.32,1.35,3.15,2.18,4.32.82,1.15,5.08,3.94,3.08,5.2-.45.28-2.51-.58-2.95-.91-2.15-1.59-2.13-4.89-3.31-6.72-.5-.77-1.43-.85-1.86-1.98-.56-1.46-.78-3.51-.44-5.02Z"/>
        <path class="cls-1" d="M74.65,322.79c-.28.17-.78.01-1.13.05-.02-.52-.04-1.04.07-1.55.47-2.27,5.76-12.73,7.41-14.28.61-.57,2.16-1.57,2.28-.25.09,1-5.63,9.38-6.56,11.16-.44.84-1.84,4.73-2.07,4.87Z"/>
        <path class="cls-1" d="M131.37,254.36c-.87.88-.3-1.13-.32-1.29-.5-4.33-1.03-6.38-.92-10.96.04-1.75-1.04-3.23,1.09-4.57,1.64,1.34.93,3.82,1.04,5.75.03.58.3,1.14.3,1.76.02,1.43-.44,8.54-1.2,9.31Z"/>
        <path class="cls-1" d="M127.24,228.39l.75,13.29-.88.3c-2.12-2.79-2.98-7.81-1.99-11.15.14-.46,1.43-3.19,2.13-2.44Z"/>
        <path class="cls-1" d="M159.86,275.39l5.23,7.97c.32.59.47,3.02-.22,3.17-.64-.13-1.05-1-1.44-1.51-1.11-1.46-3.9-4.94-4.57-6.35-.27-.56-.78-1.7-.6-2.27l1.6-1.01Z"/>
        <path class="cls-1" d="M59.23,321.39c1.37-.42,1.03,1.95.97,2.74-.16,1.91-1.35,8.79-1.93,10.47-.2.57-.64,1.46-1.42,1.23-1.36-.41.5-6.13.7-7.26.21-1.22.36-6.78,1.68-7.18Z"/>
        <path class="cls-1" d="M70.3,317.79c-1.16-1.86,4.85-9.66,5.57-11.85,3.84-1.81-.07,3.25-.73,4.5s-3.16,7.2-3.97,7.54l-.86-.19Z"/>
        <path class="cls-1" d="M116.61,231.04c1.15-2.03,2.44-3.97,3.59-6,.55-.96,1.83-4.18,2.44-4.65.36-.28.63-.4,1.05-.13l.47.77c-.92,1.74-1.6,4.04-2.58,5.68-.37.63-3.61,4.5-3.98,4.57-.33.05-.65-.28-.99-.24Z"/>
        <path class="cls-1" d="M78.54,324.31c-.83-1.92,2.01-10.07,3.54-10.77.33-.15.64-.23,1-.13l.43.66c-.71,1.82-1.62,3.54-2.33,5.36-.27.69-1.22,5.85-2.64,4.88Z"/>
        <path class="cls-1" d="M138.54,235.68c.4.51,6.06,3.58,2.73,3.94-1.7.18-3.13-.81-4.15-2.08-.71-.9-2.44-3.96-.31-3.84,1.52.09,1.2,1.29,1.74,1.98Z"/>
        <path class="cls-1" d="M87.88,314.02c1.79-.15-.71,3.39-.99,4.03-.71,1.61-1,3.51-2.3,4.78-.98,0,.1-4.4.3-5,.34-.99,1.89-3.72,2.99-3.81Z"/>
        <path class="cls-1" d="M54.93,325.79c-.28-2.6-.25-5.23,1.17-7.54.86-1.4,1.53-.2,1.43.82-.06.7-1.25,5.19-1.56,5.83-.22.46-.38.99-1.03.88Z"/>
        <path class="cls-1" d="M88.57,323.13c-.77-.78,1.41-6.71,3.39-6.49,1.11.31-.79,3.48-1.17,4.14-.29.49-1.52,3.06-2.22,2.35Z"/>
        <path class="cls-1" d="M54.33,352.21c-.18,1.11-1.7.85-2.09.25-.63-.99.19-5.42,1.35-5.42l.74.45c-.16,1.46.23,3.33,0,4.72Z"/>
        <path class="cls-1" d="M61.09,318.37h-.96c-.31-.13-.46-.27-.43-.64.06-.88,1.98-5.15,3.05-4.93.44.09.39.53.32.9-.28,1.55-1.41,3.21-1.97,4.67Z"/>
        <path class="cls-1" d="M51.09,358.55c-.43-1.51-.5-3.2.02-4.7.63-.43,2.73.84,2.61,1.56l-2.63,3.14Z"/>
        <path class="cls-1" d="M53.18,339.93c-.47-.31-.11-3.54,0-4.22.05-.31.18-1.31.71-1.06,1.21.58,1.46,6.74-.71,5.28Z"/>
        <path class="cls-1" d="M103.92,330.51c-.21-1.74.13-3.37,1.88-4.11,2.02.67-1.24,4.82-1.88,4.11Z"/>
        <path class="cls-1" d="M55.81,328.15c.6.39-.88,4.99-1.62,5.01-.92.03.19-4.3.59-4.72.26-.27.79-.45,1.03-.29Z"/>
        <path class="cls-1" d="M49.31,362.39c-.42.07-.41-.52-.5-.82-.25-.89-.99-3.94-.95-4.66.05-.84,1.16-1.59,1.44-.26.37,1.82-.04,3.9,0,5.74Z"/>
        <path class="cls-1" d="M56.7,316.94c-.3-.78.59-4.08,1.62-3.84,1.3,1.35.41,4.1-1.62,3.84Z"/>
        <path class="cls-1" d="M56.69,347.04c-1.01.72-2.12-3.91-.44-4.42,1.27.97.75,3.04.44,4.42Z"/>
        <path class="cls-1" d="M130.05,306.31c1.32-.42,1.74,3.27.88,3.54-1.58.33-1.71-3.27-.88-3.54Z"/>
        <path class="cls-1" d="M51.38,352.94c-.93.26-.47-.89-1.33-.89-.81,0-.45,1.2-1.47.89l-.45-1.77,2.51-.58.73,2.35Z"/>
        <path class="cls-1" d="M172.4,291.25c-1.71.15-2.47-1.84-2.65-3.24,1.19-.46,3.08,2.8,2.65,3.24Z"/>
        <path class="cls-1" d="M64.37,299.23c.25,1.51-.52,3.15-2.06,3.54-.25-1.51.52-3.15,2.06-3.54Z"/>
        <path class="cls-1" d="M124.8,216.65c.5.49.31,1.39.05,1.97-3.24.24-1.96-3.86-.05-1.97Z"/>
        <path class="cls-1" d="M56.4,353.24c-.76.12-.46-.08-.61-.42-.35-.74-1.2-3.5.18-3.34,1.34.81.57,2.52.43,3.76Z"/>
        <path class="cls-1" d="M56.99,338.48c.7,1.87.01,3-2.06,2.65-.3-.26,1.42-3.12,2.06-2.65Z"/>
        <path class="cls-1" d="M128.72,313.69c-.65-1.7-.17-2.42,1.47-2.95.64.72-.86,3.4-1.47,2.95Z"/>
        <circle class="cls-1" cx="118.46" cy="204.24" r=".9"/>
        <path class="cls-1" d="M159.11,245.5c-1.73.03-3.9-1.31-3.54-3.24,1-.35,4.02,2.83,3.54,3.24Z"/>
        <path class="cls-1" d="M141.27,16.3c.85.07,1.36.87.88,1.64-.85,1.37-7.2,1.55-7.54.14-.28-1.2,5.76-1.85,6.65-1.78Z"/>
        <path class="cls-1" d="M203.67,15.89c.68,1.07-2.37,2.25-2.57.42.14-.99,2.34-.78,2.57-.42Z"/>
        <g>
          <path class="cls-1" d="M82.61,391.4c2.83-.24,5.85-.17,8.63.34,1.05.19,2.5.97,3.37,1,1.02.03,2.76-.46,3.86-.47,2.04-.01,8.17.57,10.01,1.12,1.6.48.35,1.11-.52,1.51-3.03,1.39-6.45-.35-9.5-.37-2.12-.02-3.07,1.13-5.53.24-2.87-1.04-3.06-.6-5.99-.8s-5.64-.68-8.49-.66l-.79-.68c0-.72,4.2-1.18,4.95-1.24Z"/>
          <path class="cls-1" d="M52.27,398.99l7.25.76c.38-.06.98-1.02,1.47-.98.8.07,2.95,2.63,1.45,3.43-1.97.05-3.78-1.26-5.58-1.44-3.1-.31-4.79.78-8.35-.21-.49-.14-1.23,0-1.56-.21-.38-.25-.2-1.17-.42-1.64-.69-1.43-8.18-1.87-6.61-4.11.53-.76,6.23.82,7.49.87,3.24.13,5.23-1.75,4.88,3.53Z"/>
          <path class="cls-1" d="M72.63,399.29c-.63,0-1.26.04-1.89-.03-3.4-.41-7.62-1.78-11.03-1.96-1.17-.06-2.22.36-3.68.14-1.75-.26-4.92-2.34-2.04-2.71,3.76-.49,13.33.77,17.25,1.67,1.54.35,1.5,1.56,1.39,2.89Z"/>
          <path class="cls-1" d="M63.1,403.21c2.3,1.83-2.43,2.56-3.6,2.59-1.74.03-3.37-.68-5.06-.87-2.55-.29-5.35.06-7.8-1.09l.15-1.32c.6-.87,3.94.58,5.05.62.86.03,1.55-.32,2.33-.32,1.59,0,8.09-.27,8.93.4Z"/>
          <path class="cls-1" d="M85.33,398.7l-.58,1c.12.74,1.9.93,2.01,1.11.13.2,0,.81.12,1.19.25.78,1.1,1.86-.38,2.46-.28.11-5.07-.19-6.06-.16-1.2.03-6.31.84-6.62-.14-.41-1.31,3.97-1.8,4.91-1.88,1.84-.16,3.77-.13,5.56.26l.31-.59-1.28-1.03c.8-.69.2-1.33.24-2.22h1.77Z"/>
          <path class="cls-1" d="M95.6,405.28c2.11-.19,5.16-.6,6.55,1.24,0,.49-4.41,1-5.15,1.05-2.37.15-5.94.18-8.29,0-.53-.04-.96.08-1.31-.46.28-.4.73-.48,1.16-.6,1.74-.49,5.21-1.06,7.04-1.23Z"/>
          <path class="cls-1" d="M76.47,400.47c.15.23.02.78-.3,1.02-.97.72-8.34.73-9.98.55-.6-.2-1.14-.45-1.25-1.14-.03-.18.84-1.12.91-1.15.72-.37,10.33.28,10.62.72Z"/>
          <path class="cls-1" d="M103.33,403.71c-.19.44-2.48.91-3.08.89-1.51-.04-2.52-.89-3.62-1.12-.72-.15-2.45.31-2.44-.5.57-1.39,4.16-1.11,5.45-1.03,1.17.07,4.43.12,3.69,1.77.03-.08.7-.66.63-1.14,1.63-.13,3.46.11,2.85,2.11-.39,1.28-2.76.82-3.77.49-.12-.18.18-1.17.29-1.46Z"/>
          <path class="cls-1" d="M77.06,393.09l-4.53-.56c-.64.18-.8,2.05-1.81,2.05-.54,0-2.92-2.35-2.51-2.96,2.82-1.05,5.09,1.27,7.79-.57l1.06,2.04Z"/>
          <path class="cls-1" d="M99.43,388.75c1.3-.1,4-.3,4.49,1.23-.2.9-5.73,1.28-6.59.99-.66-.22-.9-1.28-.36-1.73.39-.32,1.87-.45,2.46-.5Z"/>
          <path class="cls-1" d="M80.94,388.33c-.12-.19,0-.58-.04-.85,1.17.34,7.14-.22,6.79,1.32-.74,1.6-6.29.26-6.75-.47Z"/>
          <path class="cls-1" d="M66.39,387.52l.28.95c-.56,1.19-1.84.89-2.6.04.19-1.11,1.42-1.17,2.32-.98Z"/>
          <path class="cls-1" d="M108.36,360.91c-.08-.41-.02-.78.15-1.16.42-.93,2.42-3.52,3.19-4.34,1.18-1.25,4.64-4.59,6-5.36.41-.23,2.29-1.18,2.61-.64.24.61-.4,1.46-.74,1.92-1.18,1.59-3.68,3.2-5.17,4.87-1.69,1.89-2.98,5.42-6.04,4.72Z"/>
          <path class="cls-1" d="M132.55,351.18c.15.62-.16.79-.43,1.19-1.56,2.29-3.98,4.31-5.47,6.63-.74,1.15-2.06,4.76-2.63,5.27-.8.73-1.23-.25-1.14-1.06.12-1.12,1.29-3.28,1.88-4.33,1.17-2.05,3.81-3.78-.76-2.68l-.29-.74c0-.78,3.8-.79,4.33-.95,1.77-.53,2.32-3.43,4.52-3.33Z"/>
          <path class="cls-1" d="M135.5,352.06c-.27,2.6-3.04,3.98-4.48,6.29-.9,1.45-2.07,5.26-2.76,6.1-.34.41-.54.34-1.02.31.08-4.6,3.43-11.63,8.26-12.69Z"/>
          <path class="cls-1" d="M97.72,348.22c.1,1.59-1.23,2.99-2.21,4.13-.43.5-4.4,4.66-4.87,4.13-1.13-2.18,5.84-9.5,7.08-8.26Z"/>
          <path class="cls-1" d="M95.06,359.73c-.7.08-.9-.4-.9-1.02,0-1.5,3.14-7.67,4.45-8.27,1.02-.47,1.61-.06,1.34,1.04-.6,2.44-4.1,5.67-4.89,8.26Z"/>
          <path class="cls-1" d="M140.15,353.88c.98-.15,1.19.63.82,1.43l-4.72,5.6c-1.78-2.3,1.66-6.69,3.91-7.03Z"/>
          <path class="cls-1" d="M103.62,354.13c.05.51.04.97-.16,1.46-.1.24-2.97,3.89-3.17,4.05-.4.33-.89.42-1.39.39-1.02-1.07,2.7-6.63,4.72-5.9Z"/>
          <path class="cls-1" d="M124.88,343.5c.28,1.67-.72,3.8-2.67,3.11-.98-1.64,1.15-3.1,2.67-3.11Z"/>
          <path class="cls-1" d="M129.6,347.04c.4.96-1.88,3.35-2.51,2.37-.84-1.3,1.52-2.44,2.51-2.37Z"/>
          <path class="cls-1" d="M111.59,348.22c.29.69-.95,2.8-1.62,2.65-1.24-.27.92-2.71,1.62-2.65Z"/>
          <path class="cls-1" d="M140.52,332.29c.39.41-1.03,4.14-2.21,4.13-1.34-.29.44-4.78,2.21-4.13Z"/>
        </g>
      </g>
    </g>
  </g>
</svg>